%FSLAX44Y44*%
%MOMM*%
G71*
G01*
G75*
G04 Layer_Color=2752767*
%ADD10R,0.8000X0.8000*%
%ADD11O,2.0000X0.3500*%
%ADD12R,0.6502X1.0008*%
%ADD13R,1.2000X1.4000*%
%ADD14R,0.5000X0.6000*%
%ADD15R,2.0320X0.6096*%
%ADD16O,2.0320X0.6096*%
%ADD17R,2.6200X3.5100*%
%ADD18R,2.0000X0.6000*%
%ADD19O,2.0000X0.6000*%
%ADD20R,0.5004X2.0000*%
%ADD21R,0.6000X0.5000*%
G04:AMPARAMS|DCode=22|XSize=1.2mm|YSize=2.5mm|CornerRadius=0mm|HoleSize=0mm|Usage=FLASHONLY|Rotation=90.000|XOffset=0mm|YOffset=0mm|HoleType=Round|Shape=RoundedRectangle|*
%AMROUNDEDRECTD22*
21,1,1.2000,2.5000,0,0,90.0*
21,1,1.2000,2.5000,0,0,90.0*
1,1,0.0000,1.2500,0.6000*
1,1,0.0000,1.2500,-0.6000*
1,1,0.0000,-1.2500,-0.6000*
1,1,0.0000,-1.2500,0.6000*
%
%ADD22ROUNDEDRECTD22*%
%ADD23R,0.8128X0.8128*%
%ADD24R,1.5500X0.2500*%
%ADD25R,0.2500X1.5500*%
%ADD26R,3.4200X3.4200*%
%ADD27R,1.3970X1.3970*%
%ADD28R,1.2000X1.6000*%
%ADD29R,1.3970X1.3970*%
%ADD30R,1.6002X1.2954*%
%ADD31R,2.2000X2.0000*%
%ADD32R,1.9000X5.3000*%
%ADD33R,0.6096X2.0320*%
%ADD34O,0.6096X2.0320*%
%ADD35R,0.8128X1.0668*%
%ADD36R,0.8890X1.0160*%
%ADD37C,0.2540*%
%ADD38C,0.2000*%
%ADD39C,0.8000*%
%ADD40C,0.4000*%
%ADD41C,0.3000*%
%ADD42C,0.6000*%
%ADD43C,1.6000*%
%ADD44C,0.2560*%
%ADD45C,2.8000*%
%ADD46C,1.0000*%
%ADD47R,1.0000X1.0000*%
%ADD48R,1.0000X1.0000*%
%ADD49C,1.6500*%
%ADD50C,1.5240*%
G04:AMPARAMS|DCode=51|XSize=4mm|YSize=4mm|CornerRadius=2mm|HoleSize=0mm|Usage=FLASHONLY|Rotation=0.000|XOffset=0mm|YOffset=0mm|HoleType=Round|Shape=RoundedRectangle|*
%AMROUNDEDRECTD51*
21,1,4.0000,0.0000,0,0,0.0*
21,1,0.0000,4.0000,0,0,0.0*
1,1,4.0000,0.0000,0.0000*
1,1,4.0000,0.0000,0.0000*
1,1,4.0000,0.0000,0.0000*
1,1,4.0000,0.0000,0.0000*
%
%ADD51ROUNDEDRECTD51*%
%ADD52C,2.0000*%
%ADD53C,0.5000*%
%ADD54C,1.0000*%
%ADD55R,7.6776X7.7723*%
G04:AMPARAMS|DCode=56|XSize=2mm|YSize=2mm|CornerRadius=0mm|HoleSize=0mm|Usage=FLASHONLY|Rotation=270.000|XOffset=0mm|YOffset=0mm|HoleType=Round|Shape=RoundedRectangle|*
%AMROUNDEDRECTD56*
21,1,2.0000,2.0000,0,0,270.0*
21,1,2.0000,2.0000,0,0,270.0*
1,1,0.0000,-1.0000,-1.0000*
1,1,0.0000,-1.0000,1.0000*
1,1,0.0000,1.0000,1.0000*
1,1,0.0000,1.0000,-1.0000*
%
%ADD56ROUNDEDRECTD56*%
%ADD57R,1.6000X1.2000*%
%ADD58R,0.2000X0.6000*%
%ADD59R,0.6000X0.2000*%
%ADD60R,1.4000X2.2000*%
%ADD61R,3.5100X2.6200*%
G04:AMPARAMS|DCode=62|XSize=1.2mm|YSize=2.5mm|CornerRadius=0mm|HoleSize=0mm|Usage=FLASHONLY|Rotation=0.000|XOffset=0mm|YOffset=0mm|HoleType=Round|Shape=RoundedRectangle|*
%AMROUNDEDRECTD62*
21,1,1.2000,2.5000,0,0,0.0*
21,1,1.2000,2.5000,0,0,0.0*
1,1,0.0000,0.6000,-1.2500*
1,1,0.0000,-0.6000,-1.2500*
1,1,0.0000,-0.6000,1.2500*
1,1,0.0000,0.6000,1.2500*
%
%ADD62ROUNDEDRECTD62*%
%ADD63R,1.0668X0.8128*%
%ADD64R,1.2000X1.2000*%
%ADD65R,0.8128X0.8128*%
%ADD66C,0.1200*%
%ADD67C,0.1999*%
%ADD68C,0.2032*%
%ADD69C,0.1250*%
%ADD70C,0.1524*%
%ADD71C,0.1000*%
%ADD72R,0.9016X0.9016*%
%ADD73O,2.2032X0.5532*%
%ADD74R,0.8534X1.2040*%
%ADD75R,1.4032X1.6032*%
%ADD76R,0.7032X0.8032*%
%ADD77R,2.2352X0.8128*%
%ADD78O,2.2352X0.8128*%
%ADD79R,2.8232X3.7132*%
%ADD80R,2.2032X0.8032*%
%ADD81O,2.2032X0.8032*%
%ADD82R,0.6020X2.1016*%
%ADD83R,0.8032X0.7032*%
G04:AMPARAMS|DCode=84|XSize=1.4032mm|YSize=2.7032mm|CornerRadius=0mm|HoleSize=0mm|Usage=FLASHONLY|Rotation=90.000|XOffset=0mm|YOffset=0mm|HoleType=Round|Shape=RoundedRectangle|*
%AMROUNDEDRECTD84*
21,1,1.4032,2.7032,0,0,90.0*
21,1,1.4032,2.7032,0,0,90.0*
1,1,0.0000,1.3516,0.7016*
1,1,0.0000,1.3516,-0.7016*
1,1,0.0000,-1.3516,-0.7016*
1,1,0.0000,-1.3516,0.7016*
%
%ADD84ROUNDEDRECTD84*%
%ADD85R,1.0160X1.0160*%
%ADD86R,1.7532X0.4532*%
%ADD87R,0.4532X1.7532*%
%ADD88R,8.2200X8.2200*%
%ADD89R,1.6002X1.6002*%
%ADD90R,1.4032X1.8032*%
%ADD91R,1.6002X1.6002*%
%ADD92R,1.8034X1.4986*%
%ADD93R,2.4032X2.2032*%
%ADD94R,2.1032X5.5032*%
%ADD95R,0.8128X2.2352*%
%ADD96O,0.8128X2.2352*%
%ADD97R,1.0160X1.2700*%
%ADD98R,1.0922X1.2192*%
%ADD99C,3.0032*%
%ADD100C,1.2032*%
%ADD101R,1.2032X1.2032*%
%ADD102R,1.2032X1.2032*%
%ADD103C,1.7500*%
%ADD104C,1.6240*%
G04:AMPARAMS|DCode=105|XSize=4.2032mm|YSize=4.2032mm|CornerRadius=2.1016mm|HoleSize=0mm|Usage=FLASHONLY|Rotation=0.000|XOffset=0mm|YOffset=0mm|HoleType=Round|Shape=RoundedRectangle|*
%AMROUNDEDRECTD105*
21,1,4.2032,0.0000,0,0,0.0*
21,1,0.0000,4.2032,0,0,0.0*
1,1,4.2032,0.0000,0.0000*
1,1,4.2032,0.0000,0.0000*
1,1,4.2032,0.0000,0.0000*
1,1,4.2032,0.0000,0.0000*
%
%ADD105ROUNDEDRECTD105*%
%ADD106C,2.2032*%
%ADD107C,0.7032*%
G04:AMPARAMS|DCode=108|XSize=2.2032mm|YSize=2.2032mm|CornerRadius=0mm|HoleSize=0mm|Usage=FLASHONLY|Rotation=270.000|XOffset=0mm|YOffset=0mm|HoleType=Round|Shape=RoundedRectangle|*
%AMROUNDEDRECTD108*
21,1,2.2032,2.2032,0,0,270.0*
21,1,2.2032,2.2032,0,0,270.0*
1,1,0.0000,-1.1016,-1.1016*
1,1,0.0000,-1.1016,1.1016*
1,1,0.0000,1.1016,1.1016*
1,1,0.0000,1.1016,-1.1016*
%
%ADD108ROUNDEDRECTD108*%
%ADD109R,1.8032X1.4032*%
%ADD110R,0.4032X0.8032*%
%ADD111R,0.8032X0.4032*%
%ADD112R,1.6032X2.4032*%
%ADD113R,3.7132X2.8232*%
G04:AMPARAMS|DCode=114|XSize=1.4032mm|YSize=2.7032mm|CornerRadius=0mm|HoleSize=0mm|Usage=FLASHONLY|Rotation=0.000|XOffset=0mm|YOffset=0mm|HoleType=Round|Shape=RoundedRectangle|*
%AMROUNDEDRECTD114*
21,1,1.4032,2.7032,0,0,0.0*
21,1,1.4032,2.7032,0,0,0.0*
1,1,0.0000,0.7016,-1.3516*
1,1,0.0000,-0.7016,-1.3516*
1,1,0.0000,-0.7016,1.3516*
1,1,0.0000,0.7016,1.3516*
%
%ADD114ROUNDEDRECTD114*%
%ADD115R,1.2700X1.0160*%
%ADD116R,1.4032X1.4032*%
%ADD117R,1.0160X1.0160*%
%ADD118C,0.1270*%
%ADD119C,0.1693*%
D118*
X281940Y754380D02*
Y764540D01*
X292100D01*
Y754380D01*
X281940D01*
X320040D02*
Y764540D01*
X330200D01*
Y754380D01*
X320040D01*
X469900D02*
Y764540D01*
X480060D01*
Y754380D01*
X469900D01*
X431800D02*
Y764540D01*
X441960D01*
Y754380D01*
X431800D01*
X393700D02*
Y764540D01*
X403860D01*
Y754380D01*
X393700D01*
X155068Y678281D02*
X149988Y688441D01*
X160148D01*
X155068Y678281D01*
X155069Y578281D02*
X149989Y588441D01*
X160149D01*
X155069Y578281D01*
X155069Y478281D02*
X149989Y488441D01*
X160149D01*
X155069Y478281D01*
X155070Y450283D02*
X157610Y452823D01*
X160150D01*
X157610Y455363D01*
X160150Y457903D01*
X157610D01*
X155070Y460443D01*
X152530Y457903D01*
X149990D01*
X152530Y455363D01*
X149990Y452823D01*
X152530D01*
X155070Y450283D01*
X155070Y403283D02*
X157610Y405823D01*
X160150D01*
X157610Y408363D01*
X160150Y410903D01*
X157610D01*
X155070Y413443D01*
X152530Y410903D01*
X149990D01*
X152530Y408363D01*
X149990Y405823D01*
X152530D01*
X155070Y403283D01*
X149989Y378281D02*
X152529Y383361D01*
X149989Y388441D01*
X155069Y385901D01*
X160149Y388441D01*
X157609Y383361D01*
X160149Y378281D01*
X155069Y380821D01*
X149989Y378281D01*
X155070Y353283D02*
X157610Y355823D01*
X160150D01*
X157610Y358363D01*
X160150Y360903D01*
X157610D01*
X155070Y363443D01*
X152530Y360903D01*
X149990D01*
X152530Y358363D01*
X149990Y355823D01*
X152530D01*
X155070Y353283D01*
X131771Y307283D02*
X134312Y309823D01*
X136852D01*
X134312Y312363D01*
X136852Y314903D01*
X134312D01*
X131771Y317443D01*
X129232Y314903D01*
X126692D01*
X129232Y312363D01*
X126692Y309823D01*
X129232D01*
X131771Y307283D01*
X83771Y307284D02*
X86311Y309824D01*
X88851D01*
X86311Y312364D01*
X88851Y314904D01*
X86311D01*
X83771Y317444D01*
X81231Y314904D01*
X78691D01*
X81231Y312364D01*
X78691Y309824D01*
X81231D01*
X83771Y307284D01*
X35770Y307285D02*
X38310Y309825D01*
X40850D01*
X38310Y312365D01*
X40850Y314905D01*
X38310D01*
X35770Y317445D01*
X33230Y314905D01*
X30690D01*
X33230Y312365D01*
X30690Y309825D01*
X33230D01*
X35770Y307285D01*
X12570Y328280D02*
X7490Y338441D01*
X17650D01*
X12570Y328280D01*
X12571Y353282D02*
X15111Y355822D01*
X17651D01*
X15111Y358362D01*
X17651Y360902D01*
X15111D01*
X12571Y363442D01*
X10031Y360902D01*
X7491D01*
X10031Y358362D01*
X7491Y355822D01*
X10031D01*
X12571Y353282D01*
Y403282D02*
X15111Y405822D01*
X17651D01*
X15111Y408362D01*
X17651Y410902D01*
X15111D01*
X12571Y413442D01*
X10031Y410902D01*
X7491D01*
X10031Y408362D01*
X7491Y405822D01*
X10031D01*
X12571Y403282D01*
X12570Y428280D02*
X7490Y438440D01*
X17650D01*
X12570Y428280D01*
X12571Y450282D02*
X15111Y452822D01*
X17651D01*
X15111Y455362D01*
X17651Y457902D01*
X15111D01*
X12571Y460442D01*
X10031Y457902D01*
X7491D01*
X10031Y455362D01*
X7491Y452822D01*
X10031D01*
X12571Y450282D01*
X12570Y528280D02*
X7490Y538440D01*
X17650D01*
X12570Y528280D01*
X12570Y628280D02*
X7490Y638440D01*
X17650D01*
X12570Y628280D01*
X69267Y678282D02*
X64187Y688442D01*
X74347D01*
X69267Y678282D01*
X44269Y478281D02*
X39189Y488441D01*
X49349D01*
X44269Y478281D01*
X98269Y478281D02*
X93189Y488441D01*
X103349D01*
X98269Y478281D01*
X187325Y699770D02*
Y697230D01*
X192405D01*
Y699770D01*
X194945D01*
Y704850D01*
X192405D01*
Y707390D01*
X187325D01*
Y704850D01*
X184785D01*
Y699770D01*
X187325D01*
X474980Y212090D02*
Y209550D01*
X480060D01*
Y212090D01*
X482600D01*
Y217170D01*
X480060D01*
Y219710D01*
X474980D01*
Y217170D01*
X472440D01*
Y212090D01*
X474980D01*
X22730Y271780D02*
Y269240D01*
X27810D01*
Y271780D01*
X30350D01*
Y276860D01*
X27810D01*
Y279400D01*
X22730D01*
Y276860D01*
X20190D01*
Y271780D01*
X22730D01*
X470540Y699770D02*
Y697230D01*
X475620D01*
Y699770D01*
X478160D01*
Y704850D01*
X475620D01*
Y707390D01*
X470540D01*
Y704850D01*
X468000D01*
Y699770D01*
X470540D01*
X187325Y430820D02*
Y428280D01*
X192405D01*
Y430820D01*
X194945D01*
Y435900D01*
X192405D01*
Y438440D01*
X187325D01*
Y435900D01*
X184785D01*
Y430820D01*
X187325D01*
X187960Y754380D02*
Y764540D01*
X198120D01*
Y754380D01*
X187960D01*
X226060D02*
Y764540D01*
X236220D01*
Y754380D01*
X226060D01*
X420570Y158150D02*
X423110D01*
X425650Y160690D01*
X428190Y158150D01*
X430730D01*
Y160690D01*
X428190Y163230D01*
X430730Y165770D01*
Y168310D01*
X428190D01*
X425650Y165770D01*
X423110Y168310D01*
X420570D01*
Y165770D01*
X423110Y163230D01*
X420570Y160690D01*
Y158150D01*
X445570D02*
X448110D01*
X450650Y160690D01*
X453190Y158150D01*
X455730D01*
Y160690D01*
X453190Y163230D01*
X455730Y165770D01*
Y168310D01*
X453190D01*
X450650Y165770D01*
X448110Y168310D01*
X445570D01*
Y165770D01*
X448110Y163230D01*
X445570Y160690D01*
Y158150D01*
X470570D02*
X473110D01*
X475650Y160690D01*
X478190Y158150D01*
X480730D01*
Y160690D01*
X478190Y163230D01*
X480730Y165770D01*
Y168310D01*
X478190D01*
X475650Y165770D01*
X473110Y168310D01*
X470570D01*
Y165770D01*
X473110Y163230D01*
X470570Y160690D01*
Y158150D01*
X395570D02*
X398110D01*
X400650Y160690D01*
X403190Y158150D01*
X405730D01*
Y160690D01*
X403190Y163230D01*
X405730Y165770D01*
Y168310D01*
X403190D01*
X400650Y165770D01*
X398110Y168310D01*
X395570D01*
Y165770D01*
X398110Y163230D01*
X395570Y160690D01*
Y158150D01*
Y83150D02*
X398110D01*
X400650Y85690D01*
X403190Y83150D01*
X405730D01*
Y85690D01*
X403190Y88230D01*
X405730Y90770D01*
Y93310D01*
X403190D01*
X400650Y90770D01*
X398110Y93310D01*
X395570D01*
Y90770D01*
X398110Y88230D01*
X395570Y85690D01*
Y83150D01*
X470570D02*
X473110D01*
X475650Y85690D01*
X478190Y83150D01*
X480730D01*
Y85690D01*
X478190Y88230D01*
X480730Y90770D01*
Y93310D01*
X478190D01*
X475650Y90770D01*
X473110Y93310D01*
X470570D01*
Y90770D01*
X473110Y88230D01*
X470570Y85690D01*
Y83150D01*
X445570D02*
X448110D01*
X450650Y85690D01*
X453190Y83150D01*
X455730D01*
Y85690D01*
X453190Y88230D01*
X455730Y90770D01*
Y93310D01*
X453190D01*
X450650Y90770D01*
X448110Y93310D01*
X445570D01*
Y90770D01*
X448110Y88230D01*
X445570Y85690D01*
Y83150D01*
X420570D02*
X423110D01*
X425650Y85690D01*
X428190Y83150D01*
X430730D01*
Y85690D01*
X428190Y88230D01*
X430730Y90770D01*
Y93310D01*
X428190D01*
X425650Y90770D01*
X423110Y93310D01*
X420570D01*
Y90770D01*
X423110Y88230D01*
X420570Y85690D01*
Y83150D01*
X170380D02*
X172920D01*
X175460Y85690D01*
X178000Y83150D01*
X180540D01*
Y85690D01*
X178000Y88230D01*
X180540Y90770D01*
Y93310D01*
X178000D01*
X175460Y90770D01*
X172920Y93310D01*
X170380D01*
Y90770D01*
X172920Y88230D01*
X170380Y85690D01*
Y83150D01*
X195380D02*
X197920D01*
X200460Y85690D01*
X203000Y83150D01*
X205540D01*
Y85690D01*
X203000Y88230D01*
X205540Y90770D01*
Y93310D01*
X203000D01*
X200460Y90770D01*
X197920Y93310D01*
X195380D01*
Y90770D01*
X197920Y88230D01*
X195380Y85690D01*
Y83150D01*
X220380D02*
X222920D01*
X225460Y85690D01*
X228000Y83150D01*
X230540D01*
Y85690D01*
X228000Y88230D01*
X230540Y90770D01*
Y93310D01*
X228000D01*
X225460Y90770D01*
X222920Y93310D01*
X220380D01*
Y90770D01*
X222920Y88230D01*
X220380Y85690D01*
Y83150D01*
X145380D02*
X147920D01*
X150460Y85690D01*
X153000Y83150D01*
X155540D01*
Y85690D01*
X153000Y88230D01*
X155540Y90770D01*
Y93310D01*
X153000D01*
X150460Y90770D01*
X147920Y93310D01*
X145380D01*
Y90770D01*
X147920Y88230D01*
X145380Y85690D01*
Y83150D01*
Y158150D02*
X147920D01*
X150460Y160690D01*
X153000Y158150D01*
X155540D01*
Y160690D01*
X153000Y163230D01*
X155540Y165770D01*
Y168310D01*
X153000D01*
X150460Y165770D01*
X147920Y168310D01*
X145380D01*
Y165770D01*
X147920Y163230D01*
X145380Y160690D01*
Y158150D01*
X220380D02*
X222920D01*
X225460Y160690D01*
X228000Y158150D01*
X230540D01*
Y160690D01*
X228000Y163230D01*
X230540Y165770D01*
Y168310D01*
X228000D01*
X225460Y165770D01*
X222920Y168310D01*
X220380D01*
Y165770D01*
X222920Y163230D01*
X220380Y160690D01*
Y158150D01*
X195380D02*
X197920D01*
X200460Y160690D01*
X203000Y158150D01*
X205540D01*
Y160690D01*
X203000Y163230D01*
X205540Y165770D01*
Y168310D01*
X203000D01*
X200460Y165770D01*
X197920Y168310D01*
X195380D01*
Y165770D01*
X197920Y163230D01*
X195380Y160690D01*
Y158150D01*
X170380D02*
X172920D01*
X175460Y160690D01*
X178000Y158150D01*
X180540D01*
Y160690D01*
X178000Y163230D01*
X180540Y165770D01*
Y168310D01*
X178000D01*
X175460Y165770D01*
X172920Y168310D01*
X170380D01*
Y165770D01*
X172920Y163230D01*
X170380Y160690D01*
Y158150D01*
X296110D02*
X298650D01*
X301190Y160690D01*
X303730Y158150D01*
X306270D01*
Y160690D01*
X303730Y163230D01*
X306270Y165770D01*
Y168310D01*
X303730D01*
X301190Y165770D01*
X298650Y168310D01*
X296110D01*
Y165770D01*
X298650Y163230D01*
X296110Y160690D01*
Y158150D01*
X321110D02*
X323650D01*
X326190Y160690D01*
X328730Y158150D01*
X331270D01*
Y160690D01*
X328730Y163230D01*
X331270Y165770D01*
Y168310D01*
X328730D01*
X326190Y165770D01*
X323650Y168310D01*
X321110D01*
Y165770D01*
X323650Y163230D01*
X321110Y160690D01*
Y158150D01*
X346110D02*
X348650D01*
X351190Y160690D01*
X353730Y158150D01*
X356270D01*
Y160690D01*
X353730Y163230D01*
X356270Y165770D01*
Y168310D01*
X353730D01*
X351190Y165770D01*
X348650Y168310D01*
X346110D01*
Y165770D01*
X348650Y163230D01*
X346110Y160690D01*
Y158150D01*
X271110D02*
X273650D01*
X276190Y160690D01*
X278730Y158150D01*
X281270D01*
Y160690D01*
X278730Y163230D01*
X281270Y165770D01*
Y168310D01*
X278730D01*
X276190Y165770D01*
X273650Y168310D01*
X271110D01*
Y165770D01*
X273650Y163230D01*
X271110Y160690D01*
Y158150D01*
Y83150D02*
X273650D01*
X276190Y85690D01*
X278730Y83150D01*
X281270D01*
Y85690D01*
X278730Y88230D01*
X281270Y90770D01*
Y93310D01*
X278730D01*
X276190Y90770D01*
X273650Y93310D01*
X271110D01*
Y90770D01*
X273650Y88230D01*
X271110Y85690D01*
Y83150D01*
X346110D02*
X348650D01*
X351190Y85690D01*
X353730Y83150D01*
X356270D01*
Y85690D01*
X353730Y88230D01*
X356270Y90770D01*
Y93310D01*
X353730D01*
X351190Y90770D01*
X348650Y93310D01*
X346110D01*
Y90770D01*
X348650Y88230D01*
X346110Y85690D01*
Y83150D01*
X321110D02*
X323650D01*
X326190Y85690D01*
X328730Y83150D01*
X331270D01*
Y85690D01*
X328730Y88230D01*
X331270Y90770D01*
Y93310D01*
X328730D01*
X326190Y90770D01*
X323650Y93310D01*
X321110D01*
Y90770D01*
X323650Y88230D01*
X321110Y85690D01*
Y83150D01*
X296110D02*
X298650D01*
X301190Y85690D01*
X303730Y83150D01*
X306270D01*
Y85690D01*
X303730Y88230D01*
X306270Y90770D01*
Y93310D01*
X303730D01*
X301190Y90770D01*
X298650Y93310D01*
X296110D01*
Y90770D01*
X298650Y88230D01*
X296110Y85690D01*
Y83150D01*
X45190D02*
X47730D01*
X50270Y85690D01*
X52810Y83150D01*
X55350D01*
Y85690D01*
X52810Y88230D01*
X55350Y90770D01*
Y93310D01*
X52810D01*
X50270Y90770D01*
X47730Y93310D01*
X45190D01*
Y90770D01*
X47730Y88230D01*
X45190Y85690D01*
Y83150D01*
X70190D02*
X72730D01*
X75270Y85690D01*
X77810Y83150D01*
X80350D01*
Y85690D01*
X77810Y88230D01*
X80350Y90770D01*
Y93310D01*
X77810D01*
X75270Y90770D01*
X72730Y93310D01*
X70190D01*
Y90770D01*
X72730Y88230D01*
X70190Y85690D01*
Y83150D01*
X95190D02*
X97730D01*
X100270Y85690D01*
X102810Y83150D01*
X105350D01*
Y85690D01*
X102810Y88230D01*
X105350Y90770D01*
Y93310D01*
X102810D01*
X100270Y90770D01*
X97730Y93310D01*
X95190D01*
Y90770D01*
X97730Y88230D01*
X95190Y85690D01*
Y83150D01*
X20190D02*
X22730D01*
X25270Y85690D01*
X27810Y83150D01*
X30350D01*
Y85690D01*
X27810Y88230D01*
X30350Y90770D01*
Y93310D01*
X27810D01*
X25270Y90770D01*
X22730Y93310D01*
X20190D01*
Y90770D01*
X22730Y88230D01*
X20190Y85690D01*
Y83150D01*
Y158150D02*
X22730D01*
X25270Y160690D01*
X27810Y158150D01*
X30350D01*
Y160690D01*
X27810Y163230D01*
X30350Y165770D01*
Y168310D01*
X27810D01*
X25270Y165770D01*
X22730Y168310D01*
X20190D01*
Y165770D01*
X22730Y163230D01*
X20190Y160690D01*
Y158150D01*
X95190D02*
X97730D01*
X100270Y160690D01*
X102810Y158150D01*
X105350D01*
Y160690D01*
X102810Y163230D01*
X105350Y165770D01*
Y168310D01*
X102810D01*
X100270Y165770D01*
X97730Y168310D01*
X95190D01*
Y165770D01*
X97730Y163230D01*
X95190Y160690D01*
Y158150D01*
X70190D02*
X72730D01*
X75270Y160690D01*
X77810Y158150D01*
X80350D01*
Y160690D01*
X77810Y163230D01*
X80350Y165770D01*
Y168310D01*
X77810D01*
X75270Y165770D01*
X72730Y168310D01*
X70190D01*
Y165770D01*
X72730Y163230D01*
X70190Y160690D01*
Y158150D01*
X45190D02*
X47730D01*
X50270Y160690D01*
X52810Y158150D01*
X55350D01*
Y160690D01*
X52810Y163230D01*
X55350Y165770D01*
Y168310D01*
X52810D01*
X50270Y165770D01*
X47730Y168310D01*
X45190D01*
Y165770D01*
X47730Y163230D01*
X45190Y160690D01*
Y158150D01*
X30740Y376742D02*
X35820Y381822D01*
X40900Y376742D01*
X35820Y371662D01*
X30740Y376742D01*
X126740D02*
X131820Y381822D01*
X136900Y376742D01*
X131820Y371662D01*
X126740Y376742D01*
X76740Y344025D02*
Y354185D01*
X86900D01*
Y344025D01*
X76740D01*
X78772Y346057D02*
Y352153D01*
X84868D01*
Y346057D01*
X78772D01*
X84740Y344025D02*
Y354185D01*
X94900D01*
Y344025D01*
X84740D01*
X86772Y346057D02*
Y352153D01*
X92868D01*
Y346057D01*
X86772D01*
X271780Y375920D02*
Y386080D01*
X281940D01*
Y375920D01*
X271780D01*
X273812Y377952D02*
Y384048D01*
X279908D01*
Y377952D01*
X273812D01*
X284480Y370880D02*
Y381040D01*
X294640D01*
Y370880D01*
X284480D01*
X286512Y372912D02*
Y379008D01*
X292608D01*
Y372912D01*
X286512D01*
X284480Y380880D02*
Y391040D01*
X294640D01*
Y380880D01*
X284480D01*
X286512Y382912D02*
Y389008D01*
X292608D01*
Y382912D01*
X286512D01*
X426380Y183810D02*
Y193969D01*
X436539D01*
Y183810D01*
X426380D01*
X428411Y185842D02*
Y191938D01*
X434507D01*
Y185842D01*
X428411D01*
X439080Y183810D02*
Y193969D01*
X449240D01*
Y183810D01*
X439080D01*
X441111Y185842D02*
Y191938D01*
X447207D01*
Y185842D01*
X441111D01*
X341289Y183810D02*
Y193969D01*
X351450D01*
Y183810D01*
X341289D01*
X343321Y185842D02*
Y191938D01*
X349417D01*
Y185842D01*
X343321D01*
X328590Y183221D02*
Y193381D01*
X338750D01*
Y183221D01*
X328590D01*
X330621Y185252D02*
Y191348D01*
X336717D01*
Y185252D01*
X330621D01*
X62571Y267970D02*
Y278130D01*
X72730D01*
Y267970D01*
X62571D01*
X64602Y270002D02*
Y276098D01*
X70698D01*
Y270002D01*
X64602D01*
X243260Y420370D02*
Y430530D01*
X253420D01*
Y420370D01*
X243260D01*
X245292Y422402D02*
Y428498D01*
X251388D01*
Y422402D01*
X245292D01*
X259770Y420370D02*
Y430530D01*
X269930D01*
Y420370D01*
X259770D01*
X261802Y422402D02*
Y428498D01*
X267898D01*
Y422402D01*
X261802D01*
X275010Y345880D02*
Y356040D01*
X285170D01*
Y345880D01*
X275010D01*
X277042Y347912D02*
Y354008D01*
X283138D01*
Y347912D01*
X277042D01*
X282630Y340880D02*
Y351040D01*
X292790D01*
Y340880D01*
X282630D01*
X284662Y342912D02*
Y349008D01*
X290758D01*
Y342912D01*
X284662D01*
X97450Y645281D02*
Y655441D01*
X107610D01*
Y645281D01*
X97450D01*
X99481Y647312D02*
Y653409D01*
X105577D01*
Y647312D01*
X99481D01*
X466780Y338190D02*
Y348349D01*
X476940D01*
Y338190D01*
X466780D01*
X468812Y340221D02*
Y346317D01*
X474908D01*
Y340221D01*
X468812D01*
X466780Y348190D02*
Y358349D01*
X476940D01*
Y348190D01*
X466780D01*
X468812Y350221D02*
Y356317D01*
X474908D01*
Y350221D01*
X468812D01*
X466780Y358190D02*
Y368349D01*
X476940D01*
Y358190D01*
X466780D01*
X468812Y360221D02*
Y366317D01*
X474908D01*
Y360221D01*
X468812D01*
X466780Y368190D02*
Y378349D01*
X476940D01*
Y368190D01*
X466780D01*
X468812Y370221D02*
Y376317D01*
X474908D01*
Y370221D01*
X468812D01*
X466780Y378390D02*
Y388549D01*
X476940D01*
Y378390D01*
X466780D01*
X468812Y380421D02*
Y386517D01*
X474908D01*
Y380421D01*
X468812D01*
X466780Y388549D02*
Y398709D01*
X476940D01*
Y388549D01*
X466780D01*
X468812Y390582D02*
Y396678D01*
X474908D01*
Y390582D01*
X468812D01*
X466780Y398709D02*
Y408870D01*
X476940D01*
Y398709D01*
X466780D01*
X468812Y400742D02*
Y406838D01*
X474908D01*
Y400742D01*
X468812D01*
X428560Y365880D02*
Y376040D01*
X438720D01*
Y365880D01*
X428560D01*
X430592Y367912D02*
Y374008D01*
X436688D01*
Y367912D01*
X430592D01*
X393400Y390880D02*
Y401040D01*
X403560D01*
Y390880D01*
X393400D01*
X395432Y392912D02*
Y399008D01*
X401528D01*
Y392912D01*
X395432D01*
X601380Y493360D02*
Y503520D01*
X611540D01*
Y493360D01*
X601380D01*
X603412Y495392D02*
Y501488D01*
X609508D01*
Y495392D01*
X603412D01*
X601970Y441290D02*
Y451450D01*
X612130D01*
Y441290D01*
X601970D01*
X604002Y443322D02*
Y449418D01*
X610098D01*
Y443322D01*
X604002D01*
X567478Y520488D02*
Y530648D01*
X577638D01*
Y520488D01*
X567478D01*
X569510Y522520D02*
Y528616D01*
X575606D01*
Y522520D01*
X569510D01*
X661670Y466090D02*
Y476250D01*
X671830D01*
Y466090D01*
X661670D01*
X663702Y468122D02*
Y474218D01*
X669798D01*
Y468122D01*
X663702D01*
X585470Y524510D02*
Y534670D01*
X595630D01*
Y524510D01*
X585470D01*
X587502Y526542D02*
Y532638D01*
X593598D01*
Y526542D01*
X587502D01*
X368790Y445570D02*
Y455730D01*
X378950D01*
Y445570D01*
X368790D01*
X370822Y447602D02*
Y453698D01*
X376918D01*
Y447602D01*
X370822D01*
X285410Y183810D02*
Y193969D01*
X295569D01*
Y183810D01*
X285410D01*
X287442Y185842D02*
Y191938D01*
X293538D01*
Y185842D01*
X287442D01*
X298109Y183810D02*
Y193969D01*
X308270D01*
Y183810D01*
X298109D01*
X300142Y185842D02*
Y191938D01*
X306238D01*
Y185842D01*
X300142D01*
X338790Y337820D02*
Y347980D01*
X348950D01*
Y337820D01*
X338790D01*
X340822Y339852D02*
Y345948D01*
X346918D01*
Y339852D01*
X340822D01*
X297870Y327660D02*
Y337820D01*
X308030D01*
Y327660D01*
X297870D01*
X299902Y329692D02*
Y335788D01*
X305998D01*
Y329692D01*
X299902D01*
X226989Y215080D02*
Y225240D01*
X237150D01*
Y215080D01*
X226989D01*
X229021Y217112D02*
Y223208D01*
X235117D01*
Y217112D01*
X229021D01*
X170520Y274320D02*
Y284480D01*
X180681D01*
Y274320D01*
X170520D01*
X172553Y276352D02*
Y282448D01*
X178648D01*
Y276352D01*
X172553D01*
X239690Y215080D02*
Y225240D01*
X249849D01*
Y215080D01*
X239690D01*
X241721Y217112D02*
Y223208D01*
X247817D01*
Y217112D01*
X241721D01*
X105810Y275790D02*
Y285949D01*
X115970D01*
Y275790D01*
X105810D01*
X107843Y277822D02*
Y283918D01*
X113939D01*
Y277822D01*
X107843D01*
X157821Y280670D02*
Y290830D01*
X167980D01*
Y280670D01*
X157821D01*
X159853Y282702D02*
Y288798D01*
X165949D01*
Y282702D01*
X159853D01*
X323790Y299720D02*
Y309880D01*
X333950D01*
Y299720D01*
X323790D01*
X325822Y301752D02*
Y307848D01*
X331918D01*
Y301752D01*
X325822D01*
X358790Y299482D02*
Y309641D01*
X368950D01*
Y299482D01*
X358790D01*
X360822Y301514D02*
Y307610D01*
X366918D01*
Y301514D01*
X360822D01*
X341289Y285750D02*
Y295910D01*
X351450D01*
Y285750D01*
X341289D01*
X343321Y287782D02*
Y293878D01*
X349417D01*
Y287782D01*
X343321D01*
X147320Y231140D02*
Y241300D01*
X157480D01*
Y231140D01*
X147320D01*
X149352Y233172D02*
Y239268D01*
X155448D01*
Y233172D01*
X149352D01*
X214289Y240959D02*
Y251119D01*
X224450D01*
Y240959D01*
X214289D01*
X216322Y242992D02*
Y249088D01*
X222418D01*
Y242992D01*
X216322D01*
X129540Y236220D02*
Y246380D01*
X139700D01*
Y236220D01*
X129540D01*
X131572Y238252D02*
Y244348D01*
X137668D01*
Y238252D01*
X131572D01*
X127929Y184739D02*
Y194899D01*
X138090D01*
Y184739D01*
X127929D01*
X129962Y186771D02*
Y192867D01*
X136058D01*
Y186771D01*
X129962D01*
X133350Y179070D02*
Y189230D01*
X143510D01*
Y179070D01*
X133350D01*
X135382Y181102D02*
Y187198D01*
X141478D01*
Y181102D01*
X135382D01*
X233680Y363220D02*
Y373380D01*
X243840D01*
Y363220D01*
X233680D01*
X235712Y365252D02*
Y371348D01*
X241808D01*
Y365252D01*
X235712D01*
X328790Y448310D02*
Y458470D01*
X338950D01*
Y448310D01*
X328790D01*
X330822Y450342D02*
Y456438D01*
X336918D01*
Y450342D01*
X330822D01*
X224293Y404523D02*
Y414683D01*
X234453D01*
Y404523D01*
X224293D01*
X226325Y406555D02*
Y412651D01*
X232421D01*
Y406555D01*
X226325D01*
X556970Y183330D02*
Y193490D01*
X567130D01*
Y183330D01*
X556970D01*
X559002Y185362D02*
Y191458D01*
X565098D01*
Y185362D01*
X559002D01*
X551850Y176830D02*
Y186990D01*
X562010D01*
Y176830D01*
X551850D01*
X553882Y178862D02*
Y184958D01*
X559978D01*
Y178862D01*
X553882D01*
X551850Y163830D02*
Y173990D01*
X562010D01*
Y163830D01*
X551850D01*
X553882Y165862D02*
Y171958D01*
X559978D01*
Y165862D01*
X553882D01*
X556970Y170330D02*
Y180490D01*
X567130D01*
Y170330D01*
X556970D01*
X559002Y172362D02*
Y178458D01*
X565098D01*
Y172362D01*
X559002D01*
X551850Y137830D02*
Y147990D01*
X562010D01*
Y137830D01*
X551850D01*
X553882Y139862D02*
Y145958D01*
X559978D01*
Y139862D01*
X553882D01*
X556970Y144330D02*
Y154490D01*
X567130D01*
Y144330D01*
X556970D01*
X559002Y146362D02*
Y152458D01*
X565098D01*
Y146362D01*
X559002D01*
X551850Y124830D02*
Y134990D01*
X562010D01*
Y124830D01*
X551850D01*
X553882Y126862D02*
Y132958D01*
X559978D01*
Y126862D01*
X553882D01*
X556970Y131330D02*
Y141490D01*
X567130D01*
Y131330D01*
X556970D01*
X559002Y133362D02*
Y139458D01*
X565098D01*
Y133362D01*
X559002D01*
X592510Y150830D02*
Y160990D01*
X602670D01*
Y150830D01*
X592510D01*
X594542Y152862D02*
Y158958D01*
X600638D01*
Y152862D01*
X594542D01*
X620210Y131330D02*
Y141490D01*
X630370D01*
Y131330D01*
X620210D01*
X622242Y133362D02*
Y139458D01*
X628338D01*
Y133362D01*
X622242D01*
X323790Y455930D02*
Y466090D01*
X333950D01*
Y455930D01*
X323790D01*
X325822Y457962D02*
Y464058D01*
X331918D01*
Y457962D01*
X325822D01*
X348790Y461010D02*
Y471170D01*
X358950D01*
Y461010D01*
X348790D01*
X350822Y463042D02*
Y469138D01*
X356918D01*
Y463042D01*
X350822D01*
X345440Y472440D02*
Y482600D01*
X355600D01*
Y472440D01*
X345440D01*
X347472Y474472D02*
Y480568D01*
X353568D01*
Y474472D01*
X347472D01*
X333790Y478061D02*
Y488221D01*
X343950D01*
Y478061D01*
X333790D01*
X335822Y480093D02*
Y486189D01*
X341918D01*
Y480093D01*
X335822D01*
X343790Y408050D02*
Y418210D01*
X353950D01*
Y408050D01*
X343790D01*
X345822Y410082D02*
Y416178D01*
X351918D01*
Y410082D01*
X345822D01*
X393790Y408060D02*
Y418220D01*
X403950D01*
Y408060D01*
X393790D01*
X395822Y410092D02*
Y416188D01*
X401918D01*
Y410092D01*
X395822D01*
X313690Y257801D02*
Y267960D01*
X323850D01*
Y257801D01*
X313690D01*
X315722Y259832D02*
Y265928D01*
X321818D01*
Y259832D01*
X315722D01*
X298109Y266360D02*
Y276520D01*
X308270D01*
Y266360D01*
X298109D01*
X300142Y268391D02*
Y274487D01*
X306238D01*
Y268391D01*
X300142D01*
X271120Y310540D02*
Y320700D01*
X281280D01*
Y310540D01*
X271120D01*
X273152Y312572D02*
Y318668D01*
X279248D01*
Y312572D01*
X273152D01*
X240640Y310540D02*
Y320700D01*
X250800D01*
Y310540D01*
X240640D01*
X242672Y312572D02*
Y318668D01*
X248768D01*
Y312572D01*
X242672D01*
X226222Y346042D02*
Y356202D01*
X236382D01*
Y346042D01*
X226222D01*
X228254Y348074D02*
Y354170D01*
X234350D01*
Y348074D01*
X228254D01*
X248920Y361950D02*
Y372110D01*
X259080D01*
Y361950D01*
X248920D01*
X250952Y363982D02*
Y370078D01*
X257048D01*
Y363982D01*
X250952D01*
X239649Y691261D02*
Y701421D01*
X249809D01*
Y691261D01*
X239649D01*
X241681Y693293D02*
Y699389D01*
X247777D01*
Y693293D01*
X241681D01*
X168910Y659475D02*
Y669635D01*
X179070D01*
Y659475D01*
X168910D01*
X170942Y661507D02*
Y667603D01*
X177038D01*
Y661507D01*
X170942D01*
X115570Y734060D02*
Y744220D01*
X125730D01*
Y734060D01*
X115570D01*
X117602Y736092D02*
Y742188D01*
X123698D01*
Y736092D01*
X117602D01*
X56744Y426406D02*
Y436566D01*
X66904D01*
Y426406D01*
X56744D01*
X58776Y428438D02*
Y434534D01*
X64872D01*
Y428438D01*
X58776D01*
X72740Y426406D02*
Y436566D01*
X82900D01*
Y426406D01*
X72740D01*
X74772Y428438D02*
Y434534D01*
X80868D01*
Y428438D01*
X74772D01*
X80740Y426406D02*
Y436566D01*
X90900D01*
Y426406D01*
X80740D01*
X82772Y428438D02*
Y434534D01*
X88868D01*
Y428438D01*
X82772D01*
X88740Y426406D02*
Y436566D01*
X98900D01*
Y426406D01*
X88740D01*
X90772Y428438D02*
Y434534D01*
X96868D01*
Y428438D01*
X90772D01*
X96740Y426406D02*
Y436566D01*
X106900D01*
Y426406D01*
X96740D01*
X98772Y428438D02*
Y434534D01*
X104868D01*
Y428438D01*
X98772D01*
X104740Y426406D02*
Y436566D01*
X114900D01*
Y426406D01*
X104740D01*
X106772Y428438D02*
Y434534D01*
X112868D01*
Y428438D01*
X106772D01*
X223520Y654050D02*
Y664210D01*
X233680D01*
Y654050D01*
X223520D01*
X225552Y656082D02*
Y662178D01*
X231648D01*
Y656082D01*
X225552D01*
X104140Y750216D02*
Y760376D01*
X114300D01*
Y750216D01*
X104140D01*
X106172Y752247D02*
Y758344D01*
X112268D01*
Y752247D01*
X106172D01*
X244919Y660210D02*
Y670369D01*
X255079D01*
Y660210D01*
X244919D01*
X246952Y662242D02*
Y668337D01*
X253048D01*
Y662242D01*
X246952D01*
X251079Y623189D02*
Y633349D01*
X261239D01*
Y623189D01*
X251079D01*
X253111Y625221D02*
Y631317D01*
X259207D01*
Y625221D01*
X253111D01*
X251241Y602199D02*
Y612359D01*
X261401D01*
Y602199D01*
X251241D01*
X253273Y604231D02*
Y610327D01*
X259369D01*
Y604231D01*
X253273D01*
X251079Y580552D02*
Y590712D01*
X261239D01*
Y580552D01*
X251079D01*
X253111Y582584D02*
Y588680D01*
X259207D01*
Y582584D01*
X253111D01*
X269240Y463102D02*
Y473262D01*
X279400D01*
Y463102D01*
X269240D01*
X271272Y465134D02*
Y471230D01*
X277368D01*
Y465134D01*
X271272D01*
X163830Y538480D02*
Y548640D01*
X173990D01*
Y538480D01*
X163830D01*
X165862Y540512D02*
Y546608D01*
X171958D01*
Y540512D01*
X165862D01*
X163830Y528320D02*
Y538480D01*
X173990D01*
Y528320D01*
X163830D01*
X165862Y530352D02*
Y536448D01*
X171958D01*
Y530352D01*
X165862D01*
X163830Y518160D02*
Y528320D01*
X173990D01*
Y518160D01*
X163830D01*
X165862Y520192D02*
Y526288D01*
X171958D01*
Y520192D01*
X165862D01*
X163830Y509270D02*
Y519430D01*
X173990D01*
Y509270D01*
X163830D01*
X165862Y511302D02*
Y517398D01*
X171958D01*
Y511302D01*
X165862D01*
X163830Y500380D02*
Y510540D01*
X173990D01*
Y500380D01*
X163830D01*
X165862Y502412D02*
Y508508D01*
X171958D01*
Y502412D01*
X165862D01*
X275010Y593090D02*
Y603250D01*
X285170D01*
Y593090D01*
X275010D01*
X277042Y595122D02*
Y601218D01*
X283138D01*
Y595122D01*
X277042D01*
X275010Y584200D02*
Y594360D01*
X285170D01*
Y584200D01*
X275010D01*
X277042Y586232D02*
Y592328D01*
X283138D01*
Y586232D01*
X277042D01*
X275010Y575310D02*
Y585470D01*
X285170D01*
Y575310D01*
X275010D01*
X277042Y577342D02*
Y583438D01*
X283138D01*
Y577342D01*
X277042D01*
X275010Y566420D02*
Y576580D01*
X285170D01*
Y566420D01*
X275010D01*
X277042Y568452D02*
Y574548D01*
X283138D01*
Y568452D01*
X277042D01*
X275010Y603031D02*
Y613191D01*
X285170D01*
Y603031D01*
X275010D01*
X277042Y605063D02*
Y611159D01*
X283138D01*
Y605063D01*
X277042D01*
X472440Y434340D02*
Y444500D01*
X482600D01*
Y434340D01*
X472440D01*
X474472Y436372D02*
Y442468D01*
X480568D01*
Y436372D01*
X474472D01*
X471170Y425450D02*
Y435610D01*
X481330D01*
Y425450D01*
X471170D01*
X473202Y427482D02*
Y433578D01*
X479298D01*
Y427482D01*
X473202D01*
X421678Y548602D02*
Y558762D01*
X431838D01*
Y548602D01*
X421678D01*
X423710Y550634D02*
Y556730D01*
X429806D01*
Y550634D01*
X423710D01*
X456620Y548602D02*
Y558762D01*
X466780D01*
Y548602D01*
X456620D01*
X458652Y550634D02*
Y556730D01*
X464748D01*
Y550634D01*
X458652D01*
X314110Y315380D02*
Y325540D01*
X324270D01*
Y315380D01*
X314110D01*
X316142Y317412D02*
Y323508D01*
X322238D01*
Y317412D01*
X316142D01*
X482074Y408257D02*
Y418417D01*
X492234D01*
Y408257D01*
X482074D01*
X484105Y410289D02*
Y416385D01*
X490201D01*
Y410289D01*
X484105D01*
X68239Y237831D02*
Y247990D01*
X78400D01*
Y237831D01*
X68239D01*
X70272Y239862D02*
Y245958D01*
X76368D01*
Y239862D01*
X70272D01*
X118110Y260350D02*
Y270510D01*
X128270D01*
Y260350D01*
X118110D01*
X120142Y262382D02*
Y268478D01*
X126238D01*
Y262382D01*
X120142D01*
X394187Y258400D02*
Y268560D01*
X404347D01*
Y258400D01*
X394187D01*
X396219Y260432D02*
Y266528D01*
X402315D01*
Y260432D01*
X396219D01*
X87971Y237551D02*
Y247710D01*
X98131D01*
Y237551D01*
X87971D01*
X90002Y239583D02*
Y245679D01*
X96098D01*
Y239583D01*
X90002D01*
X194310Y256540D02*
Y266700D01*
X204470D01*
Y256540D01*
X194310D01*
X196342Y258572D02*
Y264668D01*
X202438D01*
Y258572D01*
X196342D01*
X260009Y266700D02*
Y276860D01*
X270170D01*
Y266700D01*
X260009D01*
X262041Y268732D02*
Y274828D01*
X268137D01*
Y268732D01*
X262041D01*
X323850Y467360D02*
Y477520D01*
X334010D01*
Y467360D01*
X323850D01*
X325882Y469392D02*
Y475488D01*
X331978D01*
Y469392D01*
X325882D01*
X314110Y431380D02*
Y441540D01*
X324270D01*
Y431380D01*
X314110D01*
X316142Y433412D02*
Y439508D01*
X322238D01*
Y433412D01*
X316142D01*
X297180Y516890D02*
Y527050D01*
X307340D01*
Y516890D01*
X297180D01*
X299212Y518922D02*
Y525018D01*
X305308D01*
Y518922D01*
X299212D01*
X274320Y501650D02*
Y511810D01*
X284480D01*
Y501650D01*
X274320D01*
X276352Y503682D02*
Y509778D01*
X282448D01*
Y503682D01*
X276352D01*
X284480Y463102D02*
Y473262D01*
X294640D01*
Y463102D01*
X284480D01*
X286512Y465134D02*
Y471230D01*
X292608D01*
Y465134D01*
X286512D01*
X321710Y395880D02*
Y406040D01*
X331870D01*
Y395880D01*
X321710D01*
X323742Y397912D02*
Y404008D01*
X329838D01*
Y397912D01*
X323742D01*
X391680Y340880D02*
Y351040D01*
X401840D01*
Y340880D01*
X391680D01*
X393712Y342912D02*
Y349008D01*
X399808D01*
Y342912D01*
X393712D01*
X378790Y338150D02*
Y348310D01*
X388950D01*
Y338150D01*
X378790D01*
X380822Y340182D02*
Y346278D01*
X386918D01*
Y340182D01*
X380822D01*
X326510Y365880D02*
Y376040D01*
X336670D01*
Y365880D01*
X326510D01*
X328542Y367912D02*
Y374008D01*
X334638D01*
Y367912D01*
X328542D01*
X326510Y350880D02*
Y361040D01*
X336670D01*
Y350880D01*
X326510D01*
X328542Y352912D02*
Y359008D01*
X334638D01*
Y352912D01*
X328542D01*
X233680Y448310D02*
Y458470D01*
X243840D01*
Y448310D01*
X233680D01*
X235712Y450342D02*
Y456438D01*
X241808D01*
Y450342D01*
X235712D01*
X221560Y710620D02*
Y720780D01*
X231720D01*
Y710620D01*
X221560D01*
X223592Y712652D02*
Y718748D01*
X229688D01*
Y712652D01*
X223592D01*
X60960Y711200D02*
Y721360D01*
X71120D01*
Y711200D01*
X60960D01*
X62992Y713232D02*
Y719328D01*
X69088D01*
Y713232D01*
X62992D01*
X68580Y705485D02*
Y715645D01*
X78740D01*
Y705485D01*
X68580D01*
X70612Y707517D02*
Y713613D01*
X76708D01*
Y707517D01*
X70612D01*
X64757Y769050D02*
Y779210D01*
X74917D01*
Y769050D01*
X64757D01*
X66789Y771082D02*
Y777178D01*
X72885D01*
Y771082D01*
X66789D01*
X127000Y758190D02*
Y768350D01*
X137160D01*
Y758190D01*
X127000D01*
X129032Y760222D02*
Y766318D01*
X135128D01*
Y760222D01*
X129032D01*
X239690Y276520D02*
Y286679D01*
X249849D01*
Y276520D01*
X239690D01*
X241721Y278552D02*
Y284648D01*
X247817D01*
Y278552D01*
X241721D01*
X260009Y291171D02*
Y301331D01*
X270170D01*
Y291171D01*
X260009D01*
X262041Y293202D02*
Y299298D01*
X268137D01*
Y293202D01*
X262041D01*
X284481Y294982D02*
Y305142D01*
X294641D01*
Y294982D01*
X284481D01*
X286513Y297014D02*
Y303110D01*
X292609D01*
Y297014D01*
X286513D01*
X226790Y332541D02*
Y342701D01*
X236950D01*
Y332541D01*
X226790D01*
X228822Y334572D02*
Y340668D01*
X234918D01*
Y334572D01*
X228822D01*
X44357Y245110D02*
Y255270D01*
X54517D01*
Y245110D01*
X44357D01*
X46389Y247142D02*
Y253238D01*
X52485D01*
Y247142D01*
X46389D01*
X36830Y224790D02*
Y234950D01*
X46990D01*
Y224790D01*
X36830D01*
X38862Y226822D02*
Y232918D01*
X44958D01*
Y226822D01*
X38862D01*
X106340Y227831D02*
Y237991D01*
X116500D01*
Y227831D01*
X106340D01*
X108371Y229863D02*
Y235959D01*
X114467D01*
Y229863D01*
X108371D01*
X99060Y292100D02*
Y302260D01*
X109220D01*
Y292100D01*
X99060D01*
X101092Y294132D02*
Y300228D01*
X107188D01*
Y294132D01*
X101092D01*
X145120Y270170D02*
Y280329D01*
X155281D01*
Y270170D01*
X145120D01*
X147153Y272201D02*
Y278298D01*
X153249D01*
Y272201D01*
X147153D01*
X205740Y282630D02*
Y292790D01*
X215900D01*
Y282630D01*
X205740D01*
X207772Y284662D02*
Y290758D01*
X213868D01*
Y284662D01*
X207772D01*
X271780Y236220D02*
Y246380D01*
X281940D01*
Y236220D01*
X271780D01*
X273812Y238252D02*
Y244348D01*
X279908D01*
Y238252D01*
X273812D01*
X373380Y270170D02*
Y280329D01*
X383540D01*
Y270170D01*
X373380D01*
X375412Y272201D02*
Y278298D01*
X381508D01*
Y272201D01*
X375412D01*
X410900Y278820D02*
Y288980D01*
X421060D01*
Y278820D01*
X410900D01*
X412932Y280852D02*
Y286948D01*
X419028D01*
Y280852D01*
X412932D01*
X439080Y278470D02*
Y288631D01*
X449240D01*
Y278470D01*
X439080D01*
X441111Y280502D02*
Y286598D01*
X447207D01*
Y280502D01*
X441111D01*
X482600Y259080D02*
Y269240D01*
X492760D01*
Y259080D01*
X482600D01*
X484632Y261112D02*
Y267208D01*
X490728D01*
Y261112D01*
X484632D01*
X359190Y214860D02*
Y225020D01*
X369350D01*
Y214860D01*
X359190D01*
X361222Y216892D02*
Y222988D01*
X367318D01*
Y216892D01*
X361222D01*
X322650Y272470D02*
Y282630D01*
X332811D01*
Y272470D01*
X322650D01*
X324683Y274502D02*
Y280598D01*
X330779D01*
Y274502D01*
X324683D01*
X358830Y337830D02*
Y347990D01*
X368990D01*
Y337830D01*
X358830D01*
X360862Y339861D02*
Y345957D01*
X366958D01*
Y339861D01*
X360862D01*
X391646Y365760D02*
Y375920D01*
X401806D01*
Y365760D01*
X391646D01*
X393678Y367792D02*
Y373888D01*
X399774D01*
Y367792D01*
X393678D01*
X368790Y407089D02*
Y417248D01*
X378950D01*
Y407089D01*
X368790D01*
X370822Y409120D02*
Y415216D01*
X376918D01*
Y409120D01*
X370822D01*
X321710Y408050D02*
Y418210D01*
X331870D01*
Y408050D01*
X321710D01*
X323742Y410082D02*
Y416178D01*
X329838D01*
Y410082D01*
X323742D01*
X302950Y491024D02*
Y501184D01*
X313110D01*
Y491024D01*
X302950D01*
X304982Y493056D02*
Y499152D01*
X311078D01*
Y493056D01*
X304982D01*
X309240Y478790D02*
Y488950D01*
X319400D01*
Y478790D01*
X309240D01*
X311272Y480822D02*
Y486918D01*
X317368D01*
Y480822D01*
X311272D01*
X246946Y514350D02*
Y524510D01*
X257106D01*
Y514350D01*
X246946D01*
X248978Y516382D02*
Y522478D01*
X255074D01*
Y516382D01*
X248978D01*
X246840Y501650D02*
Y511810D01*
X257000D01*
Y501650D01*
X246840D01*
X248872Y503682D02*
Y509778D01*
X254968D01*
Y503682D01*
X248872D01*
X228600Y534670D02*
Y544830D01*
X238760D01*
Y534670D01*
X228600D01*
X230632Y536702D02*
Y542798D01*
X236728D01*
Y536702D01*
X230632D01*
X228600Y509270D02*
Y519430D01*
X238760D01*
Y509270D01*
X228600D01*
X230632Y511302D02*
Y517398D01*
X236728D01*
Y511302D01*
X230632D01*
X191204Y562610D02*
Y572770D01*
X201364D01*
Y562610D01*
X191204D01*
X193236Y564642D02*
Y570738D01*
X199332D01*
Y564642D01*
X193236D01*
X181030Y584780D02*
Y594940D01*
X191190D01*
Y584780D01*
X181030D01*
X183062Y586812D02*
Y592908D01*
X189158D01*
Y586812D01*
X183062D01*
X163250Y619776D02*
Y629936D01*
X173410D01*
Y619776D01*
X163250D01*
X165282Y621808D02*
Y627904D01*
X171378D01*
Y621808D01*
X165282D01*
X195832Y658457D02*
Y668617D01*
X205992D01*
Y658457D01*
X195832D01*
X197864Y660489D02*
Y666585D01*
X203960D01*
Y660489D01*
X197864D01*
X140390Y645666D02*
Y655826D01*
X150550D01*
Y645666D01*
X140390D01*
X142422Y647698D02*
Y653794D01*
X148518D01*
Y647698D01*
X142422D01*
X94205Y610870D02*
Y621030D01*
X104365D01*
Y610870D01*
X94205D01*
X96237Y612902D02*
Y618998D01*
X102333D01*
Y612902D01*
X96237D01*
X113030Y610870D02*
Y621030D01*
X123190D01*
Y610870D01*
X113030D01*
X115062Y612902D02*
Y618998D01*
X121158D01*
Y612902D01*
X115062D01*
X94205Y598954D02*
Y609114D01*
X104365D01*
Y598954D01*
X94205D01*
X96237Y600986D02*
Y607082D01*
X102333D01*
Y600986D01*
X96237D01*
X113030Y598954D02*
Y609114D01*
X123190D01*
Y598954D01*
X113030D01*
X115062Y600986D02*
Y607082D01*
X121158D01*
Y600986D01*
X115062D01*
X40230Y553310D02*
Y563470D01*
X50390D01*
Y553310D01*
X40230D01*
X42262Y555342D02*
Y561438D01*
X48358D01*
Y555342D01*
X42262D01*
X246380Y566420D02*
Y576580D01*
X256540D01*
Y566420D01*
X246380D01*
X248412Y568452D02*
Y574548D01*
X254508D01*
Y568452D01*
X248412D01*
X309585Y650875D02*
Y661035D01*
X319746D01*
Y650875D01*
X309585D01*
X311618Y652907D02*
Y659003D01*
X317714D01*
Y652907D01*
X311618D01*
X311150Y622300D02*
Y632460D01*
X321310D01*
Y622300D01*
X311150D01*
X313182Y624332D02*
Y630428D01*
X319278D01*
Y624332D01*
X313182D01*
X354330Y731520D02*
Y741680D01*
X364490D01*
Y731520D01*
X354330D01*
X356362Y733552D02*
Y739648D01*
X362458D01*
Y733552D01*
X356362D01*
X412317Y707390D02*
Y717550D01*
X422477D01*
Y707390D01*
X412317D01*
X414349Y709422D02*
Y715518D01*
X420445D01*
Y709422D01*
X414349D01*
X412750Y636270D02*
Y646430D01*
X422910D01*
Y636270D01*
X412750D01*
X414782Y638302D02*
Y644398D01*
X420878D01*
Y638302D01*
X414782D01*
X427990Y636270D02*
Y646430D01*
X438150D01*
Y636270D01*
X427990D01*
X430022Y638302D02*
Y644398D01*
X436118D01*
Y638302D01*
X430022D01*
X427990Y617220D02*
Y627380D01*
X438150D01*
Y617220D01*
X427990D01*
X430022Y619252D02*
Y625348D01*
X436118D01*
Y619252D01*
X430022D01*
X412750Y617220D02*
Y627380D01*
X422910D01*
Y617220D01*
X412750D01*
X414782Y619252D02*
Y625348D01*
X420878D01*
Y619252D01*
X414782D01*
X482090Y574550D02*
Y584710D01*
X492250D01*
Y574550D01*
X482090D01*
X484122Y576582D02*
Y582678D01*
X490218D01*
Y576582D01*
X484122D01*
X360680Y547370D02*
Y557530D01*
X370840D01*
Y547370D01*
X360680D01*
X362712Y549402D02*
Y555498D01*
X368808D01*
Y549402D01*
X362712D01*
X330409Y506730D02*
Y516890D01*
X340569D01*
Y506730D01*
X330409D01*
X332440Y508762D02*
Y514858D01*
X338536D01*
Y508762D01*
X332440D01*
X391646Y495186D02*
Y505346D01*
X401806D01*
Y495186D01*
X391646D01*
X393678Y497218D02*
Y503314D01*
X399774D01*
Y497218D01*
X393678D01*
X420313Y510930D02*
Y521090D01*
X430473D01*
Y510930D01*
X420313D01*
X422345Y512962D02*
Y519058D01*
X428441D01*
Y512962D01*
X422345D01*
X454784Y512956D02*
Y523116D01*
X464944D01*
Y512956D01*
X454784D01*
X456816Y514988D02*
Y521084D01*
X462912D01*
Y514988D01*
X456816D01*
X326678Y381000D02*
Y391160D01*
X336838D01*
Y381000D01*
X326678D01*
X328709Y383032D02*
Y389128D01*
X334805D01*
Y383032D01*
X328709D01*
X205156Y365880D02*
Y376040D01*
X215316D01*
Y365880D01*
X205156D01*
X207188Y367912D02*
Y374008D01*
X213284D01*
Y367912D01*
X207188D01*
X177886Y360279D02*
Y370439D01*
X188046D01*
Y360279D01*
X177886D01*
X179918Y362311D02*
Y368407D01*
X186014D01*
Y362311D01*
X179918D01*
X204750Y318770D02*
Y328930D01*
X214909D01*
Y318770D01*
X204750D01*
X206782Y320802D02*
Y326898D01*
X212878D01*
Y320802D01*
X206782D01*
X68740Y344025D02*
Y354185D01*
X78900D01*
Y344025D01*
X68740D01*
X70772Y346057D02*
Y352153D01*
X76868D01*
Y346057D01*
X70772D01*
X92735Y344025D02*
Y354185D01*
X102895D01*
Y344025D01*
X92735D01*
X94767Y346057D02*
Y352153D01*
X100863D01*
Y346057D01*
X94767D01*
X116738Y344025D02*
Y354185D01*
X126898D01*
Y344025D01*
X116738D01*
X118770Y346057D02*
Y352153D01*
X124866D01*
Y346057D01*
X118770D01*
X44740Y344025D02*
Y354185D01*
X54900D01*
Y344025D01*
X44740D01*
X46772Y346057D02*
Y352153D01*
X52868D01*
Y346057D01*
X46772D01*
X40742Y426406D02*
Y436566D01*
X50902D01*
Y426406D01*
X40742D01*
X42774Y428438D02*
Y434534D01*
X48870D01*
Y428438D01*
X42774D01*
X48743Y426406D02*
Y436566D01*
X58903D01*
Y426406D01*
X48743D01*
X50775Y428438D02*
Y434534D01*
X56871D01*
Y428438D01*
X50775D01*
X112740Y426406D02*
Y436566D01*
X122900D01*
Y426406D01*
X112740D01*
X114772Y428438D02*
Y434534D01*
X120868D01*
Y428438D01*
X114772D01*
X116158Y447730D02*
Y457890D01*
X126318D01*
Y447730D01*
X116158D01*
X118190Y449762D02*
Y455858D01*
X124286D01*
Y449762D01*
X118190D01*
X134620Y440690D02*
Y450850D01*
X144780D01*
Y440690D01*
X134620D01*
X136652Y442722D02*
Y448818D01*
X142748D01*
Y442722D01*
X136652D01*
X219654Y464060D02*
Y474220D01*
X229814D01*
Y464060D01*
X219654D01*
X221686Y466092D02*
Y472188D01*
X227782D01*
Y466092D01*
X221686D01*
X462280Y664210D02*
Y674370D01*
X472440D01*
Y664210D01*
X462280D01*
X464312Y666242D02*
Y672338D01*
X470408D01*
Y666242D01*
X464312D01*
X468630Y613410D02*
Y623570D01*
X478790D01*
Y613410D01*
X468630D01*
X470662Y615442D02*
Y621538D01*
X476758D01*
Y615442D01*
X470662D01*
X585470Y549910D02*
Y560070D01*
X595630D01*
Y549910D01*
X585470D01*
X587502Y551942D02*
Y558038D01*
X593598D01*
Y551942D01*
X587502D01*
X633730Y466090D02*
Y476250D01*
X643890D01*
Y466090D01*
X633730D01*
X635762Y468122D02*
Y474218D01*
X641858D01*
Y468122D01*
X635762D01*
X676910Y524510D02*
Y534670D01*
X687070D01*
Y524510D01*
X676910D01*
X678942Y526542D02*
Y532638D01*
X685038D01*
Y526542D01*
X678942D01*
X699271Y440747D02*
Y450907D01*
X709431D01*
Y440747D01*
X699271D01*
X701303Y442779D02*
Y448875D01*
X707399D01*
Y442779D01*
X701303D01*
X596900Y227481D02*
Y237641D01*
X607060D01*
Y227481D01*
X596900D01*
X598932Y229513D02*
Y235609D01*
X605028D01*
Y229513D01*
X598932D01*
X555570Y290250D02*
Y300410D01*
X565730D01*
Y290250D01*
X555570D01*
X557602Y292282D02*
Y298378D01*
X563698D01*
Y292282D01*
X557602D01*
X555429Y255700D02*
Y265860D01*
X565589D01*
Y255700D01*
X555429D01*
X557462Y257732D02*
Y263828D01*
X563558D01*
Y257732D01*
X557462D01*
X548259Y200279D02*
Y210439D01*
X558419D01*
Y200279D01*
X548259D01*
X550291Y202311D02*
Y208407D01*
X556387D01*
Y202311D01*
X550291D01*
X574040Y243840D02*
Y254000D01*
X584200D01*
Y243840D01*
X574040D01*
X576072Y245872D02*
Y251968D01*
X582168D01*
Y245872D01*
X576072D01*
X647700Y183330D02*
Y193490D01*
X657860D01*
Y183330D01*
X647700D01*
X649732Y185362D02*
Y191458D01*
X655828D01*
Y185362D01*
X649732D01*
X634230Y102870D02*
Y113030D01*
X644390D01*
Y102870D01*
X634230D01*
X636262Y104902D02*
Y110998D01*
X642358D01*
Y104902D01*
X636262D01*
X663780Y135460D02*
Y145620D01*
X673940D01*
Y135460D01*
X663780D01*
X665812Y137492D02*
Y143588D01*
X671908D01*
Y137492D01*
X665812D01*
X657300Y105970D02*
Y116130D01*
X667460D01*
Y105970D01*
X657300D01*
X659332Y108002D02*
Y114098D01*
X665428D01*
Y108002D01*
X659332D01*
X683970Y108510D02*
Y118670D01*
X694130D01*
Y108510D01*
X683970D01*
X686002Y110542D02*
Y116638D01*
X692098D01*
Y110542D01*
X686002D01*
X530580Y45140D02*
Y55300D01*
X540740D01*
Y45140D01*
X530580D01*
X532612Y47172D02*
Y53268D01*
X538708D01*
Y47172D01*
X532612D01*
X634230Y74160D02*
Y84320D01*
X644390D01*
Y74160D01*
X634230D01*
X636262Y76192D02*
Y82288D01*
X642358D01*
Y76192D01*
X636262D01*
X605960Y67140D02*
Y77300D01*
X616120D01*
Y67140D01*
X605960D01*
X607992Y69172D02*
Y75268D01*
X614088D01*
Y69172D01*
X607992D01*
X563880Y45140D02*
Y55300D01*
X574040D01*
Y45140D01*
X563880D01*
X565912Y47172D02*
Y53268D01*
X572008D01*
Y47172D01*
X565912D01*
X559620Y157330D02*
Y167490D01*
X569780D01*
Y157330D01*
X559620D01*
X561652Y159362D02*
Y165458D01*
X567748D01*
Y159362D01*
X561652D01*
X615950Y170180D02*
Y180340D01*
X626110D01*
Y170180D01*
X615950D01*
X617982Y172212D02*
Y178308D01*
X624078D01*
Y172212D01*
X617982D01*
X605100Y122166D02*
Y132326D01*
X615260D01*
Y122166D01*
X605100D01*
X607132Y124198D02*
Y130294D01*
X613228D01*
Y124198D01*
X607132D01*
X673100Y163830D02*
Y173990D01*
X683260D01*
Y163830D01*
X673100D01*
X675132Y165862D02*
Y171958D01*
X681228D01*
Y165862D01*
X675132D01*
X673100Y183330D02*
Y193490D01*
X683260D01*
Y183330D01*
X673100D01*
X675132Y185362D02*
Y191458D01*
X681228D01*
Y185362D01*
X675132D01*
X685110Y197540D02*
Y207700D01*
X695270D01*
Y197540D01*
X685110D01*
X687142Y199572D02*
Y205668D01*
X693238D01*
Y199572D01*
X687142D01*
X731840Y190180D02*
Y200340D01*
X742000D01*
Y190180D01*
X731840D01*
X733872Y192212D02*
Y198308D01*
X739968D01*
Y192212D01*
X733872D01*
X697230Y177800D02*
Y187960D01*
X707390D01*
Y177800D01*
X697230D01*
X699262Y179832D02*
Y185928D01*
X705358D01*
Y179832D01*
X699262D01*
X706830Y135330D02*
Y145490D01*
X716990D01*
Y135330D01*
X706830D01*
X708862Y137362D02*
Y143458D01*
X714958D01*
Y137362D01*
X708862D01*
X786450Y163510D02*
Y173670D01*
X796610D01*
Y163510D01*
X786450D01*
X788482Y165542D02*
Y171638D01*
X794578D01*
Y165542D01*
X788482D01*
X772870Y143770D02*
Y153930D01*
X783030D01*
Y143770D01*
X772870D01*
X774902Y145802D02*
Y151898D01*
X780998D01*
Y145802D01*
X774902D01*
X771510Y117680D02*
Y127840D01*
X781670D01*
Y117680D01*
X771510D01*
X773542Y119712D02*
Y125808D01*
X779638D01*
Y119712D01*
X773542D01*
X717054Y108724D02*
Y118884D01*
X727214D01*
Y108724D01*
X717054D01*
X719086Y110756D02*
Y116852D01*
X725182D01*
Y110756D01*
X719086D01*
X255850Y403282D02*
Y413442D01*
X266010D01*
Y403282D01*
X255850D01*
X257882Y405314D02*
Y411410D01*
X263978D01*
Y405314D01*
X257882D01*
X67890Y375340D02*
Y385500D01*
X78050D01*
Y375340D01*
X67890D01*
X69922Y377372D02*
Y383468D01*
X76018D01*
Y377372D01*
X69922D01*
X210240Y231720D02*
Y241880D01*
X220400D01*
Y231720D01*
X210240D01*
X212272Y233752D02*
Y239848D01*
X218368D01*
Y233752D01*
X212272D01*
X617220Y150830D02*
Y160990D01*
X627380D01*
Y150830D01*
X617220D01*
X619252Y152862D02*
Y158958D01*
X625348D01*
Y152862D01*
X619252D01*
X95250Y731410D02*
Y741570D01*
X105410D01*
Y731410D01*
X95250D01*
X97282Y733442D02*
Y739538D01*
X103378D01*
Y733442D01*
X97282D01*
X87725Y716280D02*
Y726440D01*
X97885D01*
Y716280D01*
X87725D01*
X89757Y718312D02*
Y724408D01*
X95853D01*
Y718312D01*
X89757D01*
X91440Y723900D02*
Y734060D01*
X101600D01*
Y723900D01*
X91440D01*
X93472Y725932D02*
Y732028D01*
X99568D01*
Y725932D01*
X93472D01*
X38800Y767780D02*
Y777940D01*
X48960D01*
Y767780D01*
X38800D01*
X40832Y769812D02*
Y775908D01*
X46928D01*
Y769812D01*
X40832D01*
X581660Y288290D02*
Y298450D01*
X591820D01*
Y288290D01*
X581660D01*
X583692Y290322D02*
Y296418D01*
X589788D01*
Y290322D01*
X583692D01*
X108737Y344025D02*
Y354185D01*
X118897D01*
Y344025D01*
X108737D01*
X110769Y346057D02*
Y352153D01*
X116865D01*
Y346057D01*
X110769D01*
X100736Y344025D02*
Y354185D01*
X110896D01*
Y344025D01*
X100736D01*
X102768Y346057D02*
Y352153D01*
X108864D01*
Y346057D01*
X102768D01*
X57150Y289560D02*
Y299720D01*
X67310D01*
Y289560D01*
X57150D01*
X59182Y291592D02*
Y297688D01*
X65278D01*
Y291592D01*
X59182D01*
X69850Y289560D02*
Y299720D01*
X80010D01*
Y289560D01*
X69850D01*
X71882Y291592D02*
Y297688D01*
X77978D01*
Y291592D01*
X71882D01*
X478790Y613410D02*
Y623570D01*
X488950D01*
Y613410D01*
X478790D01*
X480822Y615442D02*
Y621538D01*
X486918D01*
Y615442D01*
X480822D01*
X97450Y655320D02*
Y665480D01*
X107610D01*
Y655320D01*
X97450D01*
X99481Y657352D02*
Y663448D01*
X105577D01*
Y657352D01*
X99481D01*
D119*
X750870Y77150D02*
G03*
X750870Y77150I-5080J0D01*
G01*
X724870D02*
G03*
X724870Y77150I-5080J0D01*
G01*
X525780Y331470D02*
G03*
X525780Y331470I-5080J0D01*
G01*
Y407670D02*
G03*
X525780Y407670I-5080J0D01*
G01*
X551180Y331470D02*
G03*
X551180Y331470I-5080J0D01*
G01*
X576580D02*
G03*
X576580Y331470I-5080J0D01*
G01*
X601980D02*
G03*
X601980Y331470I-5080J0D01*
G01*
X627380D02*
G03*
X627380Y331470I-5080J0D01*
G01*
X652780D02*
G03*
X652780Y331470I-5080J0D01*
G01*
X678180D02*
G03*
X678180Y331470I-5080J0D01*
G01*
X703580D02*
G03*
X703580Y331470I-5080J0D01*
G01*
Y407670D02*
G03*
X703580Y407670I-5080J0D01*
G01*
X678180D02*
G03*
X678180Y407670I-5080J0D01*
G01*
X652780D02*
G03*
X652780Y407670I-5080J0D01*
G01*
X627380D02*
G03*
X627380Y407670I-5080J0D01*
G01*
X601980D02*
G03*
X601980Y407670I-5080J0D01*
G01*
X576580D02*
G03*
X576580Y407670I-5080J0D01*
G01*
X551180D02*
G03*
X551180Y407670I-5080J0D01*
G01*
X739140Y469900D02*
G03*
X739140Y469900I-5080J0D01*
G01*
Y444500D02*
G03*
X739140Y444500I-5080J0D01*
G01*
M02*
