%FSLAX44Y44*%
%MOMM*%
G71*
G01*
G75*
G04 Layer_Physical_Order=1*
G04 Layer_Color=255*
%ADD10R,0.8000X0.8000*%
%ADD11O,2.0000X0.3500*%
%ADD12R,0.6502X1.0008*%
%ADD13R,1.2000X1.4000*%
%ADD14R,0.5000X0.6000*%
%ADD15R,2.0320X0.6096*%
%ADD16O,2.0320X0.6096*%
%ADD17R,2.6200X3.5100*%
%ADD18R,2.0000X0.6000*%
%ADD19O,2.0000X0.6000*%
%ADD20R,0.5004X2.0000*%
%ADD21R,0.6000X0.5000*%
G04:AMPARAMS|DCode=22|XSize=1.2mm|YSize=2.5mm|CornerRadius=0mm|HoleSize=0mm|Usage=FLASHONLY|Rotation=90.000|XOffset=0mm|YOffset=0mm|HoleType=Round|Shape=RoundedRectangle|*
%AMROUNDEDRECTD22*
21,1,1.2000,2.5000,0,0,90.0*
21,1,1.2000,2.5000,0,0,90.0*
1,1,0.0000,1.2500,0.6000*
1,1,0.0000,1.2500,-0.6000*
1,1,0.0000,-1.2500,-0.6000*
1,1,0.0000,-1.2500,0.6000*
%
%ADD22ROUNDEDRECTD22*%
%ADD23R,0.8128X0.8128*%
%ADD24R,1.5500X0.2500*%
%ADD25R,0.2500X1.5500*%
%ADD26R,3.4200X3.4200*%
%ADD27R,1.3970X1.3970*%
%ADD28R,1.2000X1.6000*%
%ADD29R,1.3970X1.3970*%
%ADD30R,1.6002X1.2954*%
%ADD31R,2.2000X2.0000*%
%ADD32R,1.9000X5.3000*%
%ADD33R,0.6096X2.0320*%
%ADD34O,0.6096X2.0320*%
%ADD35R,0.8128X1.0668*%
%ADD36R,0.8890X1.0160*%
%ADD37C,0.2540*%
%ADD38C,0.2000*%
%ADD39C,0.8000*%
%ADD40C,0.4000*%
%ADD41C,0.3000*%
%ADD42C,0.6000*%
%ADD43C,1.6000*%
%ADD44C,0.2560*%
%ADD45C,2.8000*%
%ADD46C,1.0000*%
%ADD47R,1.0000X1.0000*%
%ADD48R,1.0000X1.0000*%
%ADD49C,1.6500*%
%ADD50C,1.5240*%
G04:AMPARAMS|DCode=51|XSize=4mm|YSize=4mm|CornerRadius=2mm|HoleSize=0mm|Usage=FLASHONLY|Rotation=0.000|XOffset=0mm|YOffset=0mm|HoleType=Round|Shape=RoundedRectangle|*
%AMROUNDEDRECTD51*
21,1,4.0000,0.0000,0,0,0.0*
21,1,0.0000,4.0000,0,0,0.0*
1,1,4.0000,0.0000,0.0000*
1,1,4.0000,0.0000,0.0000*
1,1,4.0000,0.0000,0.0000*
1,1,4.0000,0.0000,0.0000*
%
%ADD51ROUNDEDRECTD51*%
%ADD52C,2.0000*%
%ADD53C,0.5000*%
G36*
X796666Y3334D02*
X3334D01*
Y266518D01*
X4590Y266704D01*
X4846Y265860D01*
X6889Y262038D01*
X9638Y258688D01*
X12988Y255939D01*
X16810Y253896D01*
X20302Y252837D01*
Y247364D01*
X19336D01*
Y235236D01*
X31464D01*
Y247364D01*
X30498D01*
Y252916D01*
X33730Y253896D01*
X37552Y255939D01*
X40902Y258688D01*
X43651Y262038D01*
X45694Y265860D01*
X46952Y270007D01*
X47376Y274320D01*
X46952Y278633D01*
X45694Y282780D01*
X43651Y286602D01*
X40902Y289952D01*
X37552Y292701D01*
X33730Y294744D01*
X29583Y296002D01*
X25270Y296426D01*
X20957Y296002D01*
X16810Y294744D01*
X12988Y292701D01*
X9638Y289952D01*
X6889Y286602D01*
X4846Y282780D01*
X4590Y281936D01*
X3334Y282122D01*
Y326583D01*
X4537Y326991D01*
X5259Y326051D01*
X7400Y324408D01*
X9893Y323375D01*
X12569Y323022D01*
X15245Y323375D01*
X17738Y324408D01*
X19879Y326051D01*
X21522Y328192D01*
X22555Y330685D01*
X22908Y333361D01*
X22555Y336037D01*
X21522Y338530D01*
X19879Y340671D01*
X17738Y342314D01*
X15245Y343347D01*
X12569Y343699D01*
X9893Y343347D01*
X7400Y342314D01*
X5259Y340671D01*
X4537Y339730D01*
X3334Y340139D01*
Y352620D01*
X4537Y353028D01*
X5709Y351500D01*
X7719Y349958D01*
X10059Y348989D01*
X12570Y348658D01*
X15082Y348989D01*
X17422Y349958D01*
X19431Y351500D01*
X20973Y353509D01*
X21943Y355850D01*
X22273Y358361D01*
X21943Y360872D01*
X20973Y363212D01*
X19431Y365222D01*
X17422Y366764D01*
X15082Y367733D01*
X12570Y368064D01*
X10059Y367733D01*
X7719Y366764D01*
X5709Y365222D01*
X4537Y363694D01*
X3334Y364102D01*
Y402620D01*
X4537Y403028D01*
X5709Y401500D01*
X7719Y399958D01*
X10059Y398988D01*
X12570Y398658D01*
X15082Y398988D01*
X17422Y399958D01*
X19431Y401500D01*
X20973Y403509D01*
X21943Y405849D01*
X22273Y408361D01*
X21943Y410872D01*
X20973Y413212D01*
X19431Y415222D01*
X17422Y416764D01*
X15082Y417733D01*
X12570Y418064D01*
X10059Y417733D01*
X7719Y416764D01*
X5709Y415222D01*
X4537Y413694D01*
X3334Y414102D01*
Y426583D01*
X4537Y426991D01*
X5258Y426051D01*
X7400Y424408D01*
X9893Y423375D01*
X12569Y423022D01*
X15245Y423375D01*
X17738Y424408D01*
X19879Y426051D01*
X21522Y428192D01*
X22555Y430685D01*
X22907Y433361D01*
X22555Y436037D01*
X21522Y438530D01*
X19879Y440672D01*
X17738Y442314D01*
X15245Y443347D01*
X12569Y443699D01*
X9893Y443347D01*
X7400Y442314D01*
X5258Y440672D01*
X4537Y439731D01*
X3334Y440139D01*
Y449620D01*
X4537Y450028D01*
X5709Y448500D01*
X7719Y446958D01*
X10059Y445989D01*
X12570Y445658D01*
X15082Y445989D01*
X17422Y446958D01*
X19431Y448500D01*
X20973Y450509D01*
X21943Y452850D01*
X22273Y455361D01*
X21943Y457872D01*
X20973Y460213D01*
X19431Y462222D01*
X17422Y463764D01*
X15082Y464733D01*
X12570Y465064D01*
X10059Y464733D01*
X7719Y463764D01*
X5709Y462222D01*
X4537Y460694D01*
X3334Y461102D01*
Y526583D01*
X4537Y526991D01*
X5258Y526050D01*
X7400Y524407D01*
X9893Y523375D01*
X12569Y523022D01*
X15245Y523375D01*
X17738Y524407D01*
X19879Y526050D01*
X21522Y528192D01*
X22555Y530685D01*
X22907Y533361D01*
X22555Y536037D01*
X21522Y538530D01*
X19879Y540671D01*
X17738Y542314D01*
X15245Y543347D01*
X12569Y543699D01*
X9893Y543347D01*
X7400Y542314D01*
X5258Y540671D01*
X4537Y539731D01*
X3334Y540139D01*
Y626582D01*
X4537Y626991D01*
X5258Y626050D01*
X7399Y624408D01*
X9893Y623375D01*
X12569Y623022D01*
X15244Y623375D01*
X17738Y624408D01*
X19879Y626050D01*
X21522Y628192D01*
X22555Y630685D01*
X22907Y633361D01*
X22555Y636037D01*
X21522Y638530D01*
X19879Y640671D01*
X17738Y642314D01*
X15244Y643347D01*
X12569Y643699D01*
X9893Y643347D01*
X7399Y642314D01*
X5258Y640671D01*
X4537Y639731D01*
X3334Y640139D01*
Y796666D01*
X796666D01*
Y3334D01*
D02*
G37*
%LPC*%
G36*
X236910Y285221D02*
X233140D01*
Y280951D01*
X236910D01*
Y285221D01*
D02*
G37*
G36*
X336550Y283090D02*
X332780D01*
Y278820D01*
X336550D01*
Y283090D01*
D02*
G37*
G36*
X121920Y287670D02*
X117650D01*
Y283900D01*
X121920D01*
Y287670D01*
D02*
G37*
G36*
X128730D02*
X124460D01*
Y283900D01*
X128730D01*
Y287670D01*
D02*
G37*
G36*
X415980Y269020D02*
X412210D01*
Y268480D01*
X403750D01*
Y267058D01*
X402535Y266689D01*
X402511Y266724D01*
X401023Y267719D01*
X399267Y268068D01*
X397511Y267719D01*
X396022Y266724D01*
X395028Y265236D01*
X394679Y263480D01*
X395028Y261724D01*
X396022Y260236D01*
X397511Y259241D01*
X399267Y258892D01*
X401023Y259241D01*
X402511Y260236D01*
X402535Y260271D01*
X403750Y259902D01*
Y258480D01*
X412210D01*
Y257940D01*
X415980D01*
Y263480D01*
Y269020D01*
D02*
G37*
G36*
X484124Y270764D02*
X478790D01*
Y265430D01*
X484124D01*
Y270764D01*
D02*
G37*
G36*
X559380Y281940D02*
X555610D01*
Y277670D01*
X559380D01*
Y281940D01*
D02*
G37*
G36*
X98050Y292210D02*
X88050D01*
Y291019D01*
X87823Y290974D01*
X86899Y290790D01*
X85817Y290068D01*
X77993Y282244D01*
X77270Y281162D01*
X77016Y279886D01*
Y269895D01*
X76711Y269691D01*
X75595Y268022D01*
X75204Y266052D01*
Y251828D01*
X75595Y249858D01*
X76711Y248189D01*
X78381Y247073D01*
X80351Y246681D01*
X82320Y247073D01*
X83990Y248189D01*
X85106Y249858D01*
X85497Y251828D01*
Y266052D01*
X85106Y268022D01*
X83990Y269691D01*
X83685Y269895D01*
Y278505D01*
X86877Y281698D01*
X88050Y281212D01*
Y274210D01*
X89706D01*
Y271100D01*
X88003D01*
Y246780D01*
X89064D01*
X89663Y245660D01*
X88812Y244386D01*
X88462Y242631D01*
X88812Y240875D01*
X89806Y239386D01*
X91295Y238392D01*
X93050Y238042D01*
X94806Y238392D01*
X96295Y239386D01*
X97289Y240875D01*
X97639Y242631D01*
X97289Y244386D01*
X96438Y245660D01*
X97037Y246780D01*
X98098D01*
Y255156D01*
X102410D01*
Y254540D01*
X102410D01*
Y250770D01*
X113490D01*
Y254540D01*
X112950D01*
Y263000D01*
X102950D01*
Y261844D01*
X98098D01*
Y271100D01*
X96395D01*
Y274210D01*
X98050D01*
Y283210D01*
Y284376D01*
X102669D01*
X106334Y280711D01*
X106652Y279114D01*
X107646Y277625D01*
X109135Y276631D01*
X110891Y276281D01*
X112646Y276631D01*
X114135Y277625D01*
X115129Y279114D01*
X115479Y280870D01*
X115129Y282625D01*
X114135Y284114D01*
X112646Y285108D01*
X111049Y285426D01*
X106407Y290068D01*
X105326Y290790D01*
X104050Y291044D01*
X98050D01*
Y292210D01*
D02*
G37*
G36*
X74930Y299228D02*
X73174Y298879D01*
X71686Y297884D01*
X70691Y296396D01*
X70342Y294640D01*
X70691Y292884D01*
X71686Y291396D01*
X73174Y290401D01*
X74930Y290052D01*
X76686Y290401D01*
X78174Y291396D01*
X79169Y292884D01*
X79518Y294640D01*
X79169Y296396D01*
X78174Y297884D01*
X76686Y298879D01*
X74930Y299228D01*
D02*
G37*
G36*
X62230D02*
X60474Y298879D01*
X58986Y297884D01*
X57991Y296396D01*
X57642Y294640D01*
X57991Y292884D01*
X58986Y291396D01*
X60474Y290401D01*
X62230Y290052D01*
X63986Y290401D01*
X65474Y291396D01*
X66469Y292884D01*
X66818Y294640D01*
X66469Y296396D01*
X65474Y297884D01*
X63986Y298879D01*
X62230Y299228D01*
D02*
G37*
G36*
X204930Y295051D02*
X200660D01*
Y291280D01*
X204930D01*
Y295051D01*
D02*
G37*
G36*
X198120D02*
X193850D01*
Y291280D01*
X198120D01*
Y295051D01*
D02*
G37*
G36*
X586740Y297958D02*
X584984Y297609D01*
X583496Y296614D01*
X582501Y295126D01*
X582152Y293370D01*
X582501Y291614D01*
X583316Y290394D01*
X582718Y289274D01*
X580676D01*
Y286269D01*
X574150D01*
Y288210D01*
X565690D01*
Y288750D01*
X561920D01*
Y283210D01*
Y277670D01*
X565690D01*
Y278210D01*
X574150D01*
Y280151D01*
X580676D01*
Y277146D01*
X592804D01*
Y289274D01*
X590762D01*
X590164Y290394D01*
X590979Y291614D01*
X591328Y293370D01*
X590979Y295126D01*
X589984Y296614D01*
X588496Y297609D01*
X586740Y297958D01*
D02*
G37*
G36*
X559380Y288750D02*
X555610D01*
Y284480D01*
X559380D01*
Y288750D01*
D02*
G37*
G36*
X270630Y292750D02*
X266360D01*
Y288980D01*
X270630D01*
Y292750D01*
D02*
G37*
G36*
X263820D02*
X259550D01*
Y288980D01*
X263820D01*
Y292750D01*
D02*
G37*
G36*
X592804Y274034D02*
X580676D01*
Y261906D01*
X583681D01*
Y254984D01*
X580676D01*
Y254200D01*
X579694Y253394D01*
X579120Y253508D01*
X577364Y253159D01*
X575876Y252164D01*
X575752Y251979D01*
X574010D01*
Y253920D01*
X565550D01*
Y254460D01*
X561780D01*
Y248920D01*
Y243380D01*
X565550D01*
Y243920D01*
X574010D01*
Y245861D01*
X575752D01*
X575876Y245676D01*
X577364Y244681D01*
X579120Y244332D01*
X579694Y244446D01*
X580676Y243640D01*
Y242856D01*
X592804D01*
Y254984D01*
X589799D01*
Y261906D01*
X592804D01*
Y274034D01*
D02*
G37*
G36*
X559240Y254460D02*
X555470D01*
Y250190D01*
X559240D01*
Y254460D01*
D02*
G37*
G36*
X476250Y262890D02*
X470916D01*
Y257556D01*
X476250D01*
Y262890D01*
D02*
G37*
G36*
X189340Y290750D02*
X171340D01*
Y281047D01*
X171012Y279400D01*
X171362Y277644D01*
X172266Y276290D01*
Y269895D01*
X171961Y269691D01*
X170845Y268022D01*
X170454Y266052D01*
Y251828D01*
X170845Y249858D01*
X171961Y248189D01*
X173631Y247073D01*
X175600Y246681D01*
X177570Y247073D01*
X179240Y248189D01*
X180356Y249858D01*
X180747Y251828D01*
Y266052D01*
X180356Y268022D01*
X179240Y269691D01*
X178934Y269895D01*
Y276290D01*
X179839Y277644D01*
X180189Y279400D01*
X180115Y279768D01*
X180921Y280750D01*
X185242D01*
Y271100D01*
X183253D01*
Y246780D01*
X193349D01*
Y258561D01*
X196022D01*
X196146Y258376D01*
X197634Y257381D01*
X199390Y257032D01*
X201146Y257381D01*
X202634Y258376D01*
X203629Y259864D01*
X203978Y261620D01*
X203629Y263376D01*
X202634Y264864D01*
X202449Y264988D01*
Y276511D01*
X204390D01*
Y284970D01*
X204930D01*
Y288741D01*
X193850D01*
Y284970D01*
X194390D01*
Y276511D01*
X196331D01*
Y264988D01*
X196146Y264864D01*
X196022Y264679D01*
X193349D01*
Y271100D01*
X191359D01*
Y282290D01*
X191126Y283460D01*
X190861Y283857D01*
X190463Y284452D01*
X190463Y284452D01*
X189340Y285576D01*
Y290750D01*
D02*
G37*
G36*
X148931Y257670D02*
X144503D01*
Y251828D01*
X144937Y249648D01*
X146172Y247799D01*
X148020Y246564D01*
X148931Y246383D01*
Y257670D01*
D02*
G37*
G36*
X60648D02*
X56220D01*
Y246383D01*
X57131Y246564D01*
X58979Y247799D01*
X60214Y249648D01*
X60648Y251828D01*
Y257670D01*
D02*
G37*
G36*
X162901Y290338D02*
X161145Y289989D01*
X159656Y288994D01*
X158662Y287506D01*
X158312Y285750D01*
X158662Y283994D01*
X159566Y282640D01*
Y269895D01*
X159261Y269691D01*
X158145Y268022D01*
X157754Y266052D01*
Y251828D01*
X158145Y249858D01*
X159261Y248189D01*
X160931Y247073D01*
X162901Y246681D01*
X164870Y247073D01*
X166540Y248189D01*
X167656Y249858D01*
X168047Y251828D01*
Y266052D01*
X167656Y268022D01*
X166540Y269691D01*
X166234Y269895D01*
Y282640D01*
X167139Y283994D01*
X167489Y285750D01*
X167139Y287506D01*
X166145Y288994D01*
X164656Y289989D01*
X162901Y290338D01*
D02*
G37*
G36*
X155898Y257670D02*
X151470D01*
Y246383D01*
X152381Y246564D01*
X154229Y247799D01*
X155464Y249648D01*
X155898Y251828D01*
Y257670D01*
D02*
G37*
G36*
X484124Y262890D02*
X478790D01*
Y257556D01*
X484124D01*
Y262890D01*
D02*
G37*
G36*
X151470Y271497D02*
Y260210D01*
X155898D01*
Y266052D01*
X155464Y268232D01*
X154229Y270081D01*
X152381Y271316D01*
X151470Y271497D01*
D02*
G37*
G36*
X148931D02*
X148020Y271316D01*
X146172Y270081D01*
X144937Y268232D01*
X144503Y266052D01*
Y260210D01*
X148931D01*
Y271497D01*
D02*
G37*
G36*
X476250Y270764D02*
X470916D01*
Y265430D01*
X476250D01*
Y270764D01*
D02*
G37*
G36*
X422290Y269020D02*
X418520D01*
Y264750D01*
X422290D01*
Y269020D01*
D02*
G37*
G36*
X336550Y264160D02*
X332780D01*
Y259890D01*
X336550D01*
Y264160D01*
D02*
G37*
G36*
X422290Y262210D02*
X418520D01*
Y257940D01*
X422290D01*
Y262210D01*
D02*
G37*
G36*
X56220Y271497D02*
Y260210D01*
X60648D01*
Y266052D01*
X60214Y268232D01*
X58979Y270081D01*
X57131Y271316D01*
X56220Y271497D01*
D02*
G37*
G36*
X53681D02*
X52770Y271316D01*
X50922Y270081D01*
X49687Y268232D01*
X49253Y266052D01*
Y260210D01*
X53681D01*
Y271497D01*
D02*
G37*
G36*
X83771Y322065D02*
X81259Y321735D01*
X78919Y320765D01*
X76910Y319223D01*
X75368Y317214D01*
X74398Y314874D01*
X74068Y312362D01*
X74398Y309851D01*
X75368Y307511D01*
X76910Y305501D01*
X78919Y303959D01*
X81259Y302990D01*
X83771Y302659D01*
X86282Y302990D01*
X88622Y303959D01*
X90632Y305501D01*
X92174Y307511D01*
X93143Y309851D01*
X93474Y312362D01*
X93143Y314874D01*
X92174Y317214D01*
X90632Y319223D01*
X88622Y320765D01*
X86282Y321735D01*
X83771Y322065D01*
D02*
G37*
G36*
X528138Y406400D02*
X521970D01*
Y400232D01*
X522668Y400324D01*
X524502Y401084D01*
X526078Y402292D01*
X527286Y403867D01*
X528046Y405702D01*
X528138Y406400D01*
D02*
G37*
G36*
X519430D02*
X513262D01*
X513354Y405702D01*
X514114Y403867D01*
X515322Y402292D01*
X516898Y401084D01*
X518732Y400324D01*
X519430Y400232D01*
Y406400D01*
D02*
G37*
G36*
X553538D02*
X547370D01*
Y400232D01*
X548068Y400324D01*
X549902Y401084D01*
X551478Y402292D01*
X552686Y403867D01*
X553446Y405702D01*
X553538Y406400D01*
D02*
G37*
G36*
X544830D02*
X538662D01*
X538754Y405702D01*
X539514Y403867D01*
X540722Y402292D01*
X542298Y401084D01*
X544132Y400324D01*
X544830Y400232D01*
Y406400D01*
D02*
G37*
G36*
X360100Y398100D02*
X341730D01*
Y379730D01*
X360100D01*
Y398100D01*
D02*
G37*
G36*
X155069Y393065D02*
X152558Y392734D01*
X150217Y391765D01*
X148208Y390223D01*
X146666Y388214D01*
X145696Y385873D01*
X145366Y383362D01*
X145696Y380851D01*
X146666Y378511D01*
X148208Y376501D01*
X150217Y374959D01*
X152558Y373990D01*
X155069Y373659D01*
X157580Y373990D01*
X159920Y374959D01*
X161930Y376501D01*
X163472Y378511D01*
X164441Y380851D01*
X164772Y383362D01*
X164441Y385873D01*
X163472Y388214D01*
X161930Y390223D01*
X159920Y391765D01*
X157580Y392734D01*
X155069Y393065D01*
D02*
G37*
G36*
X155070Y418065D02*
X152559Y417734D01*
X150219Y416765D01*
X148209Y415223D01*
X146667Y413214D01*
X145698Y410873D01*
X145367Y408362D01*
X145698Y405851D01*
X146667Y403511D01*
X148209Y401501D01*
X150219Y399959D01*
X152559Y398990D01*
X155070Y398659D01*
X157582Y398990D01*
X159922Y399959D01*
X161931Y401501D01*
X163473Y403511D01*
X164443Y405851D01*
X164773Y408362D01*
X164443Y410873D01*
X163473Y413214D01*
X161931Y415223D01*
X159922Y416765D01*
X157582Y417734D01*
X155070Y418065D01*
D02*
G37*
G36*
X381010Y398100D02*
X362640D01*
Y379730D01*
X381010D01*
Y398100D01*
D02*
G37*
G36*
X570230Y406400D02*
X564062D01*
X564154Y405702D01*
X564914Y403867D01*
X566122Y402292D01*
X567697Y401084D01*
X569532Y400324D01*
X570230Y400232D01*
Y406400D01*
D02*
G37*
G36*
X646430D02*
X640262D01*
X640354Y405702D01*
X641114Y403867D01*
X642322Y402292D01*
X643897Y401084D01*
X645732Y400324D01*
X646430Y400232D01*
Y406400D01*
D02*
G37*
G36*
X629738D02*
X623570D01*
Y400232D01*
X624268Y400324D01*
X626102Y401084D01*
X627678Y402292D01*
X628886Y403867D01*
X629646Y405702D01*
X629738Y406400D01*
D02*
G37*
G36*
X671830D02*
X665662D01*
X665754Y405702D01*
X666514Y403867D01*
X667722Y402292D01*
X669297Y401084D01*
X671132Y400324D01*
X671830Y400232D01*
Y406400D01*
D02*
G37*
G36*
X655138D02*
X648970D01*
Y400232D01*
X649668Y400324D01*
X651503Y401084D01*
X653078Y402292D01*
X654286Y403867D01*
X655046Y405702D01*
X655138Y406400D01*
D02*
G37*
G36*
X595630D02*
X589462D01*
X589554Y405702D01*
X590314Y403867D01*
X591522Y402292D01*
X593097Y401084D01*
X594932Y400324D01*
X595630Y400232D01*
Y406400D01*
D02*
G37*
G36*
X578938D02*
X572770D01*
Y400232D01*
X573468Y400324D01*
X575303Y401084D01*
X576878Y402292D01*
X578086Y403867D01*
X578846Y405702D01*
X578938Y406400D01*
D02*
G37*
G36*
X621030D02*
X614862D01*
X614954Y405702D01*
X615714Y403867D01*
X616922Y402292D01*
X618498Y401084D01*
X620332Y400324D01*
X621030Y400232D01*
Y406400D01*
D02*
G37*
G36*
X604338D02*
X598170D01*
Y400232D01*
X598868Y400324D01*
X600703Y401084D01*
X602278Y402292D01*
X603486Y403867D01*
X604246Y405702D01*
X604338Y406400D01*
D02*
G37*
G36*
X698500Y338530D02*
X696673Y338290D01*
X694970Y337584D01*
X693508Y336462D01*
X692385Y335000D01*
X691680Y333297D01*
X691440Y331470D01*
X691680Y329643D01*
X692385Y327940D01*
X693508Y326478D01*
X694970Y325355D01*
X696673Y324650D01*
X698500Y324410D01*
X700327Y324650D01*
X702030Y325355D01*
X703492Y326478D01*
X704614Y327940D01*
X705320Y329643D01*
X705560Y331470D01*
X705320Y333297D01*
X704614Y335000D01*
X703492Y336462D01*
X702030Y337584D01*
X700327Y338290D01*
X698500Y338530D01*
D02*
G37*
G36*
X126860Y334477D02*
X123088D01*
Y323207D01*
X126860D01*
Y334477D01*
D02*
G37*
G36*
X48550Y348287D02*
X44778D01*
Y337017D01*
X48550D01*
Y348287D01*
D02*
G37*
G36*
X280090Y355548D02*
X278334Y355199D01*
X276846Y354204D01*
X275851Y352716D01*
X275502Y350960D01*
X275851Y349204D01*
X276846Y347716D01*
X278334Y346721D01*
X280090Y346372D01*
X281846Y346721D01*
X282112Y346899D01*
X283168Y346194D01*
X283122Y345960D01*
X283471Y344204D01*
X284466Y342716D01*
X285954Y341721D01*
X287710Y341372D01*
X289466Y341721D01*
X290820Y342626D01*
X293620D01*
Y337710D01*
X299616D01*
Y335850D01*
X298711Y334496D01*
X298362Y332740D01*
X298711Y330984D01*
X299706Y329496D01*
X301194Y328501D01*
X302950Y328152D01*
X304706Y328501D01*
X306194Y329496D01*
X307189Y330984D01*
X307538Y332740D01*
X307189Y334496D01*
X306284Y335850D01*
Y337710D01*
X313120D01*
Y342710D01*
Y347710D01*
Y352170D01*
X313660D01*
Y354690D01*
X293080D01*
Y354294D01*
X283200D01*
X281846Y355199D01*
X280090Y355548D01*
D02*
G37*
G36*
X188006Y322580D02*
X184236D01*
Y318310D01*
X188006D01*
Y322580D01*
D02*
G37*
G36*
X35771Y322066D02*
X33260Y321736D01*
X30919Y320766D01*
X28910Y319224D01*
X27368Y317215D01*
X26399Y314875D01*
X26068Y312363D01*
X26399Y309852D01*
X27368Y307512D01*
X28910Y305502D01*
X30919Y303960D01*
X33260Y302991D01*
X35771Y302660D01*
X38282Y302991D01*
X40622Y303960D01*
X42632Y305502D01*
X44174Y307512D01*
X45143Y309852D01*
X45474Y312363D01*
X45143Y314875D01*
X44174Y317215D01*
X42632Y319224D01*
X40622Y320766D01*
X38282Y321736D01*
X35771Y322066D01*
D02*
G37*
G36*
X48550Y334477D02*
X44778D01*
Y323207D01*
X48550D01*
Y334477D01*
D02*
G37*
G36*
X236910Y322800D02*
X233140D01*
Y318531D01*
X236910D01*
Y322800D01*
D02*
G37*
G36*
X126860Y348287D02*
X123088D01*
Y337017D01*
X126860D01*
Y348287D01*
D02*
G37*
G36*
X381010Y377190D02*
X362640D01*
Y358820D01*
X381010D01*
Y377190D01*
D02*
G37*
G36*
X360100D02*
X341730D01*
Y358820D01*
X360100D01*
Y377190D01*
D02*
G37*
G36*
X35820Y388846D02*
X32687Y388434D01*
X29768Y387224D01*
X27262Y385301D01*
X25338Y382794D01*
X24129Y379875D01*
X23716Y376742D01*
X24129Y373610D01*
X25338Y370691D01*
X27262Y368184D01*
X29768Y366260D01*
X32687Y365051D01*
X35820Y364639D01*
X38953Y365051D01*
X41872Y366260D01*
X44378Y368184D01*
X46302Y370691D01*
X47511Y373610D01*
X47924Y376742D01*
X47511Y379875D01*
X46302Y382794D01*
X44378Y385301D01*
X41872Y387224D01*
X38953Y388434D01*
X35820Y388846D01*
D02*
G37*
G36*
X254000Y371618D02*
X252244Y371269D01*
X250756Y370274D01*
X249761Y368786D01*
X249412Y367030D01*
X249761Y365274D01*
X250756Y363786D01*
X252244Y362791D01*
X254000Y362442D01*
X255756Y362791D01*
X257244Y363786D01*
X258239Y365274D01*
X258588Y367030D01*
X258239Y368786D01*
X257244Y370274D01*
X255756Y371269D01*
X254000Y371618D01*
D02*
G37*
G36*
X155070Y368065D02*
X152559Y367734D01*
X150219Y366765D01*
X148209Y365223D01*
X146667Y363213D01*
X145698Y360873D01*
X145367Y358362D01*
X145698Y355851D01*
X146667Y353510D01*
X148209Y351501D01*
X150219Y349959D01*
X152559Y348990D01*
X155070Y348659D01*
X157582Y348990D01*
X159922Y349959D01*
X161931Y351501D01*
X163473Y353510D01*
X164443Y355851D01*
X164773Y358362D01*
X164443Y360873D01*
X163473Y363213D01*
X161931Y365223D01*
X159922Y366765D01*
X157582Y367734D01*
X155070Y368065D01*
D02*
G37*
G36*
X231302Y355711D02*
X229547Y355361D01*
X228058Y354367D01*
X227064Y352878D01*
X226714Y351122D01*
X227064Y349367D01*
X228058Y347878D01*
X229547Y346884D01*
X231302Y346534D01*
X233058Y346884D01*
X234547Y347878D01*
X235541Y349367D01*
X235891Y351122D01*
X235541Y352878D01*
X234547Y354367D01*
X233058Y355361D01*
X231302Y355711D01*
D02*
G37*
G36*
X188006Y359870D02*
X184236D01*
Y355600D01*
X188006D01*
Y359870D01*
D02*
G37*
G36*
X89820Y353693D02*
X88064Y353344D01*
X86576Y352349D01*
X86455Y352169D01*
X85185D01*
X85064Y352349D01*
X83576Y353344D01*
X81820Y353693D01*
X80064Y353344D01*
X78576Y352349D01*
X77581Y350861D01*
X77232Y349105D01*
X76560Y348287D01*
X75090D01*
Y335747D01*
Y323207D01*
X78862D01*
Y323747D01*
X92774D01*
Y323207D01*
X96545D01*
Y335747D01*
Y348287D01*
X95080D01*
X94408Y349105D01*
X94059Y350861D01*
X93064Y352349D01*
X91576Y353344D01*
X89820Y353693D01*
D02*
G37*
G36*
X53681Y257670D02*
X49253D01*
Y251828D01*
X49687Y249648D01*
X50922Y247799D01*
X52770Y246564D01*
X53681Y246383D01*
Y257670D01*
D02*
G37*
G36*
X774790Y128300D02*
X771020D01*
Y124030D01*
X774790D01*
Y128300D01*
D02*
G37*
G36*
X727674Y121490D02*
X723404D01*
Y117720D01*
X727674D01*
Y121490D01*
D02*
G37*
G36*
X667920Y139270D02*
X663650D01*
Y135500D01*
X667920D01*
Y139270D01*
D02*
G37*
G36*
X661110D02*
X656840D01*
Y135500D01*
X661110D01*
Y139270D01*
D02*
G37*
G36*
X681890Y118950D02*
X677620D01*
Y115180D01*
X681890D01*
Y118950D01*
D02*
G37*
G36*
X675080D02*
X670810D01*
Y115180D01*
X675080D01*
Y118950D01*
D02*
G37*
G36*
X720864Y121490D02*
X716594D01*
Y117720D01*
X720864D01*
Y121490D01*
D02*
G37*
G36*
X774790D02*
X771020D01*
Y117220D01*
X774790D01*
Y121490D01*
D02*
G37*
G36*
X651681Y141640D02*
X626805D01*
X626018Y140853D01*
X625290Y140998D01*
X623534Y140649D01*
X622046Y139654D01*
X621051Y138166D01*
X620702Y136410D01*
X621051Y134654D01*
X622046Y133166D01*
X623534Y132171D01*
X625290Y131822D01*
X626497Y132062D01*
X626839Y131833D01*
X627490Y131183D01*
X627237Y129910D01*
X627528Y128447D01*
X628356Y127206D01*
X628356Y127206D01*
X627967Y126503D01*
X627967Y126503D01*
X627967D01*
X627019Y125084D01*
X626939Y124680D01*
X651681D01*
X651601Y125084D01*
X651169Y125731D01*
X651767Y126851D01*
X657380D01*
Y125260D01*
X656840D01*
Y121490D01*
X667920D01*
Y125260D01*
X667380D01*
Y126851D01*
X671350D01*
Y125260D01*
X670810D01*
Y121490D01*
X681890D01*
Y125260D01*
X681350D01*
Y126851D01*
X684050D01*
Y124720D01*
Y115720D01*
X684050D01*
X684811Y115346D01*
D01*
X684811Y115346D01*
X684462Y113590D01*
X684811Y111834D01*
X685806Y110346D01*
X687294Y109351D01*
X689050Y109002D01*
X690806Y109351D01*
X692294Y110346D01*
X693289Y111834D01*
X693638Y113590D01*
X693289Y115346D01*
X693289Y115346D01*
D01*
X694050Y115720D01*
X694050D01*
Y124720D01*
Y133720D01*
X684050D01*
Y132969D01*
X681350D01*
Y133720D01*
X671350D01*
Y132969D01*
X667380D01*
Y133720D01*
X657380D01*
Y132969D01*
X651118D01*
X650519Y134089D01*
X651092Y134947D01*
X651384Y136410D01*
X651092Y137873D01*
X650264Y139114D01*
Y139114D01*
D01*
X650653Y139817D01*
X650653Y139817D01*
X650653D01*
X651601Y141236D01*
X651681Y141640D01*
D02*
G37*
G36*
X787221Y167320D02*
X777950D01*
Y159573D01*
X787221D01*
Y167320D01*
D02*
G37*
G36*
X775410D02*
X766139D01*
Y159573D01*
X775410D01*
Y167320D01*
D02*
G37*
G36*
X194170Y221774D02*
X182880D01*
X181604Y221520D01*
X180522Y220798D01*
X174906Y215181D01*
X173631Y214927D01*
X171961Y213811D01*
X170845Y212142D01*
X170454Y210172D01*
Y195948D01*
X170845Y193978D01*
X171961Y192309D01*
X173631Y191193D01*
X175600Y190801D01*
X177570Y191193D01*
X179240Y192309D01*
X180356Y193978D01*
X180747Y195948D01*
Y210172D01*
X180512Y211357D01*
X183492Y214337D01*
X184474Y213532D01*
X183545Y212142D01*
X183154Y210172D01*
Y195948D01*
X183545Y193978D01*
X184661Y192309D01*
X184966Y192104D01*
Y175389D01*
X185220Y174114D01*
X185943Y173032D01*
X185943Y173032D01*
X185943Y173032D01*
X189895Y169080D01*
X188769Y166363D01*
X188595Y165042D01*
X187325D01*
X187151Y166363D01*
X185942Y169282D01*
X184018Y171789D01*
X181512Y173712D01*
X178593Y174921D01*
X175460Y175334D01*
X172327Y174921D01*
X169610Y173795D01*
X166234Y177171D01*
Y192104D01*
X166540Y192309D01*
X167656Y193978D01*
X168047Y195948D01*
Y210172D01*
X167656Y212142D01*
X166540Y213811D01*
X164870Y214927D01*
X162901Y215319D01*
X160931Y214927D01*
X159261Y213811D01*
X158145Y212142D01*
X157754Y210172D01*
Y195948D01*
X158145Y193978D01*
X159261Y192309D01*
X159566Y192104D01*
Y175790D01*
X159820Y174514D01*
X160543Y173432D01*
X160543Y173432D01*
X160543Y173432D01*
X164895Y169080D01*
X163769Y166363D01*
X163595Y165042D01*
X162325D01*
X162151Y166363D01*
X160942Y169282D01*
X159018Y171789D01*
X156512Y173712D01*
X153593Y174921D01*
X153534Y174929D01*
Y192104D01*
X153840Y192309D01*
X154956Y193978D01*
X155347Y195948D01*
Y210172D01*
X154956Y212142D01*
X153840Y213811D01*
X152170Y214927D01*
X150201Y215319D01*
X148231Y214927D01*
X146561Y213811D01*
X145445Y212142D01*
X145054Y210172D01*
Y195948D01*
X145445Y193978D01*
X146561Y192309D01*
X146866Y192104D01*
Y174730D01*
X144408Y173712D01*
X141902Y171789D01*
X139978Y169282D01*
X138769Y166363D01*
X138356Y163230D01*
X138769Y160097D01*
X139978Y157178D01*
X141902Y154671D01*
X144408Y152748D01*
X147327Y151539D01*
X150460Y151126D01*
X153593Y151539D01*
X156512Y152748D01*
X159018Y154671D01*
X160942Y157178D01*
X162151Y160097D01*
X162325Y161418D01*
X163595D01*
X163769Y160097D01*
X164978Y157178D01*
X166901Y154671D01*
X169408Y152748D01*
X172327Y151539D01*
X175460Y151126D01*
X178593Y151539D01*
X181512Y152748D01*
X184018Y154671D01*
X185942Y157178D01*
X187151Y160097D01*
X187325Y161418D01*
X188595D01*
X188769Y160097D01*
X189978Y157178D01*
X191901Y154671D01*
X194408Y152748D01*
X197327Y151539D01*
X200460Y151126D01*
X203593Y151539D01*
X206512Y152748D01*
X209018Y154671D01*
X210942Y157178D01*
X212151Y160097D01*
X212325Y161418D01*
X213595D01*
X213769Y160097D01*
X214978Y157178D01*
X216901Y154671D01*
X219408Y152748D01*
X222327Y151539D01*
X225460Y151126D01*
X228593Y151539D01*
X231512Y152748D01*
X234018Y154671D01*
X235942Y157178D01*
X237151Y160097D01*
X237564Y163230D01*
X237151Y166363D01*
X235942Y169282D01*
X234018Y171789D01*
X231512Y173712D01*
X228593Y174921D01*
X225460Y175334D01*
X222327Y174921D01*
X219610Y173795D01*
X203794Y189611D01*
Y212150D01*
X203540Y213425D01*
X202817Y214507D01*
X196527Y220798D01*
X195445Y221520D01*
X194170Y221774D01*
D02*
G37*
G36*
X673750Y167640D02*
X669980D01*
Y163370D01*
X673750D01*
Y167640D01*
D02*
G37*
G36*
X776060Y154390D02*
X772290D01*
Y150120D01*
X776060D01*
Y154390D01*
D02*
G37*
G36*
Y147580D02*
X772290D01*
Y143310D01*
X776060D01*
Y147580D01*
D02*
G37*
G36*
X651681Y161140D02*
X626939D01*
X627019Y160736D01*
X627967Y159317D01*
Y159003D01*
X627019Y157584D01*
X626939Y157180D01*
X651681D01*
X651601Y157584D01*
X650653Y159003D01*
Y159317D01*
X651601Y160736D01*
X651681Y161140D01*
D02*
G37*
G36*
X736920Y199848D02*
X735164Y199499D01*
X733676Y198504D01*
X732681Y197016D01*
X732332Y195260D01*
X732681Y193504D01*
X733676Y192016D01*
X735164Y191021D01*
X736920Y190672D01*
X738676Y191021D01*
X740164Y192016D01*
X740288Y192201D01*
X743160D01*
Y190760D01*
Y181760D01*
X745101D01*
Y177067D01*
X741279D01*
Y160113D01*
X745101D01*
Y154051D01*
X734660D01*
Y152109D01*
X726661D01*
Y156054D01*
X717701D01*
Y156594D01*
X713180D01*
Y149051D01*
Y141507D01*
X717701D01*
Y142047D01*
X726661D01*
Y145992D01*
X734660D01*
Y144051D01*
X736101D01*
Y136260D01*
X734160D01*
Y134819D01*
X727134D01*
Y136260D01*
X717134D01*
Y127800D01*
X716594D01*
Y124030D01*
X727674D01*
Y127800D01*
X727674D01*
Y127803D01*
X728572Y128701D01*
X734160D01*
Y127260D01*
Y118260D01*
X736101D01*
Y110694D01*
X720821Y95413D01*
X720391Y95310D01*
X714574Y92900D01*
X709206Y89611D01*
X704418Y85522D01*
X700329Y80734D01*
X697039Y75366D01*
X694630Y69549D01*
X693160Y63427D01*
X692666Y57150D01*
X693160Y50873D01*
X694630Y44751D01*
X697039Y38934D01*
X700329Y33566D01*
X704418Y28778D01*
X709206Y24689D01*
X714574Y21400D01*
X720391Y18990D01*
X726513Y17520D01*
X731857Y17100D01*
Y17100D01*
D01*
D01*
D01*
Y17100D01*
X731857D01*
D01*
D01*
X731858D01*
X732780Y17027D01*
D01*
D01*
X732780D01*
D01*
D01*
X732790Y17026D01*
X732790Y17100D01*
X732790D01*
Y17100D01*
X732790D01*
Y17149D01*
X732790Y17150D01*
D01*
X732790Y17150D01*
X732790Y17962D01*
X732790Y17962D01*
X732790D01*
Y17962D01*
D01*
Y97274D01*
X732790D01*
X732330Y98271D01*
X741323Y107264D01*
X741986Y108256D01*
X742219Y109426D01*
X742219Y109427D01*
Y118260D01*
X744160D01*
Y119701D01*
X756250D01*
Y117760D01*
X764710D01*
Y117220D01*
X768480D01*
Y122760D01*
Y128300D01*
X764710D01*
Y127760D01*
X756250D01*
Y125819D01*
X744160D01*
Y127260D01*
Y136260D01*
X742219D01*
Y144051D01*
X752660D01*
Y145992D01*
X757520D01*
Y143850D01*
X765980D01*
Y143310D01*
X769750D01*
Y148850D01*
Y154390D01*
X765980D01*
Y153850D01*
X757520D01*
Y152109D01*
X752660D01*
Y154051D01*
X751219D01*
Y160113D01*
X761281D01*
Y177067D01*
X751219D01*
Y181760D01*
X753160D01*
Y190760D01*
Y199760D01*
X743160D01*
Y198319D01*
X740288D01*
X740164Y198504D01*
X738676Y199499D01*
X736920Y199848D01*
D02*
G37*
G36*
X753228Y75880D02*
X747060D01*
Y69712D01*
X747758Y69804D01*
X749593Y70564D01*
X751168Y71772D01*
X752376Y73348D01*
X753136Y75182D01*
X753228Y75880D01*
D02*
G37*
G36*
X744520D02*
X738352D01*
X738444Y75182D01*
X739204Y73348D01*
X740412Y71772D01*
X741988Y70564D01*
X743822Y69804D01*
X744520Y69712D01*
Y75880D01*
D02*
G37*
G36*
X247650Y229394D02*
X237969D01*
X236694Y229140D01*
X235612Y228417D01*
X231911Y224717D01*
X230314Y224399D01*
X228825Y223404D01*
X227831Y221916D01*
X227481Y220160D01*
X227831Y218404D01*
X228825Y216916D01*
X230314Y215921D01*
X232069Y215572D01*
X233825Y215921D01*
X235314Y216916D01*
X236308Y218404D01*
X236626Y220002D01*
X238869Y222244D01*
X240137Y222182D01*
X240497Y221744D01*
X240181Y220160D01*
X240531Y218404D01*
X241525Y216916D01*
X243014Y215921D01*
X244611Y215603D01*
X250126Y210089D01*
Y129539D01*
X250380Y128264D01*
X251103Y127182D01*
X251102Y127182D01*
X251103Y127182D01*
X272856Y105428D01*
Y99838D01*
X270138Y98712D01*
X267631Y96789D01*
X265708Y94282D01*
X264499Y91363D01*
X264086Y88230D01*
X264499Y85097D01*
X265708Y82178D01*
X267631Y79672D01*
X270138Y77748D01*
X273057Y76539D01*
X276190Y76126D01*
X279323Y76539D01*
X282242Y77748D01*
X284748Y79672D01*
X286672Y82178D01*
X287881Y85097D01*
X288055Y86418D01*
X289325D01*
X289499Y85097D01*
X290708Y82178D01*
X292631Y79672D01*
X295138Y77748D01*
X298057Y76539D01*
X301190Y76126D01*
X304323Y76539D01*
X307242Y77748D01*
X309748Y79672D01*
X311672Y82178D01*
X312881Y85097D01*
X313055Y86418D01*
X314325D01*
X314499Y85097D01*
X315708Y82178D01*
X317631Y79672D01*
X320138Y77748D01*
X323057Y76539D01*
X326190Y76126D01*
X329323Y76539D01*
X332242Y77748D01*
X334748Y79672D01*
X336672Y82178D01*
X337881Y85097D01*
X338055Y86418D01*
X339325D01*
X339499Y85097D01*
X340708Y82178D01*
X342631Y79672D01*
X345138Y77748D01*
X348057Y76539D01*
X351190Y76126D01*
X354323Y76539D01*
X357242Y77748D01*
X359748Y79672D01*
X361672Y82178D01*
X362881Y85097D01*
X363294Y88230D01*
X362881Y91363D01*
X361672Y94282D01*
X359748Y96789D01*
X357242Y98712D01*
X354323Y99921D01*
X351190Y100334D01*
X348057Y99921D01*
X345138Y98712D01*
X342631Y96789D01*
X340708Y94282D01*
X339499Y91363D01*
X339325Y90042D01*
X338055D01*
X337881Y91363D01*
X336672Y94282D01*
X334748Y96789D01*
X332242Y98712D01*
X329323Y99921D01*
X326190Y100334D01*
X323057Y99921D01*
X320138Y98712D01*
X317631Y96789D01*
X315708Y94282D01*
X314499Y91363D01*
X314325Y90042D01*
X313055D01*
X312881Y91363D01*
X311672Y94282D01*
X309748Y96789D01*
X307242Y98712D01*
X304323Y99921D01*
X301190Y100334D01*
X298057Y99921D01*
X295340Y98795D01*
X261334Y132801D01*
Y215710D01*
X261080Y216986D01*
X260357Y218067D01*
X250007Y228417D01*
X248926Y229140D01*
X247650Y229394D01*
D02*
G37*
G36*
X605101Y81760D02*
X597831D01*
Y73490D01*
X605101D01*
Y81760D01*
D02*
G37*
G36*
X547950Y55760D02*
X544180D01*
Y51490D01*
X547950D01*
Y55760D01*
D02*
G37*
G36*
Y48950D02*
X544180D01*
Y44680D01*
X547950D01*
Y48950D01*
D02*
G37*
G36*
X605101Y70950D02*
X597831D01*
Y62680D01*
X605101D01*
Y70950D01*
D02*
G37*
G36*
X604561Y59220D02*
X573560D01*
Y53279D01*
X572328D01*
X572204Y53464D01*
X570716Y54459D01*
X568960Y54808D01*
X567204Y54459D01*
X565716Y53464D01*
X565592Y53279D01*
X562720D01*
Y55220D01*
X554260D01*
Y55760D01*
X550490D01*
Y50220D01*
Y44680D01*
X554260D01*
Y45220D01*
X562720D01*
Y47161D01*
X565592D01*
X565716Y46976D01*
X567204Y45981D01*
X568960Y45632D01*
X570716Y45981D01*
X572204Y46976D01*
X572328Y47161D01*
X573560D01*
Y41220D01*
X604561D01*
Y59220D01*
D02*
G37*
G36*
X744520Y84588D02*
X743822Y84496D01*
X741988Y83736D01*
X740412Y82528D01*
X739204Y80953D01*
X738444Y79118D01*
X738352Y78420D01*
X744520D01*
Y84588D01*
D02*
G37*
G36*
X133010Y194407D02*
X131254Y194058D01*
X129765Y193063D01*
X128771Y191575D01*
X128453Y189977D01*
X123682Y185207D01*
X122960Y184125D01*
X122706Y182850D01*
Y135510D01*
X122960Y134234D01*
X123682Y133152D01*
X123682Y133152D01*
X123682Y133152D01*
X151242Y105592D01*
X152324Y104870D01*
X153600Y104616D01*
X179359D01*
X189895Y94080D01*
X188769Y91363D01*
X188595Y90042D01*
X187325D01*
X187151Y91363D01*
X185942Y94282D01*
X184018Y96789D01*
X181512Y98712D01*
X178593Y99921D01*
X175460Y100334D01*
X172327Y99921D01*
X169408Y98712D01*
X166901Y96789D01*
X164978Y94282D01*
X163769Y91363D01*
X163595Y90042D01*
X162325D01*
X162151Y91363D01*
X160942Y94282D01*
X159018Y96789D01*
X156512Y98712D01*
X153593Y99921D01*
X150460Y100334D01*
X147327Y99921D01*
X144408Y98712D01*
X141902Y96789D01*
X139978Y94282D01*
X138769Y91363D01*
X138356Y88230D01*
X138769Y85097D01*
X139978Y82178D01*
X141902Y79672D01*
X144408Y77748D01*
X147327Y76539D01*
X150460Y76126D01*
X153593Y76539D01*
X156512Y77748D01*
X159018Y79672D01*
X160942Y82178D01*
X162151Y85097D01*
X162325Y86418D01*
X163595D01*
X163769Y85097D01*
X164978Y82178D01*
X166901Y79672D01*
X169408Y77748D01*
X172327Y76539D01*
X175460Y76126D01*
X178593Y76539D01*
X181512Y77748D01*
X184018Y79672D01*
X185942Y82178D01*
X187151Y85097D01*
X187325Y86418D01*
X188595D01*
X188769Y85097D01*
X189978Y82178D01*
X191901Y79672D01*
X194408Y77748D01*
X197327Y76539D01*
X200460Y76126D01*
X203593Y76539D01*
X206512Y77748D01*
X209018Y79672D01*
X210942Y82178D01*
X212151Y85097D01*
X212325Y86418D01*
X213595D01*
X213769Y85097D01*
X214978Y82178D01*
X216901Y79672D01*
X219408Y77748D01*
X222327Y76539D01*
X225460Y76126D01*
X228593Y76539D01*
X231512Y77748D01*
X234018Y79672D01*
X235942Y82178D01*
X237151Y85097D01*
X237564Y88230D01*
X237151Y91363D01*
X235942Y94282D01*
X234018Y96789D01*
X231512Y98712D01*
X228593Y99921D01*
X225460Y100334D01*
X222327Y99921D01*
X219610Y98795D01*
X203557Y114847D01*
X202476Y115570D01*
X201200Y115824D01*
X156861D01*
X133914Y138771D01*
Y174919D01*
X138588Y179593D01*
X140186Y179911D01*
X141674Y180906D01*
X142669Y182394D01*
X143018Y184150D01*
X142669Y185906D01*
X141674Y187394D01*
X140186Y188389D01*
X138430Y188738D01*
X137556Y189612D01*
X137598Y189819D01*
X137248Y191575D01*
X136254Y193063D01*
X134765Y194058D01*
X133010Y194407D01*
D02*
G37*
G36*
X100270Y100334D02*
X97137Y99921D01*
X94218Y98712D01*
X91712Y96789D01*
X89788Y94282D01*
X88579Y91363D01*
X88405Y90042D01*
X87135D01*
X86961Y91363D01*
X85752Y94282D01*
X83828Y96789D01*
X81322Y98712D01*
X78403Y99921D01*
X75270Y100334D01*
X72137Y99921D01*
X69218Y98712D01*
X66712Y96789D01*
X64788Y94282D01*
X63579Y91363D01*
X63405Y90042D01*
X62135D01*
X61961Y91363D01*
X60752Y94282D01*
X58829Y96789D01*
X56322Y98712D01*
X53403Y99921D01*
X50270Y100334D01*
X47137Y99921D01*
X44218Y98712D01*
X41712Y96789D01*
X39788Y94282D01*
X38579Y91363D01*
X38405Y90042D01*
X37135D01*
X36961Y91363D01*
X35752Y94282D01*
X33828Y96789D01*
X31322Y98712D01*
X28403Y99921D01*
X25270Y100334D01*
X22137Y99921D01*
X19218Y98712D01*
X16711Y96789D01*
X14788Y94282D01*
X13579Y91363D01*
X13166Y88230D01*
X13579Y85097D01*
X14788Y82178D01*
X16711Y79672D01*
X19218Y77748D01*
X22137Y76539D01*
X25270Y76126D01*
X28403Y76539D01*
X31322Y77748D01*
X33828Y79672D01*
X35752Y82178D01*
X36961Y85097D01*
X37135Y86418D01*
X38405D01*
X38579Y85097D01*
X39788Y82178D01*
X41712Y79672D01*
X44218Y77748D01*
X47137Y76539D01*
X50270Y76126D01*
X53403Y76539D01*
X56322Y77748D01*
X58829Y79672D01*
X60752Y82178D01*
X61961Y85097D01*
X62135Y86418D01*
X63405D01*
X63579Y85097D01*
X64788Y82178D01*
X66712Y79672D01*
X69218Y77748D01*
X72137Y76539D01*
X75270Y76126D01*
X78403Y76539D01*
X81322Y77748D01*
X83828Y79672D01*
X85752Y82178D01*
X86961Y85097D01*
X87135Y86418D01*
X88405D01*
X88579Y85097D01*
X89788Y82178D01*
X91712Y79672D01*
X94218Y77748D01*
X97137Y76539D01*
X100270Y76126D01*
X103403Y76539D01*
X106322Y77748D01*
X108828Y79672D01*
X110752Y82178D01*
X111961Y85097D01*
X112374Y88230D01*
X111961Y91363D01*
X110752Y94282D01*
X108828Y96789D01*
X106322Y98712D01*
X103403Y99921D01*
X100270Y100334D01*
D02*
G37*
G36*
X667920Y118950D02*
X663650D01*
Y115180D01*
X667920D01*
Y118950D01*
D02*
G37*
G36*
X661110D02*
X656840D01*
Y115180D01*
X661110D01*
Y118950D01*
D02*
G37*
G36*
X638040Y87220D02*
X633770D01*
Y83450D01*
X638040D01*
Y87220D01*
D02*
G37*
G36*
X747060Y84588D02*
Y78420D01*
X753228D01*
X753136Y79118D01*
X752376Y80953D01*
X751168Y82528D01*
X749593Y83736D01*
X747758Y84496D01*
X747060Y84588D01*
D02*
G37*
G36*
X651681Y122140D02*
X626939D01*
X627019Y121736D01*
X627967Y120317D01*
X627967Y120317D01*
X627967D01*
X628356Y119614D01*
X628356Y119614D01*
X628356D01*
X627528Y118373D01*
X627237Y116910D01*
X627528Y115447D01*
X628356Y114206D01*
X629597Y113378D01*
X631060Y113087D01*
X636251D01*
Y111318D01*
X636066Y111194D01*
X635071Y109706D01*
X634722Y107950D01*
X635071Y106194D01*
X636066Y104706D01*
X636251Y104582D01*
Y101990D01*
X634310D01*
Y93530D01*
X633770D01*
Y89760D01*
X644850D01*
Y93530D01*
X644310D01*
Y101990D01*
X642369D01*
Y104582D01*
X642554Y104706D01*
X643549Y106194D01*
X643898Y107950D01*
X643549Y109706D01*
X642554Y111194D01*
X642369Y111318D01*
Y113087D01*
X647560D01*
X649023Y113378D01*
X650264Y114206D01*
X651092Y115447D01*
X651384Y116910D01*
X651092Y118373D01*
X650264Y119614D01*
Y119614D01*
D01*
X650653Y120317D01*
X650653Y120317D01*
X650653D01*
X651601Y121736D01*
X651681Y122140D01*
D02*
G37*
G36*
X644850Y87220D02*
X640580D01*
Y83450D01*
X644850D01*
Y87220D01*
D02*
G37*
G36*
X24130Y232664D02*
X18796D01*
Y227330D01*
X24130D01*
Y232664D01*
D02*
G37*
G36*
X32004Y224790D02*
X26670D01*
Y219456D01*
X32004D01*
Y224790D01*
D02*
G37*
G36*
X559240Y232410D02*
X555470D01*
Y228140D01*
X559240D01*
Y232410D01*
D02*
G37*
G36*
X32004Y232664D02*
X26670D01*
Y227330D01*
X32004D01*
Y232664D01*
D02*
G37*
G36*
X560324Y215900D02*
X554609D01*
Y209550D01*
X560324D01*
Y215900D01*
D02*
G37*
G36*
X377810Y219550D02*
X365540D01*
Y208280D01*
X377810D01*
Y219550D01*
D02*
G37*
G36*
X24130Y224790D02*
X18796D01*
Y219456D01*
X24130D01*
Y224790D01*
D02*
G37*
G36*
X560324D02*
X554609D01*
Y218440D01*
X560324D01*
Y224790D01*
D02*
G37*
G36*
X559240Y239220D02*
X555470D01*
Y234950D01*
X559240D01*
Y239220D01*
D02*
G37*
G36*
X106680Y248230D02*
X102410D01*
Y244460D01*
X106680D01*
Y248230D01*
D02*
G37*
G36*
X559240Y247650D02*
X555470D01*
Y243380D01*
X559240D01*
Y247650D01*
D02*
G37*
G36*
X318770Y267469D02*
X317014Y267119D01*
X315526Y266125D01*
X314531Y264636D01*
X314182Y262880D01*
X314531Y261125D01*
X315526Y259636D01*
X315711Y259512D01*
Y257110D01*
X300470D01*
Y245049D01*
X296710D01*
Y246300D01*
X288250D01*
Y246840D01*
X284480D01*
Y241300D01*
Y235760D01*
X288250D01*
Y235760D01*
X288253D01*
X289151Y234862D01*
Y231250D01*
X287250D01*
Y222250D01*
Y213250D01*
X289195D01*
X289424Y212099D01*
X290087Y211107D01*
X296347Y204847D01*
X297339Y204184D01*
X298510Y203951D01*
X298510Y203951D01*
X300470D01*
Y197983D01*
X299297Y197497D01*
X298857Y197938D01*
X297775Y198660D01*
X296499Y198914D01*
X280106D01*
X278830Y198660D01*
X277748Y197938D01*
X273832Y194022D01*
X273110Y192940D01*
X272856Y191664D01*
Y174838D01*
X270138Y173712D01*
X267631Y171789D01*
X265708Y169282D01*
X264499Y166363D01*
X264086Y163230D01*
X264499Y160097D01*
X265708Y157178D01*
X267631Y154671D01*
X270138Y152748D01*
X273057Y151539D01*
X276190Y151126D01*
X279323Y151539D01*
X282242Y152748D01*
X284748Y154671D01*
X286672Y157178D01*
X287881Y160097D01*
X288055Y161418D01*
X289325D01*
X289499Y160097D01*
X290708Y157178D01*
X292631Y154671D01*
X295138Y152748D01*
X298057Y151539D01*
X301190Y151126D01*
X304323Y151539D01*
X307242Y152748D01*
X309748Y154671D01*
X311672Y157178D01*
X312881Y160097D01*
X313055Y161418D01*
X314325D01*
X314499Y160097D01*
X315708Y157178D01*
X317631Y154671D01*
X320138Y152748D01*
X323057Y151539D01*
X326190Y151126D01*
X329323Y151539D01*
X332242Y152748D01*
X334748Y154671D01*
X336672Y157178D01*
X337881Y160097D01*
X338055Y161418D01*
X339325D01*
X339499Y160097D01*
X340708Y157178D01*
X342631Y154671D01*
X345138Y152748D01*
X348057Y151539D01*
X351190Y151126D01*
X354323Y151539D01*
X357242Y152748D01*
X359748Y154671D01*
X361672Y157178D01*
X362881Y160097D01*
X363294Y163230D01*
X362881Y166363D01*
X361672Y169282D01*
X359748Y171789D01*
X357826Y173263D01*
X358235Y174466D01*
X361839D01*
X376936Y159369D01*
Y129000D01*
X377190Y127724D01*
X377912Y126643D01*
X377912Y126643D01*
X377912Y126642D01*
X400962Y103593D01*
X402044Y102870D01*
X403320Y102616D01*
X431549D01*
X440085Y94080D01*
X438959Y91363D01*
X438785Y90042D01*
X437515D01*
X437341Y91363D01*
X436132Y94282D01*
X434208Y96789D01*
X431702Y98712D01*
X428783Y99921D01*
X425650Y100334D01*
X422517Y99921D01*
X419598Y98712D01*
X417091Y96789D01*
X415168Y94282D01*
X413959Y91363D01*
X413785Y90042D01*
X412515D01*
X412341Y91363D01*
X411132Y94282D01*
X409208Y96789D01*
X406702Y98712D01*
X403783Y99921D01*
X400650Y100334D01*
X397517Y99921D01*
X394598Y98712D01*
X392091Y96789D01*
X390168Y94282D01*
X388959Y91363D01*
X388546Y88230D01*
X388959Y85097D01*
X390168Y82178D01*
X392091Y79672D01*
X394598Y77748D01*
X397517Y76539D01*
X400650Y76126D01*
X403783Y76539D01*
X406702Y77748D01*
X409208Y79672D01*
X411132Y82178D01*
X412341Y85097D01*
X412515Y86418D01*
X413785D01*
X413959Y85097D01*
X415168Y82178D01*
X417091Y79672D01*
X419598Y77748D01*
X422517Y76539D01*
X425650Y76126D01*
X428783Y76539D01*
X431702Y77748D01*
X434208Y79672D01*
X436132Y82178D01*
X437341Y85097D01*
X437515Y86418D01*
X438785D01*
X438959Y85097D01*
X440168Y82178D01*
X442091Y79672D01*
X444598Y77748D01*
X447517Y76539D01*
X450650Y76126D01*
X453783Y76539D01*
X456702Y77748D01*
X459208Y79672D01*
X461132Y82178D01*
X462341Y85097D01*
X462515Y86418D01*
X463785D01*
X463959Y85097D01*
X465168Y82178D01*
X467091Y79672D01*
X469598Y77748D01*
X472517Y76539D01*
X475650Y76126D01*
X478783Y76539D01*
X481702Y77748D01*
X484208Y79672D01*
X486132Y82178D01*
X487341Y85097D01*
X487754Y88230D01*
X487341Y91363D01*
X486132Y94282D01*
X484208Y96789D01*
X481702Y98712D01*
X478783Y99921D01*
X475650Y100334D01*
X472517Y99921D01*
X469800Y98795D01*
X455747Y112847D01*
X454666Y113570D01*
X453390Y113824D01*
X406581D01*
X388144Y132261D01*
Y158810D01*
X389390Y159057D01*
X390168Y157178D01*
X392091Y154671D01*
X394598Y152748D01*
X397517Y151539D01*
X400650Y151126D01*
X403783Y151539D01*
X406702Y152748D01*
X409208Y154671D01*
X411132Y157178D01*
X412341Y160097D01*
X412515Y161418D01*
X413785D01*
X413959Y160097D01*
X415168Y157178D01*
X417091Y154671D01*
X419598Y152748D01*
X422517Y151539D01*
X425650Y151126D01*
X428783Y151539D01*
X431702Y152748D01*
X434208Y154671D01*
X436132Y157178D01*
X437341Y160097D01*
X437515Y161418D01*
X438785D01*
X438959Y160097D01*
X440168Y157178D01*
X442091Y154671D01*
X444598Y152748D01*
X447517Y151539D01*
X450650Y151126D01*
X453783Y151539D01*
X456702Y152748D01*
X459208Y154671D01*
X461132Y157178D01*
X462341Y160097D01*
X462515Y161418D01*
X463785D01*
X463959Y160097D01*
X465168Y157178D01*
X467091Y154671D01*
X469598Y152748D01*
X472517Y151539D01*
X475650Y151126D01*
X478783Y151539D01*
X481702Y152748D01*
X484208Y154671D01*
X486132Y157178D01*
X487341Y160097D01*
X487754Y163230D01*
X487341Y166363D01*
X486132Y169282D01*
X484208Y171789D01*
X481702Y173712D01*
X478783Y174921D01*
X475650Y175334D01*
X472517Y174921D01*
X469598Y173712D01*
X467091Y171789D01*
X465168Y169282D01*
X463959Y166363D01*
X463785Y165042D01*
X462515D01*
X462341Y166363D01*
X461132Y169282D01*
X459208Y171789D01*
X456702Y173712D01*
X453783Y174921D01*
X450650Y175334D01*
X447517Y174921D01*
X444598Y173712D01*
X442091Y171789D01*
X440168Y169282D01*
X438959Y166363D01*
X438785Y165042D01*
X437515D01*
X437341Y166363D01*
X436132Y169282D01*
X434208Y171789D01*
X431702Y173712D01*
X428984Y174838D01*
Y181699D01*
X431618Y184333D01*
X433215Y184651D01*
X434704Y185645D01*
X435698Y187134D01*
X436048Y188890D01*
X435828Y189994D01*
X436360Y190643D01*
X437629Y190705D01*
X439603Y188731D01*
X439921Y187134D01*
X440915Y185645D01*
X442404Y184651D01*
X444160Y184301D01*
X445915Y184651D01*
X447404Y185645D01*
X448398Y187134D01*
X448748Y188890D01*
X448398Y190645D01*
X447404Y192134D01*
X445915Y193128D01*
X444318Y193446D01*
X441097Y196667D01*
X440015Y197390D01*
X438739Y197644D01*
X428730D01*
X427454Y197390D01*
X426372Y196667D01*
X418753Y189048D01*
X418030Y187966D01*
X417776Y186690D01*
Y185071D01*
X406500Y173795D01*
X403783Y174921D01*
X400650Y175334D01*
X397517Y174921D01*
X394598Y173712D01*
X392091Y171789D01*
X390168Y169282D01*
X388959Y166363D01*
X388748Y164762D01*
X387511Y164474D01*
X387168Y164988D01*
X366108Y186047D01*
X365026Y186770D01*
X363750Y187024D01*
X352950D01*
X350926Y189048D01*
X350608Y190645D01*
X349614Y192134D01*
X348125Y193128D01*
X346370Y193478D01*
X344614Y193128D01*
X343125Y192134D01*
X342131Y190645D01*
X341781Y188890D01*
X342131Y187134D01*
X343125Y185645D01*
X344614Y184651D01*
X346211Y184333D01*
X348237Y182307D01*
X347751Y181134D01*
X345551D01*
X338226Y188459D01*
X337908Y190056D01*
X336914Y191545D01*
X335425Y192539D01*
X333670Y192889D01*
X331914Y192539D01*
X330425Y191545D01*
X329431Y190056D01*
X329081Y188300D01*
X329431Y186545D01*
X330425Y185056D01*
X331914Y184062D01*
X333511Y183744D01*
X341813Y175443D01*
X342894Y174720D01*
X344170Y174466D01*
X344170Y172969D01*
X342631Y171789D01*
X340708Y169282D01*
X339499Y166363D01*
X339325Y165042D01*
X338055D01*
X337881Y166363D01*
X336672Y169282D01*
X334748Y171789D01*
X332242Y173712D01*
X329323Y174921D01*
X326190Y175334D01*
X323057Y174921D01*
X320138Y173712D01*
X317631Y171789D01*
X315708Y169282D01*
X314499Y166363D01*
X314325Y165042D01*
X313055D01*
X312881Y166363D01*
X311672Y169282D01*
X309748Y171789D01*
X307242Y173712D01*
X304323Y174921D01*
X301190Y175334D01*
X298057Y174921D01*
X295340Y173795D01*
X293824Y175312D01*
Y185779D01*
X294728Y187134D01*
X295078Y188890D01*
X294728Y190645D01*
X294407Y191126D01*
X294543Y191379D01*
X295799Y191565D01*
X298633Y188731D01*
X298951Y187134D01*
X299945Y185645D01*
X301434Y184651D01*
X303190Y184301D01*
X304945Y184651D01*
X306434Y185645D01*
X307428Y187134D01*
X307778Y188890D01*
X307428Y190645D01*
X306434Y192134D01*
X304945Y193128D01*
X303819Y193352D01*
X303221Y194472D01*
X303443Y195010D01*
X326470D01*
Y219010D01*
X300470D01*
Y211035D01*
X299297Y210549D01*
X297058Y212787D01*
X297250Y213250D01*
X297250D01*
X297250Y213250D01*
Y222250D01*
Y231250D01*
X295269D01*
Y236300D01*
X296710D01*
Y238931D01*
X300470D01*
Y233110D01*
X326470D01*
Y257110D01*
X321829D01*
Y259512D01*
X322014Y259636D01*
X323009Y261125D01*
X323358Y262880D01*
X323009Y264636D01*
X322014Y266125D01*
X320526Y267119D01*
X318770Y267469D01*
D02*
G37*
G36*
X113490Y248230D02*
X109220D01*
Y244460D01*
X113490D01*
Y248230D01*
D02*
G37*
G36*
X592804Y239744D02*
X580676D01*
Y236739D01*
X574010D01*
Y238680D01*
X565550D01*
Y239220D01*
X561780D01*
Y233680D01*
Y228140D01*
X565550D01*
Y228140D01*
X565553D01*
X566451Y227242D01*
Y224250D01*
X562896D01*
Y210090D01*
X575786D01*
Y224250D01*
X572568D01*
Y228680D01*
X574010D01*
Y230621D01*
X580676D01*
Y227616D01*
X592804D01*
Y230621D01*
X597864D01*
X598736Y229317D01*
X600224Y228322D01*
X601980Y227973D01*
X603736Y228322D01*
X605224Y229317D01*
X606219Y230805D01*
X606568Y232561D01*
X606219Y234317D01*
X605224Y235805D01*
X603736Y236800D01*
X601980Y237149D01*
X600224Y236800D01*
X600133Y236739D01*
X592804D01*
Y239744D01*
D02*
G37*
G36*
X281940Y240030D02*
X278170D01*
Y235760D01*
X281940D01*
Y240030D01*
D02*
G37*
G36*
Y246840D02*
X278170D01*
Y242570D01*
X281940D01*
Y246840D01*
D02*
G37*
G36*
X67650Y277638D02*
X65895Y277289D01*
X64406Y276294D01*
X63412Y274806D01*
X63062Y273050D01*
X63412Y271294D01*
X64316Y269940D01*
Y269895D01*
X64011Y269691D01*
X62895Y268022D01*
X62504Y266052D01*
Y251828D01*
X62895Y249858D01*
X64011Y248189D01*
X65681Y247073D01*
X67650Y246681D01*
X69225Y246994D01*
X69931Y245938D01*
X69081Y244666D01*
X68731Y242910D01*
X69081Y241155D01*
X70075Y239666D01*
X71564Y238672D01*
X73320Y238322D01*
X75075Y238672D01*
X76564Y239666D01*
X77558Y241155D01*
X77908Y242910D01*
X77558Y244666D01*
X76564Y246155D01*
X75075Y247149D01*
X73320Y247499D01*
X72075Y247251D01*
X71369Y248307D01*
X72406Y249858D01*
X72797Y251828D01*
Y266052D01*
X72406Y268022D01*
X71290Y269691D01*
X70985Y269895D01*
Y269940D01*
X71889Y271294D01*
X72239Y273050D01*
X71889Y274806D01*
X70895Y276294D01*
X69406Y277289D01*
X67650Y277638D01*
D02*
G37*
G36*
X651681Y180640D02*
X626939D01*
X627019Y180236D01*
X627967Y178817D01*
Y178503D01*
X627019Y177084D01*
X626939Y176680D01*
X651681D01*
X651601Y177084D01*
X650653Y178503D01*
Y178817D01*
X651601Y180236D01*
X651681Y180640D01*
D02*
G37*
G36*
X667440Y174450D02*
X663670D01*
Y173910D01*
X655210D01*
Y171969D01*
X651767D01*
X651169Y173089D01*
X651601Y173736D01*
X651681Y174140D01*
X626939D01*
X627019Y173736D01*
X627967Y172317D01*
X628356Y172057D01*
X628356Y171614D01*
X627528Y170373D01*
X627237Y168910D01*
X627528Y167447D01*
X628356Y166206D01*
X628356Y166206D01*
X627967Y165503D01*
X627967Y165503D01*
X627967D01*
X627019Y164084D01*
X626939Y163680D01*
X651681D01*
X651601Y164084D01*
X651169Y164731D01*
X651767Y165851D01*
X655210D01*
Y163910D01*
X663670D01*
Y163370D01*
X667440D01*
Y168910D01*
Y174450D01*
D02*
G37*
G36*
X707950Y201350D02*
X696870D01*
Y197580D01*
X697410D01*
Y189120D01*
X699352D01*
Y186315D01*
X699066Y186124D01*
X698071Y184636D01*
X697722Y182880D01*
X698071Y181124D01*
X698071D01*
X697159Y181053D01*
X697206Y181057D01*
X697159Y181053D01*
X697159D01*
Y167045D01*
X707662D01*
Y181053D01*
X707536D01*
X706730Y182035D01*
X706898Y182880D01*
X706549Y184636D01*
X705554Y186124D01*
X705469Y186181D01*
Y189120D01*
X707410D01*
Y197580D01*
X707950D01*
Y201350D01*
D02*
G37*
G36*
X97389Y223044D02*
X83820D01*
X82544Y222790D01*
X81462Y222068D01*
X77993Y218598D01*
X77270Y217516D01*
X77016Y216241D01*
Y214015D01*
X76711Y213811D01*
X75595Y212142D01*
X75204Y210172D01*
Y195948D01*
X75595Y193978D01*
X76711Y192309D01*
X78381Y191193D01*
X80351Y190801D01*
X82320Y191193D01*
X83990Y192309D01*
X85106Y193978D01*
X85497Y195948D01*
Y210172D01*
X85106Y212142D01*
X83990Y213811D01*
X83990Y213811D01*
X83990D01*
X83685Y214860D01*
X83685Y214860D01*
X83685Y214860D01*
X85201Y216376D01*
X91886D01*
X92011Y215112D01*
X91081Y214927D01*
X89411Y213811D01*
X88295Y212142D01*
X87904Y210172D01*
Y195948D01*
X88295Y193978D01*
X89411Y192309D01*
X89716Y192104D01*
Y182391D01*
X81120Y173795D01*
X78403Y174921D01*
X75270Y175334D01*
X72137Y174921D01*
X69218Y173712D01*
X66712Y171789D01*
X64788Y169282D01*
X63579Y166363D01*
X63405Y165042D01*
X62135D01*
X61961Y166363D01*
X60835Y169080D01*
X70008Y178253D01*
X70731Y179335D01*
X70731Y179335D01*
X70731Y179335D01*
X70985Y180611D01*
Y192104D01*
X71290Y192309D01*
X72406Y193978D01*
X72797Y195948D01*
Y210172D01*
X72406Y212142D01*
X71290Y213811D01*
X69620Y214927D01*
X67650Y215319D01*
X65681Y214927D01*
X64011Y213811D01*
X62895Y212142D01*
X62504Y210172D01*
Y195948D01*
X62895Y193978D01*
X64011Y192309D01*
X64316Y192104D01*
Y181992D01*
X56120Y173795D01*
X53403Y174921D01*
X50270Y175334D01*
X47137Y174921D01*
X44218Y173712D01*
X41712Y171789D01*
X39788Y169282D01*
X38579Y166363D01*
X38405Y165042D01*
X37135D01*
X36961Y166363D01*
X35835Y169080D01*
X57308Y190553D01*
X58031Y191635D01*
X58100Y191981D01*
X58590Y192309D01*
X59706Y193978D01*
X60097Y195948D01*
Y210172D01*
X59706Y212142D01*
X58590Y213811D01*
X56920Y214927D01*
X54950Y215319D01*
X52981Y214927D01*
X51311Y213811D01*
X50195Y212142D01*
X49804Y210172D01*
Y195948D01*
X50195Y193978D01*
X50639Y193314D01*
X31120Y173795D01*
X28403Y174921D01*
X25270Y175334D01*
X22137Y174921D01*
X19218Y173712D01*
X16711Y171789D01*
X14788Y169282D01*
X13579Y166363D01*
X13166Y163230D01*
X13579Y160097D01*
X14788Y157178D01*
X16711Y154671D01*
X19218Y152748D01*
X22137Y151539D01*
X25270Y151126D01*
X28403Y151539D01*
X31322Y152748D01*
X33828Y154671D01*
X35752Y157178D01*
X36961Y160097D01*
X37135Y161418D01*
X38405D01*
X38579Y160097D01*
X39788Y157178D01*
X41712Y154671D01*
X44218Y152748D01*
X47137Y151539D01*
X50270Y151126D01*
X53403Y151539D01*
X56322Y152748D01*
X58829Y154671D01*
X60752Y157178D01*
X61961Y160097D01*
X62135Y161418D01*
X63405D01*
X63579Y160097D01*
X64788Y157178D01*
X66712Y154671D01*
X69218Y152748D01*
X72137Y151539D01*
X75270Y151126D01*
X78403Y151539D01*
X81322Y152748D01*
X83828Y154671D01*
X85752Y157178D01*
X86961Y160097D01*
X87135Y161418D01*
X88405D01*
X88579Y160097D01*
X89788Y157178D01*
X91712Y154671D01*
X94218Y152748D01*
X97137Y151539D01*
X100270Y151126D01*
X103403Y151539D01*
X106322Y152748D01*
X108828Y154671D01*
X110752Y157178D01*
X111961Y160097D01*
X112374Y163230D01*
X111961Y166363D01*
X110752Y169282D01*
X108828Y171789D01*
X106322Y173712D01*
X103604Y174838D01*
Y216829D01*
X103350Y218105D01*
X102627Y219187D01*
X99747Y222068D01*
X98665Y222790D01*
X97389Y223044D01*
D02*
G37*
G36*
X775410Y177607D02*
X766139D01*
Y169860D01*
X775410D01*
Y177607D01*
D02*
G37*
G36*
X726661Y181053D02*
X716158D01*
Y167045D01*
X717110D01*
X717326Y166525D01*
X716620Y165469D01*
X707690D01*
X707690Y165469D01*
X706519Y165236D01*
X705527Y164573D01*
X705527Y164573D01*
X700247Y159293D01*
X699585Y158301D01*
X699352Y157130D01*
X699352Y157130D01*
Y156054D01*
X697159D01*
Y152469D01*
X687890D01*
Y154410D01*
X669890D01*
Y152469D01*
X667380D01*
Y154040D01*
X657380D01*
Y152469D01*
X651767D01*
X651169Y153589D01*
X651601Y154236D01*
X651681Y154640D01*
X626939D01*
X627019Y154236D01*
X627967Y152817D01*
X627967Y152817D01*
X627967D01*
X628356Y152114D01*
X628356Y152114D01*
X628356D01*
X627528Y150873D01*
X627237Y149410D01*
X627528Y147947D01*
X628356Y146706D01*
X628356Y146263D01*
X627967Y146003D01*
X627019Y144584D01*
X626939Y144180D01*
X651681D01*
X651601Y144584D01*
X651169Y145231D01*
X651767Y146351D01*
X656840D01*
Y145580D01*
X656840D01*
Y141810D01*
X667920D01*
Y145580D01*
D01*
Y145580D01*
X668691Y146351D01*
X669890D01*
Y144410D01*
X687890D01*
Y146351D01*
X697159D01*
Y142047D01*
X706119D01*
Y141507D01*
X710640D01*
Y149051D01*
Y156594D01*
X707860D01*
X707374Y157768D01*
X708957Y159351D01*
X718459D01*
X718460Y159351D01*
X719630Y159584D01*
X720622Y160247D01*
X723572Y163197D01*
X723572Y163197D01*
X724236Y164189D01*
X724468Y165360D01*
X724468Y165360D01*
Y167045D01*
X726661D01*
Y181053D01*
D02*
G37*
G36*
X673750Y174450D02*
X669980D01*
Y170180D01*
X673750D01*
Y174450D01*
D02*
G37*
G36*
X787221Y177607D02*
X777950D01*
Y169860D01*
X787221D01*
Y177607D01*
D02*
G37*
G36*
X673750Y187140D02*
X669980D01*
Y182870D01*
X673750D01*
Y187140D01*
D02*
G37*
G36*
X701140Y207660D02*
X696870D01*
Y203890D01*
X701140D01*
Y207660D01*
D02*
G37*
G36*
X377810Y205740D02*
X365540D01*
Y194470D01*
X377810D01*
Y205740D01*
D02*
G37*
G36*
X363000Y219550D02*
X350730D01*
Y208280D01*
X363000D01*
Y219550D01*
D02*
G37*
G36*
X707950Y207660D02*
X703680D01*
Y203890D01*
X707950D01*
Y207660D01*
D02*
G37*
G36*
X483584Y254984D02*
X471456D01*
Y242856D01*
X472422D01*
Y236073D01*
X469060Y235054D01*
X465238Y233011D01*
X461888Y230262D01*
X459139Y226912D01*
X457096Y223090D01*
X455838Y218943D01*
X455414Y214630D01*
X455838Y210317D01*
X457096Y206170D01*
X459139Y202348D01*
X461888Y198998D01*
X465238Y196249D01*
X469060Y194206D01*
X473207Y192948D01*
X477520Y192524D01*
X481833Y192948D01*
X485980Y194206D01*
X489802Y196249D01*
X493152Y198998D01*
X495901Y202348D01*
X497944Y206170D01*
X499202Y210317D01*
X499626Y214630D01*
X499202Y218943D01*
X497944Y223090D01*
X495901Y226912D01*
X493152Y230262D01*
X489802Y233011D01*
X485980Y235054D01*
X482618Y236073D01*
Y242856D01*
X483584D01*
Y254984D01*
D02*
G37*
G36*
X673750Y193950D02*
X669980D01*
Y189680D01*
X673750D01*
Y193950D01*
D02*
G37*
G36*
X363000Y205740D02*
X350730D01*
Y194470D01*
X363000D01*
Y205740D01*
D02*
G37*
G36*
X667440Y193950D02*
X663670D01*
Y193410D01*
X655210D01*
Y193410D01*
X654536Y192649D01*
X652780Y192998D01*
X651024Y192649D01*
X649536Y191654D01*
X649536D01*
Y191654D01*
X649473Y191642D01*
X649023Y191942D01*
X647560Y192233D01*
X631060D01*
X629597Y191942D01*
X628356Y191113D01*
X627528Y189873D01*
X627237Y188410D01*
X627528Y186947D01*
X628356Y185706D01*
X628356Y185706D01*
X627967Y185003D01*
X627967Y185003D01*
X627967D01*
X627019Y183584D01*
X626939Y183180D01*
X651952D01*
X652624Y183853D01*
X652780Y183822D01*
X654536Y184171D01*
D01*
Y184171D01*
X655210Y183410D01*
Y183410D01*
X663670D01*
Y182870D01*
X667440D01*
Y188410D01*
Y193950D01*
D02*
G37*
G36*
X380800Y573280D02*
X367030D01*
Y566010D01*
X380800D01*
Y573280D01*
D02*
G37*
G36*
X364490D02*
X350720D01*
Y566010D01*
X364490D01*
Y573280D01*
D02*
G37*
G36*
X262159Y599090D02*
X250159D01*
Y587090D01*
X250860D01*
X251665Y586108D01*
X251571Y585632D01*
X251920Y583877D01*
X252915Y582388D01*
X254403Y581394D01*
X256159Y581044D01*
X257915Y581394D01*
X259403Y582388D01*
X260398Y583877D01*
X260747Y585632D01*
X260653Y586108D01*
X261458Y587090D01*
X262159D01*
Y599090D01*
D02*
G37*
G36*
X155069Y593700D02*
X152393Y593348D01*
X149899Y592315D01*
X147758Y590672D01*
X146115Y588531D01*
X145082Y586038D01*
X144730Y583362D01*
X145082Y580686D01*
X146115Y578193D01*
X147758Y576052D01*
X149899Y574409D01*
X152393Y573376D01*
X155069Y573023D01*
X157744Y573376D01*
X160238Y574409D01*
X162379Y576052D01*
X164022Y578193D01*
X165055Y580686D01*
X165407Y583362D01*
X165055Y586038D01*
X164022Y588531D01*
X162379Y590672D01*
X160238Y592315D01*
X157744Y593348D01*
X155069Y593700D01*
D02*
G37*
G36*
X605190Y560639D02*
X599460D01*
X597299Y560209D01*
X595466Y558984D01*
X594241Y557152D01*
X594064Y556260D01*
X605190D01*
Y560639D01*
D02*
G37*
G36*
X380800Y563470D02*
X367030D01*
Y556200D01*
X380800D01*
Y563470D01*
D02*
G37*
G36*
X196284Y572278D02*
X194529Y571929D01*
X193040Y570934D01*
X192045Y569446D01*
X191696Y567690D01*
X191740Y567471D01*
X185037Y560769D01*
X184374Y559776D01*
X184141Y558606D01*
X184141Y558606D01*
Y553988D01*
X161290D01*
X161290Y553988D01*
X159988Y553729D01*
X159729Y553678D01*
X158406Y552794D01*
X158406Y552794D01*
X152187Y546574D01*
X151302Y545251D01*
X151251Y544992D01*
X150992Y543690D01*
X150992Y543690D01*
Y507755D01*
X150992Y507755D01*
X151251Y506454D01*
X151302Y506195D01*
X152187Y504871D01*
X173532Y483526D01*
X174855Y482642D01*
X175114Y482591D01*
X176416Y482332D01*
X176416Y482332D01*
X177705D01*
Y481870D01*
X195675D01*
Y489627D01*
X195924Y489876D01*
X196808Y491199D01*
X196859Y491458D01*
X197118Y492760D01*
X197118Y492760D01*
Y546100D01*
X197118Y546100D01*
X196859Y547402D01*
X196808Y547661D01*
X195924Y548984D01*
X195200Y549708D01*
Y549750D01*
X195158D01*
X192114Y552794D01*
X190791Y553678D01*
X190532Y553729D01*
X190259Y553784D01*
Y557339D01*
X196065Y563145D01*
X196284Y563102D01*
X198040Y563451D01*
X199529Y564446D01*
X200523Y565934D01*
X200872Y567690D01*
X200523Y569446D01*
X199529Y570934D01*
X198040Y571929D01*
X196284Y572278D01*
D02*
G37*
G36*
X613460Y560639D02*
X607730D01*
Y556260D01*
X618856D01*
X618679Y557152D01*
X617454Y558984D01*
X615622Y560209D01*
X613460Y560639D01*
D02*
G37*
G36*
X262159Y642270D02*
X250159D01*
Y630270D01*
X250968D01*
X251774Y629288D01*
X251571Y628269D01*
X251920Y626513D01*
X252915Y625025D01*
X254403Y624030D01*
X256159Y623681D01*
X257915Y624030D01*
X259403Y625025D01*
X260398Y626513D01*
X260747Y628269D01*
X260544Y629288D01*
X261350Y630270D01*
X262159D01*
Y642270D01*
D02*
G37*
G36*
X375110Y625420D02*
X370840D01*
Y621650D01*
X375110D01*
Y625420D01*
D02*
G37*
G36*
X245141Y642270D02*
X233141D01*
Y639329D01*
X224790D01*
X223619Y639096D01*
X222627Y638433D01*
X213737Y629543D01*
X213074Y628550D01*
X212841Y627380D01*
X212841Y627380D01*
Y579120D01*
X212841Y579120D01*
X213074Y577949D01*
X213737Y576957D01*
X259837Y530857D01*
X259837Y530857D01*
X259837D01*
X259837Y530857D01*
X259837D01*
X259837Y530857D01*
Y530857D01*
Y530857D01*
D01*
D01*
X259837D01*
Y530857D01*
X260830Y530194D01*
X262000Y529961D01*
X340443D01*
X349365Y521039D01*
X350358Y520376D01*
X351528Y520143D01*
X369754D01*
Y515868D01*
X381882D01*
Y530536D01*
X369754D01*
Y526261D01*
X352795D01*
X346268Y532788D01*
X346754Y533961D01*
X415753D01*
X415753Y533961D01*
X416924Y534194D01*
X417916Y534857D01*
X423750Y540691D01*
X451768D01*
X451768Y540691D01*
X452939Y540924D01*
X453931Y541587D01*
X461481Y549137D01*
X461700Y549094D01*
X463456Y549443D01*
X464944Y550438D01*
X465939Y551926D01*
X466288Y553682D01*
X465939Y555438D01*
X464944Y556926D01*
X463456Y557921D01*
X461700Y558270D01*
X459944Y557921D01*
X458456Y556926D01*
X457461Y555438D01*
X457112Y553682D01*
X457155Y553463D01*
X450501Y546809D01*
X425870D01*
X425384Y547982D01*
X426539Y549137D01*
X426758Y549094D01*
X428514Y549443D01*
X430002Y550438D01*
X430997Y551926D01*
X431346Y553682D01*
X430997Y555438D01*
X430002Y556926D01*
X428514Y557921D01*
X426758Y558270D01*
X425002Y557921D01*
X423514Y556926D01*
X422519Y555438D01*
X422170Y553682D01*
X422214Y553463D01*
X412829Y544079D01*
X266581D01*
X228714Y581945D01*
Y589768D01*
X228977Y590031D01*
X233141D01*
Y587090D01*
X245141D01*
Y599090D01*
X233141D01*
Y596149D01*
X227710D01*
X226539Y595916D01*
X225547Y595253D01*
X225547Y595253D01*
X224132Y593838D01*
X222959Y594324D01*
Y605793D01*
X228787Y611621D01*
X233303D01*
Y608680D01*
X245303D01*
Y620680D01*
X233303D01*
Y617739D01*
X227520D01*
X226350Y617506D01*
X225952Y617240D01*
X225357Y616843D01*
X225357Y616843D01*
X220132Y611618D01*
X218959Y612104D01*
Y626113D01*
X226057Y633211D01*
X233141D01*
Y630270D01*
X245141D01*
Y642270D01*
D02*
G37*
G36*
X396100Y628927D02*
X390258D01*
X388078Y628493D01*
X386229Y627258D01*
X384994Y625410D01*
X384813Y624500D01*
X396100D01*
Y628927D01*
D02*
G37*
G36*
X404482D02*
X398640D01*
Y623229D01*
X397370D01*
Y621959D01*
X384813D01*
X384994Y621049D01*
X386229Y619201D01*
X388078Y617966D01*
X388353Y617911D01*
X388229Y616647D01*
X380260D01*
Y616740D01*
X351260D01*
Y616647D01*
X342190D01*
Y620320D01*
X319190D01*
Y563320D01*
X342190D01*
Y604412D01*
X351260D01*
Y600740D01*
X380260D01*
Y604412D01*
X396081D01*
Y595725D01*
X390430D01*
Y577755D01*
X408400D01*
Y595725D01*
X402749D01*
Y605383D01*
X404482D01*
X406452Y605774D01*
X408121Y606890D01*
X409237Y608560D01*
X409490Y609830D01*
X409810D01*
X409810D01*
X413145Y609830D01*
X413146Y609830D01*
Y609830D01*
X424180D01*
Y628650D01*
X409810D01*
Y627501D01*
X408595Y627133D01*
X408511Y627258D01*
X406662Y628493D01*
X404482Y628927D01*
D02*
G37*
G36*
X262321Y620680D02*
X250321D01*
Y608680D01*
X251011D01*
X251817Y607698D01*
X251733Y607279D01*
X252083Y605523D01*
X253077Y604034D01*
X254566Y603040D01*
X256321Y602691D01*
X258077Y603040D01*
X259566Y604034D01*
X260560Y605523D01*
X260910Y607279D01*
X260826Y607698D01*
X261632Y608680D01*
X262321D01*
Y620680D01*
D02*
G37*
G36*
X368300Y625420D02*
X364030D01*
Y621650D01*
X368300D01*
Y625420D01*
D02*
G37*
G36*
X617994Y618119D02*
X617994Y618119D01*
X565646D01*
X565646Y618119D01*
X564476Y617886D01*
X563483Y617223D01*
X525777Y579517D01*
X525114Y578524D01*
X524881Y577354D01*
X524881Y577354D01*
Y515121D01*
X499229Y489469D01*
X396930D01*
X395759Y489236D01*
X395362Y488970D01*
X394767Y488573D01*
X394767Y488573D01*
X370943Y464749D01*
X370372Y464635D01*
X369390Y465440D01*
Y468520D01*
X371331D01*
Y477520D01*
Y486520D01*
X369390D01*
Y492932D01*
X372345D01*
Y507600D01*
X360217D01*
Y492932D01*
X363273D01*
Y486520D01*
X361331D01*
Y477520D01*
Y468520D01*
X363273D01*
Y465705D01*
X358377Y460810D01*
X357204Y461296D01*
Y462980D01*
X358109Y464334D01*
X358458Y466090D01*
X358109Y467846D01*
X357114Y469334D01*
X355626Y470329D01*
X353870Y470678D01*
X352114Y470329D01*
X350626Y469334D01*
X349631Y467846D01*
X349282Y466090D01*
X349631Y464334D01*
X350536Y462980D01*
Y446750D01*
X350140D01*
Y436460D01*
Y426170D01*
X352660D01*
Y426710D01*
X395080D01*
Y426170D01*
X397600D01*
Y436460D01*
Y446750D01*
X396929D01*
Y449063D01*
X411217Y463351D01*
X532130D01*
X532130Y463351D01*
X533301Y463584D01*
X534293Y464247D01*
X539747Y469701D01*
X557315D01*
X557801Y468528D01*
X545722Y456449D01*
X477520D01*
X476349Y456216D01*
X475952Y455950D01*
X475357Y455553D01*
X475357Y455553D01*
X438823Y419019D01*
X429120D01*
Y419210D01*
X409620D01*
Y412710D01*
Y407710D01*
Y402710D01*
Y399750D01*
X409080D01*
Y397230D01*
X429660D01*
Y397901D01*
X446680D01*
X446680Y397901D01*
X447850Y398134D01*
X448843Y398797D01*
X476031Y425985D01*
X476250Y425942D01*
X478006Y426291D01*
X479494Y427286D01*
X480489Y428774D01*
X480838Y430530D01*
X480489Y432286D01*
X479494Y433774D01*
X479283Y433916D01*
Y435186D01*
X480764Y436176D01*
X481759Y437664D01*
X482108Y439420D01*
X481759Y441176D01*
X480764Y442664D01*
X479276Y443659D01*
X478926Y444813D01*
X480444Y446331D01*
X548646D01*
X548646Y446331D01*
X549816Y446564D01*
X550809Y447227D01*
X565283Y461701D01*
X622007D01*
X622007Y461701D01*
X623178Y461934D01*
X624170Y462597D01*
X643193Y481620D01*
X643856Y482612D01*
X644089Y483783D01*
X644089Y483783D01*
Y530543D01*
X644929Y531383D01*
X645908Y530860D01*
X657190D01*
Y535238D01*
X651460D01*
X650265Y535001D01*
X649667Y536121D01*
X650858Y537312D01*
X651460Y537192D01*
X665460D01*
X667411Y537580D01*
X669065Y538685D01*
X670170Y540339D01*
X670558Y542290D01*
X670170Y544241D01*
X669065Y545895D01*
X667411Y547000D01*
X665460Y547388D01*
X651460D01*
X649570Y547012D01*
X648971Y548132D01*
X650852Y550013D01*
X651460Y549892D01*
X665460D01*
X667411Y550280D01*
X669065Y551385D01*
X670170Y553039D01*
X670558Y554990D01*
X670170Y556941D01*
X669065Y558595D01*
X667411Y559700D01*
X665460Y560088D01*
X651460D01*
X649509Y559700D01*
X647969Y558671D01*
X647969Y558671D01*
X647763Y558922D01*
X647763D01*
X647501Y559241D01*
X647466Y559955D01*
X650328Y562817D01*
X651460Y562592D01*
X665460D01*
X667411Y562980D01*
X669065Y564085D01*
X670170Y565739D01*
X670558Y567690D01*
X670170Y569641D01*
X669065Y571295D01*
X667411Y572400D01*
X665460Y572788D01*
X651460D01*
X649509Y572400D01*
X647855Y571295D01*
X646750Y569641D01*
X646362Y567690D01*
X646393Y567534D01*
X633262Y554403D01*
X632089Y554889D01*
Y557913D01*
X649798Y575623D01*
X651460Y575292D01*
X665460D01*
X667411Y575680D01*
X669065Y576785D01*
X670170Y578439D01*
X670558Y580390D01*
X670170Y582341D01*
X669065Y583995D01*
X667411Y585100D01*
X665460Y585488D01*
X651460D01*
X649509Y585100D01*
X648918Y584705D01*
X648113Y585687D01*
X650591Y588165D01*
X651460Y587992D01*
X665460D01*
X667411Y588380D01*
X669065Y589485D01*
X670170Y591139D01*
X670558Y593090D01*
X670170Y595041D01*
X669065Y596695D01*
X667411Y597800D01*
X665460Y598188D01*
X651460D01*
X649509Y597800D01*
X647855Y596695D01*
X646750Y595041D01*
X646362Y593090D01*
X646445Y592671D01*
X622867Y569093D01*
X622204Y568101D01*
X621971Y566930D01*
X621971Y566930D01*
Y491677D01*
X614113Y483819D01*
X535166D01*
X533996Y483586D01*
X533598Y483320D01*
X533003Y482923D01*
X533003Y482923D01*
X527549Y477469D01*
X508854D01*
X508368Y478642D01*
X538103Y508377D01*
X538103Y508377D01*
X538766Y509370D01*
X538999Y510540D01*
X538999Y510540D01*
Y572773D01*
X570227Y604001D01*
X613413D01*
X615431Y601983D01*
Y599437D01*
X614062Y598068D01*
X613460Y598188D01*
X599460D01*
X597509Y597800D01*
X595855Y596695D01*
X594750Y595041D01*
X594362Y593090D01*
X594750Y591139D01*
X595855Y589485D01*
X597509Y588380D01*
X599460Y587992D01*
X613460D01*
X615411Y588380D01*
X617065Y589485D01*
X618170Y591139D01*
X619431Y590888D01*
Y589190D01*
X615353Y585111D01*
X613460Y585488D01*
X599460D01*
X597509Y585100D01*
X595855Y583995D01*
X594750Y582341D01*
X594362Y580390D01*
X594750Y578439D01*
X595855Y576785D01*
X597509Y575680D01*
X599460Y575292D01*
X613460D01*
X615411Y575680D01*
X617065Y576785D01*
X618170Y578439D01*
X618378Y579485D01*
X622258Y583365D01*
X623431Y582879D01*
Y581060D01*
X614878Y572506D01*
X613460Y572788D01*
X599460D01*
X597509Y572400D01*
X595855Y571295D01*
X594750Y569641D01*
X594362Y567690D01*
X594750Y565739D01*
X595855Y564085D01*
X597509Y562980D01*
X599460Y562592D01*
X613460D01*
X615411Y562980D01*
X617065Y564085D01*
X618170Y565739D01*
X618520Y567496D01*
X628653Y577630D01*
X628653Y577630D01*
X629050Y578225D01*
X629316Y578622D01*
X629549Y579793D01*
Y606564D01*
X629316Y607734D01*
X629050Y608132D01*
X628653Y608727D01*
X628653Y608727D01*
X620157Y617223D01*
X619164Y617886D01*
X617994Y618119D01*
D02*
G37*
G36*
X364490Y563470D02*
X350720D01*
Y556200D01*
X364490D01*
Y563470D01*
D02*
G37*
G36*
X227740Y538480D02*
X220470D01*
Y529210D01*
X227740D01*
Y538480D01*
D02*
G37*
G36*
X217930D02*
X210660D01*
Y529210D01*
X217930D01*
Y538480D01*
D02*
G37*
G36*
X613460Y534688D02*
X599460D01*
X597509Y534300D01*
X595855Y533195D01*
X595490Y532649D01*
X593918D01*
X593794Y532834D01*
X592306Y533829D01*
X590550Y534178D01*
X588794Y533829D01*
X587306Y532834D01*
X586311Y531346D01*
X585962Y529590D01*
X586311Y527834D01*
X587306Y526346D01*
X588794Y525351D01*
X590550Y525002D01*
X592306Y525351D01*
X593794Y526346D01*
X593918Y526531D01*
X595490D01*
X595855Y525985D01*
X597509Y524880D01*
X599460Y524492D01*
X613460D01*
X615411Y524880D01*
X617065Y525985D01*
X618170Y527639D01*
X618558Y529590D01*
X618170Y531541D01*
X617065Y533195D01*
X615411Y534300D01*
X613460Y534688D01*
D02*
G37*
G36*
X665460Y535238D02*
X659730D01*
Y530860D01*
X670856D01*
X670678Y531752D01*
X669454Y533584D01*
X667622Y534809D01*
X665460Y535238D01*
D02*
G37*
G36*
Y522538D02*
X659730D01*
Y518160D01*
X670856D01*
X670678Y519052D01*
X669454Y520884D01*
X667622Y522109D01*
X665460Y522538D01*
D02*
G37*
G36*
X657190D02*
X651460D01*
X649298Y522109D01*
X647466Y520884D01*
X646241Y519052D01*
X646064Y518160D01*
X657190D01*
Y522538D01*
D02*
G37*
G36*
X670856Y528320D02*
X659730D01*
Y523941D01*
X665460D01*
X667622Y524371D01*
X669454Y525596D01*
X670678Y527428D01*
X670856Y528320D01*
D02*
G37*
G36*
X657190D02*
X646064D01*
X646241Y527428D01*
X647466Y525596D01*
X649298Y524371D01*
X651460Y523941D01*
X657190D01*
Y528320D01*
D02*
G37*
G36*
X613460Y547938D02*
X607730D01*
Y543560D01*
X618856D01*
X618679Y544452D01*
X617454Y546284D01*
X615622Y547509D01*
X613460Y547938D01*
D02*
G37*
G36*
X605190D02*
X599460D01*
X597299Y547509D01*
X595466Y546284D01*
X594241Y544452D01*
X594064Y543560D01*
X605190D01*
Y547938D01*
D02*
G37*
G36*
X618856Y553720D02*
X607730D01*
Y549342D01*
X613460D01*
X615622Y549771D01*
X617454Y550996D01*
X618679Y552828D01*
X618856Y553720D01*
D02*
G37*
G36*
X605190D02*
X594064D01*
X594241Y552828D01*
X595466Y550996D01*
X597299Y549771D01*
X599460Y549342D01*
X605190D01*
Y553720D01*
D02*
G37*
G36*
X618856Y541020D02*
X607730D01*
Y536642D01*
X613460D01*
X615622Y537071D01*
X617454Y538296D01*
X618679Y540128D01*
X618856Y541020D01*
D02*
G37*
G36*
X605190D02*
X594064D01*
X594241Y540128D01*
X595466Y538296D01*
X597299Y537071D01*
X599460Y536642D01*
X605190D01*
Y541020D01*
D02*
G37*
G36*
X227740Y550290D02*
X220470D01*
Y541020D01*
X227740D01*
Y550290D01*
D02*
G37*
G36*
X217930D02*
X210660D01*
Y541020D01*
X217930D01*
Y550290D01*
D02*
G37*
G36*
X323160Y634660D02*
X319390D01*
Y630390D01*
X323160D01*
Y634660D01*
D02*
G37*
G36*
X247635Y758190D02*
X232410D01*
Y742965D01*
X234382Y743159D01*
X237500Y744105D01*
X240374Y745641D01*
X242892Y747708D01*
X244959Y750226D01*
X246495Y753100D01*
X247441Y756218D01*
X247635Y758190D01*
D02*
G37*
G36*
X229870D02*
X214645D01*
X214839Y756218D01*
X215785Y753100D01*
X217321Y750226D01*
X219388Y747708D01*
X221906Y745641D01*
X224780Y744105D01*
X227898Y743159D01*
X229870Y742965D01*
Y758190D01*
D02*
G37*
G36*
X453375D02*
X438150D01*
Y742965D01*
X440122Y743159D01*
X443240Y744105D01*
X446114Y745641D01*
X448632Y747708D01*
X450699Y750226D01*
X452235Y753100D01*
X453181Y756218D01*
X453375Y758190D01*
D02*
G37*
G36*
X435610D02*
X420385D01*
X420579Y756218D01*
X421525Y753100D01*
X423061Y750226D01*
X425128Y747708D01*
X427646Y745641D01*
X430520Y744105D01*
X433638Y743159D01*
X435610Y742965D01*
Y758190D01*
D02*
G37*
G36*
X473080Y724416D02*
X468767Y723992D01*
X464620Y722734D01*
X460798Y720691D01*
X457448Y717942D01*
X454699Y714592D01*
X452656Y710770D01*
X451398Y706623D01*
X450974Y702310D01*
X451398Y697997D01*
X452656Y693850D01*
X454699Y690028D01*
X457448Y686678D01*
X460798Y683929D01*
X464620Y681886D01*
X468767Y680628D01*
X473080Y680204D01*
X477393Y680628D01*
X481540Y681886D01*
X485362Y683929D01*
X488712Y686678D01*
X491461Y690028D01*
X493504Y693850D01*
X494762Y697997D01*
X495186Y702310D01*
X494762Y706623D01*
X493504Y710770D01*
X491461Y714592D01*
X488712Y717942D01*
X485362Y720691D01*
X481540Y722734D01*
X477393Y723992D01*
X473080Y724416D01*
D02*
G37*
G36*
X189865D02*
X185552Y723992D01*
X181405Y722734D01*
X177583Y720691D01*
X174233Y717942D01*
X171484Y714592D01*
X169441Y710770D01*
X168183Y706623D01*
X167759Y702310D01*
X168183Y697997D01*
X169441Y693850D01*
X171484Y690028D01*
X174233Y686678D01*
X177583Y683929D01*
X181405Y681886D01*
X185552Y680628D01*
X189865Y680204D01*
X194178Y680628D01*
X198325Y681886D01*
X202147Y683929D01*
X205497Y686678D01*
X208246Y690028D01*
X210289Y693850D01*
X211547Y697997D01*
X211971Y702310D01*
X211547Y706623D01*
X210289Y710770D01*
X208246Y714592D01*
X205497Y717942D01*
X202147Y720691D01*
X198325Y722734D01*
X194178Y723992D01*
X189865Y724416D01*
D02*
G37*
G36*
X193040Y775537D02*
X189904Y775229D01*
X186887Y774314D01*
X184108Y772828D01*
X181672Y770828D01*
X179672Y768392D01*
X178186Y765613D01*
X177271Y762597D01*
X176963Y759460D01*
X177271Y756323D01*
X178186Y753307D01*
X179672Y750528D01*
X181672Y748092D01*
X184108Y746092D01*
X186887Y744606D01*
X189904Y743691D01*
X193040Y743383D01*
X196176Y743691D01*
X199193Y744606D01*
X201972Y746092D01*
X202033Y746142D01*
X223581Y724593D01*
Y719068D01*
X223396Y718944D01*
X222401Y717456D01*
X222052Y715700D01*
X222401Y713944D01*
X223396Y712456D01*
X224884Y711461D01*
X226640Y711112D01*
X228396Y711461D01*
X229884Y712456D01*
X230879Y713944D01*
X231228Y715700D01*
X230879Y717456D01*
X229884Y718944D01*
X229699Y719068D01*
Y725860D01*
X229466Y727030D01*
X228803Y728023D01*
X228803Y728023D01*
X206358Y750468D01*
X206408Y750528D01*
X207894Y753307D01*
X208808Y756323D01*
X209117Y759460D01*
X208808Y762597D01*
X207894Y765613D01*
X206408Y768392D01*
X204408Y770828D01*
X201972Y772828D01*
X199193Y774314D01*
X196176Y775229D01*
X193040Y775537D01*
D02*
G37*
G36*
X66040Y720868D02*
X64284Y720519D01*
X62796Y719524D01*
X61801Y718036D01*
X61452Y716280D01*
X61801Y714524D01*
X62796Y713036D01*
X64284Y712041D01*
X66040Y711692D01*
X67796Y712041D01*
X68226Y712329D01*
X69282Y711623D01*
X69072Y710565D01*
X69421Y708809D01*
X70416Y707321D01*
X71904Y706326D01*
X73660Y705977D01*
X75416Y706326D01*
X76904Y707321D01*
X77899Y708809D01*
X78248Y710565D01*
X77899Y712321D01*
X76904Y713809D01*
X75416Y714804D01*
X73660Y715153D01*
X71904Y714804D01*
X71474Y714516D01*
X70418Y715222D01*
X70628Y716280D01*
X70279Y718036D01*
X69284Y719524D01*
X67796Y720519D01*
X66040Y720868D01*
D02*
G37*
G36*
X232410Y775955D02*
Y760730D01*
X247635D01*
X247441Y762702D01*
X246495Y765820D01*
X244959Y768694D01*
X242892Y771212D01*
X240374Y773279D01*
X237500Y774815D01*
X234382Y775761D01*
X232410Y775955D01*
D02*
G37*
G36*
X229870D02*
X227898Y775761D01*
X224780Y774815D01*
X221906Y773279D01*
X219388Y771212D01*
X217321Y768694D01*
X215785Y765820D01*
X214839Y762702D01*
X214645Y760730D01*
X229870D01*
Y775955D01*
D02*
G37*
G36*
X438150D02*
Y760730D01*
X453375D01*
X453181Y762702D01*
X452235Y765820D01*
X450699Y768694D01*
X448632Y771212D01*
X446114Y773279D01*
X443240Y774815D01*
X440122Y775761D01*
X438150Y775955D01*
D02*
G37*
G36*
X435610D02*
X433638Y775761D01*
X430520Y774815D01*
X427646Y773279D01*
X425128Y771212D01*
X423061Y768694D01*
X421525Y765820D01*
X420579Y762702D01*
X420385Y760730D01*
X435610D01*
Y775955D01*
D02*
G37*
G36*
X325120Y775537D02*
X321983Y775229D01*
X318967Y774314D01*
X316188Y772828D01*
X313752Y770828D01*
X311752Y768392D01*
X310266Y765613D01*
X309352Y762597D01*
X309043Y759460D01*
X309352Y756323D01*
X310266Y753307D01*
X311752Y750528D01*
X313752Y748092D01*
X316188Y746092D01*
X318967Y744606D01*
X321983Y743691D01*
X325120Y743383D01*
X328256Y743691D01*
X331273Y744606D01*
X334052Y746092D01*
X336488Y748092D01*
X338488Y750528D01*
X339974Y753307D01*
X340888Y756323D01*
X341197Y759460D01*
X340888Y762597D01*
X339974Y765613D01*
X338488Y768392D01*
X336488Y770828D01*
X334052Y772828D01*
X331273Y774314D01*
X328256Y775229D01*
X325120Y775537D01*
D02*
G37*
G36*
X287020D02*
X283883Y775229D01*
X280867Y774314D01*
X278088Y772828D01*
X275651Y770828D01*
X273652Y768392D01*
X272166Y765613D01*
X271252Y762597D01*
X270943Y759460D01*
X271252Y756323D01*
X272166Y753307D01*
X273652Y750528D01*
X275651Y748092D01*
X278088Y746092D01*
X280867Y744606D01*
X283883Y743691D01*
X287020Y743383D01*
X290156Y743691D01*
X293173Y744606D01*
X295952Y746092D01*
X298389Y748092D01*
X300388Y750528D01*
X301874Y753307D01*
X302789Y756323D01*
X303097Y759460D01*
X302789Y762597D01*
X301874Y765613D01*
X300388Y768392D01*
X298389Y770828D01*
X295952Y772828D01*
X293173Y774314D01*
X290156Y775229D01*
X287020Y775537D01*
D02*
G37*
G36*
X474980D02*
X471843Y775229D01*
X468827Y774314D01*
X466048Y772828D01*
X463611Y770828D01*
X461612Y768392D01*
X460126Y765613D01*
X459212Y762597D01*
X458903Y759460D01*
X459212Y756323D01*
X460126Y753307D01*
X461612Y750528D01*
X463611Y748092D01*
X466048Y746092D01*
X468827Y744606D01*
X471843Y743691D01*
X474980Y743383D01*
X478116Y743691D01*
X481133Y744606D01*
X483912Y746092D01*
X486348Y748092D01*
X488348Y750528D01*
X489834Y753307D01*
X490748Y756323D01*
X491057Y759460D01*
X490748Y762597D01*
X489834Y765613D01*
X488348Y768392D01*
X486348Y770828D01*
X483912Y772828D01*
X481133Y774314D01*
X478116Y775229D01*
X474980Y775537D01*
D02*
G37*
G36*
X398780D02*
X395644Y775229D01*
X392627Y774314D01*
X389848Y772828D01*
X387411Y770828D01*
X385412Y768392D01*
X383926Y765613D01*
X383012Y762597D01*
X382703Y759460D01*
X383012Y756323D01*
X383926Y753307D01*
X385412Y750528D01*
X387411Y748092D01*
X389848Y746092D01*
X392627Y744606D01*
X395644Y743691D01*
X398780Y743383D01*
X401917Y743691D01*
X404933Y744606D01*
X407712Y746092D01*
X410149Y748092D01*
X412148Y750528D01*
X413634Y753307D01*
X414548Y756323D01*
X414857Y759460D01*
X414548Y762597D01*
X413634Y765613D01*
X412148Y768392D01*
X410149Y770828D01*
X407712Y772828D01*
X404933Y774314D01*
X401917Y775229D01*
X398780Y775537D01*
D02*
G37*
G36*
X244729Y700929D02*
X242973Y700580D01*
X241485Y699585D01*
X240490Y698097D01*
X240141Y696341D01*
X240490Y694585D01*
X241485Y693097D01*
X242973Y692102D01*
X244729Y691753D01*
X244948Y691796D01*
X250322Y686423D01*
X250159Y686030D01*
X250159D01*
X250159Y686030D01*
Y674030D01*
X262159D01*
Y686030D01*
X258995D01*
X258985Y686081D01*
X258322Y687074D01*
X249274Y696122D01*
X249317Y696341D01*
X248968Y698097D01*
X247973Y699585D01*
X246485Y700580D01*
X244729Y700929D01*
D02*
G37*
G36*
X295150Y665480D02*
X286895D01*
Y657225D01*
X295150D01*
Y665480D01*
D02*
G37*
G36*
X458930Y671250D02*
X447850D01*
Y667480D01*
X448390D01*
Y659020D01*
X450056D01*
Y653776D01*
X446138D01*
X444168Y653385D01*
X442499Y652269D01*
X441383Y650599D01*
X441262Y649993D01*
X441090Y650010D01*
X441090Y650010D01*
X441090Y650010D01*
X426720D01*
Y629920D01*
Y609830D01*
X441090D01*
Y605481D01*
X449916D01*
Y600681D01*
X439309Y590074D01*
X429990D01*
Y595725D01*
X412020D01*
Y577755D01*
X429990D01*
Y583406D01*
X440690D01*
X441966Y583660D01*
X443047Y584383D01*
X443048Y584382D01*
X443047Y584383D01*
X455607Y596942D01*
X456041Y597591D01*
X456330Y598024D01*
X456584Y599300D01*
Y605481D01*
X465410D01*
Y614283D01*
X466583Y614769D01*
X469556Y611796D01*
X470879Y610912D01*
X471138Y610861D01*
X472440Y610602D01*
X472440Y610602D01*
X484760D01*
X484760Y610602D01*
X486062Y610861D01*
X486321Y610912D01*
X487644Y611796D01*
X490054Y614206D01*
X490938Y615529D01*
X490989Y615788D01*
X491248Y617090D01*
X491248Y617090D01*
Y624823D01*
X491248Y624823D01*
X490989Y626125D01*
X490938Y626384D01*
X490054Y627707D01*
X487497Y630264D01*
X486174Y631148D01*
X485915Y631199D01*
X484613Y631458D01*
X483790Y635576D01*
Y640190D01*
X482124D01*
Y643780D01*
X483790D01*
Y652240D01*
X484330D01*
Y656010D01*
X473250D01*
Y652240D01*
X473790D01*
Y643780D01*
X475456D01*
Y640190D01*
X473790D01*
Y639264D01*
X464205D01*
X464001Y639569D01*
X462332Y640685D01*
X460362Y641076D01*
X446138D01*
X444168Y640685D01*
X442499Y639569D01*
X442305Y639280D01*
X441090Y639648D01*
Y644911D01*
X442305Y645279D01*
X442499Y644990D01*
X444168Y643874D01*
X446138Y643483D01*
X460362D01*
X462332Y643874D01*
X464001Y644990D01*
X465117Y646660D01*
X465509Y648630D01*
X465117Y650599D01*
X464001Y652269D01*
X462332Y653385D01*
X460362Y653776D01*
X456724D01*
Y659020D01*
X458390D01*
Y667480D01*
X458930D01*
Y671250D01*
D02*
G37*
G36*
X362530Y661670D02*
X358760D01*
Y657400D01*
X362530D01*
Y661670D01*
D02*
G37*
G36*
X305945Y665480D02*
X297690D01*
Y657225D01*
X305945D01*
Y665480D01*
D02*
G37*
G36*
X102529Y664988D02*
X100774Y664639D01*
X99285Y663644D01*
X98291Y662156D01*
X97941Y660400D01*
X98291Y658644D01*
X99285Y657156D01*
X100774Y656161D01*
X101507Y656015D01*
Y654745D01*
X100774Y654599D01*
X99285Y653605D01*
X98291Y652116D01*
X97941Y650360D01*
X98291Y648605D01*
X99285Y647116D01*
X100774Y646122D01*
X102529Y645772D01*
X104285Y646122D01*
X105774Y647116D01*
X106768Y648605D01*
X107118Y650360D01*
X106768Y652116D01*
X105774Y653605D01*
X104285Y654599D01*
X103552Y654745D01*
Y656015D01*
X104285Y656161D01*
X105774Y657156D01*
X106768Y658644D01*
X107118Y660400D01*
X106768Y662156D01*
X105774Y663644D01*
X104285Y664639D01*
X102529Y664988D01*
D02*
G37*
G36*
X368840Y668480D02*
X365070D01*
Y662940D01*
Y657400D01*
X368840D01*
Y657400D01*
X369043D01*
X369941Y656502D01*
Y653630D01*
X359500D01*
Y652198D01*
X320970D01*
X319604Y651926D01*
X318446Y651153D01*
X306578Y639285D01*
X305405Y639771D01*
Y643350D01*
X287435D01*
Y625380D01*
X290303D01*
Y620320D01*
X285190D01*
Y618758D01*
X275590D01*
X275590Y618758D01*
X274288Y618499D01*
X274029Y618448D01*
X272706Y617564D01*
X272706Y617564D01*
X267626Y612484D01*
X266742Y611161D01*
X266691Y610902D01*
X266432Y609600D01*
X266432Y609600D01*
Y566813D01*
X266432Y566813D01*
X266691Y565511D01*
X266742Y565252D01*
X267626Y563929D01*
X267626Y563929D01*
X274369Y557186D01*
X275692Y556302D01*
X275951Y556251D01*
X277253Y555992D01*
X277253Y555992D01*
X297180D01*
X297180Y555992D01*
X298482Y556251D01*
X298741Y556302D01*
X300064Y557186D01*
X300064Y557186D01*
X305144Y562266D01*
X305848Y563320D01*
X308190D01*
Y620320D01*
X302537D01*
Y625380D01*
X305405D01*
Y630796D01*
X306705D01*
X308071Y631068D01*
X309228Y631842D01*
X318217Y640830D01*
X319390Y640344D01*
Y637200D01*
X323160D01*
Y641469D01*
X320516D01*
X320030Y642643D01*
X322448Y645061D01*
X359500D01*
Y643630D01*
X377500D01*
Y645571D01*
X386231D01*
X386619Y644990D01*
X388288Y643874D01*
X390258Y643483D01*
X404482D01*
X406452Y643874D01*
X408121Y644990D01*
X408595Y645698D01*
X409810Y645330D01*
Y639229D01*
X408595Y638861D01*
X408121Y639569D01*
X406452Y640685D01*
X404482Y641076D01*
X390258D01*
X388288Y640685D01*
X386619Y639569D01*
X386414Y639264D01*
X374570D01*
Y640190D01*
X364570D01*
Y639264D01*
X359520D01*
Y640929D01*
X341520D01*
Y639264D01*
X337930D01*
Y640929D01*
X329470D01*
Y641469D01*
X325700D01*
Y635929D01*
Y630390D01*
X329470D01*
Y630929D01*
X337930D01*
Y632595D01*
X341520D01*
Y630929D01*
X359520D01*
Y632595D01*
X364030D01*
Y631730D01*
X364030D01*
Y627960D01*
X375110D01*
Y631730D01*
D01*
Y631730D01*
X375975Y632595D01*
X386414D01*
X386619Y632290D01*
X388288Y631174D01*
X390258Y630783D01*
X404482D01*
X406452Y631174D01*
X408121Y632290D01*
X408595Y632998D01*
X409810Y632630D01*
Y631190D01*
X424180D01*
Y650010D01*
X410355D01*
Y650010D01*
X410355Y650010D01*
X409810Y650010D01*
X409810D01*
X409354D01*
X409237Y650599D01*
X408121Y652269D01*
X406452Y653385D01*
X404482Y653776D01*
X390258D01*
X388288Y653385D01*
X386619Y652269D01*
X386231Y651688D01*
X377500D01*
Y653630D01*
X376059D01*
Y657940D01*
X377300D01*
Y667940D01*
X368840D01*
Y668480D01*
D02*
G37*
G36*
X305945Y654685D02*
X297690D01*
Y646430D01*
X305945D01*
Y654685D01*
D02*
G37*
G36*
X295150D02*
X286895D01*
Y646430D01*
X295150D01*
Y654685D01*
D02*
G37*
G36*
X452120Y677560D02*
X447850D01*
Y673790D01*
X452120D01*
Y677560D01*
D02*
G37*
G36*
X69268Y693702D02*
X66593Y693350D01*
X64099Y692317D01*
X61958Y690674D01*
X60315Y688533D01*
X59282Y686039D01*
X58930Y683363D01*
X59282Y680687D01*
X60315Y678194D01*
X61958Y676053D01*
X64099Y674410D01*
X66593Y673377D01*
X69268Y673025D01*
X71944Y673377D01*
X74438Y674410D01*
X76579Y676053D01*
X78222Y678194D01*
X79255Y680687D01*
X79607Y683363D01*
X79255Y686039D01*
X78222Y688533D01*
X76579Y690674D01*
X74438Y692317D01*
X71944Y693350D01*
X69268Y693702D01*
D02*
G37*
G36*
X109220Y759884D02*
X107464Y759534D01*
X105976Y758540D01*
X104981Y757051D01*
X104632Y755295D01*
X104981Y753540D01*
X105976Y752051D01*
X107464Y751057D01*
X109220Y750707D01*
X110806Y751023D01*
X117920Y743908D01*
X117795Y742645D01*
X117406Y742384D01*
X116411Y740896D01*
X116062Y739140D01*
X116411Y737384D01*
X117406Y735896D01*
X118894Y734901D01*
X120650Y734552D01*
X120869Y734595D01*
X125211Y730253D01*
Y679450D01*
X125211Y679450D01*
X125444Y678279D01*
X126107Y677287D01*
X141002Y662392D01*
X141994Y661729D01*
X143165Y661496D01*
X143165Y661496D01*
X170622D01*
X170746Y661311D01*
X172234Y660316D01*
X173990Y659967D01*
X175746Y660316D01*
X177234Y661311D01*
X178229Y662799D01*
X178578Y664555D01*
X178440Y665249D01*
X179246Y666231D01*
X215210D01*
X215210Y666231D01*
X216381Y666464D01*
X217373Y667127D01*
X227217Y676971D01*
X233141D01*
Y674030D01*
X245141D01*
Y686030D01*
X233141D01*
Y683089D01*
X225950D01*
X224779Y682856D01*
X224382Y682590D01*
X223787Y682193D01*
X223787Y682193D01*
X213943Y672349D01*
X158519D01*
X158272Y673594D01*
X160238Y674409D01*
X162379Y676052D01*
X164022Y678193D01*
X165055Y680686D01*
X165407Y683362D01*
X165055Y686038D01*
X164022Y688531D01*
X162379Y690673D01*
X160238Y692316D01*
X157744Y693348D01*
X155068Y693700D01*
X152393Y693348D01*
X149899Y692316D01*
X147758Y690673D01*
X146115Y688531D01*
X145082Y686038D01*
X144730Y683362D01*
X145082Y680686D01*
X146115Y678193D01*
X147758Y676052D01*
X149899Y674409D01*
X151865Y673594D01*
X151617Y672349D01*
X145354D01*
X135329Y682374D01*
Y733884D01*
X135329Y733884D01*
X135096Y735054D01*
X134433Y736047D01*
X113467Y757013D01*
X113459Y757051D01*
X112464Y758540D01*
X110976Y759534D01*
X109220Y759884D01*
D02*
G37*
G36*
X458930Y677560D02*
X454660D01*
Y673790D01*
X458930D01*
Y677560D01*
D02*
G37*
G36*
X484330Y662320D02*
X480060D01*
Y658550D01*
X484330D01*
Y662320D01*
D02*
G37*
G36*
X477520D02*
X473250D01*
Y658550D01*
X477520D01*
Y662320D01*
D02*
G37*
G36*
X250000Y669878D02*
X248244Y669528D01*
X246755Y668534D01*
X245761Y667045D01*
X245411Y665290D01*
D01*
X245330Y665168D01*
X245141Y665130D01*
X245141Y665130D01*
X245141Y665130D01*
X233141D01*
Y662621D01*
X231926Y662253D01*
X231844Y662374D01*
X230356Y663369D01*
X228600Y663718D01*
X226844Y663369D01*
X225356Y662374D01*
X224361Y660886D01*
X224012Y659130D01*
X224361Y657374D01*
X225356Y655886D01*
X226844Y654891D01*
X228600Y654542D01*
X230356Y654891D01*
X231844Y655886D01*
X231926Y656008D01*
X233141Y655639D01*
Y653130D01*
X245141D01*
Y662273D01*
X246356Y662642D01*
X246755Y662045D01*
X248244Y661051D01*
X250000Y660701D01*
X250159Y660571D01*
Y653130D01*
X262159D01*
Y665130D01*
X254719D01*
X254588Y665290D01*
X254238Y667045D01*
X253244Y668534D01*
X251755Y669528D01*
X250000Y669878D01*
D02*
G37*
G36*
X362530Y668480D02*
X358760D01*
Y664210D01*
X362530D01*
Y668480D01*
D02*
G37*
G36*
X296446Y528034D02*
X284318D01*
Y515906D01*
X296446D01*
Y518911D01*
X298892D01*
X299016Y518726D01*
X300504Y517731D01*
X302260Y517382D01*
X304016Y517731D01*
X305504Y518726D01*
X306499Y520214D01*
X306848Y521970D01*
X306499Y523726D01*
X305504Y525214D01*
X304016Y526209D01*
X302260Y526558D01*
X300504Y526209D01*
X299016Y525214D01*
X298892Y525029D01*
X296446D01*
Y528034D01*
D02*
G37*
G36*
X697230Y415108D02*
X696532Y415016D01*
X694697Y414256D01*
X693122Y413048D01*
X691914Y411473D01*
X691154Y409638D01*
X691062Y408940D01*
X697230D01*
Y415108D01*
D02*
G37*
G36*
X674370D02*
Y408940D01*
X680538D01*
X680446Y409638D01*
X679686Y411473D01*
X678478Y413048D01*
X676902Y414256D01*
X675068Y415016D01*
X674370Y415108D01*
D02*
G37*
G36*
X189865Y455467D02*
X185552Y455042D01*
X181405Y453784D01*
X177583Y451741D01*
X174233Y448992D01*
X171484Y445642D01*
X169441Y441820D01*
X168183Y437673D01*
X167759Y433360D01*
X168183Y429048D01*
X169441Y424901D01*
X171484Y421079D01*
X174233Y417729D01*
X177583Y414979D01*
X181405Y412937D01*
X185552Y411679D01*
X189865Y411254D01*
X194178Y411679D01*
X198325Y412937D01*
X202147Y414979D01*
X205497Y417729D01*
X208246Y421079D01*
X210289Y424901D01*
X211547Y429048D01*
X211971Y433360D01*
X211547Y437673D01*
X210289Y441820D01*
X208246Y445642D01*
X205497Y448992D01*
X202147Y451741D01*
X198325Y453784D01*
X194178Y455042D01*
X189865Y455467D01*
D02*
G37*
G36*
X699770Y415108D02*
Y408940D01*
X705938D01*
X705846Y409638D01*
X705086Y411473D01*
X703878Y413048D01*
X702302Y414256D01*
X700468Y415016D01*
X699770Y415108D01*
D02*
G37*
G36*
X646430D02*
X645732Y415016D01*
X643897Y414256D01*
X642322Y413048D01*
X641114Y411473D01*
X640354Y409638D01*
X640262Y408940D01*
X646430D01*
Y415108D01*
D02*
G37*
G36*
X623570D02*
Y408940D01*
X629738D01*
X629646Y409638D01*
X628886Y411473D01*
X627678Y413048D01*
X626102Y414256D01*
X624268Y415016D01*
X623570Y415108D01*
D02*
G37*
G36*
X671830D02*
X671132Y415016D01*
X669297Y414256D01*
X667722Y413048D01*
X666514Y411473D01*
X665754Y409638D01*
X665662Y408940D01*
X671830D01*
Y415108D01*
D02*
G37*
G36*
X648970D02*
Y408940D01*
X655138D01*
X655046Y409638D01*
X654286Y411473D01*
X653078Y413048D01*
X651503Y414256D01*
X649668Y415016D01*
X648970Y415108D01*
D02*
G37*
G36*
X252260Y414603D02*
X234260D01*
Y412937D01*
X232483D01*
X231129Y413842D01*
X229373Y414191D01*
X227617Y413842D01*
X226128Y412847D01*
X225134Y411359D01*
X224785Y409603D01*
X225134Y407847D01*
X226128Y406358D01*
X227617Y405364D01*
X229373Y405015D01*
X231129Y405364D01*
X232483Y406269D01*
X234260D01*
Y404603D01*
X234260Y404603D01*
X234260Y404443D01*
X234260D01*
Y402777D01*
X233764D01*
X232489Y402523D01*
X231407Y401800D01*
X229573Y399967D01*
X226719D01*
X225444Y399713D01*
X224362Y398990D01*
X216167Y390795D01*
X215444Y389714D01*
X215191Y388438D01*
Y363416D01*
X196469Y344694D01*
X190966D01*
X189132Y346527D01*
X188050Y347250D01*
X187466Y347366D01*
Y348790D01*
X188006D01*
Y353060D01*
X182966D01*
Y354330D01*
X181696D01*
Y359870D01*
X177926D01*
Y359330D01*
X169466D01*
Y349330D01*
X169466Y349330D01*
X169466Y349170D01*
X169466D01*
Y347504D01*
X168995D01*
X167719Y347250D01*
X166637Y346527D01*
X164804Y344694D01*
X148682D01*
X129667Y363709D01*
X130229Y364848D01*
X131820Y364639D01*
X134953Y365051D01*
X137872Y366260D01*
X140379Y368184D01*
X142302Y370691D01*
X143511Y373610D01*
X143924Y376742D01*
X143511Y379875D01*
X142302Y382794D01*
X140379Y385301D01*
X137872Y387224D01*
X134953Y388434D01*
X131820Y388846D01*
X128687Y388434D01*
X125768Y387224D01*
X123261Y385301D01*
X121338Y382794D01*
X120129Y379875D01*
X119716Y376742D01*
X120129Y373610D01*
X121250Y370902D01*
X120545Y369846D01*
X69852D01*
X68576Y369593D01*
X68143Y369303D01*
X67494Y368870D01*
X57193Y358568D01*
X56470Y357486D01*
X56216Y356211D01*
Y350151D01*
X55462Y349398D01*
X54740Y348316D01*
X54734Y348287D01*
X51090D01*
Y335747D01*
Y323207D01*
X54862D01*
Y323747D01*
X68778D01*
Y323207D01*
X72550D01*
Y335747D01*
Y348287D01*
X68906D01*
X68900Y348316D01*
X68177Y349398D01*
X67424Y350151D01*
Y352949D01*
X73113Y358638D01*
X118887D01*
X143063Y334463D01*
X144145Y333740D01*
X145421Y333486D01*
X164804D01*
X166637Y331652D01*
X167719Y330930D01*
X168995Y330676D01*
X169466D01*
Y329010D01*
X169466Y329010D01*
X169466Y328850D01*
X169466D01*
Y318850D01*
X177926D01*
Y318310D01*
X181696D01*
Y323850D01*
X182966D01*
Y325120D01*
X188006D01*
Y329390D01*
X187466D01*
Y330813D01*
X188050Y330930D01*
X189132Y331652D01*
X190966Y333486D01*
X199840D01*
X201116Y333740D01*
X202197Y334463D01*
X202198Y334463D01*
X202197Y334463D01*
X225422Y357687D01*
X226145Y358769D01*
X226399Y360045D01*
X226399Y360045D01*
X226399Y360045D01*
Y360045D01*
Y385176D01*
X229142Y387920D01*
X230412D01*
X231407Y386925D01*
X232489Y386203D01*
X233764Y385949D01*
X234260D01*
Y384283D01*
X234260Y384283D01*
X234260Y384123D01*
X234260D01*
Y374123D01*
X235426D01*
Y371410D01*
X234521Y370056D01*
X234172Y368300D01*
X234521Y366544D01*
X235516Y365056D01*
X237004Y364061D01*
X238760Y363712D01*
X240516Y364061D01*
X242004Y365056D01*
X242999Y366544D01*
X243348Y368300D01*
X242999Y370056D01*
X242094Y371410D01*
Y374123D01*
X252260D01*
Y384123D01*
D01*
Y384123D01*
X252260Y384123D01*
Y384283D01*
X252260D01*
Y386091D01*
X252820Y386203D01*
X253902Y386925D01*
X255736Y388759D01*
X270111D01*
X270267Y388602D01*
X271349Y387880D01*
X272624Y387626D01*
X284302D01*
X285108Y386644D01*
X284972Y385960D01*
X285108Y385276D01*
X284302Y384294D01*
X280030D01*
X278616Y385239D01*
X276860Y385588D01*
X275104Y385239D01*
X273616Y384244D01*
X272621Y382756D01*
X272272Y381000D01*
X272621Y379244D01*
X273616Y377756D01*
X275104Y376761D01*
X276860Y376412D01*
X278616Y376761D01*
X279910Y377626D01*
X283134D01*
X283940Y376644D01*
X283804Y375960D01*
X284057Y374684D01*
X284780Y373602D01*
X285862Y372880D01*
X286259Y372801D01*
X286316Y372716D01*
X287804Y371721D01*
X289560Y371372D01*
X291316Y371721D01*
X291960Y372151D01*
X293080Y371553D01*
Y369294D01*
X271980D01*
X270704Y369040D01*
X269622Y368318D01*
X256373Y355068D01*
X255650Y353986D01*
X255396Y352710D01*
Y339841D01*
X253523Y337967D01*
X252800Y336886D01*
X252546Y335610D01*
Y335390D01*
X250880D01*
D01*
D01*
X250880Y335390D01*
X250720D01*
Y335390D01*
X240720D01*
Y326390D01*
Y317390D01*
X240720D01*
X241333Y316629D01*
X241132Y315620D01*
X241481Y313864D01*
X242476Y312375D01*
X243965Y311381D01*
X245720Y311031D01*
X247476Y311381D01*
X248965Y312375D01*
X249959Y313864D01*
X250308Y315620D01*
X250152Y316408D01*
X250957Y317390D01*
X252634D01*
X252800Y316554D01*
X253523Y315473D01*
X255396Y313599D01*
Y311761D01*
X251220Y307585D01*
X240535D01*
X238662Y309458D01*
X237580Y310181D01*
X236370Y310422D01*
Y311721D01*
X236910D01*
Y315991D01*
X231870D01*
Y317260D01*
X230600D01*
Y322800D01*
X226830D01*
Y322261D01*
X218370D01*
Y312260D01*
X218370Y312260D01*
X218370Y312100D01*
X218370D01*
Y310404D01*
X217249Y310181D01*
X216167Y309458D01*
X214294Y307585D01*
X204801D01*
X199124Y313261D01*
X198043Y313984D01*
X196767Y314238D01*
X163584D01*
X162308Y313984D01*
X161226Y313261D01*
X149209Y301244D01*
X127712D01*
X125526Y303431D01*
X126363Y304386D01*
X126919Y303958D01*
X129260Y302989D01*
X131771Y302659D01*
X134282Y302989D01*
X136622Y303958D01*
X138632Y305501D01*
X140174Y307510D01*
X141143Y309850D01*
X141474Y312362D01*
X141143Y314873D01*
X140174Y317213D01*
X138632Y319223D01*
X136622Y320765D01*
X134282Y321734D01*
X131771Y322065D01*
X129260Y321734D01*
X126919Y320765D01*
X124910Y319223D01*
X123368Y317213D01*
X122399Y314873D01*
X122068Y312362D01*
X122399Y309850D01*
X123368Y307510D01*
X123795Y306954D01*
X122840Y306116D01*
X115421Y313535D01*
Y321068D01*
X116175Y321822D01*
X116898Y322904D01*
X116958Y323207D01*
X120548D01*
Y335747D01*
Y348287D01*
X119077D01*
X118406Y349105D01*
X118056Y350861D01*
X117062Y352349D01*
X115573Y353344D01*
X113817Y353693D01*
X112062Y353344D01*
X110573Y352349D01*
X110452Y352168D01*
X109182D01*
X109061Y352349D01*
X107572Y353344D01*
X105816Y353693D01*
X104061Y353344D01*
X102572Y352349D01*
X101578Y350861D01*
X101228Y349105D01*
X100557Y348287D01*
X99085D01*
Y335747D01*
Y323207D01*
X102676D01*
X102736Y322904D01*
X103459Y321823D01*
X104213Y321068D01*
Y310274D01*
X104467Y308998D01*
X105189Y307916D01*
X105189Y307916D01*
X105189Y307916D01*
X122093Y291012D01*
X123175Y290290D01*
X123175Y290290D01*
X123175Y290290D01*
D01*
X123175Y290290D01*
X123175Y290290D01*
X124451Y290036D01*
X152471D01*
X153746Y290290D01*
X154828Y291012D01*
X154828Y291012D01*
X166845Y303030D01*
X193505D01*
X199182Y297353D01*
X200263Y296630D01*
X201539Y296377D01*
X214294D01*
X216167Y294503D01*
D01*
X216167D01*
Y294503D01*
D01*
X216167D01*
Y294503D01*
X216167D01*
X216167Y294503D01*
Y294503D01*
X216167Y294503D01*
Y294503D01*
X217249Y293781D01*
X218370Y293557D01*
Y291861D01*
X218370Y291861D01*
X218370Y291490D01*
X218370D01*
Y281490D01*
X226830D01*
Y280951D01*
X230600D01*
Y286490D01*
X231870D01*
Y287761D01*
X236910D01*
Y292031D01*
X236370D01*
Y293540D01*
X237580Y293781D01*
X238662Y294503D01*
X240535Y296377D01*
X254481D01*
X255757Y296630D01*
X256839Y297353D01*
X256839Y297353D01*
X256839Y297353D01*
X265628Y306142D01*
X266350Y307224D01*
X266604Y308500D01*
Y313599D01*
X268477Y315473D01*
X269200Y316554D01*
X269366Y317390D01*
X270963D01*
X271769Y316408D01*
X271612Y315620D01*
X271961Y313864D01*
X272956Y312375D01*
X274445Y311381D01*
X276200Y311031D01*
X277956Y311381D01*
X279445Y312375D01*
X280439Y313864D01*
X280788Y315620D01*
X280588Y316629D01*
X281200Y317390D01*
X281200D01*
Y326390D01*
Y335390D01*
X271200D01*
D01*
D01*
X271200Y335390D01*
X271120D01*
Y335390D01*
X269454D01*
Y335610D01*
X269200Y336886D01*
X268477Y337967D01*
X266604Y339841D01*
Y349214D01*
X275016Y357626D01*
X293080D01*
Y357230D01*
X313660D01*
Y359750D01*
X313120D01*
Y362710D01*
Y367170D01*
X313660D01*
Y369690D01*
X303370D01*
Y372230D01*
X313660D01*
Y374750D01*
X313120D01*
Y377710D01*
Y382710D01*
Y387710D01*
Y392710D01*
Y397170D01*
X313660D01*
Y399690D01*
X293080D01*
Y399294D01*
X275275D01*
X274648Y399713D01*
X273372Y399967D01*
X255736D01*
X253902Y401800D01*
X252820Y402523D01*
X252260Y402635D01*
Y404443D01*
D01*
Y404443D01*
X252260Y404443D01*
Y404603D01*
X252260D01*
Y414603D01*
D02*
G37*
G36*
X691490Y453370D02*
X684530D01*
Y445827D01*
Y438283D01*
X691490D01*
Y445827D01*
Y453370D01*
D02*
G37*
G36*
X402660Y446750D02*
X400140D01*
Y437730D01*
X402660D01*
Y446750D01*
D02*
G37*
G36*
X155070Y465065D02*
X152559Y464734D01*
X150219Y463765D01*
X148209Y462223D01*
X146667Y460214D01*
X145698Y457873D01*
X145367Y455362D01*
X145698Y452851D01*
X146667Y450510D01*
X148209Y448501D01*
X150219Y446959D01*
X152559Y445990D01*
X155070Y445659D01*
X157582Y445990D01*
X159922Y446959D01*
X161931Y448501D01*
X163473Y450510D01*
X164443Y452851D01*
X164773Y455362D01*
X164443Y457873D01*
X163473Y460214D01*
X161931Y462223D01*
X159922Y463765D01*
X157582Y464734D01*
X155070Y465065D01*
D02*
G37*
G36*
X698551Y444557D02*
X694030D01*
Y438283D01*
X698551D01*
Y444557D01*
D02*
G37*
G36*
X122862Y430278D02*
X119090D01*
Y419008D01*
X122862D01*
Y430278D01*
D02*
G37*
G36*
X44552D02*
X40780D01*
Y419008D01*
X44552D01*
Y430278D01*
D02*
G37*
G36*
X109820Y436074D02*
X108064Y435724D01*
X106576Y434730D01*
X106455Y434549D01*
X105185D01*
X105064Y434730D01*
X103576Y435724D01*
X101820Y436074D01*
X100064Y435724D01*
X98576Y434730D01*
X98455Y434549D01*
X97185D01*
X97064Y434730D01*
X95576Y435724D01*
X93820Y436074D01*
X92064Y435724D01*
X90576Y434730D01*
X90455Y434549D01*
X89185D01*
X89064Y434730D01*
X87576Y435724D01*
X85820Y436074D01*
X84064Y435724D01*
X82576Y434730D01*
X82455Y434549D01*
X81185D01*
X81064Y434730D01*
X79576Y435724D01*
X77820Y436074D01*
X76064Y435724D01*
X74576Y434730D01*
X73581Y433241D01*
X73232Y431486D01*
X73384Y430720D01*
X72579Y429738D01*
X67065D01*
X66259Y430720D01*
X66412Y431486D01*
X66062Y433241D01*
X65068Y434730D01*
X63579Y435724D01*
X61824Y436074D01*
X60068Y435724D01*
X58579Y434730D01*
X57585Y433241D01*
X57235Y431486D01*
X57280Y431260D01*
X56475Y430278D01*
X55093D01*
Y417738D01*
Y405198D01*
X58864D01*
Y405738D01*
X112778D01*
Y405198D01*
X116550D01*
Y417738D01*
Y430278D01*
X115169D01*
X114363Y431260D01*
X114408Y431486D01*
X114059Y433241D01*
X113064Y434730D01*
X111576Y435724D01*
X109820Y436074D01*
D02*
G37*
G36*
X402660Y435190D02*
X400140D01*
Y426170D01*
X402660D01*
Y435190D01*
D02*
G37*
G36*
X122862Y416468D02*
X119090D01*
Y405198D01*
X122862D01*
Y416468D01*
D02*
G37*
G36*
X52553Y430278D02*
X47092D01*
Y417738D01*
Y405198D01*
X52553D01*
Y417738D01*
Y430278D01*
D02*
G37*
G36*
X487154Y417925D02*
X485398Y417575D01*
X483909Y416581D01*
X482915Y415092D01*
X482565Y413337D01*
X482915Y411581D01*
X483909Y410092D01*
X485398Y409098D01*
X487154Y408749D01*
X488909Y409098D01*
X490398Y410092D01*
X491392Y411581D01*
X491742Y413337D01*
X491392Y415092D01*
X490398Y416581D01*
X488909Y417575D01*
X487154Y417925D01*
D02*
G37*
G36*
X471860Y408378D02*
X470104Y408028D01*
X468616Y407034D01*
X468492Y406848D01*
X461700D01*
X461700Y406848D01*
X460530Y406615D01*
X459537Y405952D01*
X447603Y394019D01*
X429660D01*
Y394690D01*
X409080D01*
Y392170D01*
X409620D01*
Y387710D01*
Y382710D01*
Y377710D01*
Y372710D01*
Y367710D01*
Y362710D01*
Y357710D01*
Y352710D01*
Y349750D01*
X409080D01*
Y347230D01*
X419370D01*
Y344690D01*
X409080D01*
Y342170D01*
X409620D01*
Y337710D01*
X429120D01*
Y337901D01*
X431432D01*
X438157Y331177D01*
X439149Y330514D01*
X440319Y330281D01*
X487076D01*
X502295Y315062D01*
X501809Y313889D01*
X402563D01*
X402120Y314332D01*
Y330210D01*
X387660D01*
Y330750D01*
X385140D01*
Y320460D01*
X382600D01*
Y330750D01*
X380080D01*
Y330210D01*
X347660D01*
Y330750D01*
X345140D01*
Y320460D01*
X342600D01*
Y330750D01*
X340080D01*
Y330210D01*
X320620D01*
Y325765D01*
X319638Y324959D01*
X319190Y325048D01*
X317434Y324699D01*
X315946Y323704D01*
X314951Y322216D01*
X314602Y320460D01*
X314951Y318704D01*
X315946Y317216D01*
X317434Y316221D01*
X319190Y315872D01*
X319638Y315961D01*
X320620Y315155D01*
Y310710D01*
X325536D01*
Y307910D01*
X324631Y306556D01*
X324282Y304800D01*
X324631Y303044D01*
X325626Y301556D01*
X325950Y301339D01*
X325581Y300124D01*
X305680D01*
X304404Y299870D01*
X303323Y299147D01*
X272939Y268764D01*
X269834D01*
X269235Y269884D01*
X269328Y270024D01*
X269678Y271780D01*
X269328Y273536D01*
X269328Y273536D01*
D01*
X270089Y274210D01*
X270089D01*
Y282670D01*
X270630D01*
Y286440D01*
X259550D01*
Y282670D01*
X260089D01*
Y274210D01*
X260089D01*
X260851Y273536D01*
D01*
X260851Y273536D01*
X260501Y271780D01*
X260851Y270024D01*
X260944Y269884D01*
X260345Y268764D01*
X222180D01*
X220904Y268510D01*
X219822Y267787D01*
X196668Y244634D01*
X139620D01*
Y245000D01*
X139620D01*
Y254000D01*
Y263000D01*
X129620D01*
Y261999D01*
X128190D01*
X128190Y263000D01*
X128190D01*
X127429Y263674D01*
X127429Y263674D01*
X127778Y265430D01*
X127429Y267186D01*
X126878Y268010D01*
X127477Y269130D01*
X128190D01*
Y277590D01*
X128730D01*
Y281360D01*
X117650D01*
Y277590D01*
X118190D01*
Y269130D01*
X118903D01*
X119502Y268010D01*
X118951Y267186D01*
X118602Y265430D01*
X118951Y263674D01*
X118951Y263674D01*
X118190Y263000D01*
X118190D01*
Y254000D01*
Y245000D01*
X119856D01*
Y240030D01*
X120110Y238754D01*
X120833Y237673D01*
X120832Y237673D01*
X120833Y237672D01*
X124642Y233862D01*
X125724Y233140D01*
X127000Y232886D01*
X149290D01*
X150644Y231981D01*
X152400Y231632D01*
X154156Y231981D01*
X155510Y232886D01*
X199390D01*
X200666Y233140D01*
X201747Y233862D01*
X213687Y245802D01*
X214902Y245433D01*
X215131Y244284D01*
X216125Y242795D01*
X216758Y242372D01*
X216273Y241199D01*
X215320Y241388D01*
X213564Y241039D01*
X212076Y240044D01*
X211081Y238556D01*
X210732Y236800D01*
X211081Y235044D01*
X212076Y233556D01*
X213564Y232561D01*
X215320Y232212D01*
X217076Y232561D01*
X218564Y233556D01*
X218688Y233741D01*
X224870D01*
Y232300D01*
X234870D01*
Y241300D01*
Y242466D01*
X257990D01*
X259266Y242720D01*
X260348Y243442D01*
X260348Y243442D01*
X260348Y243442D01*
X269921Y253016D01*
X278081D01*
X279357Y253270D01*
X280439Y253993D01*
X310822Y284376D01*
X332180D01*
X333456Y284630D01*
X334538Y285352D01*
X340673Y291488D01*
X341793Y290889D01*
X341781Y290830D01*
X342131Y289074D01*
X343125Y287586D01*
X344614Y286591D01*
X346370Y286242D01*
X348125Y286591D01*
X349614Y287586D01*
X350608Y289074D01*
X350926Y290672D01*
X353697Y293442D01*
X354870Y292956D01*
Y286530D01*
X355536D01*
Y282050D01*
X353830D01*
Y280884D01*
X351320D01*
Y282550D01*
X342860D01*
Y283090D01*
X339090D01*
Y277550D01*
X337820D01*
Y276280D01*
X332780D01*
Y272010D01*
X332780Y272010D01*
X332780Y270970D01*
X332780D01*
Y266700D01*
X337820D01*
Y265430D01*
X339090D01*
Y259890D01*
X342860D01*
Y260430D01*
X351320D01*
Y270430D01*
X350154D01*
Y272550D01*
X351320D01*
Y274216D01*
X353830D01*
Y273050D01*
Y264050D01*
X355496D01*
Y257110D01*
X351270D01*
Y233110D01*
X377270D01*
Y257110D01*
X362164D01*
Y264050D01*
X363830D01*
Y273050D01*
Y282050D01*
X362204D01*
Y286530D01*
X372870D01*
Y296530D01*
X371429D01*
Y300062D01*
X371196Y301232D01*
X370533Y302224D01*
X368415Y304343D01*
X368458Y304562D01*
X368282Y305447D01*
X369402Y306046D01*
X387221Y288227D01*
X387221D01*
X387221Y288227D01*
X387221D01*
X387221Y288227D01*
Y288227D01*
X387221Y288227D01*
Y288227D01*
X388213Y287564D01*
X389384Y287331D01*
X496085D01*
X513831Y269585D01*
Y161800D01*
X513831Y161800D01*
X514064Y160629D01*
X514727Y159637D01*
X546617Y127747D01*
X546617Y127747D01*
X547609Y127084D01*
X547609Y127084D01*
X547609Y127084D01*
D01*
X547609Y127084D01*
X547609Y127084D01*
X548779Y126851D01*
X553562D01*
X553686Y126666D01*
X555174Y125671D01*
X556930Y125322D01*
X558686Y125671D01*
X560174Y126666D01*
X560298Y126851D01*
X569502D01*
X570101Y125731D01*
X569528Y124873D01*
X569236Y123410D01*
X569528Y121947D01*
X570356Y120706D01*
Y119614D01*
X569528Y118373D01*
X569236Y116910D01*
X569528Y115447D01*
X570356Y114206D01*
X571597Y113378D01*
X573060Y113087D01*
X578251D01*
Y105780D01*
X576310D01*
Y96780D01*
Y87780D01*
X578251D01*
Y81220D01*
X573560D01*
Y63220D01*
X588021D01*
Y62680D01*
X595290D01*
Y72220D01*
Y81760D01*
X588021D01*
Y81220D01*
X584369D01*
Y87780D01*
X586310D01*
Y96780D01*
Y105780D01*
X584369D01*
Y113087D01*
X589560D01*
X591023Y113378D01*
X592264Y114206D01*
X593092Y115447D01*
X593383Y116910D01*
X593092Y118373D01*
X592264Y119614D01*
Y120706D01*
X593092Y121947D01*
X593383Y123410D01*
X593092Y124873D01*
X592264Y126114D01*
Y127206D01*
X593092Y128447D01*
X593383Y129910D01*
X593092Y131373D01*
X592264Y132613D01*
Y133706D01*
X593092Y134947D01*
X593383Y136410D01*
X593092Y137873D01*
X592264Y139114D01*
Y140206D01*
X593092Y141447D01*
X593383Y142910D01*
X593092Y144373D01*
X592264Y145613D01*
Y146706D01*
X593092Y147947D01*
X593383Y149410D01*
X593092Y150873D01*
X592519Y151731D01*
X593026Y152680D01*
X594295Y152742D01*
X594346Y152666D01*
X595834Y151671D01*
X597590Y151322D01*
X599346Y151671D01*
X600834Y152666D01*
X601829Y154154D01*
X602178Y155910D01*
X601829Y157666D01*
X600834Y159154D01*
X599346Y160149D01*
X597590Y160498D01*
X595834Y160149D01*
X594633Y159346D01*
X593715Y159576D01*
X593292Y159859D01*
X593169Y160089D01*
X593601Y160736D01*
X593681Y161140D01*
X568938D01*
X569019Y160736D01*
X569967Y159317D01*
X570356Y159057D01*
X570356Y158614D01*
X569528Y157373D01*
X569236Y155910D01*
X569528Y154447D01*
X570101Y153589D01*
X569502Y152469D01*
X565418D01*
X565294Y152654D01*
X563806Y153649D01*
X562050Y153998D01*
X560294Y153649D01*
X558806Y152654D01*
X558682Y152469D01*
X547517D01*
X531949Y168037D01*
Y182893D01*
X533122Y183379D01*
X549754Y166747D01*
X549754Y166747D01*
X550747Y166084D01*
X551917Y165851D01*
X551917Y165851D01*
X553562D01*
X553686Y165666D01*
X555174Y164671D01*
X556930Y164322D01*
X558686Y164671D01*
X560174Y165666D01*
X560298Y165851D01*
X568853D01*
X569451Y164731D01*
X569019Y164084D01*
X568938Y163680D01*
X593681D01*
X593601Y164084D01*
X592653Y165503D01*
X592653Y165503D01*
X592653D01*
X592264Y166206D01*
X592264Y166206D01*
X593092Y167447D01*
X593383Y168910D01*
X593092Y170373D01*
X592264Y171614D01*
Y172706D01*
X593092Y173947D01*
X593383Y175410D01*
X593092Y176873D01*
X592264Y178113D01*
Y179206D01*
X593092Y180447D01*
X593383Y181910D01*
X593092Y183373D01*
X592264Y184613D01*
Y185706D01*
X593092Y186947D01*
X593383Y188410D01*
X593092Y189873D01*
X592264Y191113D01*
X591023Y191942D01*
X589560Y192233D01*
X573060D01*
X571597Y191942D01*
X570888Y191469D01*
X565418D01*
X565294Y191654D01*
X563806Y192649D01*
X562050Y192998D01*
X560294Y192649D01*
X558806Y191654D01*
X558682Y191469D01*
X550655D01*
X547949Y194175D01*
Y209550D01*
X552069D01*
Y217170D01*
Y224790D01*
X547949D01*
Y282450D01*
X547949Y282450D01*
X547716Y283621D01*
X547053Y284613D01*
X492628Y339037D01*
X493114Y340211D01*
X507634D01*
X513700Y334144D01*
Y324470D01*
X527700D01*
Y338470D01*
X518026D01*
X513458Y343037D01*
X513944Y344211D01*
X529034D01*
X539476Y333769D01*
X539280Y333297D01*
X539040Y331470D01*
X539280Y329643D01*
X539986Y327940D01*
X541108Y326478D01*
X542570Y325355D01*
X544273Y324650D01*
X546100Y324410D01*
X547927Y324650D01*
X549630Y325355D01*
X551092Y326478D01*
X552215Y327940D01*
X552920Y329643D01*
X553160Y331470D01*
X552920Y333297D01*
X552215Y335000D01*
X551092Y336462D01*
X549630Y337584D01*
X547927Y338290D01*
X546100Y338530D01*
X544273Y338290D01*
X543801Y338094D01*
X534858Y347037D01*
X535344Y348211D01*
X550434D01*
X564875Y333769D01*
X564680Y333297D01*
X564440Y331470D01*
X564680Y329643D01*
X565386Y327940D01*
X566508Y326478D01*
X567970Y325355D01*
X569673Y324650D01*
X571500Y324410D01*
X573327Y324650D01*
X575030Y325355D01*
X576492Y326478D01*
X577615Y327940D01*
X578320Y329643D01*
X578560Y331470D01*
X578320Y333297D01*
X577615Y335000D01*
X576492Y336462D01*
X575030Y337584D01*
X573327Y338290D01*
X571500Y338530D01*
X569673Y338290D01*
X569201Y338094D01*
X556258Y351037D01*
X556744Y352211D01*
X571833D01*
X590275Y333769D01*
X590080Y333297D01*
X589840Y331470D01*
X590080Y329643D01*
X590785Y327940D01*
X591908Y326478D01*
X593370Y325355D01*
X595073Y324650D01*
X596900Y324410D01*
X598727Y324650D01*
X600430Y325355D01*
X601892Y326478D01*
X603014Y327940D01*
X603720Y329643D01*
X603960Y331470D01*
X603720Y333297D01*
X603014Y335000D01*
X601892Y336462D01*
X600430Y337584D01*
X598727Y338290D01*
X596900Y338530D01*
X595073Y338290D01*
X594601Y338094D01*
X577658Y355037D01*
X578144Y356211D01*
X593233D01*
X615676Y333769D01*
X615480Y333297D01*
X615240Y331470D01*
X615480Y329643D01*
X616185Y327940D01*
X617308Y326478D01*
X618770Y325355D01*
X620473Y324650D01*
X622300Y324410D01*
X624127Y324650D01*
X625830Y325355D01*
X627292Y326478D01*
X628414Y327940D01*
X629120Y329643D01*
X629360Y331470D01*
X629120Y333297D01*
X628414Y335000D01*
X627292Y336462D01*
X625830Y337584D01*
X624127Y338290D01*
X622300Y338530D01*
X620473Y338290D01*
X620001Y338094D01*
X599058Y359037D01*
X599544Y360211D01*
X614633D01*
X641076Y333769D01*
X640880Y333297D01*
X640640Y331470D01*
X640880Y329643D01*
X641585Y327940D01*
X642708Y326478D01*
X644170Y325355D01*
X645873Y324650D01*
X647700Y324410D01*
X649527Y324650D01*
X651230Y325355D01*
X652692Y326478D01*
X653814Y327940D01*
X654520Y329643D01*
X654760Y331470D01*
X654520Y333297D01*
X653814Y335000D01*
X652692Y336462D01*
X651230Y337584D01*
X649527Y338290D01*
X647700Y338530D01*
X645873Y338290D01*
X645401Y338094D01*
X620458Y363037D01*
X620944Y364211D01*
X636034D01*
X666476Y333769D01*
X666280Y333297D01*
X666040Y331470D01*
X666280Y329643D01*
X666985Y327940D01*
X668108Y326478D01*
X669570Y325355D01*
X671273Y324650D01*
X673100Y324410D01*
X674927Y324650D01*
X676630Y325355D01*
X678092Y326478D01*
X679214Y327940D01*
X679920Y329643D01*
X680160Y331470D01*
X679920Y333297D01*
X679214Y335000D01*
X678092Y336462D01*
X676630Y337584D01*
X674927Y338290D01*
X673100Y338530D01*
X671273Y338290D01*
X670801Y338094D01*
X639463Y369432D01*
X638471Y370095D01*
X637300Y370328D01*
X637300Y370328D01*
X509647D01*
X476405Y403571D01*
X476448Y403789D01*
X476099Y405545D01*
X475104Y407034D01*
X473616Y408028D01*
X471860Y408378D01*
D02*
G37*
G36*
X697230Y406400D02*
X691062D01*
X691154Y405702D01*
X691914Y403867D01*
X693122Y402292D01*
X694697Y401084D01*
X696532Y400324D01*
X697230Y400232D01*
Y406400D01*
D02*
G37*
G36*
X680538D02*
X674370D01*
Y400232D01*
X675068Y400324D01*
X676902Y401084D01*
X678478Y402292D01*
X679686Y403867D01*
X680446Y405702D01*
X680538Y406400D01*
D02*
G37*
G36*
X44552Y416468D02*
X40780D01*
Y405198D01*
X44552D01*
Y416468D01*
D02*
G37*
G36*
X705938Y406400D02*
X699770D01*
Y400232D01*
X700468Y400324D01*
X702302Y401084D01*
X703878Y402292D01*
X705086Y403867D01*
X705846Y405702D01*
X705938Y406400D01*
D02*
G37*
G36*
X519430Y415108D02*
X518732Y415016D01*
X516898Y414256D01*
X515322Y413048D01*
X514114Y411473D01*
X513354Y409638D01*
X513262Y408940D01*
X519430D01*
Y415108D01*
D02*
G37*
G36*
X595630D02*
X594932Y415016D01*
X593097Y414256D01*
X591522Y413048D01*
X590314Y411473D01*
X589554Y409638D01*
X589462Y408940D01*
X595630D01*
Y415108D01*
D02*
G37*
G36*
X572770D02*
Y408940D01*
X578938D01*
X578846Y409638D01*
X578086Y411473D01*
X576878Y413048D01*
X575303Y414256D01*
X573468Y415016D01*
X572770Y415108D01*
D02*
G37*
G36*
X621030D02*
X620332Y415016D01*
X618498Y414256D01*
X616922Y413048D01*
X615714Y411473D01*
X614954Y409638D01*
X614862Y408940D01*
X621030D01*
Y415108D01*
D02*
G37*
G36*
X598170D02*
Y408940D01*
X604338D01*
X604246Y409638D01*
X603486Y411473D01*
X602278Y413048D01*
X600703Y414256D01*
X598868Y415016D01*
X598170Y415108D01*
D02*
G37*
G36*
X544830D02*
X544132Y415016D01*
X542298Y414256D01*
X540722Y413048D01*
X539514Y411473D01*
X538754Y409638D01*
X538662Y408940D01*
X544830D01*
Y415108D01*
D02*
G37*
G36*
X521970D02*
Y408940D01*
X528138D01*
X528046Y409638D01*
X527286Y411473D01*
X526078Y413048D01*
X524502Y414256D01*
X522668Y415016D01*
X521970Y415108D01*
D02*
G37*
G36*
X570230D02*
X569532Y415016D01*
X567697Y414256D01*
X566122Y413048D01*
X564914Y411473D01*
X564154Y409638D01*
X564062Y408940D01*
X570230D01*
Y415108D01*
D02*
G37*
G36*
X547370D02*
Y408940D01*
X553538D01*
X553446Y409638D01*
X552686Y411473D01*
X551478Y413048D01*
X549902Y414256D01*
X548068Y415016D01*
X547370Y415108D01*
D02*
G37*
G36*
X698551Y453370D02*
X694030D01*
Y447097D01*
X698551D01*
Y453370D01*
D02*
G37*
G36*
X613460Y509288D02*
X599460D01*
X597509Y508900D01*
X595855Y507795D01*
X594750Y506141D01*
X594362Y504190D01*
X594750Y502239D01*
X595855Y500585D01*
X597509Y499480D01*
X599460Y499092D01*
X601337D01*
X601872Y498440D01*
X602221Y496684D01*
X603216Y495196D01*
X604704Y494201D01*
X606460Y493852D01*
X608216Y494201D01*
X609704Y495196D01*
X610699Y496684D01*
X611048Y498440D01*
X611583Y499092D01*
X613460D01*
X615411Y499480D01*
X617065Y500585D01*
X618170Y502239D01*
X618558Y504190D01*
X618170Y506141D01*
X617065Y507795D01*
X615411Y508900D01*
X613460Y509288D01*
D02*
G37*
G36*
X391960Y498996D02*
X386626D01*
Y492392D01*
X391960D01*
Y498996D01*
D02*
G37*
G36*
Y508140D02*
X386626D01*
Y501536D01*
X391960D01*
Y508140D01*
D02*
G37*
G36*
X384086D02*
X378752D01*
Y501536D01*
X384086D01*
Y508140D01*
D02*
G37*
G36*
X155069Y493700D02*
X152393Y493348D01*
X149900Y492315D01*
X147759Y490672D01*
X146116Y488531D01*
X145083Y486038D01*
X144730Y483362D01*
X145083Y480686D01*
X146116Y478193D01*
X147759Y476051D01*
X149900Y474409D01*
X152393Y473376D01*
X155069Y473023D01*
X157745Y473376D01*
X160238Y474409D01*
X162379Y476051D01*
X164022Y478193D01*
X165055Y480686D01*
X165407Y483362D01*
X165055Y486038D01*
X164022Y488531D01*
X162379Y490672D01*
X160238Y492315D01*
X157745Y493348D01*
X155069Y493700D01*
D02*
G37*
G36*
X44269D02*
X41593Y493348D01*
X39100Y492315D01*
X36959Y490672D01*
X35316Y488531D01*
X34283Y486038D01*
X33930Y483362D01*
X34283Y480686D01*
X35316Y478193D01*
X36959Y476051D01*
X39100Y474409D01*
X41593Y473376D01*
X44269Y473023D01*
X46945Y473376D01*
X49438Y474409D01*
X51579Y476051D01*
X53222Y478193D01*
X54255Y480686D01*
X54608Y483362D01*
X54255Y486038D01*
X53222Y488531D01*
X51579Y490672D01*
X49438Y492315D01*
X46945Y493348D01*
X44269Y493700D01*
D02*
G37*
G36*
X384086Y498996D02*
X378752D01*
Y492392D01*
X384086D01*
Y498996D01*
D02*
G37*
G36*
X679012Y477829D02*
X668509D01*
Y476409D01*
X667527Y475603D01*
X666750Y475758D01*
X664994Y475409D01*
X663506Y474414D01*
X663382Y474229D01*
X661780D01*
Y476170D01*
X653320D01*
Y476710D01*
X649550D01*
Y471170D01*
Y465630D01*
X653320D01*
Y466170D01*
X661780D01*
Y468111D01*
X663382D01*
X663506Y467926D01*
X664994Y466931D01*
X666750Y466582D01*
X667527Y466736D01*
X668509Y465931D01*
Y463821D01*
X679012D01*
Y477829D01*
D02*
G37*
G36*
X572558Y530156D02*
X570802Y529807D01*
X569314Y528812D01*
X568319Y527324D01*
X567970Y525568D01*
X568319Y523812D01*
X568855Y523010D01*
X568256Y521890D01*
X568058D01*
Y511890D01*
X586058D01*
Y513831D01*
X595490D01*
X595855Y513285D01*
X597509Y512180D01*
X599460Y511792D01*
X613460D01*
X615411Y512180D01*
X617065Y513285D01*
X618170Y514939D01*
X618558Y516890D01*
X618170Y518841D01*
X617065Y520495D01*
X615411Y521600D01*
X613460Y521988D01*
X599460D01*
X597509Y521600D01*
X595855Y520495D01*
X595490Y519949D01*
X586058D01*
Y521890D01*
X576860D01*
X576261Y523010D01*
X576797Y523812D01*
X577146Y525568D01*
X576797Y527324D01*
X575802Y528812D01*
X574314Y529807D01*
X572558Y530156D01*
D02*
G37*
G36*
X670856Y515620D02*
X659730D01*
Y511241D01*
X665460D01*
X667622Y511671D01*
X669454Y512896D01*
X670678Y514728D01*
X670856Y515620D01*
D02*
G37*
G36*
X227740Y524890D02*
X220470D01*
Y515620D01*
X227740D01*
Y524890D01*
D02*
G37*
G36*
X217930D02*
X210660D01*
Y515620D01*
X217930D01*
Y524890D01*
D02*
G37*
G36*
X227740Y513080D02*
X220470D01*
Y503810D01*
X227740D01*
Y513080D01*
D02*
G37*
G36*
X217930D02*
X210660D01*
Y503810D01*
X217930D01*
Y513080D01*
D02*
G37*
G36*
X657190Y515620D02*
X646064D01*
X646241Y514728D01*
X647466Y512896D01*
X649298Y511671D01*
X651460Y511241D01*
X657190D01*
Y515620D01*
D02*
G37*
G36*
X296446Y512794D02*
X284318D01*
Y510808D01*
X281396D01*
X281156Y510969D01*
X279400Y511318D01*
X277644Y510969D01*
X276156Y509974D01*
X275161Y508486D01*
X274812Y506730D01*
X275161Y504974D01*
X276156Y503486D01*
X277644Y502491D01*
X279400Y502142D01*
X281156Y502491D01*
X281396Y502652D01*
X284318D01*
Y500666D01*
X286304D01*
Y497554D01*
X283497D01*
Y495568D01*
X280384D01*
Y497554D01*
X268256D01*
Y485426D01*
X280384D01*
Y487412D01*
X283497D01*
Y485426D01*
X295625D01*
Y497554D01*
X294460D01*
Y500666D01*
X296446D01*
Y512794D01*
D02*
G37*
G36*
X98269Y493700D02*
X95593Y493348D01*
X93100Y492315D01*
X90958Y490672D01*
X89316Y488531D01*
X88283Y486037D01*
X87930Y483361D01*
X88283Y480686D01*
X89316Y478192D01*
X90958Y476051D01*
X93100Y474408D01*
X95593Y473375D01*
X98269Y473023D01*
X100945Y473375D01*
X103438Y474408D01*
X105579Y476051D01*
X107222Y478192D01*
X108255Y480686D01*
X108607Y483361D01*
X108255Y486037D01*
X107222Y488531D01*
X105579Y490672D01*
X103438Y492315D01*
X100945Y493348D01*
X98269Y493700D01*
D02*
G37*
G36*
X732790Y468630D02*
X726622D01*
X726714Y467932D01*
X727474Y466097D01*
X728682Y464522D01*
X730257Y463314D01*
X732092Y462554D01*
X732790Y462462D01*
Y468630D01*
D02*
G37*
G36*
X295625Y482314D02*
X283497D01*
Y470186D01*
X284462D01*
Y467360D01*
X284850Y465409D01*
X285955Y463755D01*
X287609Y462650D01*
X289560Y462262D01*
X291511Y462650D01*
X293165Y463755D01*
X294270Y465409D01*
X294658Y467360D01*
Y470186D01*
X295625D01*
Y482314D01*
D02*
G37*
G36*
X280384D02*
X268256D01*
Y470186D01*
X269130D01*
X269935Y469204D01*
X269732Y468182D01*
X270081Y466426D01*
X271076Y464938D01*
X272564Y463943D01*
X274320Y463594D01*
X276076Y463943D01*
X277564Y464938D01*
X278559Y466426D01*
X278908Y468182D01*
X278705Y469204D01*
X279510Y470186D01*
X280384D01*
Y482314D01*
D02*
G37*
G36*
X741498Y468630D02*
X735330D01*
Y462462D01*
X736028Y462554D01*
X737862Y463314D01*
X739438Y464522D01*
X740646Y466097D01*
X741406Y467932D01*
X741498Y468630D01*
D02*
G37*
G36*
X185420Y467995D02*
X177165D01*
Y459740D01*
X185420D01*
Y467995D01*
D02*
G37*
G36*
X338870Y487729D02*
X337114Y487380D01*
X335626Y486385D01*
X334631Y484897D01*
X334282Y483141D01*
X334631Y481385D01*
X335536Y480031D01*
Y458648D01*
X334731Y457987D01*
X333475Y458174D01*
X332931Y458988D01*
X333109Y459254D01*
X333458Y461010D01*
X333109Y462766D01*
X332114Y464254D01*
X330626Y465249D01*
X328870Y465598D01*
X328436Y465512D01*
X327837Y466632D01*
X329088Y467883D01*
X330686Y468201D01*
X332174Y469196D01*
X333169Y470684D01*
X333518Y472440D01*
X333169Y474196D01*
X332174Y475684D01*
X330686Y476679D01*
X328930Y477028D01*
X327174Y476679D01*
X325686Y475684D01*
X324691Y474196D01*
X324373Y472598D01*
X301012Y449238D01*
X300290Y448156D01*
X300036Y446880D01*
Y419210D01*
X293620D01*
Y414294D01*
X290584D01*
X277070Y427808D01*
X275989Y428530D01*
X274713Y428784D01*
X267960D01*
X266606Y429689D01*
X264850Y430038D01*
X263094Y429689D01*
X261606Y428694D01*
X260611Y427206D01*
X260262Y425450D01*
X260414Y424686D01*
X259608Y423704D01*
X254801D01*
X252897Y425608D01*
X252579Y427206D01*
X251584Y428694D01*
X250096Y429689D01*
X248340Y430038D01*
X246584Y429689D01*
X245096Y428694D01*
X244101Y427206D01*
X243752Y425450D01*
X244101Y423694D01*
X245096Y422206D01*
X246584Y421211D01*
X248182Y420893D01*
X251063Y418013D01*
X252144Y417290D01*
X253420Y417036D01*
X271991D01*
X285425Y403602D01*
X286506Y402880D01*
X287782Y402626D01*
X293080D01*
Y402230D01*
X313660D01*
Y404750D01*
X313120D01*
Y407710D01*
Y412710D01*
Y419210D01*
X306704D01*
Y445499D01*
X323248Y462043D01*
X324368Y461445D01*
X324282Y461010D01*
X324631Y459254D01*
X325536Y457900D01*
Y446210D01*
X320620D01*
Y441765D01*
X319638Y440959D01*
X319190Y441048D01*
X317434Y440699D01*
X315946Y439704D01*
X314951Y438216D01*
X314602Y436460D01*
X314951Y434704D01*
X315946Y433216D01*
X317434Y432221D01*
X319190Y431872D01*
X319638Y431961D01*
X320620Y431155D01*
Y426710D01*
X345080D01*
Y426170D01*
X347600D01*
Y436460D01*
Y446750D01*
X347204D01*
Y469489D01*
X350678Y472963D01*
X352276Y473281D01*
X353764Y474276D01*
X354759Y475764D01*
X355108Y477520D01*
X354759Y479276D01*
X353764Y480764D01*
X352276Y481759D01*
X350520Y482108D01*
X348764Y481759D01*
X347276Y480764D01*
X346281Y479276D01*
X345963Y477678D01*
X343377Y475092D01*
X342204Y475578D01*
Y480031D01*
X343109Y481385D01*
X343458Y483141D01*
X343109Y484897D01*
X342114Y486385D01*
X340626Y487380D01*
X338870Y487729D01*
D02*
G37*
G36*
X670460Y509190D02*
X646460D01*
Y499190D01*
X670460D01*
Y501131D01*
X678299D01*
X681793Y497637D01*
X681794Y497637D01*
X682786Y496974D01*
X682786Y496974D01*
X682786Y496974D01*
D01*
X682786Y496974D01*
X682786Y496974D01*
X683956Y496741D01*
X683957Y496741D01*
X687760D01*
Y495300D01*
Y486300D01*
X689701D01*
Y477829D01*
X687508D01*
Y463821D01*
X687706D01*
X688192Y462648D01*
X687073Y461529D01*
X668600D01*
X668600Y461529D01*
X667430Y461296D01*
X666437Y460633D01*
X664213Y458409D01*
X661590D01*
Y459850D01*
X651590D01*
Y450850D01*
Y449519D01*
X646430D01*
X645756Y449385D01*
X631007D01*
Y451326D01*
X613007D01*
Y449429D01*
X610419D01*
X610295Y449614D01*
X608806Y450609D01*
X607050Y450958D01*
X605294Y450609D01*
X603806Y449614D01*
X602811Y448126D01*
X602462Y446370D01*
X602811Y444614D01*
X603806Y443126D01*
X605294Y442131D01*
X607050Y441782D01*
X608806Y442131D01*
X610295Y443126D01*
X610419Y443311D01*
X613007D01*
Y441326D01*
X631007D01*
Y443267D01*
X646376D01*
X647050Y443401D01*
X651590D01*
Y441850D01*
X661590D01*
Y443401D01*
X668509D01*
Y438823D01*
X670702D01*
Y435066D01*
X670702Y435066D01*
X670935Y433895D01*
X671598Y432903D01*
X677403Y427097D01*
X678396Y426434D01*
X679566Y426201D01*
X679566Y426201D01*
X718820D01*
X718820Y426201D01*
X719990Y426434D01*
X720983Y427097D01*
X731386Y437500D01*
X741060D01*
Y451500D01*
X727060D01*
Y441826D01*
X717553Y432319D01*
X680833D01*
X676819Y436333D01*
Y438283D01*
X677469D01*
Y438283D01*
X681990D01*
Y445827D01*
Y453370D01*
X677469D01*
Y452830D01*
X668946D01*
X668898Y452945D01*
X668567Y453744D01*
D01*
X668459Y454004D01*
X669867Y455411D01*
X688340D01*
X688340Y455411D01*
X689510Y455644D01*
X690503Y456307D01*
X694922Y460727D01*
X695585Y461719D01*
X695818Y462890D01*
Y463821D01*
X698011D01*
Y477829D01*
X695818D01*
Y486300D01*
X697760D01*
Y495300D01*
Y504300D01*
X687760D01*
Y502859D01*
X685223D01*
X681729Y506353D01*
X680737Y507016D01*
X679566Y507249D01*
X679566Y507249D01*
X670460D01*
Y509190D01*
D02*
G37*
G36*
X196215Y467995D02*
X187960D01*
Y459740D01*
X196215D01*
Y467995D01*
D02*
G37*
G36*
X732790Y477338D02*
X732092Y477246D01*
X730257Y476486D01*
X728682Y475278D01*
X727474Y473703D01*
X726714Y471868D01*
X726622Y471170D01*
X732790D01*
Y477338D01*
D02*
G37*
G36*
X735330D02*
Y471170D01*
X741498D01*
X741406Y471868D01*
X740646Y473703D01*
X739438Y475278D01*
X737862Y476486D01*
X736028Y477246D01*
X735330Y477338D01*
D02*
G37*
G36*
X647010Y476710D02*
X643240D01*
Y472440D01*
X647010D01*
Y476710D01*
D02*
G37*
G36*
X196215Y478790D02*
X187960D01*
Y470535D01*
X196215D01*
Y478790D01*
D02*
G37*
G36*
X185420D02*
X177165D01*
Y470535D01*
X185420D01*
Y478790D01*
D02*
G37*
G36*
X647010Y469900D02*
X643240D01*
Y465630D01*
X647010D01*
Y469900D01*
D02*
G37*
%LPD*%
G36*
X302260Y610870D02*
Y565150D01*
X297180Y560070D01*
X277253D01*
X270510Y566813D01*
Y609600D01*
X275590Y614680D01*
X298450D01*
X302260Y610870D01*
D02*
G37*
G36*
X487170Y624823D02*
Y617090D01*
X484760Y614680D01*
X472440D01*
X466090Y621030D01*
X458470D01*
X457200Y622300D01*
Y626110D01*
X472500D01*
X473770Y627380D01*
X484613D01*
X487170Y624823D01*
D02*
G37*
G36*
X193040Y546100D02*
Y492760D01*
X186690Y486410D01*
X176416D01*
X155070Y507755D01*
Y543690D01*
X161290Y549910D01*
X189230D01*
X193040Y546100D01*
D02*
G37*
D10*
X256159Y636270D02*
D03*
X239141D02*
D03*
X256159Y593090D02*
D03*
X239141D02*
D03*
X256159Y680030D02*
D03*
X239141D02*
D03*
X256321Y614680D02*
D03*
X239303D02*
D03*
X256159Y659130D02*
D03*
X239141D02*
D03*
D11*
X581310Y188410D02*
D03*
Y181910D02*
D03*
X639310Y188410D02*
D03*
Y181910D02*
D03*
X581310Y123410D02*
D03*
Y116910D02*
D03*
X639310Y123410D02*
D03*
Y116910D02*
D03*
Y129910D02*
D03*
Y136410D02*
D03*
Y142910D02*
D03*
Y149410D02*
D03*
Y155910D02*
D03*
Y162410D02*
D03*
Y168910D02*
D03*
Y175410D02*
D03*
X581310Y129910D02*
D03*
Y136410D02*
D03*
Y142910D02*
D03*
Y149410D02*
D03*
Y155910D02*
D03*
Y162410D02*
D03*
Y168910D02*
D03*
Y175410D02*
D03*
D12*
X702410Y149051D02*
D03*
X711910D02*
D03*
X721410D02*
D03*
Y174049D02*
D03*
X702410D02*
D03*
X673760Y445827D02*
D03*
X683260D02*
D03*
X692760D02*
D03*
Y470825D02*
D03*
X673760D02*
D03*
D13*
X581561Y50220D02*
D03*
Y72220D02*
D03*
X596561D02*
D03*
Y50220D02*
D03*
D14*
X222870Y286490D02*
D03*
X231870D02*
D03*
X617507Y446326D02*
D03*
X626507D02*
D03*
X346020Y635929D02*
D03*
X355020D02*
D03*
X373000Y648630D02*
D03*
X364000D02*
D03*
X581558Y516890D02*
D03*
X572558D02*
D03*
X683390Y149410D02*
D03*
X674390D02*
D03*
X748160Y149051D02*
D03*
X739160D02*
D03*
X184840Y285750D02*
D03*
X175840D02*
D03*
X247760Y379123D02*
D03*
X238760D02*
D03*
X337820Y277550D02*
D03*
X346820D02*
D03*
X359370Y291530D02*
D03*
X368370D02*
D03*
X324430Y635929D02*
D03*
X333430D02*
D03*
X659710Y168910D02*
D03*
X668710D02*
D03*
X769750Y122760D02*
D03*
X760750D02*
D03*
X771020Y148850D02*
D03*
X762020D02*
D03*
X569510Y233680D02*
D03*
X560509D02*
D03*
X408250Y263480D02*
D03*
X417250D02*
D03*
X222870Y317260D02*
D03*
X231870D02*
D03*
X182966Y354330D02*
D03*
X173966D02*
D03*
X182966Y323850D02*
D03*
X173966D02*
D03*
X569650Y283210D02*
D03*
X560650D02*
D03*
X569510Y248920D02*
D03*
X560509D02*
D03*
X238760Y409603D02*
D03*
X247760D02*
D03*
X231870Y296861D02*
D03*
Y307101D02*
D03*
X659710Y188410D02*
D03*
X668710D02*
D03*
X363800Y662940D02*
D03*
X372800D02*
D03*
X337820Y265430D02*
D03*
X346820D02*
D03*
X292210Y241300D02*
D03*
X283210D02*
D03*
X558220Y50220D02*
D03*
X549220D02*
D03*
X657280Y471170D02*
D03*
X648280D02*
D03*
X222870Y307101D02*
D03*
Y296861D02*
D03*
X173966Y344170D02*
D03*
Y334010D02*
D03*
X182966Y344170D02*
D03*
Y334010D02*
D03*
X238760Y399443D02*
D03*
Y389283D02*
D03*
X247760Y399443D02*
D03*
Y389283D02*
D03*
D15*
X453250Y610530D02*
D03*
D16*
Y623229D02*
D03*
Y635929D02*
D03*
Y648630D02*
D03*
X397370D02*
D03*
Y635929D02*
D03*
Y623229D02*
D03*
Y610530D02*
D03*
D17*
X425450Y629920D02*
D03*
D18*
X658460Y504190D02*
D03*
D19*
Y516890D02*
D03*
Y529590D02*
D03*
Y542290D02*
D03*
Y554990D02*
D03*
Y567690D02*
D03*
Y580390D02*
D03*
Y593090D02*
D03*
X606460D02*
D03*
Y580390D02*
D03*
Y567690D02*
D03*
Y554990D02*
D03*
Y542290D02*
D03*
Y529590D02*
D03*
Y516890D02*
D03*
Y504190D02*
D03*
D20*
X121818Y335747D02*
D03*
X97815D02*
D03*
X89820D02*
D03*
X81820D02*
D03*
X73820D02*
D03*
X49820D02*
D03*
X45822Y417738D02*
D03*
X53823D02*
D03*
X61824D02*
D03*
X69825D02*
D03*
X77820D02*
D03*
X85820D02*
D03*
X93820D02*
D03*
X101820D02*
D03*
X109820D02*
D03*
X117820D02*
D03*
X113817Y335747D02*
D03*
X105816D02*
D03*
X65820D02*
D03*
X57820D02*
D03*
D21*
X692760Y499800D02*
D03*
Y490800D02*
D03*
X676350Y120220D02*
D03*
Y129220D02*
D03*
X689050D02*
D03*
Y120220D02*
D03*
X639310Y97490D02*
D03*
Y88490D02*
D03*
X581310Y101280D02*
D03*
Y92280D02*
D03*
X722134Y131760D02*
D03*
Y122760D02*
D03*
X739160D02*
D03*
Y131760D02*
D03*
X748160Y186260D02*
D03*
Y195260D02*
D03*
X229870Y236800D02*
D03*
Y245800D02*
D03*
X123190Y258500D02*
D03*
Y249500D02*
D03*
X134620Y258500D02*
D03*
Y249500D02*
D03*
X93050Y278710D02*
D03*
Y287710D02*
D03*
X276200Y330890D02*
D03*
Y321890D02*
D03*
X245720D02*
D03*
Y330890D02*
D03*
X292250Y217750D02*
D03*
Y226750D02*
D03*
X656590Y446350D02*
D03*
Y455350D02*
D03*
X662380Y129220D02*
D03*
Y120220D02*
D03*
Y140540D02*
D03*
Y149540D02*
D03*
X199390Y281010D02*
D03*
Y290011D02*
D03*
X123190Y273630D02*
D03*
Y282630D02*
D03*
X265089Y278710D02*
D03*
Y287710D02*
D03*
X107950Y258500D02*
D03*
Y249500D02*
D03*
X478790Y657280D02*
D03*
Y648280D02*
D03*
X453390Y672520D02*
D03*
Y663520D02*
D03*
X366331Y473020D02*
D03*
Y482020D02*
D03*
X702410Y193620D02*
D03*
Y202620D02*
D03*
X369570Y626690D02*
D03*
Y635690D02*
D03*
X478790D02*
D03*
Y626690D02*
D03*
X358830Y277550D02*
D03*
Y268550D02*
D03*
X266120Y330890D02*
D03*
X255880D02*
D03*
X266120Y321890D02*
D03*
X255880D02*
D03*
D22*
X365760Y608740D02*
D03*
Y564740D02*
D03*
D23*
X586740Y283210D02*
D03*
Y267970D02*
D03*
X289561Y491490D02*
D03*
Y476250D02*
D03*
X25400Y241300D02*
D03*
Y226060D02*
D03*
X586740Y233680D02*
D03*
Y248920D02*
D03*
X274320Y491490D02*
D03*
Y476250D02*
D03*
X477520Y264160D02*
D03*
Y248920D02*
D03*
X290382Y521970D02*
D03*
Y506730D02*
D03*
D24*
X303370Y340960D02*
D03*
Y345960D02*
D03*
Y350960D02*
D03*
Y355960D02*
D03*
Y360960D02*
D03*
Y365960D02*
D03*
Y370960D02*
D03*
Y375960D02*
D03*
Y380960D02*
D03*
Y385960D02*
D03*
Y400960D02*
D03*
Y405960D02*
D03*
Y410960D02*
D03*
Y415960D02*
D03*
X419370D02*
D03*
Y410960D02*
D03*
Y405960D02*
D03*
Y400960D02*
D03*
Y395960D02*
D03*
Y390960D02*
D03*
Y385960D02*
D03*
Y380960D02*
D03*
Y375960D02*
D03*
Y370960D02*
D03*
Y365960D02*
D03*
Y360960D02*
D03*
Y355960D02*
D03*
Y350960D02*
D03*
Y345960D02*
D03*
Y340960D02*
D03*
X303370Y395960D02*
D03*
Y390960D02*
D03*
D25*
X323870Y436460D02*
D03*
X328870D02*
D03*
X333870D02*
D03*
X338870D02*
D03*
X343870D02*
D03*
X348870D02*
D03*
X353870D02*
D03*
X358870D02*
D03*
X363870D02*
D03*
X368870D02*
D03*
X373870D02*
D03*
X378870D02*
D03*
X383870D02*
D03*
X388870D02*
D03*
X393870D02*
D03*
X398870D02*
D03*
Y320460D02*
D03*
X393870D02*
D03*
X388870D02*
D03*
X383870D02*
D03*
X378870D02*
D03*
X373870D02*
D03*
X368870D02*
D03*
X363870D02*
D03*
X358870D02*
D03*
X353870D02*
D03*
X348870D02*
D03*
X343870D02*
D03*
X338870D02*
D03*
X333870D02*
D03*
X328870D02*
D03*
X323870D02*
D03*
D26*
X361370Y378460D02*
D03*
D27*
X296420Y634365D02*
D03*
Y655955D02*
D03*
X186690Y490855D02*
D03*
Y469265D02*
D03*
D28*
X219200Y539750D02*
D03*
X187200D02*
D03*
X219200Y514350D02*
D03*
X187200D02*
D03*
D29*
X421005Y586740D02*
D03*
X399415D02*
D03*
D30*
X751280Y168590D02*
D03*
X776680D02*
D03*
D31*
X313470Y207010D02*
D03*
X364270D02*
D03*
Y245110D02*
D03*
X313470D02*
D03*
D32*
X330690Y591820D02*
D03*
X296690D02*
D03*
D33*
X93050Y258940D02*
D03*
X188300D02*
D03*
D34*
X80351D02*
D03*
X67650D02*
D03*
X54950D02*
D03*
Y203060D02*
D03*
X67650D02*
D03*
X80351D02*
D03*
X93050D02*
D03*
X175600Y258940D02*
D03*
X162901D02*
D03*
X150201D02*
D03*
Y203060D02*
D03*
X162901D02*
D03*
X175600D02*
D03*
X188300D02*
D03*
D35*
X375818Y523202D02*
D03*
X385356Y500266D02*
D03*
X366281D02*
D03*
D36*
X569341Y217170D02*
D03*
X553339D02*
D03*
D37*
X277550Y381000D02*
X277590Y380960D01*
X303370D01*
X355020Y635929D02*
X397370D01*
X25270Y163230D02*
Y169569D01*
X453390Y110490D02*
X475650Y88230D01*
X432930Y105950D02*
X450650Y88230D01*
X175460Y163230D02*
Y166170D01*
X67650Y258940D02*
Y273050D01*
X280090Y350960D02*
X303370D01*
X287710Y345960D02*
X303370D01*
X398480Y395960D02*
X419370D01*
X358830Y252730D02*
Y268550D01*
X343870Y320460D02*
Y342900D01*
X302950Y332740D02*
Y340540D01*
X303370Y340960D01*
X54950Y192910D02*
Y203060D01*
X25270Y163230D02*
X54950Y192910D01*
X50270Y163230D02*
X67650Y180611D01*
Y203060D01*
X75270Y163230D02*
X93050Y181010D01*
Y203060D01*
X80351D02*
Y216241D01*
X83820Y219710D02*
X97389D01*
X100270Y216829D01*
X80351Y216241D02*
X83820Y219710D01*
X100270Y163230D02*
Y216829D01*
X180740Y107950D02*
X200460Y88230D01*
X201200Y112490D02*
X225460Y88230D01*
X258000Y131420D02*
X301190Y88230D01*
X253460Y129539D02*
X276190Y106810D01*
Y88230D02*
Y106810D01*
X194170Y218440D02*
X200460Y212150D01*
Y188230D02*
Y212150D01*
Y188230D02*
X225460Y163230D01*
X188300Y175389D02*
Y203060D01*
Y175389D02*
X200460Y163230D01*
X175600Y203060D02*
Y211161D01*
X182880Y218440D01*
X194170D01*
X162901Y175790D02*
Y203060D01*
Y175790D02*
X175460Y163230D01*
X150201Y163489D02*
Y203060D01*
Y163489D02*
X150460Y163230D01*
X276190D02*
Y191664D01*
X280106Y195580D01*
X344170Y177800D02*
X363220D01*
X380270Y160750D01*
Y129000D02*
X403320Y105950D01*
X333670Y188300D02*
X344170Y177800D01*
X380270Y129000D02*
Y160750D01*
X403320Y105950D02*
X432930D01*
X384810Y130880D02*
X405201Y110490D01*
X363750Y183690D02*
X384810Y162631D01*
X351569Y183690D02*
X363750D01*
X346370Y188890D02*
X351569Y183690D01*
X405201Y110490D02*
X453390D01*
X384810Y130880D02*
Y162631D01*
X162901Y258940D02*
Y285750D01*
X348870Y304400D02*
Y320460D01*
X338870Y300821D02*
Y320460D01*
X333870Y302241D02*
Y320460D01*
X328870Y304800D02*
Y320460D01*
X358830Y277550D02*
X358870Y277590D01*
X346820Y277550D02*
X358830D01*
X358870Y277590D02*
Y320460D01*
X400650Y163230D02*
X421110Y183690D01*
X232069Y220160D02*
X237969Y226060D01*
X247650D01*
X258000Y215710D01*
Y131420D02*
Y215710D01*
X244769Y220160D02*
X253460Y211469D01*
Y129539D02*
Y211469D01*
X152400Y236220D02*
X199390D01*
X155480Y112490D02*
X201200D01*
X153600Y107950D02*
X180740D01*
X126040Y135510D02*
Y182850D01*
X133010Y189819D01*
X126040Y135510D02*
X153600Y107950D01*
X130580Y176300D02*
X138430Y184150D01*
X130580Y137390D02*
Y176300D01*
Y137390D02*
X155480Y112490D01*
X175600Y258940D02*
Y279400D01*
Y285511D01*
X238760Y368300D02*
Y379123D01*
X333870Y436460D02*
Y453390D01*
X248340Y425450D02*
X253420Y420370D01*
X229373Y409603D02*
X238760D01*
X134620Y241300D02*
X198050D01*
X123190Y240030D02*
Y249500D01*
Y240030D02*
X127000Y236220D01*
X152400D01*
X198050Y241300D02*
X222180Y265430D01*
X199390Y236220D02*
X224060Y260890D01*
X219370Y246040D02*
X229870D01*
X328870Y436460D02*
Y461010D01*
X353870Y436460D02*
Y466090D01*
X338870Y436460D02*
Y483141D01*
X348870Y413130D02*
Y436460D01*
X398870Y413140D02*
Y436460D01*
X253420Y420370D02*
X273372D01*
X287782Y405960D01*
X303370D01*
X289203Y410960D02*
X303370D01*
X274713Y425450D02*
X289203Y410960D01*
X264850Y425450D02*
X274713D01*
X353870Y298330D02*
Y320460D01*
X346370Y290830D02*
X353870Y298330D01*
X346820Y265430D02*
Y277550D01*
X276200Y315620D02*
Y321890D01*
X245720Y315620D02*
Y321890D01*
X399415Y586740D02*
Y608484D01*
X397370Y610530D02*
X399415Y608484D01*
X421005Y586740D02*
X440690D01*
X453250Y599300D01*
Y610530D01*
X296499Y195580D02*
X303190Y188890D01*
X280106Y195580D02*
X296499D01*
X290490Y173930D02*
Y188890D01*
Y173930D02*
X301190Y163230D01*
X80351Y258940D02*
Y279886D01*
X88174Y287710D01*
X93050D01*
X229870Y245800D02*
X257990D01*
X222180Y265430D02*
X274320D01*
X257990Y245800D02*
X268540Y256350D01*
X278081D01*
X224060Y260890D02*
X276201D01*
X93050Y287710D02*
X104050D01*
X110891Y280870D01*
X278081Y256350D02*
X309441Y287710D01*
X332180D01*
X348870Y304400D01*
X307561Y292250D02*
X330299D01*
X338870Y300821D01*
X305680Y296790D02*
X328419D01*
X333870Y302241D01*
X276201Y260890D02*
X307561Y292250D01*
X274320Y265430D02*
X305680Y296790D01*
X303370Y415960D02*
Y446880D01*
X328930Y472440D01*
X303370Y400960D02*
X326790D01*
X396760Y345960D02*
X419370D01*
X383870Y320460D02*
Y343230D01*
X303370Y370960D02*
X331590D01*
X303370Y355960D02*
X331590D01*
Y370960D01*
X425650Y183080D02*
X431460Y188890D01*
X425650Y163230D02*
Y183080D01*
X438739Y194310D02*
X444160Y188890D01*
X428730Y194310D02*
X438739D01*
X421110Y186690D02*
X428730Y194310D01*
X421110Y183690D02*
Y186690D01*
X231870Y286490D02*
X239879D01*
X244769Y281600D01*
X265089Y287710D02*
Y296250D01*
X231870Y317260D02*
Y337621D01*
X25400Y226060D02*
X38100D01*
X41910Y229870D01*
X108640Y297180D02*
X123190Y282630D01*
X104140Y297180D02*
X108640D01*
X107950Y236380D02*
Y249500D01*
Y236380D02*
X111419Y232911D01*
X150201Y258940D02*
Y275250D01*
X276860Y241300D02*
X283210D01*
X415980Y263480D02*
Y283900D01*
X477520Y264160D02*
X487680D01*
X364270Y207010D02*
Y219940D01*
X337820Y265430D02*
Y277550D01*
X327730D02*
X337820D01*
X219200Y539750D02*
X233680D01*
X219200Y514350D02*
X233680D01*
X321651Y662940D02*
X363800D01*
X296420Y655955D02*
X314666D01*
X321651Y662940D01*
X453390Y648770D02*
Y663520D01*
X478790Y635690D02*
Y648280D01*
X453250Y635929D02*
X478550D01*
X478790Y635690D01*
X475330Y623229D02*
X478790Y626690D01*
X365760Y552450D02*
Y564740D01*
X385356Y500266D02*
X396726D01*
X331758Y386080D02*
X353750D01*
X361370Y378460D01*
X182966Y354330D02*
Y365359D01*
Y323850D02*
X209830D01*
X81820Y335747D02*
Y349105D01*
X89820Y335747D02*
Y349105D01*
X49820Y335747D02*
Y349105D01*
X73820Y335747D02*
Y349105D01*
X97815Y335747D02*
Y349105D01*
X121818Y335747D02*
Y349105D01*
X45822Y417738D02*
Y431486D01*
X53823Y417738D02*
Y431486D01*
X117820Y417738D02*
Y431486D01*
X186690Y469265D02*
X224609D01*
X224734Y469140D01*
X369570Y626690D02*
X375340D01*
X378801Y623229D01*
X397370D01*
X418759D01*
X333430Y635929D02*
X346020D01*
X453390Y672520D02*
X464130D01*
X467360Y669290D01*
X474740D01*
X478790Y665240D01*
Y657280D02*
Y665240D01*
X453250Y623229D02*
X475330D01*
X590550Y554990D02*
X606460D01*
X591820Y542290D02*
X606460D01*
X590550Y543560D02*
X591820Y542290D01*
X590550Y543560D02*
Y554990D01*
X638810Y471170D02*
X648280D01*
X658460Y529590D02*
X681990D01*
X658460Y516890D02*
X680720D01*
X681990Y518160D01*
Y529590D01*
X683260Y445827D02*
X692760D01*
X704351D01*
X560650Y283210D02*
Y295330D01*
X560509Y233680D02*
Y248920D01*
Y260780D01*
X553339Y205359D02*
Y217170D01*
X639310Y142910D02*
X653380D01*
X655750Y140540D01*
X662380D01*
X668860D01*
X639310Y123410D02*
X651290D01*
X654480Y120220D01*
X662380D01*
Y111050D02*
Y120220D01*
X676350D01*
X535660Y50220D02*
X549220D01*
X639310Y79240D02*
Y88490D01*
X596561Y72220D02*
X611040D01*
X564700Y162410D02*
X581310D01*
X620751Y155910D02*
X639310D01*
X620580Y162410D02*
X639310D01*
X620580Y156081D02*
Y162410D01*
Y156081D02*
X620751Y155910D01*
X621180Y175410D02*
X639310D01*
X621030Y175260D02*
X621180Y175410D01*
X622150Y181910D02*
X639310D01*
X621030Y180790D02*
X622150Y181910D01*
X621030Y175260D02*
Y180790D01*
X668710Y168910D02*
X678180D01*
X668710Y188410D02*
X678180D01*
X690190Y202620D02*
X702410D01*
X711910Y140410D02*
Y149051D01*
X776680Y168590D02*
X791530D01*
X771020Y148850D02*
X777950D01*
X769750Y122760D02*
X776590D01*
X722134Y113804D02*
Y122760D01*
X343870Y470870D02*
X350520Y477520D01*
X343870Y436460D02*
Y470870D01*
X287138Y375960D02*
X289560D01*
X303370D01*
X289560Y385960D02*
X303370D01*
X316230Y627380D02*
Y634319D01*
X317840Y635929D01*
X324430D01*
X199390Y290011D02*
X208519D01*
X210820Y287710D01*
X134620Y241300D02*
Y249500D01*
X49437Y250190D02*
X54950D01*
Y258940D01*
X218524Y307101D02*
X222870D01*
X215675Y304251D02*
X218524Y307101D01*
X203420Y304251D02*
X215675D01*
X218524Y296861D02*
X222870D01*
X215675Y299711D02*
X218524Y296861D01*
X201539Y299711D02*
X215675D01*
X194886Y306364D02*
X201539Y299711D01*
X112087Y322449D02*
X113817Y324180D01*
X150590Y297910D02*
X163584Y310904D01*
X222870Y307101D02*
Y317260D01*
X113817Y324180D02*
Y335747D01*
Y349105D01*
X163584Y310904D02*
X196767D01*
X105816Y324180D02*
Y335747D01*
Y324180D02*
X107547Y322449D01*
X105816Y335747D02*
Y349105D01*
X152471Y293370D02*
Y293370D01*
X222870Y286490D02*
Y296861D01*
X165464Y306364D02*
X194886D01*
X152471Y293370D02*
X165464Y306364D01*
X196767Y310904D02*
X203420Y304251D01*
X107547Y310274D02*
Y322449D01*
Y310274D02*
X124451Y293370D01*
X152471D01*
X112087Y312154D02*
Y322449D01*
Y312154D02*
X126331Y297910D01*
X150590D01*
X168995Y344170D02*
X173966D01*
X166185Y341360D02*
X168995Y344170D01*
Y334010D02*
X173966D01*
X145421Y336820D02*
X166185D01*
X120268Y361972D02*
X145421Y336820D01*
X64090Y348770D02*
X65820Y347040D01*
Y335747D02*
Y347040D01*
X64090Y348770D02*
Y354330D01*
X71732Y361972D01*
X173966Y323850D02*
Y334010D01*
X57820Y335747D02*
Y347040D01*
X59550Y348770D01*
Y356211D01*
X69852Y366512D02*
X122149D01*
X59550Y356211D02*
X69852Y366512D01*
X173966Y344170D02*
Y354330D01*
X166185Y336820D02*
X168995Y334010D01*
X71732Y361972D02*
X120268D01*
X122149Y366512D02*
X147301Y341360D01*
X166185D01*
X233764Y399443D02*
X238760D01*
X230954Y396633D02*
X233764Y399443D01*
Y389283D02*
X238760D01*
X230954Y392093D02*
X233764Y389283D01*
X228600Y392093D02*
X230954D01*
X223064Y386557D02*
X228600Y392093D01*
X226719Y396633D02*
X230954D01*
X218524Y388438D02*
X226719Y396633D01*
X182966Y334010D02*
X186775D01*
X189585Y336820D01*
X199840D01*
X223064Y360045D01*
X186775Y344170D02*
X189585Y341360D01*
X197850D01*
X182966Y344170D02*
X186775D01*
X197850Y341360D02*
X218524Y362034D01*
X223064Y360045D02*
Y386557D01*
X218524Y362034D02*
Y388438D01*
X273372Y396633D02*
X274045Y395960D01*
X272624Y390960D02*
X303370D01*
X271492Y392093D02*
X272624Y390960D01*
X254354Y392093D02*
X271492D01*
X254354Y396633D02*
X273372D01*
X247760Y379123D02*
Y389283D01*
X251544D01*
X254354Y392093D01*
X251544Y399443D02*
X254354Y396633D01*
X247760Y399443D02*
Y409603D01*
Y399443D02*
X251544D01*
X274045Y395960D02*
X303370D01*
X266120Y330890D02*
Y335610D01*
X263270Y338460D02*
X266120Y335610D01*
X255880Y330890D02*
Y335610D01*
X258730Y338460D01*
X263270Y338460D02*
Y350595D01*
X258730Y338460D02*
Y352710D01*
X245720Y330890D02*
X255880D01*
X271980Y365960D02*
X303370D01*
X266120Y330890D02*
X276200D01*
X273635Y360960D02*
X303370D01*
X258730Y352710D02*
X271980Y365960D01*
X263270Y350595D02*
X273635Y360960D01*
X266120Y317830D02*
Y321890D01*
X263270Y314980D02*
X266120Y317830D01*
X263270Y308500D02*
Y314980D01*
X255880Y317830D02*
Y321890D01*
Y317830D02*
X258730Y314980D01*
Y310380D02*
Y314980D01*
X252601Y304251D02*
X258730Y310380D01*
X254481Y299711D02*
X263270Y308500D01*
X239154Y299711D02*
X254481D01*
X239154Y304251D02*
X252601D01*
X236304Y307101D02*
X239154Y304251D01*
X231870Y307101D02*
X236304D01*
Y296861D02*
X239154Y299711D01*
X231870Y296861D02*
X236304D01*
D38*
X368870Y310904D02*
Y320460D01*
X373870Y311560D02*
Y320460D01*
X378870Y312217D02*
Y320460D01*
X388870Y310797D02*
Y320460D01*
X393870Y311835D02*
Y320460D01*
X639310Y149410D02*
X674390D01*
X683390D02*
X701040D01*
X702410Y149051D02*
Y157130D01*
X707690Y162410D01*
X718460D01*
X721410Y165360D01*
Y174049D01*
Y149051D02*
X739160D01*
Y133030D02*
Y149051D01*
Y122760D02*
X760750D01*
X748160Y149051D02*
X761819D01*
X762020Y148850D01*
X722134Y131760D02*
X739160D01*
X748160Y149051D02*
Y185680D01*
X454030Y385960D02*
X461700Y393629D01*
X419370Y385960D02*
X454030D01*
X448871Y390960D02*
X461700Y403789D01*
X419370Y390960D02*
X448871D01*
X471860Y353270D02*
X477860Y347270D01*
X419370Y365960D02*
X434879D01*
X437570Y363270D01*
X419370Y375960D02*
X442610D01*
X445300Y373270D01*
X419370Y370960D02*
X433640D01*
X393870Y436460D02*
Y450330D01*
X388870Y436460D02*
Y450987D01*
X383870Y436460D02*
Y451644D01*
X378870Y436460D02*
Y452300D01*
X606460Y580390D02*
X614957D01*
X622490Y587923D01*
X606460Y567690D02*
X614387D01*
X626490Y579793D01*
X606460Y593090D02*
X613410D01*
X618490Y598170D01*
X568960Y607060D02*
X614680D01*
X618490Y603250D01*
Y598170D02*
Y603250D01*
X616337Y611060D02*
X622490Y604907D01*
X617994Y615060D02*
X626490Y606564D01*
X567303Y611060D02*
X616337D01*
X622490Y587923D02*
Y604907D01*
X565646Y615060D02*
X617994D01*
X626490Y579793D02*
Y606564D01*
X650875Y567690D02*
X658460D01*
X651503Y554990D02*
X658460D01*
X651510Y542290D02*
X658460D01*
X633030Y487096D02*
Y549845D01*
X650875Y567690D01*
X637030Y485439D02*
Y540517D01*
X651503Y554990D01*
X641030Y483783D02*
Y531810D01*
X651510Y542290D01*
X629030Y488753D02*
Y559180D01*
X650240Y580390D01*
X658460D01*
X625030Y490410D02*
Y566930D01*
X651190Y593090D01*
X658460D01*
X606460Y498440D02*
Y504190D01*
X607050Y446370D02*
X607720Y447040D01*
X607050Y446370D02*
X617463D01*
X617507Y446326D01*
X626507D02*
X646376D01*
X692760Y470825D02*
Y490800D01*
X658460Y504190D02*
X679566D01*
X683956Y499800D01*
X692760D01*
X581558Y516890D02*
X606460D01*
X572558D02*
Y525568D01*
X581310Y101280D02*
Y116910D01*
Y72470D02*
Y92280D01*
Y72470D02*
X581561Y72220D01*
X658550Y471170D02*
X666750D01*
X673416D01*
X673760Y470825D01*
X590550Y529590D02*
X606460D01*
X373870Y436460D02*
Y450650D01*
X363870Y436460D02*
Y453350D01*
X368870Y436460D02*
Y452693D01*
X358870Y436460D02*
Y456977D01*
X419370Y360960D02*
X429670D01*
X437360Y353270D01*
X419370Y355960D02*
X429013D01*
X441704Y343270D01*
X419370Y350960D02*
X428356D01*
X419370Y340960D02*
X432699D01*
X440319Y333340D01*
X428356Y350960D02*
X441976Y337340D01*
X398870Y313256D02*
Y320460D01*
Y313256D02*
X401296Y310830D01*
X393870Y311835D02*
X398876Y306830D01*
X388870Y310797D02*
X396837Y302830D01*
X378870Y312217D02*
X392257Y298830D01*
X373870Y311560D02*
X390601Y294830D01*
X368870Y310904D02*
X389384Y290390D01*
X363870Y304562D02*
Y320460D01*
X622007Y464760D02*
X641030Y483783D01*
X620350Y468760D02*
X637030Y485439D01*
X618694Y472760D02*
X633030Y487096D01*
X617037Y476760D02*
X629030Y488753D01*
X615380Y480760D02*
X625030Y490410D01*
X363870Y453350D02*
X396930Y486410D01*
X368870Y452693D02*
X398587Y482410D01*
X378870Y452300D02*
X404980Y478410D01*
X383870Y451644D02*
X406636Y474410D01*
X388870Y450987D02*
X408293Y470410D01*
X393870Y450330D02*
X409950Y466410D01*
X562050Y188410D02*
X581310D01*
X549388D02*
X562050D01*
X556930Y181910D02*
X581310D01*
X550231D02*
X556930D01*
X548779Y129910D02*
X581310D01*
X547936Y136410D02*
X562050D01*
X581310D01*
X547093Y142910D02*
X581310D01*
X546250Y149410D02*
X562050D01*
X581310D01*
X551917Y168910D02*
X581310D01*
X551074Y175410D02*
X562050D01*
X581310D01*
Y155910D02*
X597590D01*
X639310Y129910D02*
X688360D01*
X625290Y136410D02*
X639310D01*
X461700Y393629D02*
X471860D01*
X461700Y403789D02*
X471860D01*
X469351Y380960D02*
X471860Y383470D01*
X419370Y380960D02*
X469351D01*
X445300Y373270D02*
X471860D01*
X437570Y363270D02*
X471860D01*
X437360Y353270D02*
X471860D01*
X441704Y343270D02*
X471860D01*
X313110Y241990D02*
X313470Y242350D01*
Y245110D01*
X128270Y679450D02*
Y731520D01*
X120650Y739140D02*
X128270Y731520D01*
X244729Y696341D02*
X256159Y684911D01*
Y680030D02*
Y684911D01*
X228600Y659130D02*
X239141D01*
X109220Y755295D02*
X110858D01*
X132270Y733884D01*
Y681107D02*
Y733884D01*
X143165Y664555D02*
X173990D01*
X128270Y679450D02*
X143165Y664555D01*
X144087Y669290D02*
X215210D01*
X225950Y680030D02*
X239141D01*
X132270Y681107D02*
X144087Y669290D01*
X215210D02*
X225950Y680030D01*
X250000Y665290D02*
X256159Y659130D01*
Y628269D02*
Y636270D01*
X366331Y482138D02*
Y501536D01*
Y464438D02*
Y473020D01*
X358870Y456977D02*
X366331Y464438D01*
X215900Y579120D02*
Y627380D01*
X224790Y636270D01*
X239141D01*
X390601Y294830D02*
X498569D01*
X392257Y298830D02*
X500226D01*
X516890Y161800D02*
X548779Y129910D01*
X520890Y163456D02*
X547936Y136410D01*
X524890Y165113D02*
X547093Y142910D01*
X528890Y166770D02*
X546250Y149410D01*
X532890Y187937D02*
X551917Y168910D01*
X536890Y189594D02*
X551074Y175410D01*
X540890Y191251D02*
X550231Y181910D01*
X544890Y192908D02*
X549388Y188410D01*
X441976Y337340D02*
X490000D01*
X544890Y282450D01*
Y192908D02*
Y282450D01*
X440319Y333340D02*
X488343D01*
X540890Y280793D01*
Y191251D02*
Y280793D01*
X401296Y310830D02*
X505196D01*
X536890Y279136D01*
Y189594D02*
Y279136D01*
X503540Y306830D02*
X532890Y277479D01*
Y187937D02*
Y277479D01*
X501883Y302830D02*
X528890Y275823D01*
X500226Y298830D02*
X524890Y274166D01*
Y165113D02*
Y274166D01*
X520890Y163456D02*
Y272509D01*
X497352Y290390D02*
X516890Y270852D01*
Y161800D02*
Y270852D01*
X398876Y306830D02*
X503540D01*
X396837Y302830D02*
X501883D01*
X528890Y166770D02*
Y275823D01*
X389384Y290390D02*
X497352D01*
X256321Y607279D02*
Y614680D01*
X256159Y585632D02*
Y593090D01*
X256321Y593252D01*
X227520Y614680D02*
X239303D01*
X219900Y607060D02*
X227520Y614680D01*
X219900Y580777D02*
Y607060D01*
X227710Y593090D02*
X239141D01*
X225655Y591035D02*
X227710Y593090D01*
X225655Y580678D02*
Y591035D01*
X419370Y415960D02*
X440090D01*
X419370Y410960D02*
X440747D01*
X440090Y415960D02*
X477520Y453390D01*
X440747Y410960D02*
X479177Y449390D01*
X419370Y405960D02*
X444060D01*
X477520Y439420D01*
X446680Y400960D02*
X476250Y430530D01*
X419370Y400960D02*
X446680D01*
X351528Y523202D02*
X375818D01*
X451768Y543750D02*
X461700Y553682D01*
X225655Y580678D02*
X265314Y541020D01*
X414096D01*
X426758Y553682D01*
X263657Y537020D02*
X415753D01*
X422483Y543750D01*
X451768D01*
X262000Y533020D02*
X341710D01*
X351528Y523202D01*
X219900Y580777D02*
X263657Y537020D01*
X215900Y579120D02*
X262000Y533020D01*
X319190Y320460D02*
X323870D01*
X123190Y258500D02*
Y258940D01*
Y265430D01*
Y258940D02*
X134180D01*
X399267Y263480D02*
X406980D01*
X292210Y228130D02*
Y241990D01*
X313110D01*
X292250Y213270D02*
Y217750D01*
Y213270D02*
X298510Y207010D01*
X313470D01*
X93050Y242631D02*
Y258940D01*
X188300Y265089D02*
X188641Y265430D01*
X265089Y272810D02*
Y278710D01*
X123190Y265430D02*
Y273630D01*
X318770Y250410D02*
Y262880D01*
X313470Y245110D02*
X318770Y250410D01*
X363870Y304562D02*
X368370Y300062D01*
Y291530D02*
Y300062D01*
X471860Y343270D02*
X508900D01*
X520700Y331470D01*
X477860Y347270D02*
X530300D01*
X546100Y331470D01*
X471860Y363270D02*
X483860Y351269D01*
X551701D01*
X571500Y331470D01*
X471860Y373270D02*
X489860Y355270D01*
X573101D01*
X596900Y331470D01*
X471860Y383470D02*
X496060Y359269D01*
X594501D01*
X622300Y331470D01*
X502220Y363270D02*
X615900D01*
X647700Y331470D01*
X471860Y393629D02*
X502220Y363270D01*
X471190Y394300D02*
X471860Y394970D01*
X508380Y367270D02*
X637300D01*
X673100Y331470D01*
X471860Y403789D02*
X508380Y367270D01*
X471190Y404460D02*
X471860Y405130D01*
X532130Y466410D02*
X538480Y472760D01*
X409950Y466410D02*
X532130D01*
X538480Y472760D02*
X618694D01*
X530473Y470410D02*
X536823Y476760D01*
X408293Y470410D02*
X530473D01*
X536823Y476760D02*
X617037D01*
X528816Y474410D02*
X535166Y480760D01*
X406636Y474410D02*
X528816D01*
X535166Y480760D02*
X615380D01*
X404980Y478410D02*
X503810D01*
X396930Y486410D02*
X500496D01*
X398587Y482410D02*
X502153D01*
X503810Y478410D02*
X535940Y510540D01*
Y574040D01*
X568960Y607060D01*
X502153Y482410D02*
X531940Y512197D01*
Y575697D01*
X500496Y486410D02*
X527940Y513854D01*
Y577354D01*
X531940Y575697D02*
X567303Y611060D01*
X527940Y577354D02*
X565646Y615060D01*
X477520Y453390D02*
X546989D01*
X562359Y468760D01*
X620350D01*
X548646Y449390D02*
X564016Y464760D01*
X622007D01*
X479177Y449390D02*
X548646D01*
X319190Y436460D02*
X323870D01*
X290382Y521970D02*
X302260D01*
X226640Y715700D02*
Y725860D01*
X193040Y759460D02*
X226640Y725860D01*
X673760Y435066D02*
Y445827D01*
X679566Y429260D02*
X718820D01*
X734060Y444500D01*
X646430Y446460D02*
X673760D01*
Y435066D02*
X679566Y429260D01*
X93050Y258940D02*
X93490Y258500D01*
X187200Y558606D02*
X196284Y567690D01*
X187200Y539750D02*
Y558606D01*
X373000Y648630D02*
X397370D01*
X373000D02*
Y662740D01*
X61824Y417738D02*
Y431486D01*
X77820Y417738D02*
Y431486D01*
X85820Y417738D02*
Y431486D01*
X93820Y417738D02*
Y431486D01*
X101820Y417738D02*
Y431486D01*
X109820Y417738D02*
Y431486D01*
X692760Y462890D02*
Y470825D01*
X688340Y458470D02*
X692760Y462890D01*
X656590Y455350D02*
X665480D01*
X668600Y458470D01*
X688340D01*
X569510Y233680D02*
X586740D01*
X600861D01*
X586740Y248920D02*
Y267970D01*
X639310Y188410D02*
X652780D01*
X660420D01*
X639310Y97490D02*
Y107950D01*
Y116910D01*
X689050Y113590D02*
Y120220D01*
X568960Y50220D02*
X581561D01*
X558220D02*
X568960D01*
X569510Y217339D02*
Y233680D01*
X639310Y168910D02*
X659710D01*
X736920Y195260D02*
X748160D01*
X702410Y174049D02*
Y193880D01*
X569510Y248920D02*
X579120D01*
X586740D01*
X215320Y236800D02*
X229870D01*
X498569Y294830D02*
X520890Y272509D01*
X190980Y261620D02*
X199390D01*
X188300Y258940D02*
X190980Y261620D01*
X199390D02*
Y281010D01*
X184840Y285750D02*
X188300Y282290D01*
Y265089D02*
Y282290D01*
X569650Y283210D02*
X586740D01*
Y293370D01*
X719790Y77150D02*
Y90056D01*
X739160Y109426D01*
Y122760D01*
D39*
X330690Y591820D02*
Y607550D01*
X333670Y610530D01*
X397370D01*
X296420Y592090D02*
Y634365D01*
D40*
X290382Y491490D02*
Y506730D01*
X279400D02*
X290382D01*
X274320Y491490D02*
X290382D01*
D41*
X274320Y468182D02*
Y476250D01*
X306705Y634365D02*
X320970Y648630D01*
X296420Y634365D02*
X306705D01*
X320970Y648630D02*
X364000D01*
D42*
X25400Y241300D02*
Y274190D01*
X477520Y214630D02*
Y248920D01*
X289560Y467360D02*
Y476249D01*
D43*
X25270Y274320D02*
X25400Y274190D01*
D44*
X93490Y258500D02*
X107950D01*
X93050Y258940D02*
Y278710D01*
D45*
X287020Y759460D02*
D03*
X325120D02*
D03*
X474980D02*
D03*
X436880D02*
D03*
X398780D02*
D03*
X193040D02*
D03*
X231140D02*
D03*
D46*
X745790Y77150D02*
D03*
X520700Y407670D02*
D03*
X546100Y331470D02*
D03*
X571500D02*
D03*
X596900D02*
D03*
X622300D02*
D03*
X647700D02*
D03*
X673100D02*
D03*
X698500D02*
D03*
Y407670D02*
D03*
X673100D02*
D03*
X647700D02*
D03*
X622300D02*
D03*
X596900D02*
D03*
X571500D02*
D03*
X546100D02*
D03*
X734060Y469900D02*
D03*
D47*
X719790Y77150D02*
D03*
D48*
X520700Y331470D02*
D03*
X734060Y444500D02*
D03*
D49*
X155068Y683362D02*
D03*
X155069Y583362D02*
D03*
X155069Y483362D02*
D03*
X12569Y333361D02*
D03*
X12569Y433361D02*
D03*
Y533361D02*
D03*
X12569Y633361D02*
D03*
X69268Y683363D02*
D03*
X44269Y483362D02*
D03*
X98269Y483361D02*
D03*
D50*
X155070Y455362D02*
D03*
X155070Y408362D02*
D03*
X155069Y383362D02*
D03*
X155070Y358362D02*
D03*
X131771Y312362D02*
D03*
X83771Y312362D02*
D03*
X35771Y312363D02*
D03*
X12570Y358361D02*
D03*
Y408361D02*
D03*
Y455361D02*
D03*
D51*
X189865Y702310D02*
D03*
X477520Y214630D02*
D03*
X25270Y274320D02*
D03*
X473080Y702310D02*
D03*
X189865Y433360D02*
D03*
D52*
X425650Y163230D02*
D03*
X450650D02*
D03*
X475650D02*
D03*
X400650D02*
D03*
Y88230D02*
D03*
X475650D02*
D03*
X450650D02*
D03*
X425650D02*
D03*
X175460D02*
D03*
X200460D02*
D03*
X225460D02*
D03*
X150460D02*
D03*
Y163230D02*
D03*
X225460D02*
D03*
X200460D02*
D03*
X175460D02*
D03*
X301190D02*
D03*
X326190D02*
D03*
X351190D02*
D03*
X276190D02*
D03*
Y88230D02*
D03*
X351190D02*
D03*
X326190D02*
D03*
X301190D02*
D03*
X50270D02*
D03*
X75270D02*
D03*
X100270D02*
D03*
X25270D02*
D03*
Y163230D02*
D03*
X100270D02*
D03*
X75270D02*
D03*
X50270D02*
D03*
X35820Y376742D02*
D03*
X131820D02*
D03*
D53*
X81820Y349105D02*
D03*
X89820D02*
D03*
X276860Y381000D02*
D03*
X289560Y375960D02*
D03*
Y385960D02*
D03*
X431460Y188890D02*
D03*
X444160D02*
D03*
X346370D02*
D03*
X333670Y188300D02*
D03*
X67650Y273050D02*
D03*
X248340Y425450D02*
D03*
X264850D02*
D03*
X280090Y350960D02*
D03*
X287710Y345960D02*
D03*
X102529Y650360D02*
D03*
X471860Y343270D02*
D03*
Y353270D02*
D03*
Y363270D02*
D03*
Y373270D02*
D03*
Y383470D02*
D03*
Y393629D02*
D03*
Y403789D02*
D03*
X433640Y370960D02*
D03*
X398480Y395960D02*
D03*
X606460Y498440D02*
D03*
X607050Y446370D02*
D03*
X572558Y525568D02*
D03*
X666750Y471170D02*
D03*
X590550Y529590D02*
D03*
X373870Y450650D02*
D03*
X290490Y188890D02*
D03*
X303190D02*
D03*
X343870Y342900D02*
D03*
X302950Y332740D02*
D03*
X232069Y220160D02*
D03*
X175600Y279400D02*
D03*
X244769Y220160D02*
D03*
X110891Y280870D02*
D03*
X162901Y285750D02*
D03*
X328870Y304800D02*
D03*
X363870Y304562D02*
D03*
X346370Y290830D02*
D03*
X152400Y236220D02*
D03*
X219370Y246040D02*
D03*
X134620Y241300D02*
D03*
X133010Y189819D02*
D03*
X138430Y184150D02*
D03*
X238760Y368300D02*
D03*
X333870Y453390D02*
D03*
X229373Y409603D02*
D03*
X562050Y188410D02*
D03*
X556930Y181910D02*
D03*
Y168910D02*
D03*
X562050Y175410D02*
D03*
X556930Y142910D02*
D03*
X562050Y149410D02*
D03*
X556930Y129910D02*
D03*
X562050Y136410D02*
D03*
X597590Y155910D02*
D03*
X625290Y136410D02*
D03*
X328870Y461010D02*
D03*
X353870Y466090D02*
D03*
X350520Y477520D02*
D03*
X338870Y483141D02*
D03*
X348870Y413130D02*
D03*
X398870Y413140D02*
D03*
X318770Y262880D02*
D03*
X303190Y271439D02*
D03*
X276200Y315620D02*
D03*
X245720D02*
D03*
X231302Y351122D02*
D03*
X254000Y367030D02*
D03*
X244729Y696341D02*
D03*
X173990Y664555D02*
D03*
X120650Y739140D02*
D03*
X61824Y431486D02*
D03*
X77820D02*
D03*
X85820D02*
D03*
X93820D02*
D03*
X101820D02*
D03*
X109820D02*
D03*
X228600Y659130D02*
D03*
X109220Y755295D02*
D03*
X250000Y665290D02*
D03*
X256159Y628269D02*
D03*
X256321Y607279D02*
D03*
X256159Y585632D02*
D03*
X274320Y468182D02*
D03*
X168910Y543560D02*
D03*
Y533400D02*
D03*
Y523240D02*
D03*
Y514350D02*
D03*
Y505460D02*
D03*
X280090Y598170D02*
D03*
Y589280D02*
D03*
Y580390D02*
D03*
Y571500D02*
D03*
Y608111D02*
D03*
X477520Y439420D02*
D03*
X476250Y430530D02*
D03*
X426758Y553682D02*
D03*
X461700D02*
D03*
X319190Y320460D02*
D03*
X487154Y413337D02*
D03*
X73320Y242910D02*
D03*
X123190Y265430D02*
D03*
X399267Y263480D02*
D03*
X93050Y242631D02*
D03*
X199390Y261620D02*
D03*
X265089Y271780D02*
D03*
X328930Y472440D02*
D03*
X319190Y436460D02*
D03*
X302260Y521970D02*
D03*
X279400Y506730D02*
D03*
X289560Y468182D02*
D03*
X326790Y400960D02*
D03*
X396760Y345960D02*
D03*
X383870Y343230D02*
D03*
X331590Y370960D02*
D03*
Y355960D02*
D03*
X238760Y453390D02*
D03*
X226640Y715700D02*
D03*
X66040Y716280D02*
D03*
X73660Y710565D02*
D03*
X69837Y774130D02*
D03*
X132080Y763270D02*
D03*
X244769Y281600D02*
D03*
X265089Y296250D02*
D03*
X289561Y300062D02*
D03*
X231870Y337621D02*
D03*
X49437Y250190D02*
D03*
X41910Y229870D02*
D03*
X111419Y232911D02*
D03*
X104140Y297180D02*
D03*
X150201Y275250D02*
D03*
X210820Y287710D02*
D03*
X276860Y241300D02*
D03*
X378460Y275250D02*
D03*
X415980Y283900D02*
D03*
X444160Y283550D02*
D03*
X487680Y264160D02*
D03*
X364270Y219940D02*
D03*
X327730Y277550D02*
D03*
X363910Y342910D02*
D03*
X396726Y370840D02*
D03*
X373870Y412169D02*
D03*
X326790Y413130D02*
D03*
X308030Y496104D02*
D03*
X314320Y483870D02*
D03*
X252026Y519430D02*
D03*
X251920Y506730D02*
D03*
X233680Y539750D02*
D03*
Y514350D02*
D03*
X196284Y567690D02*
D03*
X186110Y589860D02*
D03*
X168330Y624856D02*
D03*
X200912Y663537D02*
D03*
X145470Y650746D02*
D03*
X99285Y615950D02*
D03*
X118110D02*
D03*
X99285Y604034D02*
D03*
X118110D02*
D03*
X45310Y558390D02*
D03*
X251460Y571500D02*
D03*
X314666Y655955D02*
D03*
X316230Y627380D02*
D03*
X359410Y736600D02*
D03*
X417397Y712470D02*
D03*
X417830Y641350D02*
D03*
X433070D02*
D03*
Y622300D02*
D03*
X417830D02*
D03*
X487170Y579630D02*
D03*
X365760Y552450D02*
D03*
X335489Y511810D02*
D03*
X396726Y500266D02*
D03*
X425393Y516010D02*
D03*
X459864Y518036D02*
D03*
X331758Y386080D02*
D03*
X210236Y370960D02*
D03*
X182966Y365359D02*
D03*
X209830Y323850D02*
D03*
X73820Y349105D02*
D03*
X97815D02*
D03*
X121818D02*
D03*
X49820D02*
D03*
X45822Y431486D02*
D03*
X53823D02*
D03*
X117820D02*
D03*
X121238Y452810D02*
D03*
X139700Y445770D02*
D03*
X224734Y469140D02*
D03*
X467360Y669290D02*
D03*
X473710Y618490D02*
D03*
X590550Y554990D02*
D03*
X638810Y471170D02*
D03*
X681990Y529590D02*
D03*
X704351Y445827D02*
D03*
X601980Y232561D02*
D03*
X560650Y295330D02*
D03*
X560509Y260780D02*
D03*
X553339Y205359D02*
D03*
X579120Y248920D02*
D03*
X652780Y188410D02*
D03*
X639310Y107950D02*
D03*
X668860Y140540D02*
D03*
X662380Y111050D02*
D03*
X689050Y113590D02*
D03*
X535660Y50220D02*
D03*
X639310Y79240D02*
D03*
X611040Y72220D02*
D03*
X568960Y50220D02*
D03*
X564700Y162410D02*
D03*
X621030Y175260D02*
D03*
X610180Y127246D02*
D03*
X678180Y168910D02*
D03*
Y188410D02*
D03*
X690190Y202620D02*
D03*
X736920Y195260D02*
D03*
X702310Y182880D02*
D03*
X711910Y140410D02*
D03*
X791530Y168590D02*
D03*
X777950Y148850D02*
D03*
X776590Y122760D02*
D03*
X722134Y113804D02*
D03*
X260930Y408362D02*
D03*
X72970Y380420D02*
D03*
X215320Y236800D02*
D03*
X622300Y155910D02*
D03*
X100330Y736490D02*
D03*
X92805Y721360D02*
D03*
X96520Y728980D02*
D03*
X43880Y772860D02*
D03*
X586740Y293370D02*
D03*
X113817Y349105D02*
D03*
X105816D02*
D03*
X62230Y294640D02*
D03*
X74930D02*
D03*
X483870Y618490D02*
D03*
X102529Y660400D02*
D03*
M02*
