%FSLAX44Y44*%
%MOMM*%
G71*
G01*
G75*
G04 Layer_Color=8421504*
%ADD10R,0.8000X0.8000*%
%ADD11O,2.0000X0.3500*%
%ADD12R,0.6502X1.0008*%
%ADD13R,1.2000X1.4000*%
%ADD14R,0.5000X0.6000*%
%ADD15R,2.0320X0.6096*%
%ADD16O,2.0320X0.6096*%
%ADD17R,2.6200X3.5100*%
%ADD18R,2.0000X0.6000*%
%ADD19O,2.0000X0.6000*%
%ADD20R,0.5004X2.0000*%
%ADD21R,0.6000X0.5000*%
G04:AMPARAMS|DCode=22|XSize=1.2mm|YSize=2.5mm|CornerRadius=0mm|HoleSize=0mm|Usage=FLASHONLY|Rotation=90.000|XOffset=0mm|YOffset=0mm|HoleType=Round|Shape=RoundedRectangle|*
%AMROUNDEDRECTD22*
21,1,1.2000,2.5000,0,0,90.0*
21,1,1.2000,2.5000,0,0,90.0*
1,1,0.0000,1.2500,0.6000*
1,1,0.0000,1.2500,-0.6000*
1,1,0.0000,-1.2500,-0.6000*
1,1,0.0000,-1.2500,0.6000*
%
%ADD22ROUNDEDRECTD22*%
%ADD23R,0.8128X0.8128*%
%ADD24R,1.5500X0.2500*%
%ADD25R,0.2500X1.5500*%
%ADD26R,3.4200X3.4200*%
%ADD27R,1.3970X1.3970*%
%ADD28R,1.2000X1.6000*%
%ADD29R,1.3970X1.3970*%
%ADD30R,1.6002X1.2954*%
%ADD31R,2.2000X2.0000*%
%ADD32R,1.9000X5.3000*%
%ADD33R,0.6096X2.0320*%
%ADD34O,0.6096X2.0320*%
%ADD35R,0.8128X1.0668*%
%ADD36R,0.8890X1.0160*%
%ADD37C,0.2540*%
%ADD38C,0.2000*%
%ADD39C,0.8000*%
%ADD40C,0.4000*%
%ADD41C,0.3000*%
%ADD42C,0.6000*%
%ADD43C,1.6000*%
%ADD44C,0.2560*%
%ADD45C,2.8000*%
%ADD46C,1.0000*%
%ADD47R,1.0000X1.0000*%
%ADD48R,1.0000X1.0000*%
%ADD49C,1.6500*%
%ADD50C,1.5240*%
G04:AMPARAMS|DCode=51|XSize=4mm|YSize=4mm|CornerRadius=2mm|HoleSize=0mm|Usage=FLASHONLY|Rotation=0.000|XOffset=0mm|YOffset=0mm|HoleType=Round|Shape=RoundedRectangle|*
%AMROUNDEDRECTD51*
21,1,4.0000,0.0000,0,0,0.0*
21,1,0.0000,4.0000,0,0,0.0*
1,1,4.0000,0.0000,0.0000*
1,1,4.0000,0.0000,0.0000*
1,1,4.0000,0.0000,0.0000*
1,1,4.0000,0.0000,0.0000*
%
%ADD51ROUNDEDRECTD51*%
%ADD52C,2.0000*%
%ADD53C,0.5000*%
%ADD54C,1.0000*%
%ADD55R,7.6776X7.7723*%
G04:AMPARAMS|DCode=56|XSize=2mm|YSize=2mm|CornerRadius=0mm|HoleSize=0mm|Usage=FLASHONLY|Rotation=270.000|XOffset=0mm|YOffset=0mm|HoleType=Round|Shape=RoundedRectangle|*
%AMROUNDEDRECTD56*
21,1,2.0000,2.0000,0,0,270.0*
21,1,2.0000,2.0000,0,0,270.0*
1,1,0.0000,-1.0000,-1.0000*
1,1,0.0000,-1.0000,1.0000*
1,1,0.0000,1.0000,1.0000*
1,1,0.0000,1.0000,-1.0000*
%
%ADD56ROUNDEDRECTD56*%
%ADD57R,1.6000X1.2000*%
%ADD58R,0.2000X0.6000*%
%ADD59R,0.6000X0.2000*%
%ADD60R,1.4000X2.2000*%
%ADD61R,3.5100X2.6200*%
G04:AMPARAMS|DCode=62|XSize=1.2mm|YSize=2.5mm|CornerRadius=0mm|HoleSize=0mm|Usage=FLASHONLY|Rotation=0.000|XOffset=0mm|YOffset=0mm|HoleType=Round|Shape=RoundedRectangle|*
%AMROUNDEDRECTD62*
21,1,1.2000,2.5000,0,0,0.0*
21,1,1.2000,2.5000,0,0,0.0*
1,1,0.0000,0.6000,-1.2500*
1,1,0.0000,-0.6000,-1.2500*
1,1,0.0000,-0.6000,1.2500*
1,1,0.0000,0.6000,1.2500*
%
%ADD62ROUNDEDRECTD62*%
%ADD63R,1.0668X0.8128*%
%ADD64R,1.2000X1.2000*%
%ADD65R,0.8128X0.8128*%
%ADD66C,0.1200*%
%ADD67C,0.1999*%
%ADD68C,0.2032*%
%ADD69C,0.1250*%
%ADD70C,0.1524*%
%ADD71C,0.1000*%
D10*
X256159Y636270D02*
D03*
X239141D02*
D03*
X256159Y593090D02*
D03*
X239141D02*
D03*
X256159Y680030D02*
D03*
X239141D02*
D03*
X256321Y614680D02*
D03*
X239303D02*
D03*
X256159Y659130D02*
D03*
X239141D02*
D03*
D11*
X581310Y188410D02*
D03*
Y181910D02*
D03*
X639310Y188410D02*
D03*
Y181910D02*
D03*
X581310Y123410D02*
D03*
Y116910D02*
D03*
X639310Y123410D02*
D03*
Y116910D02*
D03*
Y129910D02*
D03*
Y136410D02*
D03*
Y142910D02*
D03*
Y149410D02*
D03*
Y155910D02*
D03*
Y162410D02*
D03*
Y168910D02*
D03*
Y175410D02*
D03*
X581310Y129910D02*
D03*
Y136410D02*
D03*
Y142910D02*
D03*
Y149410D02*
D03*
Y155910D02*
D03*
Y162410D02*
D03*
Y168910D02*
D03*
Y175410D02*
D03*
D12*
X702410Y149051D02*
D03*
X711910D02*
D03*
X721410D02*
D03*
Y174049D02*
D03*
X702410D02*
D03*
X673760Y445827D02*
D03*
X683260D02*
D03*
X692760D02*
D03*
Y470825D02*
D03*
X673760D02*
D03*
D13*
X581561Y50220D02*
D03*
Y72220D02*
D03*
X596561D02*
D03*
Y50220D02*
D03*
D14*
X222870Y286490D02*
D03*
X231870D02*
D03*
X617507Y446326D02*
D03*
X626507D02*
D03*
X346020Y635929D02*
D03*
X355020D02*
D03*
X373000Y648630D02*
D03*
X364000D02*
D03*
X581558Y516890D02*
D03*
X572558D02*
D03*
X683390Y149410D02*
D03*
X674390D02*
D03*
X748160Y149051D02*
D03*
X739160D02*
D03*
X184840Y285750D02*
D03*
X175840D02*
D03*
X247760Y379123D02*
D03*
X238760D02*
D03*
X337820Y277550D02*
D03*
X346820D02*
D03*
X359370Y291530D02*
D03*
X368370D02*
D03*
X324430Y635929D02*
D03*
X333430D02*
D03*
X659710Y168910D02*
D03*
X668710D02*
D03*
X769750Y122760D02*
D03*
X760750D02*
D03*
X771020Y148850D02*
D03*
X762020D02*
D03*
X569510Y233680D02*
D03*
X560509D02*
D03*
X408250Y263480D02*
D03*
X417250D02*
D03*
X222870Y317260D02*
D03*
X231870D02*
D03*
X182966Y354330D02*
D03*
X173966D02*
D03*
X182966Y323850D02*
D03*
X173966D02*
D03*
X569650Y283210D02*
D03*
X560650D02*
D03*
X569510Y248920D02*
D03*
X560509D02*
D03*
X238760Y409603D02*
D03*
X247760D02*
D03*
X231870Y296861D02*
D03*
Y307101D02*
D03*
X659710Y188410D02*
D03*
X668710D02*
D03*
X363800Y662940D02*
D03*
X372800D02*
D03*
X337820Y265430D02*
D03*
X346820D02*
D03*
X292210Y241300D02*
D03*
X283210D02*
D03*
X558220Y50220D02*
D03*
X549220D02*
D03*
X657280Y471170D02*
D03*
X648280D02*
D03*
X222870Y307101D02*
D03*
Y296861D02*
D03*
X173966Y344170D02*
D03*
Y334010D02*
D03*
X182966Y344170D02*
D03*
Y334010D02*
D03*
X238760Y399443D02*
D03*
Y389283D02*
D03*
X247760Y399443D02*
D03*
Y389283D02*
D03*
D15*
X453250Y610530D02*
D03*
D16*
Y623229D02*
D03*
Y635929D02*
D03*
Y648630D02*
D03*
X397370D02*
D03*
Y635929D02*
D03*
Y623229D02*
D03*
Y610530D02*
D03*
D17*
X425450Y629920D02*
D03*
D18*
X658460Y504190D02*
D03*
D19*
Y516890D02*
D03*
Y529590D02*
D03*
Y542290D02*
D03*
Y554990D02*
D03*
Y567690D02*
D03*
Y580390D02*
D03*
Y593090D02*
D03*
X606460D02*
D03*
Y580390D02*
D03*
Y567690D02*
D03*
Y554990D02*
D03*
Y542290D02*
D03*
Y529590D02*
D03*
Y516890D02*
D03*
Y504190D02*
D03*
D20*
X121818Y335747D02*
D03*
X97815D02*
D03*
X89820D02*
D03*
X81820D02*
D03*
X73820D02*
D03*
X49820D02*
D03*
X45822Y417738D02*
D03*
X53823D02*
D03*
X61824D02*
D03*
X69825D02*
D03*
X77820D02*
D03*
X85820D02*
D03*
X93820D02*
D03*
X101820D02*
D03*
X109820D02*
D03*
X117820D02*
D03*
X113817Y335747D02*
D03*
X105816D02*
D03*
X65820D02*
D03*
X57820D02*
D03*
D21*
X692760Y499800D02*
D03*
Y490800D02*
D03*
X676350Y120220D02*
D03*
Y129220D02*
D03*
X689050D02*
D03*
Y120220D02*
D03*
X639310Y97490D02*
D03*
Y88490D02*
D03*
X581310Y101280D02*
D03*
Y92280D02*
D03*
X722134Y131760D02*
D03*
Y122760D02*
D03*
X739160D02*
D03*
Y131760D02*
D03*
X748160Y186260D02*
D03*
Y195260D02*
D03*
X229870Y236800D02*
D03*
Y245800D02*
D03*
X123190Y258500D02*
D03*
Y249500D02*
D03*
X134620Y258500D02*
D03*
Y249500D02*
D03*
X93050Y278710D02*
D03*
Y287710D02*
D03*
X276200Y330890D02*
D03*
Y321890D02*
D03*
X245720D02*
D03*
Y330890D02*
D03*
X292250Y217750D02*
D03*
Y226750D02*
D03*
X656590Y446350D02*
D03*
Y455350D02*
D03*
X662380Y129220D02*
D03*
Y120220D02*
D03*
Y140540D02*
D03*
Y149540D02*
D03*
X199390Y281010D02*
D03*
Y290011D02*
D03*
X123190Y273630D02*
D03*
Y282630D02*
D03*
X265089Y278710D02*
D03*
Y287710D02*
D03*
X107950Y258500D02*
D03*
Y249500D02*
D03*
X478790Y657280D02*
D03*
Y648280D02*
D03*
X453390Y672520D02*
D03*
Y663520D02*
D03*
X366331Y473020D02*
D03*
Y482020D02*
D03*
X702410Y193620D02*
D03*
Y202620D02*
D03*
X369570Y626690D02*
D03*
Y635690D02*
D03*
X478790D02*
D03*
Y626690D02*
D03*
X358830Y277550D02*
D03*
Y268550D02*
D03*
X266120Y330890D02*
D03*
X255880D02*
D03*
X266120Y321890D02*
D03*
X255880D02*
D03*
D22*
X365760Y608740D02*
D03*
Y564740D02*
D03*
D23*
X586740Y283210D02*
D03*
Y267970D02*
D03*
X289561Y491490D02*
D03*
Y476250D02*
D03*
X25400Y241300D02*
D03*
Y226060D02*
D03*
X586740Y233680D02*
D03*
Y248920D02*
D03*
X274320Y491490D02*
D03*
Y476250D02*
D03*
X477520Y264160D02*
D03*
Y248920D02*
D03*
X290382Y521970D02*
D03*
Y506730D02*
D03*
D24*
X303370Y340960D02*
D03*
Y345960D02*
D03*
Y350960D02*
D03*
Y355960D02*
D03*
Y360960D02*
D03*
Y365960D02*
D03*
Y370960D02*
D03*
Y375960D02*
D03*
Y380960D02*
D03*
Y385960D02*
D03*
Y400960D02*
D03*
Y405960D02*
D03*
Y410960D02*
D03*
Y415960D02*
D03*
X419370D02*
D03*
Y410960D02*
D03*
Y405960D02*
D03*
Y400960D02*
D03*
Y395960D02*
D03*
Y390960D02*
D03*
Y385960D02*
D03*
Y380960D02*
D03*
Y375960D02*
D03*
Y370960D02*
D03*
Y365960D02*
D03*
Y360960D02*
D03*
Y355960D02*
D03*
Y350960D02*
D03*
Y345960D02*
D03*
Y340960D02*
D03*
X303370Y395960D02*
D03*
Y390960D02*
D03*
D25*
X323870Y436460D02*
D03*
X328870D02*
D03*
X333870D02*
D03*
X338870D02*
D03*
X343870D02*
D03*
X348870D02*
D03*
X353870D02*
D03*
X358870D02*
D03*
X363870D02*
D03*
X368870D02*
D03*
X373870D02*
D03*
X378870D02*
D03*
X383870D02*
D03*
X388870D02*
D03*
X393870D02*
D03*
X398870D02*
D03*
Y320460D02*
D03*
X393870D02*
D03*
X388870D02*
D03*
X383870D02*
D03*
X378870D02*
D03*
X373870D02*
D03*
X368870D02*
D03*
X363870D02*
D03*
X358870D02*
D03*
X353870D02*
D03*
X348870D02*
D03*
X343870D02*
D03*
X338870D02*
D03*
X333870D02*
D03*
X328870D02*
D03*
X323870D02*
D03*
D26*
X361370Y378460D02*
D03*
D27*
X296420Y634365D02*
D03*
Y655955D02*
D03*
X186690Y490855D02*
D03*
Y469265D02*
D03*
D28*
X219200Y539750D02*
D03*
X187200D02*
D03*
X219200Y514350D02*
D03*
X187200D02*
D03*
D29*
X421005Y586740D02*
D03*
X399415D02*
D03*
D30*
X751280Y168590D02*
D03*
X776680D02*
D03*
D31*
X313470Y207010D02*
D03*
X364270D02*
D03*
Y245110D02*
D03*
X313470D02*
D03*
D32*
X330690Y591820D02*
D03*
X296690D02*
D03*
D33*
X93050Y258940D02*
D03*
X188300D02*
D03*
D34*
X80351D02*
D03*
X67650D02*
D03*
X54950D02*
D03*
Y203060D02*
D03*
X67650D02*
D03*
X80351D02*
D03*
X93050D02*
D03*
X175600Y258940D02*
D03*
X162901D02*
D03*
X150201D02*
D03*
Y203060D02*
D03*
X162901D02*
D03*
X175600D02*
D03*
X188300D02*
D03*
D35*
X375818Y523202D02*
D03*
X385356Y500266D02*
D03*
X366281D02*
D03*
D36*
X569341Y217170D02*
D03*
X553339D02*
D03*
M02*
