%FSLAX44Y44*%
%MOMM*%
G71*
G01*
G75*
G04 Layer_Physical_Order=4*
G04 Layer_Color=16711680*
%ADD10R,0.8000X0.8000*%
%ADD11O,2.0000X0.3500*%
%ADD12R,0.6502X1.0008*%
%ADD13R,1.2000X1.4000*%
%ADD14R,0.5000X0.6000*%
%ADD15R,2.0320X0.6096*%
%ADD16O,2.0320X0.6096*%
%ADD17R,2.6200X3.5100*%
%ADD18R,2.0000X0.6000*%
%ADD19O,2.0000X0.6000*%
%ADD20R,0.5004X2.0000*%
%ADD21R,0.6000X0.5000*%
G04:AMPARAMS|DCode=22|XSize=1.2mm|YSize=2.5mm|CornerRadius=0mm|HoleSize=0mm|Usage=FLASHONLY|Rotation=90.000|XOffset=0mm|YOffset=0mm|HoleType=Round|Shape=RoundedRectangle|*
%AMROUNDEDRECTD22*
21,1,1.2000,2.5000,0,0,90.0*
21,1,1.2000,2.5000,0,0,90.0*
1,1,0.0000,1.2500,0.6000*
1,1,0.0000,1.2500,-0.6000*
1,1,0.0000,-1.2500,-0.6000*
1,1,0.0000,-1.2500,0.6000*
%
%ADD22ROUNDEDRECTD22*%
%ADD23R,0.8128X0.8128*%
%ADD24R,1.5500X0.2500*%
%ADD25R,0.2500X1.5500*%
%ADD26R,3.4200X3.4200*%
%ADD27R,1.3970X1.3970*%
%ADD28R,1.2000X1.6000*%
%ADD29R,1.3970X1.3970*%
%ADD30R,1.6002X1.2954*%
%ADD31R,2.2000X2.0000*%
%ADD32R,1.9000X5.3000*%
%ADD33R,0.6096X2.0320*%
%ADD34O,0.6096X2.0320*%
%ADD35R,0.8128X1.0668*%
%ADD36R,0.8890X1.0160*%
%ADD37C,0.2540*%
%ADD38C,0.2000*%
%ADD39C,0.8000*%
%ADD40C,0.4000*%
%ADD41C,0.3000*%
%ADD42C,0.6000*%
%ADD43C,1.6000*%
%ADD44C,0.2560*%
%ADD45C,2.8000*%
%ADD46C,1.0000*%
%ADD47R,1.0000X1.0000*%
%ADD48R,1.0000X1.0000*%
%ADD49C,1.6500*%
%ADD50C,1.5240*%
G04:AMPARAMS|DCode=51|XSize=4mm|YSize=4mm|CornerRadius=2mm|HoleSize=0mm|Usage=FLASHONLY|Rotation=0.000|XOffset=0mm|YOffset=0mm|HoleType=Round|Shape=RoundedRectangle|*
%AMROUNDEDRECTD51*
21,1,4.0000,0.0000,0,0,0.0*
21,1,0.0000,4.0000,0,0,0.0*
1,1,4.0000,0.0000,0.0000*
1,1,4.0000,0.0000,0.0000*
1,1,4.0000,0.0000,0.0000*
1,1,4.0000,0.0000,0.0000*
%
%ADD51ROUNDEDRECTD51*%
%ADD52C,2.0000*%
%ADD53C,0.5000*%
%ADD54C,1.0000*%
%ADD55R,7.6776X7.7723*%
G04:AMPARAMS|DCode=56|XSize=2mm|YSize=2mm|CornerRadius=0mm|HoleSize=0mm|Usage=FLASHONLY|Rotation=270.000|XOffset=0mm|YOffset=0mm|HoleType=Round|Shape=RoundedRectangle|*
%AMROUNDEDRECTD56*
21,1,2.0000,2.0000,0,0,270.0*
21,1,2.0000,2.0000,0,0,270.0*
1,1,0.0000,-1.0000,-1.0000*
1,1,0.0000,-1.0000,1.0000*
1,1,0.0000,1.0000,1.0000*
1,1,0.0000,1.0000,-1.0000*
%
%ADD56ROUNDEDRECTD56*%
%ADD57R,1.6000X1.2000*%
%ADD58R,0.2000X0.6000*%
%ADD59R,0.6000X0.2000*%
%ADD60R,1.4000X2.2000*%
%ADD61R,3.5100X2.6200*%
G04:AMPARAMS|DCode=62|XSize=1.2mm|YSize=2.5mm|CornerRadius=0mm|HoleSize=0mm|Usage=FLASHONLY|Rotation=0.000|XOffset=0mm|YOffset=0mm|HoleType=Round|Shape=RoundedRectangle|*
%AMROUNDEDRECTD62*
21,1,1.2000,2.5000,0,0,0.0*
21,1,1.2000,2.5000,0,0,0.0*
1,1,0.0000,0.6000,-1.2500*
1,1,0.0000,-0.6000,-1.2500*
1,1,0.0000,-0.6000,1.2500*
1,1,0.0000,0.6000,1.2500*
%
%ADD62ROUNDEDRECTD62*%
%ADD63R,1.0668X0.8128*%
%ADD64R,1.2000X1.2000*%
%ADD65R,0.8128X0.8128*%
G36*
X796666Y3334D02*
X3334D01*
Y266518D01*
X4590Y266704D01*
X4846Y265860D01*
X6889Y262038D01*
X9638Y258688D01*
X12988Y255939D01*
X16810Y253896D01*
X20957Y252638D01*
X25270Y252214D01*
X29583Y252638D01*
X33730Y253896D01*
X37552Y255939D01*
X40902Y258688D01*
X43651Y262038D01*
X45694Y265860D01*
X46952Y270007D01*
X47376Y274320D01*
X46952Y278633D01*
X45694Y282780D01*
X43651Y286602D01*
X40902Y289952D01*
X37552Y292701D01*
X33730Y294744D01*
X29583Y296002D01*
X25270Y296426D01*
X20957Y296002D01*
X16810Y294744D01*
X12988Y292701D01*
X9638Y289952D01*
X6889Y286602D01*
X4846Y282780D01*
X4590Y281936D01*
X3334Y282122D01*
Y326583D01*
X4537Y326991D01*
X5259Y326051D01*
X7400Y324408D01*
X9893Y323375D01*
X12569Y323022D01*
X15245Y323375D01*
X17738Y324408D01*
X19879Y326051D01*
X21522Y328192D01*
X22555Y330685D01*
X22908Y333361D01*
X22555Y336037D01*
X21522Y338530D01*
X19879Y340671D01*
X17738Y342314D01*
X15245Y343347D01*
X12569Y343699D01*
X9893Y343347D01*
X7400Y342314D01*
X5259Y340671D01*
X4537Y339730D01*
X3334Y340139D01*
Y352620D01*
X4537Y353028D01*
X5709Y351500D01*
X7719Y349958D01*
X10059Y348989D01*
X12570Y348658D01*
X15082Y348989D01*
X17422Y349958D01*
X19431Y351500D01*
X20973Y353509D01*
X21943Y355850D01*
X22273Y358361D01*
X21943Y360872D01*
X20973Y363212D01*
X19431Y365222D01*
X17422Y366764D01*
X15082Y367733D01*
X12570Y368064D01*
X10059Y367733D01*
X7719Y366764D01*
X5709Y365222D01*
X4537Y363694D01*
X3334Y364102D01*
Y402620D01*
X4537Y403028D01*
X5709Y401500D01*
X7719Y399958D01*
X10059Y398988D01*
X12570Y398658D01*
X15082Y398988D01*
X17422Y399958D01*
X19431Y401500D01*
X20973Y403509D01*
X21943Y405849D01*
X22273Y408361D01*
X21943Y410872D01*
X20973Y413212D01*
X19431Y415222D01*
X17422Y416764D01*
X15082Y417733D01*
X12570Y418064D01*
X10059Y417733D01*
X7719Y416764D01*
X5709Y415222D01*
X4537Y413694D01*
X3334Y414102D01*
Y426583D01*
X4537Y426991D01*
X5258Y426051D01*
X7400Y424408D01*
X9893Y423375D01*
X12569Y423022D01*
X15245Y423375D01*
X17738Y424408D01*
X19879Y426051D01*
X21522Y428192D01*
X22555Y430685D01*
X22907Y433361D01*
X22555Y436037D01*
X21522Y438530D01*
X19879Y440672D01*
X17738Y442314D01*
X15245Y443347D01*
X12569Y443699D01*
X9893Y443347D01*
X7400Y442314D01*
X5258Y440672D01*
X4537Y439731D01*
X3334Y440139D01*
Y449620D01*
X4537Y450028D01*
X5709Y448500D01*
X7719Y446958D01*
X10059Y445989D01*
X12570Y445658D01*
X15082Y445989D01*
X17422Y446958D01*
X19431Y448500D01*
X20973Y450509D01*
X21943Y452850D01*
X22273Y455361D01*
X21943Y457872D01*
X20973Y460213D01*
X19431Y462222D01*
X17422Y463764D01*
X15082Y464733D01*
X12570Y465064D01*
X10059Y464733D01*
X7719Y463764D01*
X5709Y462222D01*
X4537Y460694D01*
X3334Y461102D01*
Y526583D01*
X4537Y526991D01*
X5258Y526050D01*
X7400Y524407D01*
X9893Y523375D01*
X12569Y523022D01*
X15245Y523375D01*
X17738Y524407D01*
X19879Y526050D01*
X21522Y528192D01*
X22555Y530685D01*
X22907Y533361D01*
X22555Y536037D01*
X21522Y538530D01*
X19879Y540671D01*
X17738Y542314D01*
X15245Y543347D01*
X12569Y543699D01*
X9893Y543347D01*
X7400Y542314D01*
X5258Y540671D01*
X4537Y539731D01*
X3334Y540139D01*
Y626582D01*
X4537Y626991D01*
X5258Y626050D01*
X7399Y624408D01*
X9893Y623375D01*
X12569Y623022D01*
X15244Y623375D01*
X17738Y624408D01*
X19879Y626050D01*
X21522Y628192D01*
X22555Y630685D01*
X22907Y633361D01*
X22555Y636037D01*
X21522Y638530D01*
X19879Y640671D01*
X17738Y642314D01*
X15244Y643347D01*
X12569Y643699D01*
X9893Y643347D01*
X7399Y642314D01*
X5258Y640671D01*
X4537Y639731D01*
X3334Y640139D01*
Y796666D01*
X796666D01*
Y3334D01*
D02*
G37*
%LPC*%
G36*
X629738Y406400D02*
X623570D01*
Y400232D01*
X624268Y400324D01*
X626102Y401084D01*
X627678Y402292D01*
X628886Y403867D01*
X629646Y405702D01*
X629738Y406400D01*
D02*
G37*
G36*
X646430D02*
X640262D01*
X640354Y405702D01*
X641114Y403867D01*
X642322Y402292D01*
X643897Y401084D01*
X645732Y400324D01*
X646430Y400232D01*
Y406400D01*
D02*
G37*
G36*
X655138D02*
X648970D01*
Y400232D01*
X649668Y400324D01*
X651503Y401084D01*
X653078Y402292D01*
X654286Y403867D01*
X655046Y405702D01*
X655138Y406400D01*
D02*
G37*
G36*
X621030D02*
X614862D01*
X614954Y405702D01*
X615714Y403867D01*
X616922Y402292D01*
X618498Y401084D01*
X620332Y400324D01*
X621030Y400232D01*
Y406400D01*
D02*
G37*
G36*
X578938D02*
X572770D01*
Y400232D01*
X573468Y400324D01*
X575303Y401084D01*
X576878Y402292D01*
X578086Y403867D01*
X578846Y405702D01*
X578938Y406400D01*
D02*
G37*
G36*
X570230D02*
X564062D01*
X564154Y405702D01*
X564914Y403867D01*
X566122Y402292D01*
X567697Y401084D01*
X569532Y400324D01*
X570230Y400232D01*
Y406400D01*
D02*
G37*
G36*
X604338D02*
X598170D01*
Y400232D01*
X598868Y400324D01*
X600703Y401084D01*
X602278Y402292D01*
X603486Y403867D01*
X604246Y405702D01*
X604338Y406400D01*
D02*
G37*
G36*
X595630D02*
X589462D01*
X589554Y405702D01*
X590314Y403867D01*
X591522Y402292D01*
X593097Y401084D01*
X594932Y400324D01*
X595630Y400232D01*
Y406400D01*
D02*
G37*
G36*
X544830Y415108D02*
X544132Y415016D01*
X542298Y414256D01*
X540722Y413048D01*
X539514Y411473D01*
X538754Y409638D01*
X538662Y408940D01*
X544830D01*
Y415108D01*
D02*
G37*
G36*
X521970D02*
Y408940D01*
X528138D01*
X528046Y409638D01*
X527286Y411473D01*
X526078Y413048D01*
X524502Y414256D01*
X522668Y415016D01*
X521970Y415108D01*
D02*
G37*
G36*
X570230D02*
X569532Y415016D01*
X567697Y414256D01*
X566122Y413048D01*
X564914Y411473D01*
X564154Y409638D01*
X564062Y408940D01*
X570230D01*
Y415108D01*
D02*
G37*
G36*
X547370D02*
Y408940D01*
X553538D01*
X553446Y409638D01*
X552686Y411473D01*
X551478Y413048D01*
X549902Y414256D01*
X548068Y415016D01*
X547370Y415108D01*
D02*
G37*
G36*
X519430D02*
X518732Y415016D01*
X516898Y414256D01*
X515322Y413048D01*
X514114Y411473D01*
X513354Y409638D01*
X513262Y408940D01*
X519430D01*
Y415108D01*
D02*
G37*
G36*
X680538Y406400D02*
X674370D01*
Y400232D01*
X675068Y400324D01*
X676902Y401084D01*
X678478Y402292D01*
X679686Y403867D01*
X680446Y405702D01*
X680538Y406400D01*
D02*
G37*
G36*
X671830D02*
X665662D01*
X665754Y405702D01*
X666514Y403867D01*
X667722Y402292D01*
X669297Y401084D01*
X671132Y400324D01*
X671830Y400232D01*
Y406400D01*
D02*
G37*
G36*
X705938D02*
X699770D01*
Y400232D01*
X700468Y400324D01*
X702302Y401084D01*
X703878Y402292D01*
X705086Y403867D01*
X705846Y405702D01*
X705938Y406400D01*
D02*
G37*
G36*
X697230D02*
X691062D01*
X691154Y405702D01*
X691914Y403867D01*
X693122Y402292D01*
X694697Y401084D01*
X696532Y400324D01*
X697230Y400232D01*
Y406400D01*
D02*
G37*
G36*
X553538D02*
X547370D01*
Y400232D01*
X548068Y400324D01*
X549902Y401084D01*
X551478Y402292D01*
X552686Y403867D01*
X553446Y405702D01*
X553538Y406400D01*
D02*
G37*
G36*
X325190Y374558D02*
X321420D01*
Y370288D01*
X325190D01*
Y374558D01*
D02*
G37*
G36*
X411440Y376380D02*
X407670D01*
Y370840D01*
Y365300D01*
X411440D01*
Y365840D01*
X419900D01*
Y367901D01*
X430272D01*
X430396Y367716D01*
X431884Y366721D01*
X433640Y366372D01*
X435396Y366721D01*
X436884Y367716D01*
X437879Y369204D01*
X438228Y370960D01*
X437879Y372716D01*
X436884Y374204D01*
X435396Y375199D01*
X433640Y375548D01*
X431884Y375199D01*
X430396Y374204D01*
X430272Y374019D01*
X419900D01*
Y375840D01*
X411440D01*
Y376380D01*
D02*
G37*
G36*
X155069Y393065D02*
X152558Y392734D01*
X150217Y391765D01*
X148208Y390223D01*
X146666Y388214D01*
X145696Y385873D01*
X145366Y383362D01*
X145696Y380851D01*
X146666Y378511D01*
X148208Y376501D01*
X150217Y374959D01*
X152558Y373990D01*
X155069Y373659D01*
X157580Y373990D01*
X159920Y374959D01*
X161930Y376501D01*
X163472Y378511D01*
X164441Y380851D01*
X164772Y383362D01*
X164441Y385873D01*
X163472Y388214D01*
X161930Y390223D01*
X159920Y391765D01*
X157580Y392734D01*
X155069Y393065D01*
D02*
G37*
G36*
X405130Y376380D02*
X401360D01*
Y372110D01*
X405130D01*
Y376380D01*
D02*
G37*
G36*
X35820Y388846D02*
X32687Y388434D01*
X29768Y387224D01*
X27262Y385301D01*
X25338Y382794D01*
X24129Y379875D01*
X23716Y376742D01*
X24129Y373610D01*
X25338Y370691D01*
X27262Y368184D01*
X29768Y366260D01*
X32687Y365051D01*
X35820Y364639D01*
X38953Y365051D01*
X41872Y366260D01*
X44378Y368184D01*
X46302Y370691D01*
X47511Y373610D01*
X47924Y376742D01*
X47511Y379875D01*
X46302Y382794D01*
X44378Y385301D01*
X41872Y387224D01*
X38953Y388434D01*
X35820Y388846D01*
D02*
G37*
G36*
X155070Y368065D02*
X152559Y367734D01*
X150219Y366765D01*
X148209Y365223D01*
X146667Y363213D01*
X145698Y360873D01*
X145367Y358362D01*
X145698Y355851D01*
X146667Y353510D01*
X148209Y351501D01*
X150219Y349959D01*
X152559Y348990D01*
X155070Y348659D01*
X157582Y348990D01*
X159922Y349959D01*
X161931Y351501D01*
X163473Y353510D01*
X164443Y355851D01*
X164773Y358362D01*
X164443Y360873D01*
X163473Y363213D01*
X161931Y365223D01*
X159922Y366765D01*
X157582Y367734D01*
X155070Y368065D01*
D02*
G37*
G36*
X405130Y369570D02*
X401360D01*
Y365300D01*
X405130D01*
Y369570D01*
D02*
G37*
G36*
X131820Y388846D02*
X128687Y388434D01*
X125768Y387224D01*
X123261Y385301D01*
X121338Y382794D01*
X120129Y379875D01*
X119716Y376742D01*
X120129Y373610D01*
X121338Y370691D01*
X123261Y368184D01*
X125768Y366260D01*
X128687Y365051D01*
X131820Y364639D01*
X134953Y365051D01*
X137872Y366260D01*
X140379Y368184D01*
X142302Y370691D01*
X143511Y373610D01*
X143924Y376742D01*
X143511Y379875D01*
X142302Y382794D01*
X140379Y385301D01*
X137872Y387224D01*
X134953Y388434D01*
X131820Y388846D01*
D02*
G37*
G36*
X259660Y379730D02*
X255890D01*
Y375460D01*
X259660D01*
Y379730D01*
D02*
G37*
G36*
X519430Y406400D02*
X513262D01*
X513354Y405702D01*
X514114Y403867D01*
X515322Y402292D01*
X516898Y401084D01*
X518732Y400324D01*
X519430Y400232D01*
Y406400D01*
D02*
G37*
G36*
X155070Y418065D02*
X152559Y417734D01*
X150219Y416765D01*
X148209Y415223D01*
X146667Y413214D01*
X145698Y410873D01*
X145367Y408362D01*
X145698Y405851D01*
X146667Y403511D01*
X148209Y401501D01*
X150219Y399959D01*
X152559Y398990D01*
X155070Y398659D01*
X157582Y398990D01*
X159922Y399959D01*
X161931Y401501D01*
X163473Y403511D01*
X164443Y405851D01*
X164773Y408362D01*
X164443Y410873D01*
X163473Y413214D01*
X161931Y415223D01*
X159922Y416765D01*
X157582Y417734D01*
X155070Y418065D01*
D02*
G37*
G36*
X544830Y406400D02*
X538662D01*
X538754Y405702D01*
X539514Y403867D01*
X540722Y402292D01*
X542298Y401084D01*
X544132Y400324D01*
X544830Y400232D01*
Y406400D01*
D02*
G37*
G36*
X528138D02*
X521970D01*
Y400232D01*
X522668Y400324D01*
X524502Y401084D01*
X526078Y402292D01*
X527286Y403867D01*
X528046Y405702D01*
X528138Y406400D01*
D02*
G37*
G36*
X325190Y391620D02*
X321420D01*
Y387350D01*
X325190D01*
Y391620D01*
D02*
G37*
G36*
X265970Y396700D02*
X262200D01*
Y391160D01*
X260930D01*
Y389890D01*
X255890D01*
Y385620D01*
Y382270D01*
X260930D01*
Y381000D01*
X262200D01*
Y375460D01*
X265970D01*
D01*
X265970D01*
X266596Y374834D01*
Y372030D01*
X256430D01*
Y372030D01*
X255756Y371269D01*
X254000Y371618D01*
X252244Y371269D01*
X250756Y370274D01*
X249761Y368786D01*
X249412Y367030D01*
X249761Y365274D01*
X250756Y363786D01*
X252244Y362791D01*
X254000Y362442D01*
X255756Y362791D01*
D01*
Y362791D01*
X256430Y362030D01*
Y362030D01*
X274430D01*
Y372030D01*
X273264D01*
Y376000D01*
X274430Y376000D01*
Y376000D01*
X275104Y376761D01*
Y376761D01*
D01*
X276860Y376412D01*
X278616Y376761D01*
X280104Y377756D01*
X281099Y379244D01*
X281448Y381000D01*
X281099Y382756D01*
X280104Y384244D01*
X278616Y385239D01*
X276860Y385588D01*
X275104Y385239D01*
X274865Y385509D01*
X274430Y386160D01*
D01*
D01*
X274430Y386160D01*
Y396160D01*
X265970D01*
Y396700D01*
D02*
G37*
G36*
X259660D02*
X255890D01*
Y392430D01*
X259660D01*
Y396700D01*
D02*
G37*
G36*
X318880Y391620D02*
X315110D01*
Y391080D01*
X306650D01*
Y389294D01*
X292670D01*
X291316Y390199D01*
X289560Y390548D01*
X287804Y390199D01*
X286316Y389204D01*
X285321Y387716D01*
X284972Y385960D01*
X285321Y384204D01*
X286316Y382716D01*
X287804Y381721D01*
X288438Y381595D01*
Y380325D01*
X287804Y380199D01*
X286316Y379204D01*
X285321Y377716D01*
X284972Y375960D01*
X285321Y374204D01*
X286316Y372716D01*
X287804Y371721D01*
X289560Y371372D01*
X291316Y371721D01*
X292670Y372626D01*
X306650D01*
Y370828D01*
X315110D01*
Y370288D01*
X318880D01*
Y375828D01*
X320150D01*
Y377098D01*
X325190D01*
Y380540D01*
Y384810D01*
X320150D01*
Y386080D01*
X318880D01*
Y391620D01*
D02*
G37*
G36*
X572770Y415108D02*
Y408940D01*
X578938D01*
X578846Y409638D01*
X578086Y411473D01*
X576878Y413048D01*
X575303Y414256D01*
X573468Y415016D01*
X572770Y415108D01*
D02*
G37*
G36*
X249500Y452120D02*
X245730D01*
Y447850D01*
X249500D01*
Y452120D01*
D02*
G37*
G36*
X155070Y465065D02*
X152559Y464734D01*
X150219Y463765D01*
X148209Y462223D01*
X146667Y460214D01*
X145698Y457873D01*
X145367Y455362D01*
X145698Y452851D01*
X146667Y450510D01*
X148209Y448501D01*
X150219Y446959D01*
X152559Y445990D01*
X155070Y445659D01*
X157582Y445990D01*
X159922Y446959D01*
X161931Y448501D01*
X163473Y450510D01*
X164443Y452851D01*
X164773Y455362D01*
X164443Y457873D01*
X163473Y460214D01*
X161931Y462223D01*
X159922Y463765D01*
X157582Y464734D01*
X155070Y465065D01*
D02*
G37*
G36*
X107360Y457850D02*
X103090D01*
Y454080D01*
X107360D01*
Y457850D01*
D02*
G37*
G36*
X100550D02*
X96280D01*
Y454080D01*
X100550D01*
Y457850D01*
D02*
G37*
G36*
X606460Y503028D02*
X604704Y502679D01*
X603216Y501684D01*
X602221Y500196D01*
X601872Y498440D01*
X602221Y496684D01*
X603216Y495196D01*
X603401Y495072D01*
Y449008D01*
X602811Y448126D01*
X602462Y446370D01*
X602811Y444614D01*
X603806Y443126D01*
X605294Y442131D01*
X607050Y441782D01*
X608806Y442131D01*
X610295Y443126D01*
X611289Y444614D01*
X611638Y446370D01*
X611289Y448126D01*
X610295Y449614D01*
X609519Y450133D01*
Y495072D01*
X609704Y495196D01*
X610699Y496684D01*
X611048Y498440D01*
X610699Y500196D01*
X609704Y501684D01*
X608216Y502679D01*
X606460Y503028D01*
D02*
G37*
G36*
X146304Y439674D02*
X140970D01*
Y434340D01*
X146304D01*
Y439674D01*
D02*
G37*
G36*
X138430D02*
X133096D01*
Y434340D01*
X138430D01*
Y439674D01*
D02*
G37*
G36*
X189865Y455467D02*
X185552Y455042D01*
X181405Y453784D01*
X177583Y451741D01*
X174233Y448992D01*
X171484Y445642D01*
X169441Y441820D01*
X168421Y438458D01*
X161004D01*
Y439134D01*
X148876D01*
Y427006D01*
X161004D01*
Y428262D01*
X168421D01*
X169441Y424901D01*
X171484Y421079D01*
X174233Y417729D01*
X177583Y414979D01*
X181405Y412937D01*
X185552Y411679D01*
X189865Y411254D01*
X194178Y411679D01*
X198325Y412937D01*
X202147Y414979D01*
X205497Y417729D01*
X208246Y421079D01*
X210289Y424901D01*
X211547Y429048D01*
X211971Y433360D01*
X211547Y437673D01*
X210289Y441820D01*
X208246Y445642D01*
X205497Y448992D01*
X202147Y451741D01*
X198325Y453784D01*
X194178Y455042D01*
X189865Y455467D01*
D02*
G37*
G36*
X741060Y451500D02*
X727060D01*
Y437500D01*
X741060D01*
Y451500D01*
D02*
G37*
G36*
X217605Y467870D02*
X208335D01*
Y460600D01*
X217605D01*
Y467870D01*
D02*
G37*
G36*
X205795D02*
X196525D01*
Y460600D01*
X205795D01*
Y467870D01*
D02*
G37*
G36*
X732790Y468630D02*
X726622D01*
X726714Y467932D01*
X727474Y466097D01*
X728682Y464522D01*
X730257Y463314D01*
X732092Y462554D01*
X732790Y462462D01*
Y468630D01*
D02*
G37*
G36*
X315341D02*
X309626D01*
Y462280D01*
X315341D01*
Y468630D01*
D02*
G37*
G36*
X193420Y467870D02*
X184150D01*
Y460600D01*
X193420D01*
Y467870D01*
D02*
G37*
G36*
X240919Y466912D02*
X235204D01*
Y460562D01*
X240919D01*
Y466912D01*
D02*
G37*
G36*
X249500Y458930D02*
X245730D01*
Y454660D01*
X249500D01*
Y458930D01*
D02*
G37*
G36*
X181610Y467870D02*
X172340D01*
Y460600D01*
X181610D01*
Y467870D01*
D02*
G37*
G36*
X249174Y466912D02*
X243459D01*
Y460562D01*
X249174D01*
Y466912D01*
D02*
G37*
G36*
X671830Y415108D02*
X671132Y415016D01*
X669297Y414256D01*
X667722Y413048D01*
X666514Y411473D01*
X665754Y409638D01*
X665662Y408940D01*
X671830D01*
Y415108D01*
D02*
G37*
G36*
X648970D02*
Y408940D01*
X655138D01*
X655046Y409638D01*
X654286Y411473D01*
X653078Y413048D01*
X651503Y414256D01*
X649668Y415016D01*
X648970Y415108D01*
D02*
G37*
G36*
X697230D02*
X696532Y415016D01*
X694697Y414256D01*
X693122Y413048D01*
X691914Y411473D01*
X691154Y409638D01*
X691062Y408940D01*
X697230D01*
Y415108D01*
D02*
G37*
G36*
X674370D02*
Y408940D01*
X680538D01*
X680446Y409638D01*
X679686Y411473D01*
X678478Y413048D01*
X676902Y414256D01*
X675068Y415016D01*
X674370Y415108D01*
D02*
G37*
G36*
X646430D02*
X645732Y415016D01*
X643897Y414256D01*
X642322Y413048D01*
X641114Y411473D01*
X640354Y409638D01*
X640262Y408940D01*
X646430D01*
Y415108D01*
D02*
G37*
G36*
X598170D02*
Y408940D01*
X604338D01*
X604246Y409638D01*
X603486Y411473D01*
X602278Y413048D01*
X600703Y414256D01*
X598868Y415016D01*
X598170Y415108D01*
D02*
G37*
G36*
X595630D02*
X594932Y415016D01*
X593097Y414256D01*
X591522Y413048D01*
X590314Y411473D01*
X589554Y409638D01*
X589462Y408940D01*
X595630D01*
Y415108D01*
D02*
G37*
G36*
X623570D02*
Y408940D01*
X629738D01*
X629646Y409638D01*
X628886Y411473D01*
X627678Y413048D01*
X626102Y414256D01*
X624268Y415016D01*
X623570Y415108D01*
D02*
G37*
G36*
X621030D02*
X620332Y415016D01*
X618498Y414256D01*
X616922Y413048D01*
X615714Y411473D01*
X614954Y409638D01*
X614862Y408940D01*
X621030D01*
Y415108D01*
D02*
G37*
G36*
X373870Y455238D02*
X372114Y454889D01*
X370626Y453894D01*
X369631Y452406D01*
X369282Y450650D01*
X369631Y448894D01*
X370626Y447406D01*
X370811Y447282D01*
Y436990D01*
X368870D01*
Y428530D01*
X368330D01*
Y424760D01*
X379410D01*
Y428530D01*
X378870D01*
Y436990D01*
X376929D01*
Y447282D01*
X377114Y447406D01*
X378109Y448894D01*
X378458Y450650D01*
X378109Y452406D01*
X377114Y453894D01*
X375626Y454889D01*
X373870Y455238D01*
D02*
G37*
G36*
X319190Y441048D02*
X317434Y440699D01*
X315946Y439704D01*
X314951Y438216D01*
X314602Y436460D01*
X314951Y434704D01*
X314951D01*
X314190Y434450D01*
X314190D01*
Y425990D01*
X313650D01*
Y422220D01*
X324730D01*
Y425990D01*
X324190D01*
Y434450D01*
X324190D01*
X323429Y434704D01*
X323429D01*
X323778Y436460D01*
X323429Y438216D01*
X322434Y439704D01*
X320946Y440699D01*
X319190Y441048D01*
D02*
G37*
G36*
X146304Y431800D02*
X140970D01*
Y426466D01*
X146304D01*
Y431800D01*
D02*
G37*
G36*
X138430D02*
X133096D01*
Y426466D01*
X138430D01*
Y431800D01*
D02*
G37*
G36*
X379410Y422220D02*
X375140D01*
Y418450D01*
X379410D01*
Y422220D01*
D02*
G37*
G36*
X317920Y419680D02*
X313650D01*
Y415910D01*
X317920D01*
Y419680D01*
D02*
G37*
G36*
X699770Y415108D02*
Y408940D01*
X705938D01*
X705846Y409638D01*
X705086Y411473D01*
X703878Y413048D01*
X702302Y414256D01*
X700468Y415016D01*
X699770Y415108D01*
D02*
G37*
G36*
X372600Y422220D02*
X368330D01*
Y418450D01*
X372600D01*
Y422220D01*
D02*
G37*
G36*
X324730Y419680D02*
X320460D01*
Y415910D01*
X324730D01*
Y419680D01*
D02*
G37*
G36*
Y341010D02*
X320460D01*
Y337240D01*
X324730D01*
Y341010D01*
D02*
G37*
G36*
X47570Y241640D02*
X43800D01*
Y237370D01*
X47570D01*
Y241640D01*
D02*
G37*
G36*
X601980Y237149D02*
X600224Y236800D01*
X598736Y235805D01*
X597741Y234317D01*
X597392Y232561D01*
X597741Y230805D01*
X598736Y229317D01*
X600224Y228322D01*
X601980Y227973D01*
X603736Y228322D01*
X605224Y229317D01*
X606219Y230805D01*
X606568Y232561D01*
X606219Y234317D01*
X605224Y235805D01*
X603736Y236800D01*
X601980Y237149D01*
D02*
G37*
G36*
X324310Y247180D02*
X320040D01*
Y243410D01*
X324310D01*
Y247180D01*
D02*
G37*
G36*
X317500D02*
X313230D01*
Y243410D01*
X317500D01*
Y247180D01*
D02*
G37*
G36*
X244769Y224748D02*
X243014Y224399D01*
X241525Y223404D01*
X240531Y221916D01*
X240181Y220160D01*
X240531Y218404D01*
X240848Y217929D01*
X240014Y216682D01*
X239623Y214712D01*
Y200488D01*
X240014Y198518D01*
X241092Y196905D01*
X240494Y195785D01*
X236345D01*
X235747Y196905D01*
X236825Y198518D01*
X237216Y200488D01*
Y214712D01*
X236825Y216682D01*
X235991Y217929D01*
X236308Y218404D01*
X236658Y220160D01*
X236308Y221916D01*
X235314Y223404D01*
X233825Y224399D01*
X232069Y224748D01*
X230314Y224399D01*
X228825Y223404D01*
X227831Y221916D01*
X227481Y220160D01*
X227831Y218404D01*
X228148Y217929D01*
X227314Y216682D01*
X226923Y214712D01*
Y200488D01*
X227314Y198518D01*
X227778Y197824D01*
X226796Y197019D01*
X224319Y199496D01*
X224516Y200488D01*
Y214712D01*
X224125Y216682D01*
X223009Y218351D01*
X221339Y219467D01*
X219370Y219859D01*
X217400Y219467D01*
X215730Y218351D01*
X214614Y216682D01*
X214223Y214712D01*
Y200488D01*
X214373Y199730D01*
X213253Y199132D01*
X211816Y200569D01*
Y214712D01*
X211425Y216682D01*
X210309Y218351D01*
X208639Y219467D01*
X206670Y219859D01*
X204700Y219467D01*
X203030Y218351D01*
X201914Y216682D01*
X201523Y214712D01*
Y200488D01*
X201914Y198518D01*
X203030Y196849D01*
X204700Y195733D01*
X206670Y195341D01*
X207457Y195498D01*
X216108Y186847D01*
X215621Y185674D01*
X180991D01*
X176984Y189681D01*
Y208620D01*
X176730Y209896D01*
X176134Y210788D01*
X175865Y212142D01*
X174749Y213811D01*
X173079Y214927D01*
X171110Y215319D01*
X169140Y214927D01*
X167470Y213811D01*
X166354Y212142D01*
X165963Y210172D01*
Y195948D01*
X166354Y193978D01*
X167220Y192683D01*
D01*
X166238Y191877D01*
X164284Y193832D01*
Y201790D01*
X164030Y203066D01*
X163556Y203774D01*
Y210172D01*
X163165Y212142D01*
X162049Y213811D01*
X160379Y214927D01*
X158410Y215319D01*
X156440Y214927D01*
X154770Y213811D01*
X153654Y212142D01*
X153263Y210172D01*
Y195948D01*
X153654Y193978D01*
X154770Y192309D01*
X156440Y191193D01*
X158075Y190868D01*
X158592Y190093D01*
X158592Y190093D01*
X158592Y190093D01*
X172110Y176576D01*
X172313Y175032D01*
X172287Y174905D01*
X169408Y173712D01*
X166901Y171789D01*
X164978Y169282D01*
X163769Y166363D01*
X163595Y165042D01*
X162325D01*
X162151Y166363D01*
X160942Y169282D01*
X159018Y171789D01*
X156512Y173712D01*
X153593Y174921D01*
X150460Y175334D01*
X147327Y174921D01*
X144408Y173712D01*
X141902Y171789D01*
X139978Y169282D01*
X138769Y166363D01*
X138356Y163230D01*
X138769Y160097D01*
X139978Y157178D01*
X141902Y154671D01*
X144408Y152748D01*
X147327Y151539D01*
X150460Y151126D01*
X153593Y151539D01*
X156512Y152748D01*
X159018Y154671D01*
X160942Y157178D01*
X162151Y160097D01*
X162325Y161418D01*
X163595D01*
X163769Y160097D01*
X164978Y157178D01*
X166901Y154671D01*
X169408Y152748D01*
X172327Y151539D01*
X175460Y151126D01*
X178593Y151539D01*
X181512Y152748D01*
X184018Y154671D01*
X185942Y157178D01*
X187151Y160097D01*
X187325Y161418D01*
X188595D01*
X188769Y160097D01*
X189978Y157178D01*
X191901Y154671D01*
X194408Y152748D01*
X197327Y151539D01*
X200460Y151126D01*
X201070Y151207D01*
X202025Y150369D01*
Y148050D01*
X198914D01*
Y133890D01*
X211804D01*
Y148050D01*
X208693D01*
Y154422D01*
X209018Y154671D01*
X210942Y157178D01*
X212151Y160097D01*
X212325Y161418D01*
X213595D01*
X213769Y160097D01*
X214978Y157178D01*
X216901Y154671D01*
X218027Y153808D01*
Y148050D01*
X214916D01*
Y133890D01*
X227806D01*
Y148050D01*
X224695D01*
Y150456D01*
X225460Y151126D01*
X228593Y151539D01*
X231512Y152748D01*
X234018Y154671D01*
X235942Y157178D01*
X237151Y160097D01*
X237564Y163230D01*
X237151Y166363D01*
X236148Y168785D01*
X237204Y169491D01*
X240506Y166189D01*
Y84002D01*
X230418Y73914D01*
X194491D01*
X186025Y82380D01*
X187151Y85097D01*
X187325Y86418D01*
X188595D01*
X188769Y85097D01*
X189978Y82178D01*
X191901Y79672D01*
X194408Y77748D01*
X197327Y76539D01*
X200460Y76126D01*
X203593Y76539D01*
X206512Y77748D01*
X209018Y79672D01*
X210942Y82178D01*
X212151Y85097D01*
X212325Y86418D01*
X213595D01*
X213769Y85097D01*
X214978Y82178D01*
X216901Y79672D01*
X219408Y77748D01*
X222327Y76539D01*
X225460Y76126D01*
X228593Y76539D01*
X231512Y77748D01*
X234018Y79672D01*
X235942Y82178D01*
X237151Y85097D01*
X237564Y88230D01*
X237151Y91363D01*
X235942Y94282D01*
X234018Y96789D01*
X231512Y98712D01*
X228593Y99921D01*
X225460Y100334D01*
X224695Y101004D01*
Y103410D01*
X227806D01*
Y117570D01*
X214916D01*
Y103410D01*
X218027D01*
Y97652D01*
X216901Y96789D01*
X214978Y94282D01*
X213769Y91363D01*
X213595Y90042D01*
X212325D01*
X212151Y91363D01*
X210942Y94282D01*
X209018Y96789D01*
X208693Y97038D01*
Y103410D01*
X211804D01*
Y117570D01*
X198914D01*
Y103410D01*
X202025D01*
Y101091D01*
X201070Y100253D01*
X200460Y100334D01*
X197327Y99921D01*
X194408Y98712D01*
X191901Y96789D01*
X189978Y94282D01*
X188769Y91363D01*
X188595Y90042D01*
X187325D01*
X187151Y91363D01*
X185942Y94282D01*
X184018Y96789D01*
X181512Y98712D01*
X178593Y99921D01*
X175460Y100334D01*
X172327Y99921D01*
X169408Y98712D01*
X166901Y96789D01*
X164978Y94282D01*
X163769Y91363D01*
X163595Y90042D01*
X162325D01*
X162151Y91363D01*
X160942Y94282D01*
X159018Y96789D01*
X156512Y98712D01*
X153593Y99921D01*
X150460Y100334D01*
X147327Y99921D01*
X144408Y98712D01*
X141902Y96789D01*
X139978Y94282D01*
X138769Y91363D01*
X138356Y88230D01*
X138769Y85097D01*
X139978Y82178D01*
X141902Y79672D01*
X144408Y77748D01*
X147327Y76539D01*
X150460Y76126D01*
X153593Y76539D01*
X156310Y77664D01*
X170292Y63682D01*
X170292D01*
X170292Y63682D01*
X170292Y63682D01*
Y63682D01*
X171374Y62960D01*
X172649Y62706D01*
X233680D01*
X234956Y62960D01*
X236038Y63682D01*
X236038Y63682D01*
X236038Y63682D01*
X250737Y78383D01*
X250737Y78382D01*
X250737Y78383D01*
X251460Y79464D01*
X251714Y80740D01*
Y142892D01*
X252913Y143692D01*
X252913D01*
X278312Y118292D01*
X279394Y117570D01*
X280670Y117316D01*
X319548D01*
X324644Y112220D01*
Y103410D01*
X327755D01*
Y101091D01*
X326800Y100253D01*
X326190Y100334D01*
X323057Y99921D01*
X320138Y98712D01*
X317631Y96789D01*
X315708Y94282D01*
X314499Y91363D01*
X314325Y90042D01*
X313055D01*
X312881Y91363D01*
X311672Y94282D01*
X309748Y96789D01*
X307242Y98712D01*
X304323Y99921D01*
X301190Y100334D01*
X298057Y99921D01*
X295138Y98712D01*
X292631Y96789D01*
X290708Y94282D01*
X289499Y91363D01*
X289325Y90042D01*
X288055D01*
X287881Y91363D01*
X286672Y94282D01*
X284748Y96789D01*
X282242Y98712D01*
X279323Y99921D01*
X276190Y100334D01*
X273057Y99921D01*
X270138Y98712D01*
X267631Y96789D01*
X265708Y94282D01*
X264499Y91363D01*
X264086Y88230D01*
X264499Y85097D01*
X265708Y82178D01*
X267631Y79672D01*
X270138Y77748D01*
X273057Y76539D01*
X276190Y76126D01*
X279323Y76539D01*
X282242Y77748D01*
X284748Y79672D01*
X286672Y82178D01*
X287881Y85097D01*
X288055Y86418D01*
X289325D01*
X289499Y85097D01*
X290708Y82178D01*
X292631Y79672D01*
X295138Y77748D01*
X298057Y76539D01*
X301190Y76126D01*
X304323Y76539D01*
X307242Y77748D01*
X309748Y79672D01*
X311672Y82178D01*
X312881Y85097D01*
X313055Y86418D01*
X314325D01*
X314499Y85097D01*
X315708Y82178D01*
X317631Y79672D01*
X320138Y77748D01*
X323057Y76539D01*
X326190Y76126D01*
X329323Y76539D01*
X332242Y77748D01*
X334748Y79672D01*
X336672Y82178D01*
X337881Y85097D01*
X338055Y86418D01*
X339325D01*
X339499Y85097D01*
X340708Y82178D01*
X342631Y79672D01*
X345138Y77748D01*
X348057Y76539D01*
X351190Y76126D01*
X354323Y76539D01*
X357242Y77748D01*
X359748Y79672D01*
X361672Y82178D01*
X362881Y85097D01*
X363294Y88230D01*
X362881Y91363D01*
X361672Y94282D01*
X359748Y96789D01*
X357242Y98712D01*
X354323Y99921D01*
X351190Y100334D01*
X350425Y101004D01*
Y103410D01*
X353536D01*
Y117570D01*
X350425D01*
Y117919D01*
X350171Y119195D01*
X349449Y120276D01*
X342178Y127548D01*
X341096Y128270D01*
X339820Y128524D01*
X283932D01*
X263144Y149312D01*
Y160679D01*
X264411Y160762D01*
X264499Y160097D01*
X265708Y157178D01*
X267631Y154671D01*
X270138Y152748D01*
X273057Y151539D01*
X276190Y151126D01*
X279323Y151539D01*
X282242Y152748D01*
X284748Y154671D01*
X286672Y157178D01*
X287881Y160097D01*
X288055Y161418D01*
X289325D01*
X289499Y160097D01*
X290708Y157178D01*
X292631Y154671D01*
X295138Y152748D01*
X298057Y151539D01*
X301190Y151126D01*
X304323Y151539D01*
X307242Y152748D01*
X309748Y154671D01*
X311672Y157178D01*
X312881Y160097D01*
X313055Y161418D01*
X314325D01*
X314499Y160097D01*
X315708Y157178D01*
X317631Y154671D01*
X320138Y152748D01*
X323057Y151539D01*
X326190Y151126D01*
X326800Y151207D01*
X327755Y150369D01*
Y148050D01*
X324644D01*
Y133890D01*
X337534D01*
Y148050D01*
X334423D01*
Y154422D01*
X334748Y154671D01*
X336672Y157178D01*
X337881Y160097D01*
X338055Y161418D01*
X339325D01*
X339499Y160097D01*
X340708Y157178D01*
X342631Y154671D01*
X343757Y153808D01*
Y148050D01*
X340646D01*
Y133890D01*
X353536D01*
Y148050D01*
X350425D01*
Y150456D01*
X351190Y151126D01*
X354323Y151539D01*
X357242Y152748D01*
X359748Y154671D01*
X361672Y157178D01*
X362881Y160097D01*
X363294Y163230D01*
X362881Y166363D01*
X361672Y169282D01*
X359748Y171789D01*
X357242Y173712D01*
X354323Y174921D01*
X351190Y175334D01*
X348057Y174921D01*
X345340Y173795D01*
X335922Y183213D01*
X336047Y184477D01*
X336914Y185056D01*
X337908Y186545D01*
X338258Y188300D01*
X337908Y190056D01*
X337296Y190973D01*
X337309Y191039D01*
X337309Y191039D01*
X337309D01*
X338425Y192708D01*
X338816Y194678D01*
Y208902D01*
X338425Y210872D01*
X337309Y212541D01*
X335639Y213657D01*
X333670Y214049D01*
X331700Y213657D01*
X330030Y212541D01*
X328914Y210872D01*
X328523Y208902D01*
Y194678D01*
X328914Y192708D01*
X330030Y191039D01*
Y191039D01*
X330030D01*
X330043Y190973D01*
X329431Y190056D01*
X329081Y188300D01*
X329301Y187196D01*
X328495Y186214D01*
X308246D01*
X307441Y187196D01*
X307778Y188890D01*
X307428Y190645D01*
X306997Y191290D01*
X307945Y192708D01*
X308336Y194678D01*
Y208902D01*
X307945Y210872D01*
X306829Y212541D01*
X305159Y213657D01*
X303190Y214049D01*
X301220Y213657D01*
X299550Y212541D01*
X298434Y210872D01*
X298043Y208902D01*
Y194678D01*
X298434Y192708D01*
X299382Y191290D01*
X298951Y190645D01*
X298601Y188890D01*
X298938Y187196D01*
X298133Y186214D01*
X295546D01*
X294741Y187196D01*
X295078Y188890D01*
X294728Y190645D01*
X294297Y191290D01*
X295245Y192708D01*
X295636Y194678D01*
Y208902D01*
X295245Y210872D01*
X294129Y212541D01*
X292459Y213657D01*
X290490Y214049D01*
X288520Y213657D01*
X286850Y212541D01*
X285734Y210872D01*
X285343Y208902D01*
Y194678D01*
X285734Y192708D01*
X286682Y191290D01*
X286251Y190645D01*
X285901Y188890D01*
X286238Y187196D01*
X285838Y186709D01*
X284570Y186646D01*
X283949Y187267D01*
X281429Y191039D01*
X282545Y192708D01*
X282936Y194678D01*
Y208902D01*
X282545Y210872D01*
X281429Y212541D01*
X279759Y213657D01*
X277789Y214049D01*
X275820Y213657D01*
X274150Y212541D01*
X273034Y210872D01*
X272643Y208902D01*
Y194678D01*
X272843Y193671D01*
X271723Y193073D01*
X270217Y194579D01*
X270236Y194678D01*
Y208902D01*
X269845Y210872D01*
X268729Y212541D01*
X267059Y213657D01*
X265089Y214049D01*
X263120Y213657D01*
X261450Y212541D01*
X260334Y210872D01*
X259943Y208902D01*
Y194678D01*
X260334Y192708D01*
X261450Y191039D01*
X263120Y189923D01*
X265089Y189531D01*
X265711Y189655D01*
X279217Y176148D01*
X278656Y175009D01*
X276190Y175334D01*
X273057Y174921D01*
X270138Y173712D01*
X267631Y171789D01*
X265708Y169282D01*
X264499Y166363D01*
X264411Y165698D01*
X263144Y165781D01*
Y177070D01*
X262890Y178346D01*
X262167Y179428D01*
X246921Y194674D01*
X246960Y195068D01*
X247941Y196536D01*
X248409Y196849D01*
X249525Y198518D01*
X249916Y200488D01*
Y214712D01*
X249525Y216682D01*
X248691Y217929D01*
X249008Y218404D01*
X249358Y220160D01*
X249008Y221916D01*
X248014Y223404D01*
X246525Y224399D01*
X244769Y224748D01*
D02*
G37*
G36*
X145709Y215319D02*
X143740Y214927D01*
X142070Y213811D01*
X140954Y212142D01*
X140563Y210172D01*
Y195948D01*
X140954Y193978D01*
X141991Y192426D01*
X138701Y189136D01*
X137581Y189735D01*
X137598Y189819D01*
X137248Y191575D01*
X136704Y192390D01*
X137765Y193978D01*
X138156Y195948D01*
Y210172D01*
X137765Y212142D01*
X136649Y213811D01*
X134979Y214927D01*
X133010Y215319D01*
X131040Y214927D01*
X129370Y213811D01*
X128254Y212142D01*
X127863Y210172D01*
Y195948D01*
X128254Y193978D01*
X129316Y192390D01*
X128771Y191575D01*
X128421Y189819D01*
X128771Y188063D01*
X129765Y186575D01*
X131254Y185580D01*
X133010Y185231D01*
X133883Y184357D01*
X133842Y184150D01*
X134191Y182394D01*
X135186Y180906D01*
X136674Y179911D01*
X138430Y179562D01*
X140186Y179911D01*
X141674Y180906D01*
X142669Y182394D01*
X142987Y183992D01*
X148067Y189072D01*
X148790Y190154D01*
X149044Y191430D01*
Y192104D01*
X149349Y192309D01*
X150465Y193978D01*
X150856Y195948D01*
Y210172D01*
X150465Y212142D01*
X149349Y213811D01*
X147679Y214927D01*
X145709Y215319D01*
D02*
G37*
G36*
X444160Y219859D02*
X442190Y219467D01*
X440520Y218351D01*
X439404Y216682D01*
X439013Y214712D01*
Y200488D01*
X439404Y198518D01*
X440520Y196849D01*
X440826Y196644D01*
Y191999D01*
X439921Y190645D01*
X439571Y188890D01*
X439763Y187926D01*
X438957Y186944D01*
X436662D01*
X435856Y187926D01*
X436048Y188890D01*
X435698Y190645D01*
X434794Y191999D01*
Y196644D01*
X435099Y196849D01*
X436215Y198518D01*
X436606Y200488D01*
Y214712D01*
X436215Y216682D01*
X435099Y218351D01*
X433429Y219467D01*
X431460Y219859D01*
X429490Y219467D01*
X427820Y218351D01*
X426704Y216682D01*
X426313Y214712D01*
Y200488D01*
X426704Y198518D01*
X427820Y196849D01*
X428125Y196644D01*
Y191999D01*
X427221Y190645D01*
X426871Y188890D01*
X427063Y187926D01*
X426257Y186944D01*
X423861D01*
X422094Y188711D01*
Y196644D01*
X422399Y196849D01*
X423515Y198518D01*
X423906Y200488D01*
Y214712D01*
X423515Y216682D01*
X422399Y218351D01*
X420729Y219467D01*
X418759Y219859D01*
X416790Y219467D01*
X415120Y218351D01*
X414004Y216682D01*
X413613Y214712D01*
Y200488D01*
X413947Y198807D01*
X412827Y198209D01*
X411097Y199938D01*
X411206Y200488D01*
Y214712D01*
X410815Y216682D01*
X409699Y218351D01*
X408029Y219467D01*
X406059Y219859D01*
X404090Y219467D01*
X402420Y218351D01*
X401304Y216682D01*
X400913Y214712D01*
Y200488D01*
X401304Y198518D01*
X402420Y196849D01*
X404090Y195733D01*
X406059Y195341D01*
X406230Y195375D01*
X410886Y190720D01*
Y185450D01*
X411139Y184174D01*
X411862Y183092D01*
X418242Y176712D01*
X419324Y175990D01*
X420600Y175736D01*
X421230D01*
X421477Y174490D01*
X419598Y173712D01*
X417091Y171789D01*
X415168Y169282D01*
X413959Y166363D01*
X413785Y165042D01*
X412515D01*
X412341Y166363D01*
X411132Y169282D01*
X409208Y171789D01*
X406702Y173712D01*
X403783Y174921D01*
X400650Y175334D01*
X397517Y174921D01*
X394598Y173712D01*
X392091Y171789D01*
X390168Y169282D01*
X388959Y166363D01*
X388546Y163230D01*
X388959Y160097D01*
X390168Y157178D01*
X392091Y154671D01*
X394598Y152748D01*
X397517Y151539D01*
X400650Y151126D01*
X403783Y151539D01*
X406702Y152748D01*
X409208Y154671D01*
X411132Y157178D01*
X412341Y160097D01*
X412515Y161418D01*
X413785D01*
X413959Y160097D01*
X415168Y157178D01*
X417091Y154671D01*
X419598Y152748D01*
X422517Y151539D01*
X425650Y151126D01*
X428783Y151539D01*
X431702Y152748D01*
X434208Y154671D01*
X436132Y157178D01*
X437341Y160097D01*
X437515Y161418D01*
X438785D01*
X438959Y160097D01*
X440168Y157178D01*
X442091Y154671D01*
X444598Y152748D01*
X447517Y151539D01*
X450650Y151126D01*
X451260Y151207D01*
X452215Y150369D01*
Y148050D01*
X449104D01*
Y133890D01*
X461994D01*
Y148050D01*
X458883D01*
Y154422D01*
X459208Y154671D01*
X461132Y157178D01*
X462341Y160097D01*
X462515Y161418D01*
X463785D01*
X463959Y160097D01*
X465168Y157178D01*
X467091Y154671D01*
X468217Y153808D01*
Y148050D01*
X465106D01*
Y133890D01*
X477996D01*
Y148050D01*
X474885D01*
Y150456D01*
X475650Y151126D01*
X478783Y151539D01*
X481702Y152748D01*
X484208Y154671D01*
X486132Y157178D01*
X487341Y160097D01*
X487754Y163230D01*
X487341Y166363D01*
X486132Y169282D01*
X484208Y171789D01*
X481702Y173712D01*
X478783Y174921D01*
X475650Y175334D01*
X472517Y174921D01*
X469800Y173795D01*
X457627Y185968D01*
X456546Y186690D01*
X455270Y186944D01*
X449362D01*
X448556Y187926D01*
X448748Y188890D01*
X448398Y190645D01*
X447494Y191999D01*
Y196644D01*
X447799Y196849D01*
X448915Y198518D01*
X449306Y200488D01*
Y214712D01*
X448915Y216682D01*
X447799Y218351D01*
X446129Y219467D01*
X444160Y219859D01*
D02*
G37*
G36*
X111419Y215319D02*
X109450Y214927D01*
X107780Y213811D01*
X106664Y212142D01*
X106273Y210172D01*
Y195948D01*
X106664Y193978D01*
X106746Y193857D01*
X105764Y193051D01*
X103701Y195114D01*
X103866Y195948D01*
Y210172D01*
X103475Y212142D01*
X102359Y213811D01*
X100689Y214927D01*
X98720Y215319D01*
X96750Y214927D01*
X95080Y213811D01*
X93964Y212142D01*
X93573Y210172D01*
Y195948D01*
X93964Y193978D01*
X95080Y192309D01*
X96750Y191193D01*
X98550Y190835D01*
X101997Y187387D01*
X101511Y186214D01*
X99321D01*
X90904Y194631D01*
X91166Y195948D01*
Y210172D01*
X90775Y212142D01*
X89659Y213811D01*
X87989Y214927D01*
X86019Y215319D01*
X84050Y214927D01*
X82380Y213811D01*
X81264Y212142D01*
X80873Y210172D01*
Y195948D01*
X81264Y193978D01*
X81648Y193405D01*
X80666Y192599D01*
X78276Y194989D01*
X78466Y195948D01*
Y210172D01*
X78075Y212142D01*
X76959Y213811D01*
X75289Y214927D01*
X73320Y215319D01*
X71350Y214927D01*
X69680Y213811D01*
X68564Y212142D01*
X68173Y210172D01*
Y195948D01*
X68564Y193978D01*
X69680Y192309D01*
X71350Y191193D01*
X72963Y190872D01*
X87852Y175982D01*
X87852D01*
X87852Y175982D01*
X87852D01*
X87852Y175982D01*
Y175982D01*
X87852Y175982D01*
Y175982D01*
X88934Y175260D01*
X90210Y175006D01*
X94087D01*
X94335Y173760D01*
X94218Y173712D01*
X91712Y171789D01*
X89788Y169282D01*
X88579Y166363D01*
X88405Y165042D01*
X87135D01*
X86961Y166363D01*
X85752Y169282D01*
X83828Y171789D01*
X81322Y173712D01*
X78403Y174921D01*
X75270Y175334D01*
X72137Y174921D01*
X69218Y173712D01*
X66712Y171789D01*
X64788Y169282D01*
X63579Y166363D01*
X63405Y165042D01*
X62135D01*
X61961Y166363D01*
X60752Y169282D01*
X58829Y171789D01*
X56322Y173712D01*
X53403Y174921D01*
X50270Y175334D01*
X47137Y174921D01*
X44218Y173712D01*
X41712Y171789D01*
X39788Y169282D01*
X38579Y166363D01*
X38405Y165042D01*
X37135D01*
X36961Y166363D01*
X35752Y169282D01*
X33828Y171789D01*
X31322Y173712D01*
X28403Y174921D01*
X25270Y175334D01*
X22137Y174921D01*
X19218Y173712D01*
X16711Y171789D01*
X14788Y169282D01*
X13579Y166363D01*
X13166Y163230D01*
X13579Y160097D01*
X14788Y157178D01*
X16711Y154671D01*
X19218Y152748D01*
X22137Y151539D01*
X25270Y151126D01*
X28403Y151539D01*
X31322Y152748D01*
X33828Y154671D01*
X35752Y157178D01*
X36961Y160097D01*
X37135Y161418D01*
X38405D01*
X38579Y160097D01*
X39788Y157178D01*
X41712Y154671D01*
X44218Y152748D01*
X47137Y151539D01*
X50270Y151126D01*
X53403Y151539D01*
X56322Y152748D01*
X58829Y154671D01*
X60752Y157178D01*
X61961Y160097D01*
X62135Y161418D01*
X63405D01*
X63579Y160097D01*
X64788Y157178D01*
X66712Y154671D01*
X69218Y152748D01*
X72137Y151539D01*
X75270Y151126D01*
X75340Y151136D01*
X76295Y150298D01*
Y148050D01*
X73184D01*
Y133890D01*
X86074D01*
Y148050D01*
X82963D01*
Y154007D01*
X83828Y154671D01*
X85752Y157178D01*
X86961Y160097D01*
X87135Y161418D01*
X88405D01*
X88579Y160097D01*
X89788Y157178D01*
X91712Y154671D01*
X92297Y154222D01*
Y148050D01*
X89186D01*
Y133890D01*
X101434D01*
X101616Y133452D01*
X101616Y133452D01*
X101921Y132717D01*
X95093Y125889D01*
X84455D01*
X83179Y125635D01*
X82098Y124913D01*
X77271Y120086D01*
X76549Y119005D01*
X76295Y117729D01*
Y116300D01*
X73184D01*
Y102140D01*
X75608D01*
X76055Y100951D01*
X75340Y100324D01*
X75270Y100334D01*
X72137Y99921D01*
X69218Y98712D01*
X66712Y96789D01*
X64788Y94282D01*
X63579Y91363D01*
X63405Y90042D01*
X62135D01*
X61961Y91363D01*
X60752Y94282D01*
X58829Y96789D01*
X56322Y98712D01*
X53403Y99921D01*
X50270Y100334D01*
X47137Y99921D01*
X44218Y98712D01*
X41712Y96789D01*
X39788Y94282D01*
X38579Y91363D01*
X38405Y90042D01*
X37135D01*
X36961Y91363D01*
X35752Y94282D01*
X33828Y96789D01*
X31322Y98712D01*
X28403Y99921D01*
X25270Y100334D01*
X22137Y99921D01*
X19218Y98712D01*
X16711Y96789D01*
X14788Y94282D01*
X13579Y91363D01*
X13166Y88230D01*
X13579Y85097D01*
X14788Y82178D01*
X16711Y79672D01*
X19218Y77748D01*
X22137Y76539D01*
X25270Y76126D01*
X28403Y76539D01*
X31120Y77665D01*
X46372Y62413D01*
X46372D01*
X46372Y62412D01*
X46372Y62412D01*
Y62412D01*
X47454Y61690D01*
X48730Y61436D01*
X107950D01*
X109226Y61690D01*
X110308Y62413D01*
X132817Y84923D01*
X133540Y86004D01*
X133794Y87280D01*
Y176503D01*
X133540Y177778D01*
X132817Y178860D01*
X116428Y195250D01*
X116566Y195948D01*
Y210172D01*
X116175Y212142D01*
X115059Y213811D01*
X113389Y214927D01*
X111419Y215319D01*
D02*
G37*
G36*
X736920Y199848D02*
X735164Y199499D01*
X733676Y198504D01*
X732681Y197016D01*
X732332Y195260D01*
X732681Y193504D01*
X733676Y192016D01*
X735164Y191021D01*
X736920Y190672D01*
X738676Y191021D01*
X740164Y192016D01*
X741159Y193504D01*
X741508Y195260D01*
X741159Y197016D01*
X740164Y198504D01*
X738676Y199499D01*
X736920Y199848D01*
D02*
G37*
G36*
X169839Y257670D02*
X165412D01*
Y251828D01*
X165846Y249648D01*
X167081Y247799D01*
X168929Y246564D01*
X169839Y246383D01*
Y257670D01*
D02*
G37*
G36*
X117117D02*
X112690D01*
Y246383D01*
X113600Y246564D01*
X115448Y247799D01*
X116683Y249648D01*
X117117Y251828D01*
Y257670D01*
D02*
G37*
G36*
X243500Y262210D02*
X239072D01*
Y256368D01*
X239506Y254188D01*
X240741Y252339D01*
X242589Y251104D01*
X243500Y250923D01*
Y262210D01*
D02*
G37*
G36*
X176807Y257670D02*
X172379D01*
Y246383D01*
X173290Y246564D01*
X175138Y247799D01*
X176373Y249648D01*
X176807Y251828D01*
Y257670D01*
D02*
G37*
G36*
X110149D02*
X105722D01*
Y251828D01*
X106156Y249648D01*
X107391Y247799D01*
X109239Y246564D01*
X110149Y246383D01*
Y257670D01*
D02*
G37*
G36*
X579120Y253508D02*
X577364Y253159D01*
X575876Y252164D01*
X575752Y251979D01*
X558800D01*
X557630Y251746D01*
X556637Y251083D01*
X531257Y225703D01*
X530594Y224711D01*
X530361Y223540D01*
X530361Y223540D01*
Y198644D01*
X528920D01*
Y188644D01*
X528920Y188644D01*
X528920Y188140D01*
X528920D01*
Y178140D01*
X528920Y178140D01*
X528920Y177980D01*
X528920D01*
Y176039D01*
X515060D01*
X515060Y176039D01*
X513890Y175806D01*
X512897Y175143D01*
X512897Y175143D01*
X507447Y169693D01*
X506784Y168701D01*
X506551Y167530D01*
X506551Y167530D01*
Y160930D01*
X505110D01*
Y150930D01*
X505110Y150930D01*
X505110Y150770D01*
X505110D01*
Y140770D01*
X505110Y140770D01*
X505110Y140610D01*
X505110D01*
Y130610D01*
X505110Y130610D01*
X505110Y130450D01*
X505110D01*
Y120450D01*
X523110D01*
Y122391D01*
X534840D01*
X534840Y122391D01*
X536011Y122624D01*
X537003Y123287D01*
X540567Y126851D01*
X553562D01*
X553686Y126666D01*
X555174Y125671D01*
X556930Y125322D01*
X558686Y125671D01*
X560174Y126666D01*
X561169Y128154D01*
X561518Y129910D01*
X561348Y130766D01*
X562050Y131821D01*
X562050Y131822D01*
X562050D01*
Y131822D01*
D01*
X563806Y132171D01*
X565294Y133166D01*
X566289Y134654D01*
X566638Y136410D01*
X566289Y138166D01*
X565294Y139654D01*
X563806Y140649D01*
X562050Y140998D01*
X562050Y140998D01*
Y140998D01*
X561348Y142053D01*
X561518Y142910D01*
X561348Y143766D01*
X562050Y144821D01*
X562050Y144822D01*
X562050D01*
Y144822D01*
D01*
X563806Y145171D01*
X565294Y146166D01*
X566289Y147654D01*
X566638Y149410D01*
X566289Y151166D01*
X565294Y152654D01*
X563806Y153649D01*
X562050Y153998D01*
X560294Y153649D01*
X559067Y152829D01*
X533727D01*
X529909Y156647D01*
X530395Y157820D01*
X546920D01*
Y159761D01*
X550840D01*
X550840Y159761D01*
X552010Y159994D01*
X553003Y160657D01*
X556711Y164365D01*
X556930Y164322D01*
X558686Y164671D01*
X560174Y165666D01*
X561169Y167154D01*
X561518Y168910D01*
X561348Y169767D01*
X562050Y170821D01*
X562050Y170822D01*
X562050D01*
Y170822D01*
D01*
X563806Y171171D01*
X565294Y172166D01*
X566289Y173654D01*
X566638Y175410D01*
X566289Y177166D01*
X565294Y178654D01*
X563806Y179649D01*
X562050Y179998D01*
X562050Y179998D01*
Y179998D01*
X561348Y181053D01*
X561518Y181910D01*
X561348Y182766D01*
X562050Y183821D01*
X562050Y183822D01*
X562050D01*
Y183822D01*
D01*
X563806Y184171D01*
X565294Y185166D01*
X566289Y186654D01*
X566638Y188410D01*
X566289Y190166D01*
X565294Y191654D01*
X563806Y192649D01*
X562050Y192998D01*
X560294Y192649D01*
X558806Y191654D01*
X558682Y191469D01*
X556667D01*
X552673Y195463D01*
X551680Y196126D01*
X550510Y196359D01*
X550510Y196359D01*
X546920D01*
Y198644D01*
X536479D01*
Y222273D01*
X560067Y245861D01*
X575752D01*
X575876Y245676D01*
X577364Y244681D01*
X579120Y244332D01*
X580876Y244681D01*
X582364Y245676D01*
X583359Y247164D01*
X583708Y248920D01*
X583359Y250676D01*
X582364Y252164D01*
X580876Y253159D01*
X579120Y253508D01*
D02*
G37*
G36*
X47570Y248451D02*
X43800D01*
Y244181D01*
X47570D01*
Y248451D01*
D02*
G37*
G36*
X308887Y256400D02*
X304459D01*
Y245113D01*
X305370Y245294D01*
X307218Y246529D01*
X308453Y248378D01*
X308887Y250558D01*
Y256400D01*
D02*
G37*
G36*
X301919D02*
X297492D01*
Y250558D01*
X297926Y248378D01*
X299161Y246529D01*
X301009Y245294D01*
X301919Y245113D01*
Y256400D01*
D02*
G37*
G36*
X639310Y112538D02*
X637554Y112189D01*
X636066Y111194D01*
X635071Y109706D01*
X634722Y107950D01*
X635071Y106194D01*
X636066Y104706D01*
X637554Y103711D01*
X639310Y103362D01*
X641066Y103711D01*
X642554Y104706D01*
X643549Y106194D01*
X643898Y107950D01*
X643549Y109706D01*
X642554Y111194D01*
X641066Y112189D01*
X639310Y112538D01*
D02*
G37*
G36*
X747060Y84588D02*
Y78420D01*
X753228D01*
X753136Y79118D01*
X752376Y80953D01*
X751168Y82528D01*
X749593Y83736D01*
X747758Y84496D01*
X747060Y84588D01*
D02*
G37*
G36*
X608910Y135140D02*
X605140D01*
Y130870D01*
X608910D01*
Y135140D01*
D02*
G37*
G36*
X689050Y118178D02*
X687294Y117829D01*
X685806Y116834D01*
X684811Y115346D01*
X684462Y113590D01*
X684811Y111834D01*
X685806Y110346D01*
X687294Y109351D01*
X689050Y109002D01*
X690806Y109351D01*
X692294Y110346D01*
X693289Y111834D01*
X693638Y113590D01*
X693289Y115346D01*
X692294Y116834D01*
X690806Y117829D01*
X689050Y118178D01*
D02*
G37*
G36*
X744520Y84588D02*
X743822Y84496D01*
X741988Y83736D01*
X740412Y82528D01*
X739204Y80953D01*
X738444Y79118D01*
X738352Y78420D01*
X744520D01*
Y84588D01*
D02*
G37*
G36*
Y75880D02*
X738352D01*
X738444Y75182D01*
X739204Y73348D01*
X740412Y71772D01*
X741988Y70564D01*
X743822Y69804D01*
X744520Y69712D01*
Y75880D01*
D02*
G37*
G36*
X568960Y54808D02*
X567204Y54459D01*
X565716Y53464D01*
X564721Y51976D01*
X564372Y50220D01*
X564721Y48464D01*
X565716Y46976D01*
X567204Y45981D01*
X568960Y45632D01*
X570716Y45981D01*
X572204Y46976D01*
X573199Y48464D01*
X573548Y50220D01*
X573199Y51976D01*
X572204Y53464D01*
X570716Y54459D01*
X568960Y54808D01*
D02*
G37*
G36*
X726790Y84150D02*
X712790D01*
Y70150D01*
X726790D01*
Y84150D01*
D02*
G37*
G36*
X753228Y75880D02*
X747060D01*
Y69712D01*
X747758Y69804D01*
X749593Y70564D01*
X751168Y71772D01*
X752376Y73348D01*
X753136Y75182D01*
X753228Y75880D01*
D02*
G37*
G36*
X652780Y192998D02*
X651024Y192649D01*
X649536Y191654D01*
X648541Y190166D01*
X648192Y188410D01*
X648541Y186654D01*
X649536Y185166D01*
X651024Y184171D01*
X652780Y183822D01*
X654536Y184171D01*
X656024Y185166D01*
X657019Y186654D01*
X657368Y188410D01*
X657019Y190166D01*
X656024Y191654D01*
X654536Y192649D01*
X652780Y192998D01*
D02*
G37*
G36*
X702310Y187468D02*
X700554Y187119D01*
X699066Y186124D01*
X698071Y184636D01*
X697722Y182880D01*
X698071Y181124D01*
X699066Y179636D01*
X700554Y178641D01*
X702310Y178292D01*
X704066Y178641D01*
X705554Y179636D01*
X706549Y181124D01*
X706898Y182880D01*
X706549Y184636D01*
X705554Y186124D01*
X704066Y187119D01*
X702310Y187468D01*
D02*
G37*
G36*
X346370Y214049D02*
X344400Y213657D01*
X342730Y212541D01*
X341614Y210872D01*
X341223Y208902D01*
Y194678D01*
X341614Y192708D01*
X342562Y191290D01*
X342131Y190645D01*
X341781Y188890D01*
X342131Y187134D01*
X343125Y185645D01*
X344614Y184651D01*
X346370Y184301D01*
X348125Y184651D01*
X349614Y185645D01*
X350608Y187134D01*
X350958Y188890D01*
X350608Y190645D01*
X350177Y191290D01*
X351125Y192708D01*
X351516Y194678D01*
Y208902D01*
X351125Y210872D01*
X350009Y212541D01*
X348339Y213657D01*
X346370Y214049D01*
D02*
G37*
G36*
X371769D02*
X369800Y213657D01*
X368130Y212541D01*
X367014Y210872D01*
X366623Y208902D01*
Y194678D01*
X367014Y192708D01*
X368130Y191039D01*
X368436Y190835D01*
Y185091D01*
X368501Y184763D01*
X367381Y184164D01*
X362404Y189142D01*
Y190835D01*
X362709Y191039D01*
X363825Y192708D01*
X364216Y194678D01*
Y208902D01*
X363825Y210872D01*
X362709Y212541D01*
X361039Y213657D01*
X359070Y214049D01*
X357100Y213657D01*
X355430Y212541D01*
X354314Y210872D01*
X353923Y208902D01*
Y194678D01*
X354314Y192708D01*
X355430Y191039D01*
X355736Y190835D01*
Y187761D01*
X355989Y186485D01*
X356712Y185403D01*
X356712Y185403D01*
X356712Y185403D01*
X367506Y174609D01*
Y88900D01*
X367760Y87624D01*
X368483Y86543D01*
X368482Y86543D01*
X368483Y86542D01*
X386262Y68762D01*
X387344Y68040D01*
X387344Y68040D01*
X387344Y68040D01*
D01*
X387344Y68040D01*
X387344Y68040D01*
X388620Y67786D01*
X408540D01*
X409816Y68040D01*
X410897Y68762D01*
X410898Y68762D01*
X410897Y68762D01*
X419800Y77665D01*
X422517Y76539D01*
X425650Y76126D01*
X428783Y76539D01*
X431702Y77748D01*
X434208Y79672D01*
X436132Y82178D01*
X437341Y85097D01*
X437515Y86418D01*
X438785D01*
X438959Y85097D01*
X440168Y82178D01*
X442091Y79672D01*
X444598Y77748D01*
X447517Y76539D01*
X450650Y76126D01*
X453783Y76539D01*
X456702Y77748D01*
X459208Y79672D01*
X461132Y82178D01*
X462341Y85097D01*
X462515Y86418D01*
X463785D01*
X463959Y85097D01*
X465168Y82178D01*
X467091Y79672D01*
X469598Y77748D01*
X472517Y76539D01*
X475650Y76126D01*
X478783Y76539D01*
X481702Y77748D01*
X484208Y79672D01*
X486132Y82178D01*
X487341Y85097D01*
X487754Y88230D01*
X487341Y91363D01*
X486132Y94282D01*
X484208Y96789D01*
X481702Y98712D01*
X478783Y99921D01*
X475650Y100334D01*
X475433Y100524D01*
Y104680D01*
X478544D01*
Y118840D01*
X465653D01*
Y104680D01*
X468764D01*
Y98072D01*
X467091Y96789D01*
X465168Y94282D01*
X463959Y91363D01*
X463785Y90042D01*
X462515D01*
X462341Y91363D01*
X461132Y94282D01*
X459431Y96499D01*
Y104680D01*
X462542D01*
Y118840D01*
X449651D01*
Y104680D01*
X452762D01*
Y101018D01*
X451808Y100181D01*
X450650Y100334D01*
X447517Y99921D01*
X444598Y98712D01*
X442091Y96789D01*
X440168Y94282D01*
X438959Y91363D01*
X438785Y90042D01*
X437515D01*
X437341Y91363D01*
X436132Y94282D01*
X434208Y96789D01*
X431702Y98712D01*
X428783Y99921D01*
X425650Y100334D01*
X422517Y99921D01*
X419598Y98712D01*
X417091Y96789D01*
X415168Y94282D01*
X413959Y91363D01*
X413785Y90042D01*
X412515D01*
X412341Y91363D01*
X411132Y94282D01*
X409208Y96789D01*
X406702Y98712D01*
X403783Y99921D01*
X400650Y100334D01*
X397517Y99921D01*
X394800Y98795D01*
X378714Y114881D01*
Y181481D01*
X378460Y182757D01*
X377738Y183839D01*
X375104Y186472D01*
Y190835D01*
X375409Y191039D01*
X376525Y192708D01*
X376916Y194678D01*
Y208902D01*
X376525Y210872D01*
X375409Y212541D01*
X373739Y213657D01*
X371769Y214049D01*
D02*
G37*
G36*
X611560Y161450D02*
X607790D01*
Y160910D01*
X599330D01*
Y160910D01*
X598587Y160300D01*
X597590Y160498D01*
X595834Y160149D01*
X594346Y159154D01*
X593351Y157666D01*
X593002Y155910D01*
X593351Y154154D01*
X594346Y152666D01*
X595834Y151671D01*
X597590Y151322D01*
X598587Y151520D01*
X599330Y150910D01*
Y150910D01*
X607790D01*
Y150370D01*
X611560D01*
Y155910D01*
Y161450D01*
D02*
G37*
G36*
X608910Y141950D02*
X605140D01*
Y137680D01*
X608910D01*
Y141950D01*
D02*
G37*
G36*
X615220D02*
X611450D01*
Y136410D01*
Y130870D01*
X615220D01*
Y131410D01*
X623680D01*
Y131410D01*
X624398Y131999D01*
X625290Y131822D01*
X627046Y132171D01*
X628534Y133166D01*
X629529Y134654D01*
X629878Y136410D01*
X629529Y138166D01*
X628534Y139654D01*
X627046Y140649D01*
X625290Y140998D01*
X624398Y140821D01*
X623680Y141410D01*
Y141410D01*
X615220D01*
Y141950D01*
D02*
G37*
G36*
X617870Y161450D02*
X614100D01*
Y157180D01*
X617870D01*
Y161450D01*
D02*
G37*
G36*
Y154640D02*
X614100D01*
Y150370D01*
X617870D01*
Y154640D01*
D02*
G37*
G36*
X324730Y334700D02*
X313650D01*
Y330930D01*
X314190D01*
Y322470D01*
X314190D01*
X314951Y322216D01*
X314602Y320460D01*
X314951Y318704D01*
X315946Y317216D01*
X317434Y316221D01*
X319190Y315872D01*
X320946Y316221D01*
X322434Y317216D01*
X323429Y318704D01*
X323778Y320460D01*
X323429Y322216D01*
X324190Y322470D01*
X324190D01*
Y330930D01*
X324730D01*
Y334700D01*
D02*
G37*
G36*
X245720Y320208D02*
X243965Y319858D01*
X242476Y318864D01*
X241481Y317375D01*
X241132Y315620D01*
X241481Y313864D01*
X242476Y312375D01*
X243965Y311381D01*
X245720Y311031D01*
X247476Y311381D01*
X248965Y312375D01*
X249959Y313864D01*
X250308Y315620D01*
X249959Y317375D01*
X248965Y318864D01*
X247476Y319858D01*
X245720Y320208D01*
D02*
G37*
G36*
X571500Y338530D02*
X569673Y338290D01*
X567970Y337584D01*
X566508Y336462D01*
X565386Y335000D01*
X564680Y333297D01*
X564440Y331470D01*
X564680Y329643D01*
X565386Y327940D01*
X566508Y326478D01*
X567970Y325355D01*
X569673Y324650D01*
X571500Y324410D01*
X573327Y324650D01*
X575030Y325355D01*
X576492Y326478D01*
X577615Y327940D01*
X578320Y329643D01*
X578560Y331470D01*
X578320Y333297D01*
X577615Y335000D01*
X576492Y336462D01*
X575030Y337584D01*
X573327Y338290D01*
X571500Y338530D01*
D02*
G37*
G36*
X546100D02*
X544273Y338290D01*
X542570Y337584D01*
X541108Y336462D01*
X539986Y335000D01*
X539280Y333297D01*
X539040Y331470D01*
X539280Y329643D01*
X539986Y327940D01*
X541108Y326478D01*
X542570Y325355D01*
X544273Y324650D01*
X546100Y324410D01*
X547927Y324650D01*
X549630Y325355D01*
X551092Y326478D01*
X552215Y327940D01*
X552920Y329643D01*
X553160Y331470D01*
X552920Y333297D01*
X552215Y335000D01*
X551092Y336462D01*
X549630Y337584D01*
X547927Y338290D01*
X546100Y338530D01*
D02*
G37*
G36*
X35771Y322066D02*
X33260Y321736D01*
X30919Y320766D01*
X28910Y319224D01*
X27368Y317215D01*
X26399Y314875D01*
X26068Y312363D01*
X26399Y309852D01*
X27368Y307512D01*
X28910Y305502D01*
X30919Y303960D01*
X33260Y302991D01*
X35771Y302660D01*
X38282Y302991D01*
X40622Y303960D01*
X42632Y305502D01*
X44174Y307512D01*
X45143Y309852D01*
X45474Y312363D01*
X45143Y314875D01*
X44174Y317215D01*
X42632Y319224D01*
X40622Y320766D01*
X38282Y321736D01*
X35771Y322066D01*
D02*
G37*
G36*
X302950Y337328D02*
X301194Y336979D01*
X299706Y335984D01*
X298711Y334496D01*
X298362Y332740D01*
X298711Y330984D01*
X299616Y329630D01*
Y297981D01*
X284949Y283314D01*
X283130D01*
Y284480D01*
Y293480D01*
X273130D01*
Y292039D01*
X269240D01*
X269240Y292039D01*
X268069Y291806D01*
X267077Y291143D01*
X267077Y291143D01*
X262927Y286992D01*
X262264Y286000D01*
X262031Y284830D01*
X262031Y284829D01*
Y275148D01*
X261845Y275024D01*
X260851Y273536D01*
X260501Y271780D01*
X260851Y270024D01*
X260851D01*
X260042Y269830D01*
X260042D01*
Y245510D01*
X270138D01*
Y269830D01*
X270138D01*
X269328Y270024D01*
X269328D01*
X269678Y271780D01*
X269328Y273536D01*
X268334Y275024D01*
X268148Y275148D01*
Y283563D01*
X270507Y285921D01*
X273130D01*
Y284480D01*
Y275480D01*
X274456D01*
Y268625D01*
X274150Y268421D01*
X273034Y266752D01*
X272643Y264782D01*
Y250558D01*
X273034Y248588D01*
X274150Y246919D01*
X275820Y245803D01*
X277789Y245411D01*
X279759Y245803D01*
X281429Y246919D01*
X282545Y248588D01*
X282936Y250558D01*
Y264782D01*
X282545Y266752D01*
X281429Y268421D01*
X281124Y268625D01*
Y275480D01*
X283130D01*
Y276646D01*
X286330D01*
X287606Y276900D01*
X288687Y277623D01*
X288688Y277623D01*
X288687Y277623D01*
X305308Y294242D01*
X306030Y295324D01*
X306030Y295324D01*
X306030Y295324D01*
X306284Y296600D01*
Y329630D01*
X307189Y330984D01*
X307538Y332740D01*
X307189Y334496D01*
X306194Y335984D01*
X304706Y336979D01*
X302950Y337328D01*
D02*
G37*
G36*
X281740Y298792D02*
X277470D01*
Y295022D01*
X281740D01*
Y298792D01*
D02*
G37*
G36*
X131771Y322065D02*
X129260Y321734D01*
X126919Y320765D01*
X124910Y319223D01*
X123368Y317213D01*
X122399Y314873D01*
X122068Y312362D01*
X122399Y309850D01*
X123368Y307510D01*
X124910Y305501D01*
X126919Y303958D01*
X129260Y302989D01*
X131771Y302659D01*
X134282Y302989D01*
X136622Y303958D01*
X138632Y305501D01*
X140174Y307510D01*
X141143Y309850D01*
X141474Y312362D01*
X141143Y314873D01*
X140174Y317213D01*
X138632Y319223D01*
X136622Y320765D01*
X134282Y321734D01*
X131771Y322065D01*
D02*
G37*
G36*
X276200Y320208D02*
X274445Y319858D01*
X272956Y318864D01*
X271961Y317375D01*
X271612Y315620D01*
X271961Y313864D01*
X271961D01*
X271200Y313561D01*
X271200D01*
Y305102D01*
X270660D01*
Y301332D01*
X281740D01*
Y305102D01*
X281200D01*
Y313561D01*
X281200D01*
X280439Y313864D01*
X280439D01*
X280788Y315620D01*
X280439Y317375D01*
X279445Y318864D01*
X277956Y319858D01*
X276200Y320208D01*
D02*
G37*
G36*
X362640Y335930D02*
X358370D01*
Y332160D01*
X362640D01*
Y335930D01*
D02*
G37*
G36*
X527700Y338470D02*
X513700D01*
Y324470D01*
X527700D01*
Y338470D01*
D02*
G37*
G36*
X317920Y341010D02*
X313650D01*
Y337240D01*
X317920D01*
Y341010D01*
D02*
G37*
G36*
X369450Y335930D02*
X365180D01*
Y332160D01*
X369450D01*
Y335930D01*
D02*
G37*
G36*
X698500Y338530D02*
X696673Y338290D01*
X694970Y337584D01*
X693508Y336462D01*
X692385Y335000D01*
X691680Y333297D01*
X691440Y331470D01*
X691680Y329643D01*
X692385Y327940D01*
X693508Y326478D01*
X694970Y325355D01*
X696673Y324650D01*
X698500Y324410D01*
X700327Y324650D01*
X702030Y325355D01*
X703492Y326478D01*
X704614Y327940D01*
X705320Y329643D01*
X705560Y331470D01*
X705320Y333297D01*
X704614Y335000D01*
X703492Y336462D01*
X702030Y337584D01*
X700327Y338290D01*
X698500Y338530D01*
D02*
G37*
G36*
X622300D02*
X620473Y338290D01*
X618770Y337584D01*
X617308Y336462D01*
X616185Y335000D01*
X615480Y333297D01*
X615240Y331470D01*
X615480Y329643D01*
X616185Y327940D01*
X617308Y326478D01*
X618770Y325355D01*
X620473Y324650D01*
X622300Y324410D01*
X624127Y324650D01*
X625830Y325355D01*
X627292Y326478D01*
X628414Y327940D01*
X629120Y329643D01*
X629360Y331470D01*
X629120Y333297D01*
X628414Y335000D01*
X627292Y336462D01*
X625830Y337584D01*
X624127Y338290D01*
X622300Y338530D01*
D02*
G37*
G36*
X596900D02*
X595073Y338290D01*
X593370Y337584D01*
X591908Y336462D01*
X590785Y335000D01*
X590080Y333297D01*
X589840Y331470D01*
X590080Y329643D01*
X590785Y327940D01*
X591908Y326478D01*
X593370Y325355D01*
X595073Y324650D01*
X596900Y324410D01*
X598727Y324650D01*
X600430Y325355D01*
X601892Y326478D01*
X603014Y327940D01*
X603720Y329643D01*
X603960Y331470D01*
X603720Y333297D01*
X603014Y335000D01*
X601892Y336462D01*
X600430Y337584D01*
X598727Y338290D01*
X596900Y338530D01*
D02*
G37*
G36*
X673100D02*
X671273Y338290D01*
X669570Y337584D01*
X668108Y336462D01*
X666985Y335000D01*
X666280Y333297D01*
X666040Y331470D01*
X666280Y329643D01*
X666985Y327940D01*
X668108Y326478D01*
X669570Y325355D01*
X671273Y324650D01*
X673100Y324410D01*
X674927Y324650D01*
X676630Y325355D01*
X678092Y326478D01*
X679214Y327940D01*
X679920Y329643D01*
X680160Y331470D01*
X679920Y333297D01*
X679214Y335000D01*
X678092Y336462D01*
X676630Y337584D01*
X674927Y338290D01*
X673100Y338530D01*
D02*
G37*
G36*
X647700D02*
X645873Y338290D01*
X644170Y337584D01*
X642708Y336462D01*
X641585Y335000D01*
X640880Y333297D01*
X640640Y331470D01*
X640880Y329643D01*
X641585Y327940D01*
X642708Y326478D01*
X644170Y325355D01*
X645873Y324650D01*
X647700Y324410D01*
X649527Y324650D01*
X651230Y325355D01*
X652692Y326478D01*
X653814Y327940D01*
X654520Y329643D01*
X654760Y331470D01*
X654520Y333297D01*
X653814Y335000D01*
X652692Y336462D01*
X651230Y337584D01*
X649527Y338290D01*
X647700Y338530D01*
D02*
G37*
G36*
X110149Y271497D02*
X109239Y271316D01*
X107391Y270081D01*
X106156Y268232D01*
X105722Y266052D01*
Y260210D01*
X110149D01*
Y271497D01*
D02*
G37*
G36*
X373040Y270227D02*
Y258940D01*
X377467D01*
Y264782D01*
X377033Y266962D01*
X375798Y268811D01*
X373950Y270046D01*
X373040Y270227D01*
D02*
G37*
G36*
X169839Y271497D02*
X168929Y271316D01*
X167081Y270081D01*
X165846Y268232D01*
X165412Y266052D01*
Y260210D01*
X169839D01*
Y271497D01*
D02*
G37*
G36*
X112690D02*
Y260210D01*
X117117D01*
Y266052D01*
X116683Y268232D01*
X115448Y270081D01*
X113600Y271316D01*
X112690Y271497D01*
D02*
G37*
G36*
X370499Y270227D02*
X369589Y270046D01*
X367741Y268811D01*
X366506Y266962D01*
X366072Y264782D01*
Y258940D01*
X370499D01*
Y270227D01*
D02*
G37*
G36*
X182120Y260350D02*
X178349D01*
Y256080D01*
X182120D01*
Y260350D01*
D02*
G37*
G36*
X250467Y262210D02*
X246040D01*
Y250923D01*
X246950Y251104D01*
X248798Y252339D01*
X250033Y254188D01*
X250467Y256368D01*
Y262210D01*
D02*
G37*
G36*
X304459Y270227D02*
Y258940D01*
X308887D01*
Y264782D01*
X308453Y266962D01*
X307218Y268811D01*
X305370Y270046D01*
X304459Y270227D01*
D02*
G37*
G36*
X301919D02*
X301009Y270046D01*
X299161Y268811D01*
X297926Y266962D01*
X297492Y264782D01*
Y258940D01*
X301919D01*
Y270227D01*
D02*
G37*
G36*
X211717Y275640D02*
X201621D01*
Y266765D01*
X200640Y265960D01*
X199390Y266208D01*
X197634Y265859D01*
X196889Y266620D01*
Y266620D01*
X188430D01*
Y267160D01*
X184660D01*
Y261620D01*
Y256080D01*
X188430D01*
Y256620D01*
X196889D01*
Y256620D01*
X197634Y257381D01*
Y257381D01*
D01*
X199390Y257032D01*
X200640Y257280D01*
X201621Y256475D01*
Y251320D01*
X211717D01*
Y275640D01*
D02*
G37*
G36*
X445429Y276037D02*
Y264750D01*
X449857D01*
Y270592D01*
X449423Y272772D01*
X448188Y274621D01*
X446340Y275856D01*
X445429Y276037D01*
D02*
G37*
G36*
X274930Y298792D02*
X270660D01*
Y295022D01*
X274930D01*
Y298792D01*
D02*
G37*
G36*
X586740Y297958D02*
X584984Y297609D01*
X583496Y296614D01*
X582501Y295126D01*
X582152Y293370D01*
X582501Y291614D01*
X583496Y290126D01*
X584984Y289131D01*
X586740Y288782D01*
X588496Y289131D01*
X589984Y290126D01*
X590979Y291614D01*
X591328Y293370D01*
X590979Y295126D01*
X589984Y296614D01*
X588496Y297609D01*
X586740Y297958D01*
D02*
G37*
G36*
X442890Y276037D02*
X441979Y275856D01*
X440131Y274621D01*
X438896Y272772D01*
X438462Y270592D01*
Y264750D01*
X442890D01*
Y276037D01*
D02*
G37*
G36*
X182120Y267160D02*
X178349D01*
Y262890D01*
X182120D01*
Y267160D01*
D02*
G37*
G36*
X172379Y271497D02*
Y260210D01*
X176807D01*
Y266052D01*
X176373Y268232D01*
X175138Y270081D01*
X173290Y271316D01*
X172379Y271497D01*
D02*
G37*
G36*
X246040Y276037D02*
Y264750D01*
X250467D01*
Y270592D01*
X250033Y272772D01*
X248798Y274621D01*
X246950Y275856D01*
X246040Y276037D01*
D02*
G37*
G36*
X243500D02*
X242589Y275856D01*
X240741Y274621D01*
X239506Y272772D01*
X239072Y270592D01*
Y264750D01*
X243500D01*
Y276037D01*
D02*
G37*
G36*
X336960Y636650D02*
X329690D01*
Y627380D01*
X336960D01*
Y636650D01*
D02*
G37*
G36*
X327150D02*
X319880D01*
Y627380D01*
X327150D01*
Y636650D01*
D02*
G37*
G36*
X173990Y669143D02*
X172234Y668794D01*
X170746Y667799D01*
X169751Y666311D01*
X169402Y664555D01*
X169562Y663747D01*
X168990Y663050D01*
X168990D01*
Y654050D01*
Y645050D01*
X174164D01*
X176916Y642299D01*
X176916Y642299D01*
X177511Y641901D01*
X177908Y641636D01*
X179079Y641403D01*
X184322D01*
Y638397D01*
X198990D01*
Y650526D01*
X184322D01*
Y647520D01*
X180345D01*
X178990Y648876D01*
Y654050D01*
Y663050D01*
X178990D01*
X178418Y663747D01*
X178578Y664555D01*
X178229Y666311D01*
X177234Y667799D01*
X175746Y668794D01*
X173990Y669143D01*
D02*
G37*
G36*
X173370Y636130D02*
X169600D01*
Y631860D01*
X173370D01*
Y636130D01*
D02*
G37*
G36*
X327150Y624840D02*
X319880D01*
Y615570D01*
X327150D01*
Y624840D01*
D02*
G37*
G36*
X130810Y761390D02*
X126540D01*
Y757620D01*
X130810D01*
Y761390D01*
D02*
G37*
G36*
X304420Y636110D02*
X288420D01*
Y632008D01*
X287946Y631534D01*
X287062Y630211D01*
X287011Y629952D01*
X286752Y628650D01*
X286752Y628650D01*
Y616218D01*
X274320D01*
X274259Y616269D01*
Y623269D01*
X275700D01*
Y633269D01*
X257700D01*
Y633269D01*
X256995Y632691D01*
X256159Y632857D01*
X254403Y632508D01*
X252915Y631513D01*
X251920Y630025D01*
X251571Y628269D01*
X251920Y626513D01*
X252915Y625025D01*
X254403Y624030D01*
X256159Y623681D01*
X256995Y623847D01*
X257700Y623269D01*
Y623269D01*
X268141D01*
Y612279D01*
X257700D01*
Y612279D01*
X257027Y611726D01*
X256321Y611867D01*
X254566Y611517D01*
X253077Y610523D01*
X252083Y609034D01*
X251733Y607279D01*
X252083Y605523D01*
X253077Y604034D01*
X254566Y603040D01*
X256321Y602691D01*
X257027Y602831D01*
X257700Y602279D01*
Y602279D01*
X267702D01*
Y590470D01*
X257700D01*
Y590470D01*
X257155Y590023D01*
X256159Y590221D01*
X254403Y589871D01*
X252915Y588877D01*
X251920Y587388D01*
X251571Y585632D01*
X251920Y583877D01*
X252915Y582388D01*
X254403Y581394D01*
X256159Y581044D01*
X256836Y581179D01*
X257700Y580470D01*
Y580470D01*
X267702D01*
Y577040D01*
X266940D01*
Y577040D01*
X263170D01*
Y571500D01*
X261900D01*
Y570230D01*
X256860D01*
Y565960D01*
Y562610D01*
X261900D01*
Y561340D01*
X263170D01*
Y555800D01*
X266940D01*
Y556340D01*
X269124D01*
X278438Y547026D01*
X279761Y546142D01*
X280020Y546091D01*
X281322Y545832D01*
X281322Y545832D01*
X288420D01*
Y542450D01*
X304420D01*
Y562450D01*
X304179D01*
Y567340D01*
X304420D01*
Y587340D01*
X304179D01*
Y591980D01*
X304420D01*
Y611980D01*
X304179D01*
Y616110D01*
X304420D01*
Y636110D01*
D02*
G37*
G36*
X336960Y624840D02*
X329690D01*
Y615570D01*
X336960D01*
Y624840D01*
D02*
G37*
G36*
X173370Y642940D02*
X169600D01*
Y638670D01*
X173370D01*
Y642940D01*
D02*
G37*
G36*
X325120Y775537D02*
X321983Y775229D01*
X318967Y774314D01*
X316188Y772828D01*
X313752Y770828D01*
X311752Y768392D01*
X310266Y765613D01*
X309352Y762597D01*
X309043Y759460D01*
X309352Y756323D01*
X310266Y753307D01*
X310284Y753275D01*
X300474Y743466D01*
X299148Y741481D01*
X298682Y739140D01*
Y679063D01*
X288686Y669066D01*
X281070D01*
Y670948D01*
X265070D01*
Y654949D01*
X281070D01*
Y656831D01*
X291220D01*
X293561Y657297D01*
X295545Y658623D01*
X309126Y672203D01*
X310452Y674188D01*
X310917Y676529D01*
Y736606D01*
X318935Y744624D01*
X318967Y744606D01*
X321983Y743691D01*
X325120Y743383D01*
X328256Y743691D01*
X331273Y744606D01*
X334052Y746092D01*
X336488Y748092D01*
X338488Y750528D01*
X339974Y753307D01*
X340888Y756323D01*
X341197Y759460D01*
X340888Y762597D01*
X339974Y765613D01*
X338488Y768392D01*
X336488Y770828D01*
X334052Y772828D01*
X331273Y774314D01*
X328256Y775229D01*
X325120Y775537D01*
D02*
G37*
G36*
X199530Y662267D02*
X192926D01*
Y656933D01*
X199530D01*
Y662267D01*
D02*
G37*
G36*
X488315Y666805D02*
X480060D01*
Y658550D01*
X488315D01*
Y666805D01*
D02*
G37*
G36*
X228600Y663718D02*
X226844Y663369D01*
X225356Y662374D01*
X224361Y660886D01*
X224012Y659130D01*
X224055Y658911D01*
X223099Y657955D01*
X221926Y658441D01*
Y660063D01*
X207258D01*
Y647935D01*
X221926D01*
Y650940D01*
X223469D01*
X223469Y650940D01*
X224640Y651173D01*
X225632Y651836D01*
X228381Y654585D01*
X228600Y654542D01*
X230356Y654891D01*
X231844Y655886D01*
X232839Y657374D01*
X233188Y659130D01*
X232839Y660886D01*
X231844Y662374D01*
X230356Y663369D01*
X228600Y663718D01*
D02*
G37*
G36*
X333800Y661678D02*
X326530D01*
Y654408D01*
X333800D01*
Y661678D01*
D02*
G37*
G36*
X474980Y775537D02*
X471843Y775229D01*
X468827Y774314D01*
X466048Y772828D01*
X463611Y770828D01*
X461612Y768392D01*
X460126Y765613D01*
X459212Y762597D01*
X458903Y759460D01*
X459212Y756323D01*
X460126Y753307D01*
X461612Y750528D01*
X463611Y748092D01*
X463631Y747700D01*
X453514Y737584D01*
X448596D01*
Y725456D01*
X460724D01*
Y730374D01*
X473844Y743494D01*
X474980Y743383D01*
X478116Y743691D01*
X481133Y744606D01*
X483912Y746092D01*
X486348Y748092D01*
X488348Y750528D01*
X489834Y753307D01*
X490748Y756323D01*
X491057Y759460D01*
X490748Y762597D01*
X489834Y765613D01*
X488348Y768392D01*
X486348Y770828D01*
X483912Y772828D01*
X481133Y774314D01*
X478116Y775229D01*
X474980Y775537D01*
D02*
G37*
G36*
X190386Y662267D02*
X183782D01*
Y656933D01*
X190386D01*
Y662267D01*
D02*
G37*
G36*
X343610Y661678D02*
X336340D01*
Y654408D01*
X343610D01*
Y661678D01*
D02*
G37*
G36*
X107950Y608330D02*
X89130D01*
Y597296D01*
X89130D01*
X89130Y597295D01*
X89130Y593960D01*
Y593960D01*
Y593640D01*
X87860Y593387D01*
X86190Y592271D01*
X85074Y590602D01*
X84683Y588632D01*
Y588169D01*
X78252D01*
Y593820D01*
X60282D01*
Y575850D01*
X78252D01*
Y581501D01*
X84683D01*
Y578267D01*
X84178Y577511D01*
X83712Y575170D01*
Y551710D01*
X81310D01*
Y522710D01*
X97310D01*
Y531092D01*
X99430D01*
Y497280D01*
X122430D01*
Y554280D01*
X99430D01*
Y543327D01*
X97310D01*
Y551710D01*
X95947D01*
Y572379D01*
X97211Y572503D01*
X97266Y572228D01*
X98501Y570379D01*
X100349Y569144D01*
X101259Y568963D01*
Y581520D01*
X102529D01*
Y582790D01*
X108227D01*
Y588632D01*
X107793Y590812D01*
X106558Y592661D01*
X106433Y592745D01*
X106801Y593960D01*
X107950D01*
Y608330D01*
D02*
G37*
G36*
X495710Y596900D02*
X488440D01*
Y587630D01*
X495710D01*
Y596900D01*
D02*
G37*
G36*
X229870Y775955D02*
X227898Y775761D01*
X224780Y774815D01*
X221906Y773279D01*
X219388Y771212D01*
X217321Y768694D01*
X215785Y765820D01*
X214839Y762702D01*
X214645Y760730D01*
X229870D01*
Y775955D01*
D02*
G37*
G36*
X232410D02*
Y760730D01*
X247635D01*
X247441Y762702D01*
X246495Y765820D01*
X244959Y768694D01*
X242892Y771212D01*
X240374Y773279D01*
X237500Y774815D01*
X234382Y775761D01*
X232410Y775955D01*
D02*
G37*
G36*
X435610D02*
X433638Y775761D01*
X430520Y774815D01*
X427646Y773279D01*
X425128Y771212D01*
X423061Y768694D01*
X421525Y765820D01*
X420579Y762702D01*
X420385Y760730D01*
X435610D01*
Y775955D01*
D02*
G37*
G36*
X336960Y587880D02*
X329690D01*
Y578610D01*
X336960D01*
Y587880D01*
D02*
G37*
G36*
X485900Y596900D02*
X478630D01*
Y587630D01*
X485900D01*
Y596900D01*
D02*
G37*
G36*
X191150Y585930D02*
X187380D01*
Y581660D01*
X191150D01*
Y585930D01*
D02*
G37*
G36*
X137620Y761390D02*
X133350D01*
Y757620D01*
X137620D01*
Y761390D01*
D02*
G37*
G36*
X463170Y608170D02*
X447170D01*
Y601504D01*
X441166D01*
Y605250D01*
X428276D01*
Y591090D01*
X441166D01*
Y594836D01*
X447170D01*
Y588170D01*
X463170D01*
Y608170D01*
D02*
G37*
G36*
X392634Y605250D02*
X379744D01*
Y601504D01*
X377666D01*
Y605250D01*
X364776D01*
Y591090D01*
X377666D01*
Y594836D01*
X379744D01*
Y591090D01*
X392634D01*
Y605250D01*
D02*
G37*
G36*
X336960Y612520D02*
X329690D01*
Y603250D01*
X336960D01*
Y612520D01*
D02*
G37*
G36*
X327150D02*
X319880D01*
Y603250D01*
X327150D01*
Y612520D01*
D02*
G37*
G36*
X336960Y600710D02*
X329690D01*
Y591440D01*
X336960D01*
Y600710D01*
D02*
G37*
G36*
X327150D02*
X319880D01*
Y591440D01*
X327150D01*
Y600710D01*
D02*
G37*
G36*
X495710Y608710D02*
X488440D01*
Y599440D01*
X495710D01*
Y608710D01*
D02*
G37*
G36*
X485900D02*
X478630D01*
Y599440D01*
X485900D01*
Y608710D01*
D02*
G37*
G36*
X105410Y672098D02*
X105410Y672098D01*
X100330D01*
X98769Y671788D01*
X97446Y670904D01*
X97446Y670904D01*
X94906Y668364D01*
X94022Y667041D01*
X93971Y666782D01*
X93712Y665480D01*
X93712Y665480D01*
Y649560D01*
X84782D01*
Y640734D01*
X79555D01*
X78279Y640480D01*
X77197Y639757D01*
X66910Y629470D01*
X66187Y628388D01*
X65933Y627112D01*
Y615410D01*
X60282D01*
Y597440D01*
X78252D01*
Y615410D01*
X72601D01*
Y625731D01*
X80936Y634066D01*
X84782D01*
Y625240D01*
X89130D01*
Y610870D01*
X129310D01*
Y625240D01*
X129310Y625240D01*
X129310D01*
X129293Y625412D01*
X129899Y625533D01*
X131569Y626649D01*
X132685Y628318D01*
X133076Y630288D01*
Y634066D01*
X154830D01*
Y632400D01*
X163290D01*
Y631860D01*
X167060D01*
Y637400D01*
Y642940D01*
X163290D01*
Y642400D01*
X154830D01*
Y640734D01*
X133076D01*
Y644512D01*
X132685Y646482D01*
X131569Y648151D01*
X129899Y649267D01*
X127929Y649659D01*
X125960Y649267D01*
X124290Y648151D01*
X123174Y646482D01*
X122783Y644512D01*
Y630288D01*
X123174Y628318D01*
X124290Y626649D01*
X124579Y626455D01*
X124211Y625240D01*
X118948D01*
X118580Y626455D01*
X118869Y626649D01*
X119985Y628318D01*
X120376Y630288D01*
Y644512D01*
X119985Y646482D01*
X118869Y648151D01*
X118564Y648355D01*
Y661750D01*
X119520D01*
Y663206D01*
X131970D01*
Y661541D01*
X140430D01*
Y661001D01*
X144200D01*
Y666541D01*
Y672081D01*
X140430D01*
Y671541D01*
X131970D01*
Y669874D01*
X119520D01*
Y671750D01*
X107028D01*
X106971Y671788D01*
X106712Y671839D01*
X105410Y672098D01*
D02*
G37*
G36*
X369950Y720850D02*
X360680D01*
Y713580D01*
X369950D01*
Y720850D01*
D02*
G37*
G36*
X358140D02*
X348870D01*
Y713580D01*
X358140D01*
Y720850D01*
D02*
G37*
G36*
X435610Y758190D02*
X420385D01*
X420579Y756218D01*
X421525Y753100D01*
X423061Y750226D01*
X425128Y747708D01*
X427646Y745641D01*
X430520Y744105D01*
X433638Y743159D01*
X435610Y742965D01*
Y758190D01*
D02*
G37*
G36*
X398780Y775537D02*
X395644Y775229D01*
X392627Y774314D01*
X389848Y772828D01*
X387411Y770828D01*
X385412Y768392D01*
X383926Y765613D01*
X383012Y762597D01*
X382703Y759460D01*
X383012Y756323D01*
X383926Y753307D01*
X385412Y750528D01*
X387411Y748092D01*
X389848Y746092D01*
X391588Y745162D01*
X391279Y743930D01*
X386780D01*
Y719930D01*
X410780D01*
Y743930D01*
X406281D01*
X405972Y745162D01*
X407712Y746092D01*
X410149Y748092D01*
X412148Y750528D01*
X413634Y753307D01*
X414548Y756323D01*
X414857Y759460D01*
X414548Y762597D01*
X413634Y765613D01*
X412148Y768392D01*
X410149Y770828D01*
X407712Y772828D01*
X404933Y774314D01*
X401917Y775229D01*
X398780Y775537D01*
D02*
G37*
G36*
X453375Y758190D02*
X438150D01*
Y742965D01*
X440122Y743159D01*
X443240Y744105D01*
X446114Y745641D01*
X448632Y747708D01*
X450699Y750226D01*
X452235Y753100D01*
X453181Y756218D01*
X453375Y758190D01*
D02*
G37*
G36*
X441325Y708025D02*
X433070D01*
Y699770D01*
X441325D01*
Y708025D01*
D02*
G37*
G36*
Y718820D02*
X433070D01*
Y710565D01*
X441325D01*
Y718820D01*
D02*
G37*
G36*
X430530D02*
X422275D01*
Y710565D01*
X430530D01*
Y718820D01*
D02*
G37*
G36*
X358140Y730660D02*
X348870D01*
Y723390D01*
X358140D01*
Y730660D01*
D02*
G37*
G36*
X81250Y745030D02*
X76980D01*
Y742760D01*
X81250D01*
Y745030D01*
D02*
G37*
G36*
X446024Y738124D02*
X440690D01*
Y732790D01*
X446024D01*
Y738124D01*
D02*
G37*
G36*
X247635Y758190D02*
X232410D01*
Y742965D01*
X234382Y743159D01*
X237500Y744105D01*
X240374Y745641D01*
X242892Y747708D01*
X244959Y750226D01*
X246495Y753100D01*
X247441Y756218D01*
X247635Y758190D01*
D02*
G37*
G36*
X229870D02*
X214645D01*
X214839Y756218D01*
X215785Y753100D01*
X217321Y750226D01*
X219388Y747708D01*
X221906Y745641D01*
X224780Y744105D01*
X227898Y743159D01*
X229870Y742965D01*
Y758190D01*
D02*
G37*
G36*
X438150Y730250D02*
X432816D01*
Y724916D01*
X438150D01*
Y730250D01*
D02*
G37*
G36*
X369950Y730660D02*
X360680D01*
Y723390D01*
X369950D01*
Y730660D01*
D02*
G37*
G36*
X438150Y738124D02*
X432816D01*
Y732790D01*
X438150D01*
Y738124D01*
D02*
G37*
G36*
X446024Y730250D02*
X440690D01*
Y724916D01*
X446024D01*
Y730250D01*
D02*
G37*
G36*
X150510Y672081D02*
X146740D01*
Y667811D01*
X150510D01*
Y672081D01*
D02*
G37*
G36*
X199530Y670141D02*
X192926D01*
Y664807D01*
X199530D01*
Y670141D01*
D02*
G37*
G36*
X488315Y677600D02*
X480060D01*
Y669345D01*
X488315D01*
Y677600D01*
D02*
G37*
G36*
X477520D02*
X469265D01*
Y669345D01*
X477520D01*
Y677600D01*
D02*
G37*
G36*
X333800Y671488D02*
X326530D01*
Y664219D01*
X333800D01*
Y671488D01*
D02*
G37*
G36*
X150510Y665270D02*
X146740D01*
Y661001D01*
X150510D01*
Y665270D01*
D02*
G37*
G36*
X190386Y670141D02*
X183782D01*
Y664807D01*
X190386D01*
Y670141D01*
D02*
G37*
G36*
X343610Y671488D02*
X336340D01*
Y664219D01*
X343610D01*
Y671488D01*
D02*
G37*
G36*
X453335Y672153D02*
X453335Y672153D01*
X389945D01*
X389945Y672153D01*
X388643Y671894D01*
X388384Y671843D01*
X387302Y671120D01*
X382690D01*
Y614120D01*
X398857D01*
Y605250D01*
X395746D01*
Y591090D01*
X408636D01*
Y594836D01*
X412274D01*
Y591090D01*
X425164D01*
Y605250D01*
X412274D01*
Y601504D01*
X408636D01*
Y605250D01*
X405525D01*
Y614120D01*
X405690D01*
Y652512D01*
X445351D01*
X465323Y632539D01*
Y617220D01*
X465633Y615659D01*
X466517Y614336D01*
X466517Y614336D01*
X469058Y611796D01*
X470381Y610912D01*
X470639Y610861D01*
X471941Y610602D01*
X471941Y610602D01*
X483870D01*
X483870Y610602D01*
X485172Y610861D01*
X485431Y610912D01*
X486754Y611796D01*
X490564Y615606D01*
X491448Y616929D01*
X491499Y617188D01*
X491758Y618490D01*
X491758Y618490D01*
Y645160D01*
X491758Y645160D01*
X491448Y646721D01*
X490564Y648044D01*
X487775Y650833D01*
Y655470D01*
X483138D01*
X482944Y655664D01*
X481621Y656548D01*
X481362Y656599D01*
X480060Y656858D01*
X480060Y656858D01*
X470729D01*
X470024Y657914D01*
X470287Y658550D01*
X477520D01*
Y666805D01*
X469265D01*
Y659572D01*
X468092Y659086D01*
X456219Y670959D01*
X454896Y671843D01*
X454637Y671894D01*
X453335Y672153D01*
D02*
G37*
G36*
X226640Y720288D02*
X224884Y719939D01*
X223396Y718944D01*
X222401Y717456D01*
X222052Y715700D01*
X222401Y713944D01*
X223396Y712456D01*
X224884Y711461D01*
X226640Y711112D01*
X227083Y711200D01*
X227847D01*
X228680Y710517D01*
Y702200D01*
X230621D01*
Y681609D01*
X230621Y681609D01*
X230854Y680439D01*
X231517Y679446D01*
X245455Y665508D01*
X245411Y665290D01*
X245761Y663534D01*
X246755Y662045D01*
X248244Y661051D01*
X250000Y660701D01*
X251755Y661051D01*
X253244Y662045D01*
X254238Y663534D01*
X254588Y665290D01*
X254238Y667045D01*
X253244Y668534D01*
X251755Y669528D01*
X250000Y669878D01*
X249781Y669834D01*
X236739Y682876D01*
Y702200D01*
X238680D01*
Y702200D01*
X238680D01*
X238680Y702200D01*
X239729D01*
Y702200D01*
X241670D01*
Y699709D01*
X241485Y699585D01*
X240490Y698097D01*
X240141Y696341D01*
X240490Y694585D01*
X241485Y693097D01*
X242973Y692102D01*
X244729Y691753D01*
X246485Y692102D01*
X247973Y693097D01*
X248968Y694585D01*
X249317Y696341D01*
X248968Y698097D01*
X247973Y699585D01*
X247788Y699709D01*
Y702200D01*
X249729D01*
Y711200D01*
Y720200D01*
X239729D01*
D01*
D01*
X239729Y720200D01*
X238680D01*
Y720200D01*
X228680D01*
Y720200D01*
X227083Y720200D01*
X226640Y720288D01*
D02*
G37*
G36*
X287020Y775537D02*
X283883Y775229D01*
X280867Y774314D01*
X278088Y772828D01*
X275651Y770828D01*
X273652Y768392D01*
X272166Y765613D01*
X271252Y762597D01*
X270943Y759460D01*
X271252Y756323D01*
X272166Y753307D01*
X273652Y750528D01*
X275651Y748092D01*
X278088Y746092D01*
X280867Y744606D01*
X280903Y744596D01*
Y696348D01*
X265070D01*
Y680349D01*
X281070D01*
Y682231D01*
X281949D01*
X284290Y682697D01*
X286274Y684023D01*
X291346Y689094D01*
X292672Y691079D01*
X293137Y693420D01*
Y744596D01*
X293173Y744606D01*
X295952Y746092D01*
X298389Y748092D01*
X300388Y750528D01*
X301874Y753307D01*
X302789Y756323D01*
X303097Y759460D01*
X302789Y762597D01*
X301874Y765613D01*
X300388Y768392D01*
X298389Y770828D01*
X295952Y772828D01*
X293173Y774314D01*
X290156Y775229D01*
X287020Y775537D01*
D02*
G37*
G36*
X430530Y708025D02*
X422275D01*
Y699770D01*
X430530D01*
Y708025D01*
D02*
G37*
G36*
X410780Y699930D02*
X386780D01*
Y694047D01*
X369410D01*
Y698120D01*
X349410D01*
Y694047D01*
X343070D01*
Y696348D01*
X327070D01*
Y680349D01*
X343070D01*
Y681813D01*
X353293D01*
Y671120D01*
X348690D01*
Y614120D01*
X351885D01*
Y605250D01*
X348774D01*
Y591090D01*
X361664D01*
Y605250D01*
X358553D01*
Y614120D01*
X371690D01*
Y671120D01*
X365527D01*
Y681813D01*
X386780D01*
Y675930D01*
X410780D01*
Y681813D01*
X422815D01*
Y678720D01*
X440785D01*
Y696690D01*
X422815D01*
Y694047D01*
X410780D01*
Y699930D01*
D02*
G37*
G36*
X69268Y693702D02*
X66593Y693350D01*
X64099Y692317D01*
X61958Y690674D01*
X60315Y688533D01*
X59282Y686039D01*
X58930Y683363D01*
X59282Y680687D01*
X60315Y678194D01*
X61958Y676053D01*
X64099Y674410D01*
X66593Y673377D01*
X69268Y673025D01*
X71944Y673377D01*
X74438Y674410D01*
X76579Y676053D01*
X78222Y678194D01*
X79255Y680687D01*
X79607Y683363D01*
X79255Y686039D01*
X78222Y688533D01*
X76579Y690674D01*
X74438Y692317D01*
X71944Y693350D01*
X69268Y693702D01*
D02*
G37*
G36*
X155068Y693700D02*
X152393Y693348D01*
X149899Y692316D01*
X147758Y690673D01*
X146115Y688531D01*
X145082Y686038D01*
X144730Y683362D01*
X145082Y680686D01*
X146115Y678193D01*
X147758Y676052D01*
X149899Y674409D01*
X152393Y673376D01*
X155068Y673024D01*
X157744Y673376D01*
X160238Y674409D01*
X162379Y676052D01*
X164022Y678193D01*
X165055Y680686D01*
X165407Y683362D01*
X165055Y686038D01*
X164022Y688531D01*
X162379Y690673D01*
X160238Y692316D01*
X157744Y693348D01*
X155068Y693700D01*
D02*
G37*
G36*
X473080Y724416D02*
X468767Y723992D01*
X464620Y722734D01*
X460798Y720691D01*
X457448Y717942D01*
X454699Y714592D01*
X452656Y710770D01*
X451398Y706623D01*
X450974Y702310D01*
X451398Y697997D01*
X452656Y693850D01*
X454699Y690028D01*
X457448Y686678D01*
X460798Y683929D01*
X464620Y681886D01*
X468767Y680628D01*
X473080Y680204D01*
X477393Y680628D01*
X481540Y681886D01*
X485362Y683929D01*
X488712Y686678D01*
X491461Y690028D01*
X493504Y693850D01*
X494762Y697997D01*
X495186Y702310D01*
X494762Y706623D01*
X493504Y710770D01*
X491461Y714592D01*
X488712Y717942D01*
X485362Y720691D01*
X481540Y722734D01*
X477393Y723992D01*
X473080Y724416D01*
D02*
G37*
G36*
X189865D02*
X185552Y723992D01*
X181405Y722734D01*
X177583Y720691D01*
X174233Y717942D01*
X171484Y714592D01*
X169441Y710770D01*
X168183Y706623D01*
X167759Y702310D01*
X168183Y697997D01*
X169441Y693850D01*
X171484Y690028D01*
X174233Y686678D01*
X177583Y683929D01*
X181405Y681886D01*
X185552Y680628D01*
X189865Y680204D01*
X194178Y680628D01*
X198325Y681886D01*
X202147Y683929D01*
X205497Y686678D01*
X208246Y690028D01*
X210289Y693850D01*
X211547Y697997D01*
X211971Y702310D01*
X211547Y706623D01*
X210289Y710770D01*
X208246Y714592D01*
X205497Y717942D01*
X202147Y720691D01*
X198325Y722734D01*
X194178Y723992D01*
X189865Y724416D01*
D02*
G37*
G36*
X438150Y775955D02*
Y760730D01*
X453375D01*
X453181Y762702D01*
X452235Y765820D01*
X450699Y768694D01*
X448632Y771212D01*
X446114Y773279D01*
X443240Y774815D01*
X440122Y775761D01*
X438150Y775955D01*
D02*
G37*
G36*
X260930Y512270D02*
X257160D01*
Y508000D01*
X260930D01*
Y512270D01*
D02*
G37*
G36*
X485003Y538080D02*
X472875D01*
Y523412D01*
X475880D01*
Y520810D01*
X473790D01*
Y511810D01*
Y503745D01*
X472617Y503259D01*
X466403Y509473D01*
X465410Y510136D01*
X464240Y510369D01*
X464240Y510369D01*
X449468D01*
Y511810D01*
Y520810D01*
X447527D01*
Y523412D01*
X450532D01*
Y538080D01*
X438404D01*
Y523412D01*
X441409D01*
Y520810D01*
X439468D01*
Y511810D01*
Y502810D01*
X449468D01*
Y504251D01*
X462973D01*
X474461Y492763D01*
Y442788D01*
X474276Y442664D01*
X473281Y441176D01*
X472932Y439420D01*
X473281Y437664D01*
X474276Y436176D01*
X474487Y436034D01*
Y434764D01*
X473006Y433774D01*
X472011Y432286D01*
X471662Y430530D01*
X472011Y428774D01*
X473006Y427286D01*
X474494Y426291D01*
X476250Y425942D01*
X478006Y426291D01*
X479494Y427286D01*
X480489Y428774D01*
X480838Y430530D01*
X480795Y430749D01*
X484183Y434137D01*
X484846Y435130D01*
X485079Y436300D01*
X485079Y436300D01*
Y495187D01*
X484846Y496357D01*
X484580Y496755D01*
X484183Y497350D01*
X484183Y497350D01*
X481849Y499684D01*
Y502810D01*
X483790D01*
Y511810D01*
Y520810D01*
X481998D01*
Y523412D01*
X485003D01*
Y538080D01*
D02*
G37*
G36*
X196230Y519430D02*
X192460D01*
Y515160D01*
X196230D01*
Y519430D01*
D02*
G37*
G36*
X260930Y518160D02*
X257160D01*
Y513890D01*
X260930D01*
Y518160D01*
D02*
G37*
G36*
X109680Y779170D02*
X105410D01*
Y775400D01*
X109680D01*
Y779170D01*
D02*
G37*
G36*
X313070Y489410D02*
X309300D01*
Y485140D01*
X313070D01*
Y489410D01*
D02*
G37*
G36*
X267240Y524970D02*
X263470D01*
Y519430D01*
Y513890D01*
X267240D01*
D01*
X267240D01*
X267866Y513264D01*
Y512270D01*
X267240D01*
Y512270D01*
X263470D01*
Y506730D01*
Y501190D01*
X267240D01*
Y501730D01*
X275700D01*
Y502443D01*
X276820Y503042D01*
X277644Y502491D01*
X279400Y502142D01*
X281156Y502491D01*
X282644Y503486D01*
X283639Y504974D01*
X283988Y506730D01*
X283639Y508486D01*
X282644Y509974D01*
X281156Y510969D01*
X279400Y511318D01*
X277644Y510969D01*
X276820Y510418D01*
X275700Y511017D01*
Y511730D01*
X274534D01*
Y514430D01*
X275700D01*
Y524430D01*
X267240D01*
Y524970D01*
D02*
G37*
G36*
X260930Y505460D02*
X257160D01*
Y501190D01*
X260930D01*
Y505460D01*
D02*
G37*
G36*
X324500Y520700D02*
X320730D01*
Y516430D01*
X324500D01*
Y520700D01*
D02*
G37*
G36*
X431997Y529476D02*
X426663D01*
Y522872D01*
X431997D01*
Y529476D01*
D02*
G37*
G36*
X424123D02*
X418789D01*
Y522872D01*
X424123D01*
Y529476D01*
D02*
G37*
G36*
X466468D02*
X461134D01*
Y522872D01*
X466468D01*
Y529476D01*
D02*
G37*
G36*
X458594D02*
X453260D01*
Y522872D01*
X458594D01*
Y529476D01*
D02*
G37*
G36*
X572558Y530156D02*
X570802Y529807D01*
X569314Y528812D01*
X568319Y527324D01*
X567970Y525568D01*
X568319Y523812D01*
X569314Y522323D01*
X570802Y521329D01*
X572558Y520980D01*
X574314Y521329D01*
X575802Y522323D01*
X576797Y523812D01*
X577146Y525568D01*
X576797Y527324D01*
X575802Y528812D01*
X574314Y529807D01*
X572558Y530156D01*
D02*
G37*
G36*
X260930Y524970D02*
X257160D01*
Y520700D01*
X260930D01*
Y524970D01*
D02*
G37*
G36*
X53850Y535940D02*
X46580D01*
Y522170D01*
X53850D01*
Y535940D01*
D02*
G37*
G36*
X44040D02*
X36770D01*
Y522170D01*
X44040D01*
Y535940D01*
D02*
G37*
G36*
X181610Y477680D02*
X172340D01*
Y470410D01*
X181610D01*
Y477680D01*
D02*
G37*
G36*
X249174Y475802D02*
X243459D01*
Y469452D01*
X249174D01*
Y475802D01*
D02*
G37*
G36*
X205795Y477680D02*
X196525D01*
Y470410D01*
X205795D01*
Y477680D01*
D02*
G37*
G36*
X193420D02*
X184150D01*
Y470410D01*
X193420D01*
Y477680D01*
D02*
G37*
G36*
X264636Y475262D02*
X251746D01*
Y461102D01*
X255692D01*
Y458930D01*
X252040D01*
Y453390D01*
Y447850D01*
X255810D01*
Y448390D01*
X264270D01*
Y458390D01*
X263848D01*
Y461102D01*
X264636D01*
Y464104D01*
X272324D01*
X272564Y463943D01*
X274320Y463594D01*
X276076Y463943D01*
X277564Y464938D01*
X278559Y466426D01*
X278908Y468182D01*
X278559Y469938D01*
X277564Y471426D01*
X276076Y472421D01*
X274320Y472770D01*
X272564Y472421D01*
X272324Y472260D01*
X264636D01*
Y475262D01*
D02*
G37*
G36*
X741498Y468630D02*
X735330D01*
Y462462D01*
X736028Y462554D01*
X737862Y463314D01*
X739438Y464522D01*
X740646Y466097D01*
X741406Y467932D01*
X741498Y468630D01*
D02*
G37*
G36*
X240919Y475802D02*
X235204D01*
Y469452D01*
X240919D01*
Y475802D01*
D02*
G37*
G36*
X666750Y475758D02*
X664994Y475409D01*
X663506Y474414D01*
X662511Y472926D01*
X662162Y471170D01*
X662511Y469414D01*
X663506Y467926D01*
X664994Y466931D01*
X666750Y466582D01*
X668506Y466931D01*
X669994Y467926D01*
X670989Y469414D01*
X671338Y471170D01*
X670989Y472926D01*
X669994Y474414D01*
X668506Y475409D01*
X666750Y475758D01*
D02*
G37*
G36*
X217605Y477680D02*
X208335D01*
Y470410D01*
X217605D01*
Y477680D01*
D02*
G37*
G36*
X44269Y493700D02*
X41593Y493348D01*
X39100Y492315D01*
X36959Y490672D01*
X35316Y488531D01*
X34283Y486038D01*
X33930Y483362D01*
X34283Y480686D01*
X35316Y478193D01*
X36959Y476051D01*
X39100Y474409D01*
X41593Y473376D01*
X44269Y473023D01*
X46945Y473376D01*
X49438Y474409D01*
X51579Y476051D01*
X53222Y478193D01*
X54255Y480686D01*
X54608Y483362D01*
X54255Y486038D01*
X53222Y488531D01*
X51579Y490672D01*
X49438Y492315D01*
X46945Y493348D01*
X44269Y493700D01*
D02*
G37*
G36*
X98269Y493700D02*
X95593Y493348D01*
X93100Y492315D01*
X90958Y490672D01*
X89316Y488531D01*
X88283Y486037D01*
X87930Y483361D01*
X88283Y480686D01*
X89316Y478192D01*
X90958Y476051D01*
X93100Y474408D01*
X95593Y473375D01*
X98269Y473023D01*
X100945Y473375D01*
X103438Y474408D01*
X105579Y476051D01*
X107222Y478192D01*
X108255Y480686D01*
X108607Y483361D01*
X108255Y486037D01*
X107222Y488531D01*
X105579Y490672D01*
X103438Y492315D01*
X100945Y493348D01*
X98269Y493700D01*
D02*
G37*
G36*
X338870Y487729D02*
X337114Y487380D01*
X335626Y486385D01*
X334631Y484897D01*
X334282Y483141D01*
X334631Y481385D01*
X335626Y479896D01*
X337114Y478902D01*
X338870Y478553D01*
X340626Y478902D01*
X341980Y479807D01*
X345386D01*
X346191Y478825D01*
X345932Y477520D01*
X346084Y476756D01*
X345278Y475774D01*
X332040D01*
X330686Y476679D01*
X328930Y477028D01*
X327174Y476679D01*
X325686Y475684D01*
X324811Y474376D01*
X323596Y474744D01*
Y477520D01*
X317881D01*
Y469900D01*
Y462280D01*
X323255D01*
Y462280D01*
X323534D01*
X323672Y462111D01*
Y462111D01*
X324339Y461298D01*
X324282Y461010D01*
X324631Y459254D01*
X325573Y457844D01*
X325154Y457060D01*
X324930Y456724D01*
X285170D01*
X283894Y456470D01*
X282812Y455747D01*
X253812Y426747D01*
X252597Y427116D01*
X252579Y427206D01*
X251584Y428694D01*
X250096Y429689D01*
X248340Y430038D01*
X246584Y429689D01*
X245230Y428784D01*
X223379D01*
X222103Y428530D01*
X221021Y427808D01*
X193223Y400009D01*
X192500Y398927D01*
X192246Y397651D01*
Y334192D01*
X152219Y294164D01*
X85430D01*
X84689Y294017D01*
X83707Y294822D01*
Y298991D01*
X83397Y300552D01*
X82672Y301637D01*
X83342Y302716D01*
X83771Y302659D01*
X86282Y302990D01*
X88622Y303959D01*
X90632Y305501D01*
X92174Y307511D01*
X93143Y309851D01*
X93474Y312362D01*
X93143Y314874D01*
X92174Y317214D01*
X90632Y319223D01*
X88622Y320765D01*
X86282Y321735D01*
X83771Y322065D01*
X81259Y321735D01*
X78919Y320765D01*
X76910Y319223D01*
X75368Y317214D01*
X74398Y314874D01*
X74068Y312362D01*
X74120Y311969D01*
X72981Y311407D01*
X70118Y314269D01*
Y320040D01*
X70118Y320040D01*
X69859Y321342D01*
X69808Y321601D01*
X68924Y322924D01*
X68924Y322924D01*
X68294Y323554D01*
Y326126D01*
X68294Y326126D01*
X68294D01*
X68378Y326547D01*
X68834Y326852D01*
X81850D01*
X83411Y327162D01*
X84734Y328046D01*
X84734Y328046D01*
X96704Y340016D01*
X96704Y340016D01*
X98072Y341384D01*
X98184Y341552D01*
X98341Y341681D01*
X98623Y342209D01*
X98956Y342707D01*
X98995Y342906D01*
X99091Y343084D01*
X99149Y343680D01*
X99266Y344268D01*
X99227Y344466D01*
X99247Y344668D01*
X99122Y345932D01*
X99063Y346125D01*
Y346328D01*
X98834Y346881D01*
X98660Y347454D01*
X98532Y347611D01*
X98454Y347798D01*
X98031Y348221D01*
X97817Y348481D01*
X98004Y349738D01*
X98036Y349759D01*
X98320Y350043D01*
X98654Y350267D01*
X98877Y350601D01*
X99161Y350885D01*
X99315Y351256D01*
X99538Y351590D01*
X99616Y351984D01*
X99770Y352355D01*
Y352757D01*
X99848Y353150D01*
Y357680D01*
X100292Y358220D01*
X102482D01*
Y352215D01*
X101578Y350861D01*
X101228Y349105D01*
X101578Y347349D01*
X102572Y345861D01*
X104061Y344866D01*
X105816Y344517D01*
X107572Y344866D01*
X109061Y345861D01*
X109182Y346042D01*
X110452D01*
X110573Y345861D01*
X112062Y344866D01*
X113817Y344517D01*
X115573Y344866D01*
X117062Y345861D01*
X118056Y347349D01*
X118406Y349105D01*
X118056Y350861D01*
X117151Y352215D01*
Y370145D01*
X116898Y371421D01*
X116175Y372502D01*
X112940Y375737D01*
X111858Y376460D01*
X110582Y376714D01*
X109270D01*
Y378380D01*
X102788D01*
X98124Y379308D01*
X98225Y380093D01*
Y380093D01*
Y380093D01*
Y380093D01*
X98102Y380714D01*
X97915Y381654D01*
X97915Y381654D01*
Y381654D01*
X97766Y381876D01*
X97031Y382977D01*
X97030Y382977D01*
X96704Y383304D01*
X96704Y383304D01*
X94854Y385154D01*
X93531Y386038D01*
X93272Y386089D01*
X91970Y386348D01*
X91970Y386348D01*
X89694D01*
Y388532D01*
X91360D01*
Y388532D01*
X91360D01*
X91360Y388532D01*
X91520D01*
Y388532D01*
X101520D01*
Y388532D01*
X101520D01*
X101520Y388532D01*
X101680D01*
Y388532D01*
X111680D01*
Y397532D01*
Y406532D01*
X109739D01*
Y418183D01*
X111983Y420427D01*
X112646Y421419D01*
X112879Y422590D01*
X112879Y422590D01*
Y428117D01*
X113064Y428241D01*
X114059Y429730D01*
X114408Y431486D01*
X114059Y433241D01*
X113064Y434730D01*
X111576Y435724D01*
X109820Y436074D01*
X108064Y435724D01*
X106576Y434730D01*
X106455Y434549D01*
X105185D01*
X105064Y434730D01*
X104879Y434854D01*
Y439310D01*
X106820D01*
Y447770D01*
X107360D01*
Y451540D01*
X96280D01*
Y447770D01*
X96820D01*
Y439310D01*
X98761D01*
Y434854D01*
X98576Y434730D01*
X98455Y434549D01*
X97185D01*
X97064Y434730D01*
X95576Y435724D01*
X93820Y436074D01*
X92064Y435724D01*
X90576Y434730D01*
X90455Y434549D01*
X89185D01*
X89064Y434730D01*
X87576Y435724D01*
X85820Y436074D01*
X84064Y435724D01*
X82576Y434730D01*
X82455Y434549D01*
X81185D01*
X81064Y434730D01*
X79576Y435724D01*
X77820Y436074D01*
X76064Y435724D01*
X74576Y434730D01*
X73581Y433241D01*
X73232Y431486D01*
X73581Y429730D01*
X74576Y428241D01*
X74761Y428117D01*
Y420717D01*
X74037Y419993D01*
X73374Y419001D01*
X73141Y417830D01*
X73141Y417830D01*
Y406532D01*
X71200D01*
Y397532D01*
Y396367D01*
X66824D01*
Y397532D01*
Y406532D01*
X64882D01*
Y428117D01*
X65068Y428241D01*
X66062Y429730D01*
X66412Y431486D01*
X66062Y433241D01*
X65068Y434730D01*
X63579Y435724D01*
X61824Y436074D01*
X60068Y435724D01*
X58579Y434730D01*
X57585Y433241D01*
X57235Y431486D01*
X57585Y429730D01*
X58579Y428241D01*
X58765Y428117D01*
Y406532D01*
X56824D01*
Y397532D01*
Y388532D01*
X66824D01*
Y389698D01*
X71200D01*
Y388532D01*
X81200D01*
Y388532D01*
X81200D01*
X81200Y388532D01*
X81360D01*
Y388532D01*
X83026D01*
Y386190D01*
X82518Y386089D01*
X82259Y386038D01*
X80936Y385154D01*
X77126Y381344D01*
X77126Y381344D01*
X74949Y379167D01*
X74949Y379167D01*
X74949Y379167D01*
X74363Y378289D01*
X74065Y377844D01*
Y377844D01*
X74065Y377844D01*
X73972Y377374D01*
X73755Y376283D01*
X73793Y376092D01*
X72987Y375110D01*
X67930D01*
Y370840D01*
X72970D01*
Y368300D01*
X67930D01*
Y364030D01*
X67930Y364030D01*
X67930Y363243D01*
X67930D01*
Y358974D01*
X72970D01*
Y356434D01*
X67930D01*
Y352164D01*
X71504D01*
X73878Y351443D01*
X73937Y350847D01*
Y350248D01*
X74014Y350061D01*
X74034Y349860D01*
X74139Y349664D01*
X73682Y348759D01*
X73513Y348656D01*
X73513Y348656D01*
Y348656D01*
X73119Y348578D01*
X72717Y348578D01*
X72346Y348424D01*
X71952Y348346D01*
X71806Y348248D01*
X62230D01*
X60669Y347938D01*
X59346Y347054D01*
X59346Y347054D01*
X58256Y345964D01*
X58256Y345964D01*
X58256Y345964D01*
X57669Y345085D01*
X57372Y344641D01*
Y344640D01*
X57372Y344640D01*
X57278Y344170D01*
X57061Y343080D01*
X57207Y342348D01*
X56401Y341366D01*
X56166D01*
Y329238D01*
X65153D01*
X65950Y328046D01*
X67004Y327342D01*
X66636Y326126D01*
X56166D01*
Y324134D01*
X54266Y322234D01*
X53382Y320911D01*
X53331Y320652D01*
X53072Y319350D01*
X53072Y319350D01*
Y290830D01*
X53072Y290830D01*
X53382Y289269D01*
X53675Y288830D01*
X54266Y287946D01*
X54266Y287946D01*
X58806Y283406D01*
X60129Y282522D01*
X60388Y282471D01*
X61690Y282212D01*
X61690Y282212D01*
X70438D01*
X70924Y281038D01*
X67492Y277607D01*
X65895Y277289D01*
X64406Y276294D01*
X63412Y274806D01*
X63062Y273050D01*
X63412Y271294D01*
X64406Y269806D01*
X65895Y268811D01*
X67650Y268462D01*
X68271Y267952D01*
Y246780D01*
D01*
Y246780D01*
X67461Y245969D01*
X62340D01*
Y247910D01*
X53880D01*
Y248451D01*
X50110D01*
Y242910D01*
Y237370D01*
X53880D01*
Y237910D01*
X62340D01*
Y239852D01*
X69951D01*
X70075Y239666D01*
X71564Y238672D01*
X73320Y238322D01*
X75075Y238672D01*
X76564Y239666D01*
X77558Y241155D01*
X77908Y242910D01*
X77558Y244666D01*
X76894Y245660D01*
X77493Y246780D01*
X78368D01*
Y271100D01*
X72852D01*
X72046Y272082D01*
X72207Y272892D01*
X86812Y287496D01*
X96972D01*
X97458Y286323D01*
X96362Y285227D01*
X95639Y284145D01*
X95386Y282869D01*
Y269895D01*
X95080Y269691D01*
X93964Y268022D01*
X93573Y266052D01*
Y251828D01*
X93964Y249858D01*
X95080Y248189D01*
X95500Y247908D01*
X94806Y246869D01*
X93050Y247219D01*
X91295Y246869D01*
X90474Y246321D01*
X89557Y246811D01*
X89495Y248079D01*
X89659Y248189D01*
X90775Y249858D01*
X91166Y251828D01*
Y266052D01*
X90775Y268022D01*
X89659Y269691D01*
X87989Y270807D01*
X86019Y271199D01*
X84050Y270807D01*
X82380Y269691D01*
X81264Y268022D01*
X80873Y266052D01*
Y251828D01*
X81264Y249858D01*
X82380Y248189D01*
X82685Y247985D01*
Y235291D01*
X82939Y234015D01*
X83662Y232933D01*
X83662Y232933D01*
X83662Y232933D01*
X92893Y223703D01*
X92892D01*
X92893Y223702D01*
X92893Y223702D01*
Y223702D01*
X93974Y222980D01*
X95250Y222726D01*
X119380D01*
X120656Y222980D01*
X121737Y223703D01*
X121738Y223702D01*
X121737Y223703D01*
X134778Y236743D01*
X136376Y237061D01*
X137864Y238056D01*
X138859Y239544D01*
X139208Y241300D01*
X138859Y243056D01*
X137864Y244544D01*
X136376Y245539D01*
X136623Y246780D01*
X138057D01*
Y271100D01*
X127962D01*
Y268489D01*
X126558D01*
X126434Y268674D01*
X124946Y269669D01*
X123190Y270018D01*
X121434Y269669D01*
X119946Y268674D01*
X118951Y267186D01*
X118602Y265430D01*
X118951Y263674D01*
X119946Y262186D01*
X121434Y261191D01*
X123190Y260842D01*
X124946Y261191D01*
X126434Y262186D01*
X126558Y262371D01*
X127962D01*
Y246780D01*
X132617D01*
X132864Y245539D01*
X131376Y244544D01*
X130381Y243056D01*
X130063Y241458D01*
X117999Y229394D01*
X96631D01*
X89354Y236672D01*
Y238342D01*
X90474Y238940D01*
X91295Y238392D01*
X93050Y238042D01*
X94806Y238392D01*
X96295Y239386D01*
X97289Y240875D01*
X97639Y242631D01*
X97289Y244386D01*
X96295Y245875D01*
X96056Y246034D01*
X96750Y247073D01*
X98720Y246681D01*
X100689Y247073D01*
X102359Y248189D01*
X103475Y249858D01*
X103866Y251828D01*
Y266052D01*
X103475Y268022D01*
X102359Y269691D01*
X102054Y269895D01*
Y281488D01*
X103521Y282956D01*
X105716D01*
X106522Y281974D01*
X106302Y280870D01*
X106652Y279114D01*
X107646Y277625D01*
X109135Y276631D01*
X110891Y276281D01*
X112646Y276631D01*
X114001Y277535D01*
X167840D01*
X169115Y277789D01*
X170122Y278462D01*
X171296Y277976D01*
X171362Y277644D01*
X172356Y276156D01*
X173845Y275161D01*
X175600Y274812D01*
X177356Y275161D01*
X178710Y276066D01*
X189230D01*
X190506Y276320D01*
X191588Y277043D01*
X257171Y342626D01*
X284600D01*
X285954Y341721D01*
X287710Y341372D01*
X289466Y341721D01*
X290954Y342716D01*
X291949Y344204D01*
X292298Y345960D01*
X291949Y347716D01*
X290954Y349204D01*
X289466Y350199D01*
X287710Y350548D01*
X285954Y350199D01*
X285688Y350021D01*
X284632Y350727D01*
X284678Y350960D01*
X284329Y352716D01*
X283334Y354204D01*
X281846Y355199D01*
X280090Y355548D01*
X278334Y355199D01*
X276980Y354294D01*
X254370D01*
X253094Y354040D01*
X252012Y353318D01*
X244952Y346257D01*
X244831Y346281D01*
X244538Y346403D01*
X244538D01*
X243877Y346676D01*
Y346676D01*
X243760Y346725D01*
Y346725D01*
X243760Y346725D01*
D01*
Y355622D01*
Y364622D01*
X243062D01*
X242463Y365742D01*
X242999Y366544D01*
X243348Y368300D01*
X242999Y370056D01*
X242004Y371544D01*
X241946Y371583D01*
X241840Y372116D01*
X241117Y373198D01*
X240036Y373920D01*
X238760Y374174D01*
X237484Y373920D01*
X236402Y373198D01*
X235680Y372116D01*
X235584Y371634D01*
X232520D01*
Y373300D01*
X232044D01*
Y376072D01*
X232520D01*
Y386072D01*
X232044D01*
Y405976D01*
X232617Y406358D01*
X233612Y407847D01*
X233961Y409603D01*
X233688Y410974D01*
X234494Y411956D01*
X254690D01*
X255966Y412210D01*
X257048Y412933D01*
X265008Y420893D01*
X266606Y421211D01*
X268094Y422206D01*
X269089Y423694D01*
X269438Y425450D01*
X269089Y427206D01*
X268094Y428694D01*
X267185Y429302D01*
X267061Y430566D01*
X286551Y450056D01*
X330760D01*
X332114Y449151D01*
X333870Y448802D01*
X335626Y449151D01*
X337114Y450146D01*
X338109Y451634D01*
X338458Y453390D01*
X338109Y455146D01*
X337167Y456556D01*
X337586Y457340D01*
X337810Y457676D01*
X414599D01*
X442056Y430219D01*
Y322960D01*
X442310Y321684D01*
X443032Y320602D01*
X443032Y320602D01*
X443032Y320602D01*
X453136Y310499D01*
Y257481D01*
X450866Y255212D01*
X449746Y255810D01*
X449857Y256368D01*
Y262210D01*
X438462D01*
Y256368D01*
X438896Y254188D01*
X440131Y252339D01*
X440340Y252199D01*
X439972Y250984D01*
X435021D01*
X434794Y251211D01*
Y252525D01*
X435099Y252729D01*
X436215Y254398D01*
X436606Y256368D01*
Y270592D01*
X436215Y272562D01*
X435099Y274231D01*
X433429Y275347D01*
X431460Y275739D01*
X429490Y275347D01*
X427820Y274231D01*
X426704Y272562D01*
X426313Y270592D01*
Y256368D01*
X426704Y254398D01*
X427820Y252729D01*
X428125Y252525D01*
Y249830D01*
X428379Y248555D01*
X429102Y247473D01*
X429497Y247077D01*
X429011Y245904D01*
X419919D01*
X419432Y247077D01*
X421117Y248762D01*
X421117Y248762D01*
X421117Y248762D01*
X421840Y249844D01*
X422094Y251119D01*
Y252525D01*
X422399Y252729D01*
X423515Y254398D01*
X423906Y256368D01*
Y270592D01*
X423515Y272562D01*
X422399Y274231D01*
X420729Y275347D01*
X418759Y275739D01*
X416790Y275347D01*
X415120Y274231D01*
X414004Y272562D01*
X413613Y270592D01*
Y256368D01*
X414004Y254398D01*
X415120Y252729D01*
X414046Y251121D01*
X413369Y250444D01*
X411107D01*
Y251320D01*
X411107D01*
Y275640D01*
X402326D01*
Y279480D01*
X403970D01*
Y289480D01*
X393804D01*
Y291520D01*
X393550Y292796D01*
X392828Y293878D01*
X388438Y298267D01*
X387356Y298990D01*
X386080Y299244D01*
X366199D01*
X365830Y300459D01*
X367114Y301317D01*
X368109Y302806D01*
X368458Y304562D01*
X368109Y306317D01*
X367114Y307806D01*
X366969Y307903D01*
Y317390D01*
X368910D01*
Y325850D01*
X369450D01*
Y329620D01*
X358370D01*
Y325850D01*
X358910D01*
Y317390D01*
X360851D01*
Y307957D01*
X360626Y307806D01*
X359631Y306317D01*
X359282Y304562D01*
X359631Y302806D01*
X360626Y301317D01*
X361909Y300459D01*
X361541Y299244D01*
X339141D01*
X333427Y304958D01*
X333109Y306556D01*
X332114Y308044D01*
X330626Y309039D01*
X328870Y309388D01*
X327114Y309039D01*
X325626Y308044D01*
X324631Y306556D01*
X324282Y304800D01*
X324631Y303044D01*
X325626Y301556D01*
X327114Y300561D01*
X328712Y300243D01*
X331952Y297003D01*
X331466Y295830D01*
X317190D01*
Y290656D01*
X312797Y286263D01*
X312134Y285271D01*
X311901Y284100D01*
X311901Y284100D01*
Y273050D01*
X311901Y273050D01*
X312134Y271880D01*
X312797Y270887D01*
X315711Y267973D01*
Y266249D01*
X315526Y266125D01*
X314531Y264636D01*
X314182Y262880D01*
X314251Y262535D01*
X313770Y261950D01*
X313770D01*
Y253490D01*
X313230D01*
Y249720D01*
X324310D01*
Y253490D01*
X323770D01*
Y259822D01*
X328621D01*
Y245510D01*
X338717D01*
Y269830D01*
X328621D01*
Y265939D01*
X322138D01*
X322014Y266125D01*
X321829Y266249D01*
Y269240D01*
X321829Y269240D01*
X321596Y270410D01*
X320933Y271403D01*
X318019Y274317D01*
Y282833D01*
X321016Y285830D01*
X335190D01*
Y287496D01*
X343036D01*
Y268625D01*
X342730Y268421D01*
X341614Y266752D01*
X341223Y264782D01*
Y250558D01*
X341614Y248588D01*
X342730Y246919D01*
X344400Y245803D01*
X346370Y245411D01*
X348339Y245803D01*
X350009Y246919D01*
X351125Y248588D01*
X351516Y250558D01*
Y264782D01*
X351125Y266752D01*
X350009Y268421D01*
X349704Y268625D01*
Y287720D01*
X350608Y289074D01*
X350958Y290830D01*
X350806Y291594D01*
X351611Y292576D01*
X384699D01*
X386622Y290653D01*
X386136Y289480D01*
X385970D01*
Y279480D01*
X387136D01*
Y253420D01*
X387390Y252144D01*
X388112Y251063D01*
X388112Y251063D01*
X388112Y251062D01*
X392098Y247077D01*
X391612Y245904D01*
X376727D01*
X376129Y247024D01*
X377033Y248378D01*
X377467Y250558D01*
Y256400D01*
X366072D01*
Y250558D01*
X366220Y249814D01*
X365100Y249215D01*
X364140Y250175D01*
X364216Y250558D01*
Y264782D01*
X363825Y266752D01*
X362709Y268421D01*
X361039Y269537D01*
X359070Y269929D01*
X357100Y269537D01*
X355430Y268421D01*
X354314Y266752D01*
X353923Y264782D01*
Y250558D01*
X354314Y248588D01*
X355430Y246919D01*
X357100Y245803D01*
X359070Y245411D01*
X359407Y245478D01*
X362887Y241997D01*
X362402Y240824D01*
X299831D01*
X294094Y246561D01*
X294129Y246919D01*
X295245Y248588D01*
X295636Y250558D01*
Y264782D01*
X295245Y266752D01*
X294129Y268421D01*
X292459Y269537D01*
X290490Y269929D01*
X288520Y269537D01*
X286850Y268421D01*
X285734Y266752D01*
X285343Y264782D01*
Y250558D01*
X285734Y248588D01*
X286850Y246919D01*
X287155Y246714D01*
Y245450D01*
X287409Y244175D01*
X288132Y243093D01*
X290497Y240727D01*
X290012Y239554D01*
X242681D01*
X235404Y246831D01*
Y252525D01*
X235709Y252729D01*
X236825Y254398D01*
X237216Y256368D01*
Y270592D01*
X236825Y272562D01*
X235709Y274231D01*
X234039Y275347D01*
X232069Y275739D01*
X230100Y275347D01*
X228430Y274231D01*
X227314Y272562D01*
X226923Y270592D01*
Y256368D01*
X227314Y254398D01*
X228430Y252729D01*
X228736Y252525D01*
Y245450D01*
X228989Y244175D01*
X229712Y243093D01*
X237158Y235647D01*
X236672Y234474D01*
X220446D01*
X219641Y235456D01*
X219908Y236800D01*
X219559Y238556D01*
X218564Y240044D01*
X217931Y240467D01*
X218417Y241641D01*
X219370Y241451D01*
X221125Y241801D01*
X222614Y242795D01*
X223608Y244284D01*
X223958Y246040D01*
X223608Y247795D01*
X222704Y249149D01*
Y252525D01*
X223009Y252729D01*
X224125Y254398D01*
X224516Y256368D01*
Y270592D01*
X224125Y272562D01*
X223009Y274231D01*
X221339Y275347D01*
X219370Y275739D01*
X217400Y275347D01*
X215730Y274231D01*
X214614Y272562D01*
X214223Y270592D01*
Y256368D01*
X214614Y254398D01*
X215730Y252729D01*
X216035Y252525D01*
Y249149D01*
X215131Y247795D01*
X214781Y246040D01*
X215131Y244284D01*
X216125Y242795D01*
X216758Y242372D01*
X216273Y241199D01*
X215320Y241388D01*
X213564Y241039D01*
X212076Y240044D01*
X211081Y238556D01*
X210732Y236800D01*
X210999Y235456D01*
X210194Y234474D01*
X170291D01*
X161744Y243022D01*
Y247985D01*
X162049Y248189D01*
X163165Y249858D01*
X163556Y251828D01*
Y266052D01*
X163165Y268022D01*
X162049Y269691D01*
X160379Y270807D01*
X158410Y271199D01*
X156440Y270807D01*
X154770Y269691D01*
X153654Y268022D01*
X153263Y266052D01*
Y251828D01*
X153654Y249858D01*
X154770Y248189D01*
X155076Y247985D01*
Y241640D01*
X155329Y240365D01*
D01*
X154156Y240459D01*
X154156Y240459D01*
X154156Y240459D01*
X152558Y240777D01*
X149044Y244291D01*
Y247985D01*
X149349Y248189D01*
X150465Y249858D01*
X150856Y251828D01*
Y266052D01*
X150465Y268022D01*
X149349Y269691D01*
X147679Y270807D01*
X145709Y271199D01*
X143740Y270807D01*
X142070Y269691D01*
X140954Y268022D01*
X140563Y266052D01*
Y251828D01*
X140954Y249858D01*
X142070Y248189D01*
X142375Y247985D01*
Y242910D01*
X142629Y241635D01*
X143352Y240553D01*
X147843Y236062D01*
X148161Y234464D01*
X149156Y232976D01*
X150644Y231981D01*
X152400Y231632D01*
X154156Y231981D01*
X155644Y232976D01*
X156639Y234464D01*
X156988Y236220D01*
X156887Y236729D01*
X158007Y237328D01*
X166553Y228783D01*
X166552D01*
X166553Y228782D01*
X166553Y228782D01*
Y228782D01*
X167634Y228060D01*
X168910Y227806D01*
X289449D01*
X292283Y224972D01*
X293364Y224250D01*
X294640Y223996D01*
X453382D01*
X454657Y224250D01*
X455739Y224972D01*
X457757Y226990D01*
X458777Y226233D01*
X457096Y223090D01*
X455838Y218943D01*
X455414Y214630D01*
X455838Y210317D01*
X457096Y206170D01*
X459139Y202348D01*
X461888Y198998D01*
X465238Y196249D01*
X469060Y194206D01*
X473207Y192948D01*
X477520Y192524D01*
X481833Y192948D01*
X485980Y194206D01*
X489802Y196249D01*
X493152Y198998D01*
X495901Y202348D01*
X497944Y206170D01*
X499202Y210317D01*
X499626Y214630D01*
X499202Y218943D01*
X497944Y223090D01*
X495901Y226912D01*
X493152Y230262D01*
X489802Y233011D01*
X485980Y235054D01*
X481833Y236312D01*
X477520Y236736D01*
X473207Y236312D01*
X469060Y235054D01*
X465917Y233373D01*
X465160Y234394D01*
X476987Y246221D01*
X477710Y247303D01*
X477964Y248578D01*
Y319402D01*
X477710Y320678D01*
X476987Y321760D01*
X467432Y331315D01*
Y339234D01*
X468616Y340025D01*
X470104Y339031D01*
X471860Y338681D01*
X473616Y339031D01*
X473616Y339031D01*
X473653Y338270D01*
Y338270D01*
X491653D01*
Y348270D01*
Y358270D01*
Y368270D01*
Y378269D01*
D01*
Y378269D01*
X491654Y378269D01*
Y378470D01*
X491653D01*
Y388470D01*
D01*
Y388469D01*
X491654Y388470D01*
Y388630D01*
X491653D01*
Y398629D01*
D01*
Y398629D01*
X491654Y398629D01*
Y398790D01*
X491653D01*
Y408789D01*
X490635D01*
X490267Y410005D01*
X490398Y410092D01*
X491392Y411581D01*
X491742Y413337D01*
X491392Y415092D01*
X490398Y416581D01*
X488909Y417575D01*
X487154Y417925D01*
X485398Y417575D01*
X483909Y416581D01*
X482915Y415092D01*
X482565Y413337D01*
X482915Y411581D01*
X483909Y410092D01*
X484040Y410005D01*
X483671Y408789D01*
X473653D01*
Y408789D01*
X472868Y408177D01*
X471860Y408378D01*
X470104Y408028D01*
X468616Y407034D01*
X467432Y407825D01*
Y438574D01*
X467178Y439850D01*
X466455Y440932D01*
X421889Y485498D01*
X420807Y486221D01*
X419531Y486475D01*
X341980D01*
X340626Y487380D01*
X338870Y487729D01*
D02*
G37*
G36*
X155069Y493700D02*
X152393Y493348D01*
X149900Y492315D01*
X147759Y490672D01*
X146116Y488531D01*
X145083Y486038D01*
X144730Y483362D01*
X145083Y480686D01*
X146116Y478193D01*
X147759Y476051D01*
X149900Y474409D01*
X152393Y473376D01*
X155069Y473023D01*
X157745Y473376D01*
X160238Y474409D01*
X162379Y476051D01*
X164022Y478193D01*
X165055Y480686D01*
X165407Y483362D01*
X165055Y486038D01*
X164022Y488531D01*
X162379Y490672D01*
X160238Y492315D01*
X157745Y493348D01*
X155069Y493700D01*
D02*
G37*
G36*
X732790Y477338D02*
X732092Y477246D01*
X730257Y476486D01*
X728682Y475278D01*
X727474Y473703D01*
X726714Y471868D01*
X726622Y471170D01*
X732790D01*
Y477338D01*
D02*
G37*
G36*
X313070Y482600D02*
X309300D01*
Y478330D01*
X309626D01*
Y478330D01*
Y477520D01*
X309626Y477432D01*
X309626Y477432D01*
X309626D01*
Y471170D01*
X315341D01*
Y477520D01*
X313880D01*
X313070Y478330D01*
X313070Y478418D01*
X313070Y478418D01*
X313070D01*
Y482600D01*
D02*
G37*
G36*
X306760Y489410D02*
X302990D01*
Y488870D01*
X294530D01*
Y478870D01*
X295696D01*
Y476980D01*
X294164D01*
Y473234D01*
X292100D01*
X290824Y472980D01*
X290292Y472625D01*
X289560Y472770D01*
X287804Y472421D01*
X286316Y471426D01*
X285321Y469938D01*
X284972Y468182D01*
X285321Y466426D01*
X286316Y464938D01*
X287804Y463943D01*
X289560Y463594D01*
X291316Y463943D01*
X292804Y464938D01*
X292949Y465154D01*
X294164Y464785D01*
Y462820D01*
X307054D01*
Y476980D01*
X302364D01*
Y478330D01*
X302990D01*
Y478330D01*
X306760D01*
Y483870D01*
Y489410D01*
D02*
G37*
G36*
X735330Y477338D02*
Y471170D01*
X741498D01*
X741406Y471868D01*
X740646Y473703D01*
X739438Y475278D01*
X737862Y476486D01*
X736028Y477246D01*
X735330Y477338D01*
D02*
G37*
G36*
X324500Y527510D02*
X320730D01*
Y523240D01*
X324500D01*
Y527510D01*
D02*
G37*
G36*
X475465Y561016D02*
X463337D01*
Y558945D01*
X462356Y558140D01*
X461700Y558270D01*
X459944Y557921D01*
X458456Y556926D01*
X457461Y555438D01*
X457112Y553682D01*
X457461Y551926D01*
X458456Y550438D01*
X459944Y549443D01*
X461700Y549094D01*
X462356Y549224D01*
X463337Y548419D01*
Y546348D01*
X475465D01*
Y561016D01*
D02*
G37*
G36*
X440994D02*
X428866D01*
Y558852D01*
X427884Y558046D01*
X426758Y558270D01*
X425002Y557921D01*
X423514Y556926D01*
X422519Y555438D01*
X422170Y553682D01*
X422519Y551926D01*
X423514Y550438D01*
X425002Y549443D01*
X426758Y549094D01*
X427884Y549318D01*
X428866Y548512D01*
Y546348D01*
X440994D01*
Y561016D01*
D02*
G37*
G36*
X327150Y576070D02*
X319880D01*
Y566800D01*
X327150D01*
Y576070D01*
D02*
G37*
G36*
X231790Y563070D02*
X228020D01*
Y558800D01*
X231790D01*
Y563070D01*
D02*
G37*
G36*
X327150Y562990D02*
X319880D01*
Y553720D01*
X327150D01*
Y562990D01*
D02*
G37*
G36*
X231790Y556260D02*
X228020D01*
Y551990D01*
X231790D01*
Y556260D01*
D02*
G37*
G36*
X260630Y560070D02*
X256860D01*
Y555800D01*
X260630D01*
Y560070D01*
D02*
G37*
G36*
X336960Y562990D02*
X329690D01*
Y553720D01*
X336960D01*
Y562990D01*
D02*
G37*
G36*
Y576070D02*
X329690D01*
Y566800D01*
X336960D01*
Y576070D01*
D02*
G37*
G36*
X155069Y593700D02*
X152393Y593348D01*
X149899Y592315D01*
X147758Y590672D01*
X146115Y588531D01*
X145082Y586038D01*
X144730Y583362D01*
X145082Y580686D01*
X146115Y578193D01*
X147758Y576052D01*
X149899Y574409D01*
X152393Y573376D01*
X155069Y573023D01*
X157744Y573376D01*
X160238Y574409D01*
X162379Y576052D01*
X164022Y578193D01*
X165055Y580686D01*
X165407Y583362D01*
X165055Y586038D01*
X164022Y588531D01*
X162379Y590672D01*
X160238Y592315D01*
X157744Y593348D01*
X155069Y593700D01*
D02*
G37*
G36*
X53340Y777900D02*
X49070D01*
Y774130D01*
X53340D01*
Y777900D01*
D02*
G37*
G36*
X327150Y587880D02*
X319880D01*
Y578610D01*
X327150D01*
Y587880D01*
D02*
G37*
G36*
X191150Y579120D02*
X187380D01*
Y574850D01*
X191150D01*
Y579120D01*
D02*
G37*
G36*
X102870Y779170D02*
X95250D01*
Y774130D01*
X92710D01*
Y779170D01*
X85090D01*
Y774130D01*
X83820D01*
Y772860D01*
X78280D01*
Y769090D01*
X78820D01*
Y760630D01*
X80761D01*
Y759460D01*
X80761Y759460D01*
X80994Y758289D01*
X81657Y757297D01*
X85961Y752993D01*
Y747990D01*
X86020Y747694D01*
Y745030D01*
X83790D01*
Y741490D01*
X82520D01*
Y740220D01*
X76980D01*
Y739549D01*
X73767D01*
X69099Y744217D01*
Y749300D01*
X69099Y749300D01*
X68866Y750471D01*
X68203Y751463D01*
X68203Y751463D01*
X64963Y754703D01*
X63970Y755366D01*
X62800Y755599D01*
X62800Y755599D01*
X59610D01*
Y757040D01*
X57669D01*
Y759360D01*
X59610D01*
Y767820D01*
X60150D01*
Y771590D01*
X49070D01*
Y767820D01*
X49610D01*
Y759360D01*
X51551D01*
Y757040D01*
X49610D01*
Y748040D01*
Y739040D01*
X51551D01*
Y735440D01*
X49610D01*
Y726440D01*
Y717440D01*
X50746D01*
X50842Y716959D01*
X51726Y715636D01*
X51726Y715636D01*
X65396Y701966D01*
X66719Y701082D01*
X66978Y701031D01*
X68280Y700772D01*
X68280Y700772D01*
X91590D01*
X91590Y700772D01*
X92892Y701031D01*
X93151Y701082D01*
X94474Y701966D01*
X94474Y701966D01*
X95790Y703282D01*
X97060D01*
X98376Y701966D01*
X99699Y701082D01*
X99958Y701031D01*
X101259Y700772D01*
X101260Y700772D01*
X113810D01*
X113957Y700801D01*
X114106Y700782D01*
X114733Y700955D01*
X115371Y701082D01*
X115495Y701165D01*
X115640Y701205D01*
X116153Y701605D01*
X116694Y701966D01*
X116777Y702091D01*
X116895Y702183D01*
X123332Y709628D01*
X141198Y709877D01*
X141909Y710029D01*
X142625Y710156D01*
X142685Y710194D01*
X142754Y710209D01*
X143353Y710622D01*
X143965Y711013D01*
X175631Y741412D01*
X199970D01*
X199970Y741412D01*
X201531Y741722D01*
X201970Y742015D01*
X202854Y742606D01*
X202854Y742606D01*
X209894Y749646D01*
X210778Y750969D01*
X210829Y751228D01*
X211088Y752530D01*
X211088Y752530D01*
Y765810D01*
X211088Y765810D01*
X210778Y767371D01*
X209894Y768694D01*
X202274Y776314D01*
X200951Y777198D01*
X200692Y777249D01*
X199390Y777508D01*
X199390Y777508D01*
X186680D01*
X186680Y777508D01*
X185378Y777249D01*
X185119Y777198D01*
X183796Y776314D01*
X183796Y776314D01*
X175555Y768073D01*
X175535Y768043D01*
X138253Y730761D01*
X137080Y731247D01*
Y736710D01*
X135414D01*
Y742850D01*
X137080D01*
Y751310D01*
X137620D01*
Y755080D01*
X126540D01*
Y751310D01*
X127080D01*
Y742850D01*
X128746D01*
Y736710D01*
X127080D01*
Y734824D01*
X124610D01*
X124185Y735460D01*
X123927Y735944D01*
X124889Y737384D01*
X125238Y739140D01*
X124889Y740896D01*
X123894Y742384D01*
X122406Y743379D01*
X120650Y743728D01*
X118894Y743379D01*
X117406Y742384D01*
X116735Y741381D01*
X115520Y741750D01*
Y744490D01*
X107020D01*
Y747694D01*
X107079Y747990D01*
Y748829D01*
X109001Y750751D01*
X109220Y750707D01*
X110976Y751057D01*
X112464Y752051D01*
X113459Y753540D01*
X113808Y755295D01*
X113459Y757051D01*
X112464Y758540D01*
X110976Y759534D01*
X109220Y759884D01*
X109140Y760630D01*
X109140Y760630D01*
X109140Y760630D01*
Y769090D01*
X109680D01*
Y772860D01*
X104140D01*
Y774130D01*
X102870D01*
Y779170D01*
D02*
G37*
G36*
X108227Y580250D02*
X103799D01*
Y568963D01*
X104710Y569144D01*
X106558Y570379D01*
X107793Y572228D01*
X108227Y574408D01*
Y580250D01*
D02*
G37*
G36*
X260630Y577040D02*
X256860D01*
Y572770D01*
X260630D01*
Y577040D01*
D02*
G37*
G36*
X60150Y777900D02*
X55880D01*
Y774130D01*
X60150D01*
Y777900D01*
D02*
G37*
G36*
X466468Y538620D02*
X461134D01*
Y532016D01*
X466468D01*
Y538620D01*
D02*
G37*
G36*
X458594D02*
X453260D01*
Y532016D01*
X458594D01*
Y538620D01*
D02*
G37*
G36*
X44040Y552250D02*
X36770D01*
Y538480D01*
X44040D01*
Y552250D01*
D02*
G37*
G36*
X196230Y536400D02*
X192460D01*
Y532130D01*
X196230D01*
Y536400D01*
D02*
G37*
G36*
X318190Y527510D02*
X314420D01*
Y526970D01*
X305960D01*
Y526257D01*
X304840Y525658D01*
X304016Y526209D01*
X302260Y526558D01*
X300504Y526209D01*
X299016Y525214D01*
X298021Y523726D01*
X297672Y521970D01*
X298021Y520214D01*
X299016Y518726D01*
X300504Y517731D01*
X302260Y517382D01*
X304016Y517731D01*
X304840Y518282D01*
X305960Y517683D01*
Y516970D01*
X314420D01*
Y516430D01*
X318190D01*
Y521970D01*
Y527510D01*
D02*
G37*
G36*
X596090Y544250D02*
X585010D01*
Y540480D01*
X585550D01*
Y532020D01*
X585550D01*
X586311Y531346D01*
D01*
X586311Y531346D01*
X585962Y529590D01*
X586311Y527834D01*
X587306Y526346D01*
X588794Y525351D01*
X590550Y525002D01*
X592306Y525351D01*
X593794Y526346D01*
X594789Y527834D01*
X595138Y529590D01*
X594789Y531346D01*
X594789Y531346D01*
D01*
X595550Y532020D01*
X595550D01*
Y540480D01*
X596090D01*
Y544250D01*
D02*
G37*
G36*
X431997Y538620D02*
X426663D01*
Y532016D01*
X431997D01*
Y538620D01*
D02*
G37*
G36*
X424123D02*
X418789D01*
Y532016D01*
X424123D01*
Y538620D01*
D02*
G37*
G36*
X53850Y552250D02*
X46580D01*
Y538480D01*
X53850D01*
Y552250D01*
D02*
G37*
G36*
X596090Y550560D02*
X591820D01*
Y546790D01*
X596090D01*
Y550560D01*
D02*
G37*
G36*
X589280D02*
X585010D01*
Y546790D01*
X589280D01*
Y550560D01*
D02*
G37*
G36*
X129310Y608330D02*
X110490D01*
Y593960D01*
X111930D01*
X112298Y592745D01*
X111590Y592271D01*
X110474Y590602D01*
X110083Y588632D01*
Y574408D01*
X110474Y572438D01*
X111590Y570769D01*
X111896Y570564D01*
Y569300D01*
X112149Y568025D01*
X112872Y566943D01*
X112872Y566943D01*
X112872Y566943D01*
X124642Y555172D01*
X125291Y554739D01*
X125724Y554450D01*
X127000Y554196D01*
X133429D01*
Y497280D01*
X153542D01*
X154596Y496226D01*
X155919Y495342D01*
X156178Y495291D01*
X157480Y495032D01*
X157480Y495032D01*
X172880D01*
Y493140D01*
X192880D01*
Y495032D01*
X197065D01*
Y493140D01*
X217065D01*
Y509140D01*
X204892D01*
X204761Y509228D01*
X204502Y509279D01*
X203200Y509538D01*
X203200Y509538D01*
X189649D01*
X185688Y513499D01*
Y515160D01*
X186150D01*
Y515160D01*
X189920D01*
Y520700D01*
X191190D01*
Y521970D01*
X196230D01*
Y525320D01*
Y529590D01*
X191190D01*
Y530860D01*
X189920D01*
Y536400D01*
X186150D01*
D01*
X186150D01*
X185688Y536862D01*
Y543568D01*
X185688Y543568D01*
X185429Y544870D01*
X185378Y545129D01*
X184494Y546452D01*
X184494Y546452D01*
X178152Y552794D01*
X177873Y552981D01*
X178242Y554196D01*
X193565D01*
Y552530D01*
X194731D01*
Y549830D01*
X193565D01*
Y539830D01*
X202025D01*
Y539290D01*
X205795D01*
Y544830D01*
Y550370D01*
X202025D01*
D01*
X202025D01*
X201399Y550996D01*
Y552530D01*
X211565D01*
Y554196D01*
X213250D01*
Y552530D01*
X221710D01*
Y551990D01*
X225480D01*
Y557530D01*
Y563070D01*
X221710D01*
Y562530D01*
X213250D01*
Y560864D01*
X211565D01*
Y562530D01*
X198849D01*
X198480Y563745D01*
X199529Y564446D01*
X200523Y565934D01*
X200872Y567690D01*
X200523Y569446D01*
X199529Y570934D01*
X198040Y571929D01*
X196284Y572278D01*
X194529Y571929D01*
X193040Y570934D01*
X192916Y570749D01*
X190610D01*
Y572690D01*
X180444D01*
Y574850D01*
X181070D01*
Y574850D01*
X184840D01*
Y580390D01*
Y585930D01*
X181070D01*
Y585390D01*
X172610D01*
Y575390D01*
X173776D01*
Y572690D01*
X172610D01*
Y571024D01*
X137271D01*
X133076Y575219D01*
Y588632D01*
X132685Y590602D01*
X131569Y592271D01*
X129899Y593387D01*
X129310Y593504D01*
Y593960D01*
Y593960D01*
X129310Y594505D01*
X129310Y594505D01*
X129310D01*
Y608330D01*
D02*
G37*
G36*
X82550Y779170D02*
X78280D01*
Y775400D01*
X82550D01*
Y779170D01*
D02*
G37*
G36*
X327150Y551180D02*
X319880D01*
Y541910D01*
X327150D01*
Y551180D01*
D02*
G37*
G36*
X212105Y543560D02*
X208335D01*
Y539290D01*
X212105D01*
Y543560D01*
D02*
G37*
G36*
Y550370D02*
X208335D01*
Y546100D01*
X212105D01*
Y550370D01*
D02*
G37*
G36*
X336960Y551180D02*
X329690D01*
Y541910D01*
X336960D01*
Y551180D01*
D02*
G37*
%LPD*%
G36*
X225098Y408029D02*
X225134Y407847D01*
X225376Y407485D01*
Y386072D01*
X224060D01*
Y386612D01*
X220290D01*
Y381072D01*
Y375532D01*
X224060D01*
Y376072D01*
X225376D01*
Y373300D01*
X224060D01*
Y373840D01*
X220290D01*
Y368300D01*
Y362760D01*
X224060D01*
Y363300D01*
X232520D01*
Y363300D01*
X232862D01*
X233760Y362402D01*
Y356412D01*
X233480Y355993D01*
X232778Y355417D01*
X231302Y355711D01*
X229547Y355361D01*
X228058Y354367D01*
X227064Y352878D01*
X226714Y351122D01*
X227064Y349367D01*
X228058Y347878D01*
X229547Y346884D01*
X231302Y346534D01*
X233058Y346884D01*
X233153Y346947D01*
X233760Y346622D01*
Y346622D01*
X233760Y346622D01*
X243657D01*
X243820Y346229D01*
X243980Y345844D01*
Y345844D01*
X244029Y345726D01*
X244101Y345552D01*
X244125Y345431D01*
X186509Y287814D01*
X171450D01*
X171385Y287801D01*
X170787Y288921D01*
X207017Y325152D01*
X207740Y326234D01*
X207994Y327509D01*
Y392509D01*
X223882Y408397D01*
X225098Y408029D01*
D02*
G37*
G36*
X93820Y380420D02*
X94147Y380093D01*
X93661Y378920D01*
X90730D01*
Y374650D01*
X95770D01*
Y372110D01*
X90730D01*
Y367840D01*
Y364490D01*
X95770D01*
Y361950D01*
X90730D01*
Y357680D01*
X95770D01*
Y353150D01*
X94571Y352349D01*
X93576Y350861D01*
X93227Y349105D01*
X93576Y347349D01*
X94571Y345861D01*
X95063Y345532D01*
X95188Y344268D01*
X93820Y342900D01*
X81850Y330930D01*
X68834D01*
Y334032D01*
X62230D01*
Y336572D01*
X68834D01*
Y341906D01*
X61626D01*
X61140Y343080D01*
X62230Y344170D01*
X73105D01*
X73513Y344578D01*
X73820Y344517D01*
X75576Y344866D01*
X77064Y345861D01*
X78059Y347349D01*
X78408Y349105D01*
X78059Y350861D01*
X77937Y351044D01*
X78535Y352164D01*
X80700D01*
Y357704D01*
X81970D01*
Y358974D01*
X87010D01*
Y363243D01*
D01*
Y363243D01*
X87010Y363243D01*
Y364030D01*
X87010D01*
Y368300D01*
X81970D01*
Y369570D01*
X80700D01*
Y375110D01*
X78319D01*
X77833Y376283D01*
X80010Y378460D01*
X83820Y382270D01*
X91970D01*
X93820Y380420D01*
D02*
G37*
G36*
X181610Y543568D02*
Y511810D01*
X187960Y505460D01*
X203200D01*
X205740Y502920D01*
Y499110D01*
X157480D01*
X151130Y505460D01*
Y549910D01*
X175268D01*
X181610Y543568D01*
D02*
G37*
G36*
X300101Y630809D02*
Y554101D01*
X295910Y549910D01*
X281322D01*
X271780Y559452D01*
Y609600D01*
X274320Y612140D01*
X290830D01*
Y628650D01*
X293370Y631190D01*
X299720D01*
X300101Y630809D01*
D02*
G37*
G36*
X468630Y652780D02*
X480060D01*
X487680Y645160D01*
Y618490D01*
X483870Y614680D01*
X471941D01*
X469401Y617220D01*
Y634229D01*
X447040Y656590D01*
X393700D01*
X389890Y660400D01*
Y668020D01*
X389945Y668075D01*
X453335D01*
X468630Y652780D01*
D02*
G37*
G36*
X107950Y665480D02*
X107535Y665065D01*
Y640935D01*
X105410Y638810D01*
X101259D01*
X97790Y642280D01*
Y665480D01*
X100330Y668020D01*
X105410D01*
X107950Y665480D01*
D02*
G37*
G36*
X66040Y320040D02*
Y312580D01*
X79629Y298991D01*
Y291719D01*
X74200Y286290D01*
X61690D01*
X57150Y290830D01*
Y319350D01*
X59110Y321310D01*
X64770D01*
X66040Y320040D01*
D02*
G37*
G36*
X207010Y765810D02*
Y752530D01*
X199970Y745490D01*
X173990D01*
X141141Y713955D01*
X121444Y713680D01*
X113810Y704850D01*
X101259D01*
X99020Y707089D01*
Y709990D01*
X104020D01*
X110520Y716490D01*
Y726490D01*
X116840D01*
Y723210D01*
X136470D01*
X178439Y765179D01*
Y765189D01*
X186680Y773430D01*
X199390D01*
X207010Y765810D01*
D02*
G37*
G36*
X82520Y716490D02*
X89020Y709990D01*
X94020D01*
Y707280D01*
X91590Y704850D01*
X68280D01*
X54610Y718520D01*
Y723220D01*
X75520D01*
X78790Y726490D01*
X82520D01*
Y716490D01*
D02*
G37*
%LPC*%
G36*
X217750Y386612D02*
X213980D01*
Y382342D01*
X217750D01*
Y386612D01*
D02*
G37*
G36*
Y379802D02*
X213980D01*
Y375532D01*
X217750D01*
Y379802D01*
D02*
G37*
G36*
Y367030D02*
X213980D01*
Y362760D01*
X217750D01*
Y367030D01*
D02*
G37*
G36*
X87010Y356434D02*
X83240D01*
Y352164D01*
X87010D01*
Y356434D01*
D02*
G37*
G36*
Y375110D02*
X83240D01*
Y370840D01*
X87010D01*
Y375110D01*
D02*
G37*
G36*
X217750Y373840D02*
X213980D01*
Y369570D01*
X217750D01*
Y373840D01*
D02*
G37*
%LPD*%
D14*
X478153Y353270D02*
D03*
X487154D02*
D03*
X168330Y637400D02*
D03*
X159330D02*
D03*
X145470Y666541D02*
D03*
X136470D02*
D03*
X415400Y370840D02*
D03*
X406400D02*
D03*
X269930Y391160D02*
D03*
X260930D02*
D03*
X269930Y381000D02*
D03*
X260930D02*
D03*
X259770Y453390D02*
D03*
X250770D02*
D03*
X271200Y519430D02*
D03*
X262200D02*
D03*
X271200Y506730D02*
D03*
X262200D02*
D03*
X310460Y521970D02*
D03*
X319460D02*
D03*
X299030Y483870D02*
D03*
X308030D02*
D03*
X186110Y580390D02*
D03*
X177110D02*
D03*
X478153Y383470D02*
D03*
X487154D02*
D03*
X72970Y369570D02*
D03*
X81970D02*
D03*
X72970Y357704D02*
D03*
X81970D02*
D03*
X95770Y373380D02*
D03*
X104770D02*
D03*
X95770Y363220D02*
D03*
X104770D02*
D03*
X228020Y381072D02*
D03*
X219020D02*
D03*
Y368300D02*
D03*
X228020D02*
D03*
X311150Y375828D02*
D03*
X320150D02*
D03*
X311150Y386080D02*
D03*
X320150D02*
D03*
X269930Y367030D02*
D03*
X260930D02*
D03*
X207065Y557530D02*
D03*
X198065D02*
D03*
Y544830D02*
D03*
X207065D02*
D03*
X177110Y567690D02*
D03*
X186110D02*
D03*
X217750Y557530D02*
D03*
X226750D02*
D03*
X115020Y666750D02*
D03*
X106020D02*
D03*
X478153Y373270D02*
D03*
X487154D02*
D03*
Y393629D02*
D03*
X478153D02*
D03*
X487154Y403789D02*
D03*
X478153D02*
D03*
X330690Y290830D02*
D03*
X321690D02*
D03*
X399470Y284480D02*
D03*
X390470D02*
D03*
X542420Y193644D02*
D03*
X533420D02*
D03*
X518610Y155930D02*
D03*
X509610D02*
D03*
X533420Y183140D02*
D03*
X542420D02*
D03*
X533420Y172980D02*
D03*
X542420D02*
D03*
Y162820D02*
D03*
X533420D02*
D03*
X518610Y145770D02*
D03*
X509610D02*
D03*
Y125450D02*
D03*
X518610D02*
D03*
X509610Y135610D02*
D03*
X518610D02*
D03*
X619180Y136410D02*
D03*
X610180D02*
D03*
X271200Y628269D02*
D03*
X262200D02*
D03*
X271200Y607279D02*
D03*
X262200D02*
D03*
X271200Y585470D02*
D03*
X262200D02*
D03*
X270900Y571500D02*
D03*
X261900D02*
D03*
X270900Y561340D02*
D03*
X261900D02*
D03*
X192390Y261620D02*
D03*
X183389D02*
D03*
X182190Y530860D02*
D03*
X191190D02*
D03*
Y520700D02*
D03*
X182190D02*
D03*
X48840Y242910D02*
D03*
X57840D02*
D03*
X603830Y155910D02*
D03*
X612830D02*
D03*
X478153Y363270D02*
D03*
X487154D02*
D03*
X478153Y343270D02*
D03*
X487154D02*
D03*
D21*
X373870Y432490D02*
D03*
Y423490D02*
D03*
X363910Y321890D02*
D03*
Y330890D02*
D03*
X244729Y706700D02*
D03*
Y715700D02*
D03*
X233680Y706700D02*
D03*
Y715700D02*
D03*
X61824Y402032D02*
D03*
Y393032D02*
D03*
X76200D02*
D03*
Y402032D02*
D03*
X86360Y393032D02*
D03*
Y402032D02*
D03*
X96520Y393032D02*
D03*
Y402032D02*
D03*
X101820Y452810D02*
D03*
Y443810D02*
D03*
X106680Y402032D02*
D03*
Y393032D02*
D03*
X238760Y360122D02*
D03*
Y351122D02*
D03*
X319190Y326970D02*
D03*
Y335970D02*
D03*
Y429950D02*
D03*
Y420950D02*
D03*
X132080Y732210D02*
D03*
Y723210D02*
D03*
Y756350D02*
D03*
Y747350D02*
D03*
X173990Y649550D02*
D03*
Y658550D02*
D03*
X104140Y774130D02*
D03*
Y765130D02*
D03*
X54610Y730940D02*
D03*
Y721940D02*
D03*
Y752540D02*
D03*
Y743540D02*
D03*
Y772860D02*
D03*
Y763860D02*
D03*
X83820Y774130D02*
D03*
Y765130D02*
D03*
X93980D02*
D03*
Y774130D02*
D03*
X278130Y288980D02*
D03*
Y279980D02*
D03*
X276200Y300062D02*
D03*
Y309062D02*
D03*
X478790Y507310D02*
D03*
Y516310D02*
D03*
X444468Y507310D02*
D03*
Y516310D02*
D03*
X318770Y257450D02*
D03*
Y248450D02*
D03*
X590550Y536520D02*
D03*
Y545520D02*
D03*
D23*
X62230Y320062D02*
D03*
Y335302D02*
D03*
D27*
X431800Y687705D02*
D03*
Y709295D02*
D03*
X478790Y646485D02*
D03*
Y668075D02*
D03*
X69267Y606425D02*
D03*
Y584835D02*
D03*
D28*
X487170Y598170D02*
D03*
X455170D02*
D03*
X328420Y552450D02*
D03*
X296420D02*
D03*
X328420Y626110D02*
D03*
X296420D02*
D03*
X328420Y577340D02*
D03*
X296420D02*
D03*
X328420Y601980D02*
D03*
X296420D02*
D03*
D32*
X360190Y642620D02*
D03*
X394190D02*
D03*
X110929Y525780D02*
D03*
X144930D02*
D03*
D33*
X265089Y257670D02*
D03*
X406059Y263480D02*
D03*
X73320Y258940D02*
D03*
X333670Y257670D02*
D03*
X133010Y258940D02*
D03*
X89830Y637400D02*
D03*
X206670Y263480D02*
D03*
D34*
X277789Y257670D02*
D03*
X290490D02*
D03*
X303190D02*
D03*
Y201790D02*
D03*
X290490D02*
D03*
X277789D02*
D03*
X265089D02*
D03*
X418759Y263480D02*
D03*
X431460D02*
D03*
X444160D02*
D03*
Y207600D02*
D03*
X431460D02*
D03*
X418759D02*
D03*
X406059D02*
D03*
X86019Y258940D02*
D03*
X98720D02*
D03*
X111419D02*
D03*
Y203060D02*
D03*
X98720D02*
D03*
X86019D02*
D03*
X73320D02*
D03*
X346370Y257670D02*
D03*
X359070D02*
D03*
X371769D02*
D03*
Y201790D02*
D03*
X359070D02*
D03*
X346370D02*
D03*
X333670D02*
D03*
X145709Y258940D02*
D03*
X158410D02*
D03*
X171110D02*
D03*
Y203060D02*
D03*
X158410D02*
D03*
X145709D02*
D03*
X133010D02*
D03*
X102529Y637400D02*
D03*
X115230D02*
D03*
X127929D02*
D03*
Y581520D02*
D03*
X115230D02*
D03*
X102529D02*
D03*
X89830D02*
D03*
X219370Y263480D02*
D03*
X232069D02*
D03*
X244769D02*
D03*
Y207600D02*
D03*
X232069D02*
D03*
X219370D02*
D03*
X206670D02*
D03*
D35*
X469401Y553682D02*
D03*
X459864Y530746D02*
D03*
X478939D02*
D03*
X434930Y553682D02*
D03*
X425393Y530746D02*
D03*
X444468D02*
D03*
D36*
X300609Y469900D02*
D03*
X316611D02*
D03*
X258191Y468182D02*
D03*
X242189D02*
D03*
X386189Y598170D02*
D03*
X402191D02*
D03*
X355219D02*
D03*
X371221D02*
D03*
X418719D02*
D03*
X434721D02*
D03*
X79629Y140970D02*
D03*
X95631D02*
D03*
X205359D02*
D03*
X221361D02*
D03*
X455549D02*
D03*
X471551D02*
D03*
X79629Y109220D02*
D03*
X95631D02*
D03*
X205359Y110490D02*
D03*
X221361D02*
D03*
X331089Y140970D02*
D03*
X347091D02*
D03*
X331089Y110490D02*
D03*
X347091D02*
D03*
X456096Y111760D02*
D03*
X472099D02*
D03*
D37*
X81970Y376682D02*
X86360Y381072D01*
Y393032D01*
X106680D01*
X76200D02*
X86360D01*
X61824D02*
X76200D01*
X270620Y381000D02*
X277550D01*
X290382Y375960D02*
X311018D01*
X311150Y375828D01*
X290250Y385960D02*
X311030D01*
X311150Y386080D01*
X388620Y71120D02*
X408540D01*
X425650Y88230D01*
X346370Y188890D02*
Y201790D01*
X333670Y188300D02*
Y201790D01*
X290490Y188890D02*
Y201790D01*
X303190Y188890D02*
Y201790D01*
X111419Y195543D02*
Y203060D01*
X25270Y88230D02*
X48730Y64770D01*
X107950D01*
X50270Y88230D02*
X69190Y69310D01*
X106069D01*
X73320Y195231D02*
Y203060D01*
X86019Y194800D02*
Y203060D01*
Y194800D02*
X97940Y182880D01*
X111242D01*
X98720Y195380D02*
Y203060D01*
Y195380D02*
X106680Y187420D01*
X113122D01*
X73320Y195231D02*
X90210Y178340D01*
X109361D01*
X116840Y170861D01*
X111242Y182880D02*
X121380Y172742D01*
X113122Y187420D02*
X125920Y174622D01*
X111419Y195543D02*
X130460Y176503D01*
X173650Y188300D02*
Y208620D01*
X107950Y64770D02*
X130460Y87280D01*
Y176503D01*
X106069Y69310D02*
X125920Y89160D01*
Y174622D01*
X311080Y178340D02*
X326190Y163230D01*
X331540Y182880D02*
X351190Y163230D01*
X359070Y187761D02*
Y201790D01*
Y187761D02*
X370840Y175990D01*
Y88900D02*
Y175990D01*
Y88900D02*
X388620Y71120D01*
X375380Y113500D02*
Y181481D01*
X371769Y185091D02*
X375380Y181481D01*
Y113500D02*
X400650Y88230D01*
X371769Y185091D02*
Y201790D01*
X434810Y179070D02*
X450650Y163230D01*
X455270Y183610D02*
X475650Y163230D01*
X160949Y192451D02*
Y201790D01*
X150460Y88230D02*
Y88230D01*
X160949Y192451D02*
X175600Y177800D01*
X173650Y188300D02*
X179610Y182340D01*
X175600Y177800D02*
X233610D01*
X243840Y167570D01*
X179610Y182340D02*
X235490D01*
X248380Y169450D01*
X244429Y192451D02*
X259810Y177070D01*
X242549Y187911D02*
X255270Y175189D01*
X359070Y250530D02*
X367030Y242570D01*
X290490Y245450D02*
Y257670D01*
X301720Y232950D02*
X302260Y232410D01*
X219370Y246040D02*
Y263480D01*
X232069Y207600D02*
Y220160D01*
X244769Y207600D02*
Y220160D01*
X219370Y199730D02*
Y207600D01*
Y199730D02*
X226649Y192451D01*
X244429D01*
X206670Y201000D02*
Y207600D01*
Y201000D02*
X219759Y187911D01*
X242549D01*
X133010Y189819D02*
Y203060D01*
X145709Y191430D02*
Y203060D01*
X138430Y184150D02*
X145709Y191430D01*
Y242910D02*
Y258940D01*
Y242910D02*
X152400Y236220D01*
X158410Y241640D02*
Y258940D01*
Y241640D02*
X168910Y231140D01*
X277789Y257670D02*
Y279980D01*
X275849Y350500D02*
X279630D01*
X280090Y350960D01*
X67650Y273050D02*
X85430Y290830D01*
X229400Y368300D02*
X238760D01*
X228710Y370840D02*
Y383540D01*
X254690Y415290D02*
X264850Y425450D01*
X228710Y408940D02*
X229373Y409603D01*
X228710Y370840D02*
Y408940D01*
X418759Y251119D02*
Y263480D01*
X396780Y247110D02*
X414750D01*
X418759Y251119D01*
X280780Y279980D02*
X286330D01*
X302950Y296600D01*
Y332740D01*
X346370Y257670D02*
Y290830D01*
X290490Y245450D02*
X298450Y237490D01*
X293300Y236220D02*
X296569Y232950D01*
X301720D01*
X168910Y231140D02*
X290830D01*
X294640Y227330D01*
X232069Y245450D02*
Y263480D01*
Y245450D02*
X241300Y236220D01*
X293300D01*
X238760Y360122D02*
Y370840D01*
X328870Y461010D02*
X415980D01*
X353870Y466090D02*
X417321D01*
X338870Y483141D02*
X419531D01*
X415980Y461010D02*
X445390Y431600D01*
X417321Y466090D02*
X449930Y433480D01*
X417391Y472440D02*
X454470Y435361D01*
X418731Y477520D02*
X459010Y437242D01*
X390470Y253420D02*
Y284480D01*
Y253420D02*
X396780Y247110D01*
X386080Y295910D02*
X390470Y291520D01*
Y284480D02*
Y291520D01*
X328870Y304800D02*
X337760Y295910D01*
X386080D01*
X303190Y257670D02*
Y271439D01*
X231302Y351122D02*
X238760D01*
X269930Y367030D02*
Y391160D01*
X254000Y367030D02*
X260930D01*
X276200Y309062D02*
Y315620D01*
X127929Y575650D02*
Y581520D01*
Y575650D02*
X135890Y567690D01*
X177110D01*
Y580390D01*
X115230Y569300D02*
Y581520D01*
X127000Y557530D02*
X198065D01*
X115230Y569300D02*
X127000Y557530D01*
X207065D02*
X217750D01*
X198065Y544830D02*
Y557530D01*
X127929Y637400D02*
X159330D01*
X115020Y666750D02*
X115230Y666541D01*
Y637400D02*
Y666541D01*
X134860D01*
X132080Y734760D02*
Y747350D01*
X127929Y581520D02*
X128270Y581861D01*
Y588010D01*
X355219Y598170D02*
Y637649D01*
X371221Y598170D02*
X386189D01*
X394190Y626890D02*
Y642620D01*
Y626890D02*
X402191Y618889D01*
Y598170D02*
Y618889D01*
Y598170D02*
X418719D01*
X434721D02*
X455170D01*
X419531Y483141D02*
X464098Y438574D01*
X367030Y242570D02*
X449360D01*
X461010Y254220D01*
X453382Y227330D02*
X474630Y248578D01*
X452041Y232410D02*
X470090Y250459D01*
X450700Y237490D02*
X465550Y252339D01*
X298450Y237490D02*
X450700D01*
X302260Y232410D02*
X452041D01*
X294640Y227330D02*
X453382D01*
X431460Y249830D02*
Y263480D01*
Y249830D02*
X433640Y247650D01*
X448019D01*
X456470Y256101D01*
X445390Y322960D02*
Y431600D01*
Y322960D02*
X456470Y311880D01*
Y256101D02*
Y311880D01*
X449930Y324841D02*
X461010Y313761D01*
X449930Y324841D02*
Y433480D01*
X454470Y326721D02*
Y435361D01*
Y326721D02*
X465550Y315641D01*
X459010Y328601D02*
X470090Y317521D01*
X459010Y328601D02*
Y437242D01*
X464098Y329935D02*
Y438574D01*
Y329935D02*
X474630Y319402D01*
X461010Y254220D02*
Y313761D01*
X465550Y252339D02*
Y315641D01*
X470090Y250459D02*
Y317521D01*
X474630Y248578D02*
Y319402D01*
X265089Y194991D02*
Y201790D01*
Y194991D02*
X281740Y178340D01*
X311080D01*
X277789Y188711D02*
Y201790D01*
Y188711D02*
X283621Y182880D01*
X331540D01*
X98720Y258940D02*
Y282869D01*
X102140Y286290D01*
X110891Y280870D02*
X167840D01*
X171450Y284480D01*
X175600Y279400D02*
X189230D01*
X255790Y345960D01*
X287710D01*
X171450Y284480D02*
X187889D01*
X254370Y350960D01*
X280090D01*
X330690Y290830D02*
X346370D01*
X248380Y80740D02*
Y169450D01*
X243840Y82620D02*
Y167570D01*
X150460Y88230D02*
X172649Y66040D01*
X233680D01*
X248380Y80740D01*
X175460Y88230D02*
X193110Y70580D01*
X231800D01*
X243840Y82620D01*
X75270Y88230D02*
X79629Y92589D01*
X95631Y92869D02*
X100270Y88230D01*
X95631Y92869D02*
Y105719D01*
Y115292D02*
X121380Y141040D01*
X95631Y109220D02*
Y115292D01*
X121380Y141040D02*
Y146709D01*
Y172742D01*
X93400Y107950D02*
X95631Y105719D01*
X79629Y117729D02*
X84455Y122555D01*
X96474D02*
X116840Y142921D01*
X79629Y92589D02*
Y117729D01*
X84455Y122555D02*
X96474D01*
X116840Y142921D02*
Y170861D01*
X95631Y140970D02*
Y158591D01*
X100270Y163230D01*
X79629Y140970D02*
Y158871D01*
X75270Y163230D02*
X79629Y158871D01*
X205359Y140970D02*
Y158331D01*
X200460Y163230D02*
X205359Y158331D01*
X221361Y140970D02*
Y159131D01*
X225460Y163230D01*
X205359Y93129D02*
Y110490D01*
X200460Y88230D02*
X205359Y93129D01*
X221361Y92329D02*
Y110490D01*
Y92329D02*
X225460Y88230D01*
X331089Y140970D02*
Y158331D01*
X326190Y163230D02*
X331089Y158331D01*
X347091Y140970D02*
Y159131D01*
X351190Y163230D01*
X347091Y110490D02*
Y117919D01*
Y92329D02*
Y110490D01*
Y92329D02*
X351190Y88230D01*
X331089Y93129D02*
Y110490D01*
X326190Y88230D02*
X331089Y93129D01*
X320929Y120650D02*
X331089Y110490D01*
X339820Y125190D02*
X347091Y117919D01*
X255270Y146050D02*
Y175189D01*
Y146050D02*
X280670Y120650D01*
X320929D01*
X259810Y147930D02*
Y177070D01*
Y147930D02*
X282551Y125190D01*
X339820D01*
X455549Y140970D02*
Y158331D01*
X450650Y163230D02*
X455549Y158331D01*
X471551Y140970D02*
Y159131D01*
X475650Y163230D01*
X456096Y93677D02*
Y111760D01*
X450650Y88230D02*
X456096Y93677D01*
X472099Y91782D02*
Y111760D01*
Y91782D02*
X475650Y88230D01*
X328930Y472440D02*
X417391D01*
X285170Y453390D02*
X333870D01*
X273160Y506730D02*
X279400D01*
X271200D02*
Y519430D01*
X292100Y469900D02*
X300609D01*
X299030Y471479D02*
Y483870D01*
Y471479D02*
X300609Y469900D01*
X251610Y419830D02*
X285170Y453390D01*
X226060Y415290D02*
X254690D01*
X224179Y419830D02*
X251610D01*
X223379Y425450D02*
X248340D01*
X195580Y397651D02*
X223379Y425450D01*
X200120Y395770D02*
X224179Y419830D01*
X204660Y327509D02*
Y393890D01*
X226060Y415290D01*
X162901Y285750D02*
X204660Y327509D01*
X102140Y286290D02*
X155480D01*
X200120Y330930D01*
Y395770D01*
X153600Y290830D02*
X195580Y332811D01*
Y397651D01*
X85430Y290830D02*
X153600D01*
X238760Y453390D02*
X250770D01*
X132630Y731490D02*
X133350Y732210D01*
X110520Y731490D02*
X132630D01*
X69837Y774130D02*
X104140D01*
X132080Y756350D02*
Y763270D01*
X406059Y200261D02*
Y207600D01*
X418759Y187330D02*
Y207600D01*
Y187330D02*
X422480Y183610D01*
X455270D01*
X406059Y200261D02*
X414220Y192101D01*
Y185450D02*
Y192101D01*
Y185450D02*
X420600Y179070D01*
X434810D01*
X431460Y188890D02*
Y207260D01*
X444160Y188890D02*
Y207600D01*
X244769Y263480D02*
Y281600D01*
X276200Y300062D02*
X289561D01*
X41910Y235980D02*
X48840Y242910D01*
X41910Y229870D02*
Y235980D01*
X119380Y226060D02*
X134620Y241300D01*
X86019Y235291D02*
Y258940D01*
Y235291D02*
X95250Y226060D01*
X119380D01*
X111419Y232911D02*
Y258940D01*
X171110D02*
X176900D01*
X183389Y265430D01*
X150201Y275250D02*
X166710D01*
X171110Y270851D01*
Y258940D02*
Y270851D01*
X319190Y335970D02*
X326120Y342900D01*
X343870D01*
X303190Y251800D02*
Y257670D01*
Y251800D02*
X306540Y248450D01*
X318770D01*
X371769Y257670D02*
Y268559D01*
X378460Y275250D01*
X444160Y263480D02*
Y283550D01*
X363910Y330890D02*
Y342910D01*
X396726Y370840D02*
X406400D01*
X373870Y412169D02*
Y423490D01*
X319190Y420730D02*
Y420950D01*
Y420730D02*
X326790Y413130D01*
X308030Y483870D02*
Y496104D01*
Y483870D02*
X314320D01*
X316611Y469900D02*
Y481579D01*
X314320Y483870D02*
X316611Y481579D01*
X252026Y519430D02*
X262200D01*
X251920Y506730D02*
X262200D01*
X191190Y520700D02*
Y530860D01*
X224790D02*
X233680Y539750D01*
X207065Y530915D02*
Y544830D01*
X207010Y530860D02*
X207065Y530915D01*
X191190Y530860D02*
X207010D01*
X224790D01*
X226750Y557530D02*
X233680Y550600D01*
Y539750D02*
Y550600D01*
X186110Y580390D02*
Y589860D01*
X168330Y624856D02*
Y637400D01*
X191656Y663537D02*
X200912D01*
X145470Y650746D02*
Y666541D01*
X69267Y584835D02*
X86515D01*
X69267Y606425D02*
Y627112D01*
X79555Y637400D01*
X89830D01*
X102529Y663260D02*
X106020Y666750D01*
X102529Y650360D02*
Y663260D01*
X45310Y537210D02*
Y558390D01*
X102529Y581520D02*
Y602910D01*
X261900Y561340D02*
Y571500D01*
X251460D02*
X261900D01*
X321659Y662949D02*
X335070D01*
X314666Y655955D02*
X321659Y662949D01*
X327660Y626110D02*
X328420D01*
X359410Y722120D02*
Y736600D01*
X439420Y734060D02*
Y759460D01*
X487170Y579630D02*
Y598170D01*
X328420Y552450D02*
Y577340D01*
Y601980D01*
X319460Y521970D02*
X325328D01*
X335489Y511810D01*
X425393Y516010D02*
Y530746D01*
X459864Y518036D02*
Y530746D01*
X320150Y375828D02*
Y386080D01*
X331758D01*
X219020Y370960D02*
Y381072D01*
X210236Y370960D02*
X219020D01*
X101820Y452810D02*
X121238D01*
X139700Y433070D02*
Y445770D01*
X182880Y469140D02*
X207065D01*
X224734D01*
X225692Y468182D02*
X242189D01*
X224734Y469140D02*
X225692Y468182D01*
X394190Y642620D02*
Y664700D01*
X397510Y668020D01*
X414483D01*
X590550Y545520D02*
Y554990D01*
X614379Y155910D02*
X622300D01*
X610180Y127246D02*
Y136410D01*
X350520Y477520D02*
X418731D01*
X260930Y381000D02*
Y391160D01*
Y408362D01*
X72970Y357704D02*
Y369570D01*
Y380420D01*
X62230Y335302D02*
X79652D01*
X81820Y337471D01*
Y349105D01*
X89820D01*
X81970Y349112D02*
Y369570D01*
Y376682D01*
X316230Y627380D02*
X326390D01*
X327660Y626110D01*
X328420Y601980D02*
Y626110D01*
X417397Y712470D02*
X420572Y709295D01*
X431800D01*
X82520Y741490D02*
X87915D01*
X92805Y736600D01*
X43880Y772860D02*
X54610D01*
X49437Y243507D02*
Y250190D01*
X48840Y242910D02*
X49437Y243507D01*
X104770Y363220D02*
X105816Y362174D01*
Y349105D02*
Y362174D01*
X110582Y373380D02*
X113817Y370145D01*
X104770Y373380D02*
X110582D01*
X113817Y349105D02*
Y370145D01*
X467360Y669290D02*
X477575D01*
D38*
X471860Y343270D02*
X478153D01*
X471860Y353270D02*
X478153D01*
X471860Y363270D02*
X478153D01*
X471860Y373270D02*
X478153D01*
X471860Y383470D02*
X478153D01*
X471860Y393629D02*
X478153D01*
X471860Y403789D02*
X478153D01*
X487154Y343270D02*
Y403789D01*
X415520Y370960D02*
X433640D01*
X606460Y446370D02*
X607050D01*
X606460D02*
Y498440D01*
X373870Y432490D02*
Y450650D01*
X363870Y304562D02*
X363910Y304602D01*
Y321890D01*
X518610Y125450D02*
X534840D01*
X539300Y129910D01*
X556930D01*
X518610Y135610D02*
X539920D01*
X540720Y136410D02*
X562050D01*
X539920Y135610D02*
X540720Y136410D01*
X518610Y145770D02*
X532110D01*
X534970Y142910D01*
X556930D01*
X561690Y149770D02*
X562050Y149410D01*
X532460Y149770D02*
X561690D01*
X526300Y155930D02*
X532460Y149770D01*
X518610Y155930D02*
X526300D01*
X542420Y162820D02*
X550840D01*
X556930Y168910D01*
X542420Y172980D02*
X550620D01*
X553050Y175410D01*
X562050D01*
X549310Y181910D02*
X556930D01*
X548080Y183140D02*
X549310Y181910D01*
X542420Y183140D02*
X548080D01*
X555400Y188410D02*
X562050D01*
X550510Y193300D02*
X555400Y188410D01*
X542764Y193300D02*
X550510D01*
X542420Y193644D02*
X542764Y193300D01*
X509610Y125450D02*
Y155930D01*
Y167530D01*
X515060Y172980D01*
X533420D01*
Y162820D02*
Y172980D01*
Y193644D01*
X331470Y262890D02*
X333670Y260690D01*
Y257670D02*
Y260690D01*
X94020Y747990D02*
Y765090D01*
X89020Y747990D02*
Y754260D01*
X83820Y759460D02*
X89020Y754260D01*
X83820Y759460D02*
Y765130D01*
X99020Y747990D02*
Y754025D01*
X104140Y759146D01*
Y765130D01*
X55340Y731490D02*
X82520D01*
X54610Y732220D02*
X55340Y731490D01*
X54610Y732220D02*
Y743540D01*
X72500Y736490D02*
X82520D01*
X66040Y742950D02*
X72500Y736490D01*
X66040Y742950D02*
Y749300D01*
X62800Y752540D02*
X66040Y749300D01*
X54610Y752540D02*
X62800D01*
X54610D02*
Y763860D01*
X244729Y696341D02*
Y706700D01*
X118000Y736490D02*
X120650Y739140D01*
X110520Y736490D02*
X118000D01*
X61824Y402032D02*
Y431394D01*
X77820Y419450D02*
Y431394D01*
X76200Y417830D02*
X77820Y419450D01*
X76200Y402032D02*
Y417830D01*
X85820Y418370D02*
Y431394D01*
X86360Y402032D02*
Y417830D01*
X85820Y418370D02*
X86360Y417830D01*
X93820Y415450D02*
Y431394D01*
Y415450D02*
X95250Y414020D01*
Y403302D02*
Y414020D01*
Y403302D02*
X96520Y402032D01*
X109820Y422590D02*
Y431486D01*
X106680Y419450D02*
X109820Y422590D01*
X106680Y402032D02*
Y419450D01*
X193040Y756340D02*
Y759460D01*
X223469Y653999D02*
X228600Y659130D01*
X214592Y653999D02*
X223469D01*
X104020Y747990D02*
Y750096D01*
X109220Y755295D01*
X173990Y649550D02*
X179079Y644462D01*
X191656D01*
X173990Y661090D02*
Y664555D01*
X233680Y681609D02*
X250000Y665290D01*
X233680Y681609D02*
Y706700D01*
X293880Y623570D02*
X296420Y626110D01*
X271200Y607279D02*
Y628269D01*
X256321Y607279D02*
X262200D01*
X256159Y585632D02*
X262038D01*
X476250Y430530D02*
X482020Y436300D01*
X444468Y516310D02*
Y530746D01*
X478939Y516459D02*
Y530746D01*
X444468Y507310D02*
X464240D01*
X477520Y494030D01*
Y439420D02*
Y494030D01*
X478790Y498417D02*
Y507310D01*
Y498417D02*
X482020Y495187D01*
Y436300D02*
Y495187D01*
X426758Y553682D02*
X434930D01*
X461700D02*
X469401D01*
X319190Y320460D02*
Y326970D01*
X487154Y403789D02*
Y413337D01*
X73320Y242910D02*
Y258940D01*
X59110Y242910D02*
X73320D01*
X123190Y265430D02*
X130460D01*
X133010Y262880D01*
Y258940D02*
Y262880D01*
X399267Y263480D02*
X406059D01*
X399267D02*
Y284277D01*
X399470Y284480D01*
X204720Y265430D02*
X206670Y263480D01*
X193659Y261620D02*
X199390D01*
X318770Y257450D02*
Y262880D01*
X331460D01*
X331470Y262890D01*
X597590Y155910D02*
X603830D01*
X319190Y428950D02*
Y436460D01*
X302260Y521970D02*
X310460D01*
X114880Y723210D02*
X132080D01*
X114300Y722630D02*
X114880Y723210D01*
X226640Y715700D02*
X233680D01*
X244729D01*
X186110Y567690D02*
X196284D01*
X101820Y431394D02*
Y431486D01*
Y443810D01*
X590550Y529590D02*
Y536520D01*
X533420Y193644D02*
Y223540D01*
X558800Y248920D01*
X576878D01*
X619180Y136410D02*
X625290D01*
X199390Y261620D02*
X204809D01*
X206670Y263480D01*
X62230Y303211D02*
Y320062D01*
X256159Y628269D02*
X262200D01*
X314960Y284100D02*
X321690Y290830D01*
X314960Y273050D02*
Y284100D01*
Y273050D02*
X318770Y269240D01*
Y262880D02*
Y269240D01*
X265089Y284830D02*
X269240Y288980D01*
X278130D01*
X265089Y271780D02*
Y284830D01*
Y257670D02*
Y271780D01*
X62230Y303211D02*
X69190Y296250D01*
X67579Y294640D02*
X69190Y296250D01*
X62230Y294640D02*
X67579D01*
D39*
X102529Y637400D02*
Y650360D01*
X89310Y537210D02*
X89830D01*
Y575170D01*
Y537210D02*
X113810D01*
Y524510D02*
Y537210D01*
X335070Y688348D02*
X335489Y687930D01*
X389890D02*
X431800D01*
X359410Y643400D02*
Y686310D01*
Y643400D02*
X360190Y642620D01*
X335489Y687930D02*
X389890D01*
X355219Y637649D02*
X360190Y642620D01*
X398780Y731930D02*
Y759460D01*
X273070Y688348D02*
X281949D01*
X287020Y693420D01*
Y759460D01*
X273070Y662949D02*
X291220D01*
X304800Y676529D01*
Y739140D01*
X325120Y759460D01*
D40*
X258191Y468182D02*
X274320D01*
X258191D02*
X259770Y466603D01*
Y453390D02*
Y466603D01*
D42*
X158594Y433360D02*
X189865D01*
X454660Y731520D02*
X477520Y754380D01*
D43*
Y759460D01*
D45*
X287020D02*
D03*
X325120D02*
D03*
X474980D02*
D03*
X436880D02*
D03*
X398780D02*
D03*
X193040D02*
D03*
X231140D02*
D03*
D46*
X745790Y77150D02*
D03*
X520700Y407670D02*
D03*
X546100Y331470D02*
D03*
X571500D02*
D03*
X596900D02*
D03*
X622300D02*
D03*
X647700D02*
D03*
X673100D02*
D03*
X698500D02*
D03*
Y407670D02*
D03*
X673100D02*
D03*
X647700D02*
D03*
X622300D02*
D03*
X596900D02*
D03*
X571500D02*
D03*
X546100D02*
D03*
X734060Y469900D02*
D03*
D47*
X719790Y77150D02*
D03*
D48*
X520700Y331470D02*
D03*
X734060Y444500D02*
D03*
D49*
X155068Y683362D02*
D03*
X155069Y583362D02*
D03*
X155069Y483362D02*
D03*
X12569Y333361D02*
D03*
X12569Y433361D02*
D03*
Y533361D02*
D03*
X12569Y633361D02*
D03*
X69268Y683363D02*
D03*
X44269Y483362D02*
D03*
X98269Y483361D02*
D03*
D50*
X155070Y455362D02*
D03*
X155070Y408362D02*
D03*
X155069Y383362D02*
D03*
X155070Y358362D02*
D03*
X131771Y312362D02*
D03*
X83771Y312362D02*
D03*
X35771Y312363D02*
D03*
X12570Y358361D02*
D03*
Y408361D02*
D03*
Y455361D02*
D03*
D51*
X189865Y702310D02*
D03*
X477520Y214630D02*
D03*
X25270Y274320D02*
D03*
X473080Y702310D02*
D03*
X189865Y433360D02*
D03*
D52*
X425650Y163230D02*
D03*
X450650D02*
D03*
X475650D02*
D03*
X400650D02*
D03*
Y88230D02*
D03*
X475650D02*
D03*
X450650D02*
D03*
X425650D02*
D03*
X175460D02*
D03*
X200460D02*
D03*
X225460D02*
D03*
X150460D02*
D03*
Y163230D02*
D03*
X225460D02*
D03*
X200460D02*
D03*
X175460D02*
D03*
X301190D02*
D03*
X326190D02*
D03*
X351190D02*
D03*
X276190D02*
D03*
Y88230D02*
D03*
X351190D02*
D03*
X326190D02*
D03*
X301190D02*
D03*
X50270D02*
D03*
X75270D02*
D03*
X100270D02*
D03*
X25270D02*
D03*
Y163230D02*
D03*
X100270D02*
D03*
X75270D02*
D03*
X50270D02*
D03*
X35820Y376742D02*
D03*
X131820D02*
D03*
D53*
X81820Y349105D02*
D03*
X89820D02*
D03*
X276860Y381000D02*
D03*
X289560Y375960D02*
D03*
Y385960D02*
D03*
X431460Y188890D02*
D03*
X444160D02*
D03*
X346370D02*
D03*
X333670Y188300D02*
D03*
X67650Y273050D02*
D03*
X248340Y425450D02*
D03*
X264850D02*
D03*
X280090Y350960D02*
D03*
X287710Y345960D02*
D03*
X102529Y650360D02*
D03*
X471860Y343270D02*
D03*
Y353270D02*
D03*
Y363270D02*
D03*
Y373270D02*
D03*
Y383470D02*
D03*
Y393629D02*
D03*
Y403789D02*
D03*
X433640Y370960D02*
D03*
X398480Y395960D02*
D03*
X606460Y498440D02*
D03*
X607050Y446370D02*
D03*
X572558Y525568D02*
D03*
X666750Y471170D02*
D03*
X590550Y529590D02*
D03*
X373870Y450650D02*
D03*
X290490Y188890D02*
D03*
X303190D02*
D03*
X343870Y342900D02*
D03*
X302950Y332740D02*
D03*
X232069Y220160D02*
D03*
X175600Y279400D02*
D03*
X244769Y220160D02*
D03*
X110891Y280870D02*
D03*
X162901Y285750D02*
D03*
X328870Y304800D02*
D03*
X363870Y304562D02*
D03*
X346370Y290830D02*
D03*
X152400Y236220D02*
D03*
X219370Y246040D02*
D03*
X134620Y241300D02*
D03*
X133010Y189819D02*
D03*
X138430Y184150D02*
D03*
X238760Y368300D02*
D03*
X333870Y453390D02*
D03*
X229373Y409603D02*
D03*
X562050Y188410D02*
D03*
X556930Y181910D02*
D03*
Y168910D02*
D03*
X562050Y175410D02*
D03*
X556930Y142910D02*
D03*
X562050Y149410D02*
D03*
X556930Y129910D02*
D03*
X562050Y136410D02*
D03*
X597590Y155910D02*
D03*
X625290Y136410D02*
D03*
X328870Y461010D02*
D03*
X353870Y466090D02*
D03*
X350520Y477520D02*
D03*
X338870Y483141D02*
D03*
X348870Y413130D02*
D03*
X398870Y413140D02*
D03*
X318770Y262880D02*
D03*
X303190Y271439D02*
D03*
X276200Y315620D02*
D03*
X245720D02*
D03*
X231302Y351122D02*
D03*
X254000Y367030D02*
D03*
X244729Y696341D02*
D03*
X173990Y664555D02*
D03*
X120650Y739140D02*
D03*
X61824Y431486D02*
D03*
X77820D02*
D03*
X85820D02*
D03*
X93820D02*
D03*
X101820D02*
D03*
X109820D02*
D03*
X228600Y659130D02*
D03*
X109220Y755295D02*
D03*
X250000Y665290D02*
D03*
X256159Y628269D02*
D03*
X256321Y607279D02*
D03*
X256159Y585632D02*
D03*
X274320Y468182D02*
D03*
X168910Y543560D02*
D03*
Y533400D02*
D03*
Y523240D02*
D03*
Y514350D02*
D03*
Y505460D02*
D03*
X280090Y598170D02*
D03*
Y589280D02*
D03*
Y580390D02*
D03*
Y571500D02*
D03*
Y608111D02*
D03*
X477520Y439420D02*
D03*
X476250Y430530D02*
D03*
X426758Y553682D02*
D03*
X461700D02*
D03*
X319190Y320460D02*
D03*
X487154Y413337D02*
D03*
X73320Y242910D02*
D03*
X123190Y265430D02*
D03*
X399267Y263480D02*
D03*
X93050Y242631D02*
D03*
X199390Y261620D02*
D03*
X265089Y271780D02*
D03*
X328930Y472440D02*
D03*
X319190Y436460D02*
D03*
X302260Y521970D02*
D03*
X279400Y506730D02*
D03*
X289560Y468182D02*
D03*
X326790Y400960D02*
D03*
X396760Y345960D02*
D03*
X383870Y343230D02*
D03*
X331590Y370960D02*
D03*
Y355960D02*
D03*
X238760Y453390D02*
D03*
X226640Y715700D02*
D03*
X66040Y716280D02*
D03*
X73660Y710565D02*
D03*
X69837Y774130D02*
D03*
X132080Y763270D02*
D03*
X244769Y281600D02*
D03*
X265089Y296250D02*
D03*
X289561Y300062D02*
D03*
X231870Y337621D02*
D03*
X49437Y250190D02*
D03*
X41910Y229870D02*
D03*
X111419Y232911D02*
D03*
X104140Y297180D02*
D03*
X150201Y275250D02*
D03*
X210820Y287710D02*
D03*
X276860Y241300D02*
D03*
X378460Y275250D02*
D03*
X415980Y283900D02*
D03*
X444160Y283550D02*
D03*
X487680Y264160D02*
D03*
X364270Y219940D02*
D03*
X327730Y277550D02*
D03*
X363910Y342910D02*
D03*
X396726Y370840D02*
D03*
X373870Y412169D02*
D03*
X326790Y413130D02*
D03*
X308030Y496104D02*
D03*
X314320Y483870D02*
D03*
X252026Y519430D02*
D03*
X251920Y506730D02*
D03*
X233680Y539750D02*
D03*
Y514350D02*
D03*
X196284Y567690D02*
D03*
X186110Y589860D02*
D03*
X168330Y624856D02*
D03*
X200912Y663537D02*
D03*
X145470Y650746D02*
D03*
X99285Y615950D02*
D03*
X118110D02*
D03*
X99285Y604034D02*
D03*
X118110D02*
D03*
X45310Y558390D02*
D03*
X251460Y571500D02*
D03*
X314666Y655955D02*
D03*
X316230Y627380D02*
D03*
X359410Y736600D02*
D03*
X417397Y712470D02*
D03*
X417830Y641350D02*
D03*
X433070D02*
D03*
Y622300D02*
D03*
X417830D02*
D03*
X487170Y579630D02*
D03*
X365760Y552450D02*
D03*
X335489Y511810D02*
D03*
X396726Y500266D02*
D03*
X425393Y516010D02*
D03*
X459864Y518036D02*
D03*
X331758Y386080D02*
D03*
X210236Y370960D02*
D03*
X182966Y365359D02*
D03*
X209830Y323850D02*
D03*
X73820Y349105D02*
D03*
X97815D02*
D03*
X121818D02*
D03*
X49820D02*
D03*
X45822Y431486D02*
D03*
X53823D02*
D03*
X117820D02*
D03*
X121238Y452810D02*
D03*
X139700Y445770D02*
D03*
X224734Y469140D02*
D03*
X467360Y669290D02*
D03*
X473710Y618490D02*
D03*
X590550Y554990D02*
D03*
X638810Y471170D02*
D03*
X681990Y529590D02*
D03*
X704351Y445827D02*
D03*
X601980Y232561D02*
D03*
X560650Y295330D02*
D03*
X560509Y260780D02*
D03*
X553339Y205359D02*
D03*
X579120Y248920D02*
D03*
X652780Y188410D02*
D03*
X639310Y107950D02*
D03*
X668860Y140540D02*
D03*
X662380Y111050D02*
D03*
X689050Y113590D02*
D03*
X535660Y50220D02*
D03*
X639310Y79240D02*
D03*
X611040Y72220D02*
D03*
X568960Y50220D02*
D03*
X564700Y162410D02*
D03*
X621030Y175260D02*
D03*
X610180Y127246D02*
D03*
X678180Y168910D02*
D03*
Y188410D02*
D03*
X690190Y202620D02*
D03*
X736920Y195260D02*
D03*
X702310Y182880D02*
D03*
X711910Y140410D02*
D03*
X791530Y168590D02*
D03*
X777950Y148850D02*
D03*
X776590Y122760D02*
D03*
X722134Y113804D02*
D03*
X260930Y408362D02*
D03*
X72970Y380420D02*
D03*
X215320Y236800D02*
D03*
X622300Y155910D02*
D03*
X100330Y736490D02*
D03*
X92805Y721360D02*
D03*
X96520Y728980D02*
D03*
X43880Y772860D02*
D03*
X586740Y293370D02*
D03*
X113817Y349105D02*
D03*
X105816D02*
D03*
X62230Y294640D02*
D03*
X74930D02*
D03*
X483870Y618490D02*
D03*
X102529Y660400D02*
D03*
D56*
X398780Y687930D02*
D03*
Y731930D02*
D03*
D57*
X359410Y722120D02*
D03*
Y690120D02*
D03*
X182880Y469140D02*
D03*
Y501140D02*
D03*
X207065Y469140D02*
D03*
Y501140D02*
D03*
D58*
X104020Y747990D02*
D03*
X99020D02*
D03*
X94020D02*
D03*
X89020D02*
D03*
Y709990D02*
D03*
X94020D02*
D03*
X99020D02*
D03*
X104020D02*
D03*
D59*
X82520Y741490D02*
D03*
Y736490D02*
D03*
Y731490D02*
D03*
Y726490D02*
D03*
Y721490D02*
D03*
Y716490D02*
D03*
X110520D02*
D03*
Y721490D02*
D03*
Y726490D02*
D03*
Y731490D02*
D03*
Y736490D02*
D03*
Y741490D02*
D03*
D60*
X96520Y728990D02*
D03*
D61*
X109220Y609600D02*
D03*
D62*
X89310Y537210D02*
D03*
X45310D02*
D03*
D63*
X214592Y653999D02*
D03*
X191656Y663537D02*
D03*
Y644462D02*
D03*
D64*
X273070Y662949D02*
D03*
Y688348D02*
D03*
X335070D02*
D03*
Y662949D02*
D03*
D65*
X439420Y731520D02*
D03*
X454660D02*
D03*
X139700Y433070D02*
D03*
X154940D02*
D03*
M02*
