%FSLAX44Y44*%
%MOMM*%
G71*
G01*
G75*
G04 Layer_Color=8388736*
%ADD10R,0.8000X0.8000*%
%ADD11O,2.0000X0.3500*%
%ADD12R,0.6502X1.0008*%
%ADD13R,1.2000X1.4000*%
%ADD14R,0.5000X0.6000*%
%ADD15R,2.0320X0.6096*%
%ADD16O,2.0320X0.6096*%
%ADD17R,2.6200X3.5100*%
%ADD18R,2.0000X0.6000*%
%ADD19O,2.0000X0.6000*%
%ADD20R,0.5004X2.0000*%
%ADD21R,0.6000X0.5000*%
G04:AMPARAMS|DCode=22|XSize=1.2mm|YSize=2.5mm|CornerRadius=0mm|HoleSize=0mm|Usage=FLASHONLY|Rotation=90.000|XOffset=0mm|YOffset=0mm|HoleType=Round|Shape=RoundedRectangle|*
%AMROUNDEDRECTD22*
21,1,1.2000,2.5000,0,0,90.0*
21,1,1.2000,2.5000,0,0,90.0*
1,1,0.0000,1.2500,0.6000*
1,1,0.0000,1.2500,-0.6000*
1,1,0.0000,-1.2500,-0.6000*
1,1,0.0000,-1.2500,0.6000*
%
%ADD22ROUNDEDRECTD22*%
%ADD23R,0.8128X0.8128*%
%ADD24R,1.5500X0.2500*%
%ADD25R,0.2500X1.5500*%
%ADD26R,3.4200X3.4200*%
%ADD27R,1.3970X1.3970*%
%ADD28R,1.2000X1.6000*%
%ADD29R,1.3970X1.3970*%
%ADD30R,1.6002X1.2954*%
%ADD31R,2.2000X2.0000*%
%ADD32R,1.9000X5.3000*%
%ADD33R,0.6096X2.0320*%
%ADD34O,0.6096X2.0320*%
%ADD35R,0.8128X1.0668*%
%ADD36R,0.8890X1.0160*%
%ADD37C,0.2540*%
%ADD38C,0.2000*%
%ADD39C,0.8000*%
%ADD40C,0.4000*%
%ADD41C,0.3000*%
%ADD42C,0.6000*%
%ADD43C,1.6000*%
%ADD44C,0.2560*%
%ADD45C,2.8000*%
%ADD46C,1.0000*%
%ADD47R,1.0000X1.0000*%
%ADD48R,1.0000X1.0000*%
%ADD49C,1.6500*%
%ADD50C,1.5240*%
G04:AMPARAMS|DCode=51|XSize=4mm|YSize=4mm|CornerRadius=2mm|HoleSize=0mm|Usage=FLASHONLY|Rotation=0.000|XOffset=0mm|YOffset=0mm|HoleType=Round|Shape=RoundedRectangle|*
%AMROUNDEDRECTD51*
21,1,4.0000,0.0000,0,0,0.0*
21,1,0.0000,4.0000,0,0,0.0*
1,1,4.0000,0.0000,0.0000*
1,1,4.0000,0.0000,0.0000*
1,1,4.0000,0.0000,0.0000*
1,1,4.0000,0.0000,0.0000*
%
%ADD51ROUNDEDRECTD51*%
%ADD52C,2.0000*%
%ADD53C,0.5000*%
%ADD54C,1.0000*%
%ADD55R,7.6776X7.7723*%
G04:AMPARAMS|DCode=56|XSize=2mm|YSize=2mm|CornerRadius=0mm|HoleSize=0mm|Usage=FLASHONLY|Rotation=270.000|XOffset=0mm|YOffset=0mm|HoleType=Round|Shape=RoundedRectangle|*
%AMROUNDEDRECTD56*
21,1,2.0000,2.0000,0,0,270.0*
21,1,2.0000,2.0000,0,0,270.0*
1,1,0.0000,-1.0000,-1.0000*
1,1,0.0000,-1.0000,1.0000*
1,1,0.0000,1.0000,1.0000*
1,1,0.0000,1.0000,-1.0000*
%
%ADD56ROUNDEDRECTD56*%
%ADD57R,1.6000X1.2000*%
%ADD58R,0.2000X0.6000*%
%ADD59R,0.6000X0.2000*%
%ADD60R,1.4000X2.2000*%
%ADD61R,3.5100X2.6200*%
G04:AMPARAMS|DCode=62|XSize=1.2mm|YSize=2.5mm|CornerRadius=0mm|HoleSize=0mm|Usage=FLASHONLY|Rotation=0.000|XOffset=0mm|YOffset=0mm|HoleType=Round|Shape=RoundedRectangle|*
%AMROUNDEDRECTD62*
21,1,1.2000,2.5000,0,0,0.0*
21,1,1.2000,2.5000,0,0,0.0*
1,1,0.0000,0.6000,-1.2500*
1,1,0.0000,-0.6000,-1.2500*
1,1,0.0000,-0.6000,1.2500*
1,1,0.0000,0.6000,1.2500*
%
%ADD62ROUNDEDRECTD62*%
%ADD63R,1.0668X0.8128*%
%ADD64R,1.2000X1.2000*%
%ADD65R,0.8128X0.8128*%
%ADD66C,0.1200*%
%ADD67C,0.1999*%
%ADD68C,0.2032*%
%ADD69C,0.1250*%
%ADD70C,0.1524*%
%ADD71C,0.1000*%
%ADD72R,0.9016X0.9016*%
%ADD73O,2.2032X0.5532*%
%ADD74R,0.8534X1.2040*%
%ADD75R,1.4032X1.6032*%
%ADD76R,0.7032X0.8032*%
%ADD77R,2.2352X0.8128*%
%ADD78O,2.2352X0.8128*%
%ADD79R,2.8232X3.7132*%
%ADD80R,2.2032X0.8032*%
%ADD81O,2.2032X0.8032*%
%ADD82R,0.6020X2.1016*%
%ADD83R,0.8032X0.7032*%
G04:AMPARAMS|DCode=84|XSize=1.4032mm|YSize=2.7032mm|CornerRadius=0mm|HoleSize=0mm|Usage=FLASHONLY|Rotation=90.000|XOffset=0mm|YOffset=0mm|HoleType=Round|Shape=RoundedRectangle|*
%AMROUNDEDRECTD84*
21,1,1.4032,2.7032,0,0,90.0*
21,1,1.4032,2.7032,0,0,90.0*
1,1,0.0000,1.3516,0.7016*
1,1,0.0000,1.3516,-0.7016*
1,1,0.0000,-1.3516,-0.7016*
1,1,0.0000,-1.3516,0.7016*
%
%ADD84ROUNDEDRECTD84*%
%ADD85R,1.0160X1.0160*%
%ADD86R,1.7532X0.4532*%
%ADD87R,0.4532X1.7532*%
%ADD88R,8.2200X8.2200*%
%ADD89R,1.6002X1.6002*%
%ADD90R,1.4032X1.8032*%
%ADD91R,1.6002X1.6002*%
%ADD92R,1.8034X1.4986*%
%ADD93R,2.4032X2.2032*%
%ADD94R,2.1032X5.5032*%
%ADD95R,0.8128X2.2352*%
%ADD96O,0.8128X2.2352*%
%ADD97R,1.0160X1.2700*%
%ADD98R,1.0922X1.2192*%
%ADD99C,3.0032*%
%ADD100C,1.2032*%
%ADD101R,1.2032X1.2032*%
%ADD102R,1.2032X1.2032*%
%ADD103C,1.7500*%
%ADD104C,1.6240*%
G04:AMPARAMS|DCode=105|XSize=4.2032mm|YSize=4.2032mm|CornerRadius=2.1016mm|HoleSize=0mm|Usage=FLASHONLY|Rotation=0.000|XOffset=0mm|YOffset=0mm|HoleType=Round|Shape=RoundedRectangle|*
%AMROUNDEDRECTD105*
21,1,4.2032,0.0000,0,0,0.0*
21,1,0.0000,4.2032,0,0,0.0*
1,1,4.2032,0.0000,0.0000*
1,1,4.2032,0.0000,0.0000*
1,1,4.2032,0.0000,0.0000*
1,1,4.2032,0.0000,0.0000*
%
%ADD105ROUNDEDRECTD105*%
%ADD106C,2.2032*%
%ADD107C,0.7032*%
D72*
X256159Y636270D02*
D03*
X239141D02*
D03*
X256159Y593090D02*
D03*
X239141D02*
D03*
X256159Y680030D02*
D03*
X239141D02*
D03*
X256321Y614680D02*
D03*
X239303D02*
D03*
X256159Y659130D02*
D03*
X239141D02*
D03*
D73*
X581310Y188410D02*
D03*
Y181910D02*
D03*
X639310Y188410D02*
D03*
Y181910D02*
D03*
X581310Y123410D02*
D03*
Y116910D02*
D03*
X639310Y123410D02*
D03*
Y116910D02*
D03*
Y129910D02*
D03*
Y136410D02*
D03*
Y142910D02*
D03*
Y149410D02*
D03*
Y155910D02*
D03*
Y162410D02*
D03*
Y168910D02*
D03*
Y175410D02*
D03*
X581310Y129910D02*
D03*
Y136410D02*
D03*
Y142910D02*
D03*
Y149410D02*
D03*
Y155910D02*
D03*
Y162410D02*
D03*
Y168910D02*
D03*
Y175410D02*
D03*
D74*
X702410Y149051D02*
D03*
X711910D02*
D03*
X721410D02*
D03*
Y174049D02*
D03*
X702410D02*
D03*
X673760Y445827D02*
D03*
X683260D02*
D03*
X692760D02*
D03*
Y470825D02*
D03*
X673760D02*
D03*
D75*
X581561Y50220D02*
D03*
Y72220D02*
D03*
X596561D02*
D03*
Y50220D02*
D03*
D76*
X222870Y286490D02*
D03*
X231870D02*
D03*
X617507Y446326D02*
D03*
X626507D02*
D03*
X346020Y635929D02*
D03*
X355020D02*
D03*
X373000Y648630D02*
D03*
X364000D02*
D03*
X581558Y516890D02*
D03*
X572558D02*
D03*
X683390Y149410D02*
D03*
X674390D02*
D03*
X748160Y149051D02*
D03*
X739160D02*
D03*
X184840Y285750D02*
D03*
X175840D02*
D03*
X247760Y379123D02*
D03*
X238760D02*
D03*
X337820Y277550D02*
D03*
X346820D02*
D03*
X359370Y291530D02*
D03*
X368370D02*
D03*
X324430Y635929D02*
D03*
X333430D02*
D03*
X659710Y168910D02*
D03*
X668710D02*
D03*
X769750Y122760D02*
D03*
X760750D02*
D03*
X771020Y148850D02*
D03*
X762020D02*
D03*
X569510Y233680D02*
D03*
X560509D02*
D03*
X408250Y263480D02*
D03*
X417250D02*
D03*
X222870Y317260D02*
D03*
X231870D02*
D03*
X182966Y354330D02*
D03*
X173966D02*
D03*
X182966Y323850D02*
D03*
X173966D02*
D03*
X569650Y283210D02*
D03*
X560650D02*
D03*
X569510Y248920D02*
D03*
X560509D02*
D03*
X238760Y409603D02*
D03*
X247760D02*
D03*
X231870Y296861D02*
D03*
Y307101D02*
D03*
X659710Y188410D02*
D03*
X668710D02*
D03*
X363800Y662940D02*
D03*
X372800D02*
D03*
X337820Y265430D02*
D03*
X346820D02*
D03*
X292210Y241300D02*
D03*
X283210D02*
D03*
X558220Y50220D02*
D03*
X549220D02*
D03*
X657280Y471170D02*
D03*
X648280D02*
D03*
X222870Y307101D02*
D03*
Y296861D02*
D03*
X173966Y344170D02*
D03*
Y334010D02*
D03*
X182966Y344170D02*
D03*
Y334010D02*
D03*
X238760Y399443D02*
D03*
Y389283D02*
D03*
X247760Y399443D02*
D03*
Y389283D02*
D03*
D77*
X453250Y610530D02*
D03*
D78*
Y623229D02*
D03*
Y635929D02*
D03*
Y648630D02*
D03*
X397370D02*
D03*
Y635929D02*
D03*
Y623229D02*
D03*
Y610530D02*
D03*
D79*
X425450Y629920D02*
D03*
D80*
X658460Y504190D02*
D03*
D81*
Y516890D02*
D03*
Y529590D02*
D03*
Y542290D02*
D03*
Y554990D02*
D03*
Y567690D02*
D03*
Y580390D02*
D03*
Y593090D02*
D03*
X606460D02*
D03*
Y580390D02*
D03*
Y567690D02*
D03*
Y554990D02*
D03*
Y542290D02*
D03*
Y529590D02*
D03*
Y516890D02*
D03*
Y504190D02*
D03*
D82*
X121818Y335747D02*
D03*
X97815D02*
D03*
X89820D02*
D03*
X81820D02*
D03*
X73820D02*
D03*
X49820D02*
D03*
X45822Y417738D02*
D03*
X53823D02*
D03*
X61824D02*
D03*
X69825D02*
D03*
X77820D02*
D03*
X85820D02*
D03*
X93820D02*
D03*
X101820D02*
D03*
X109820D02*
D03*
X117820D02*
D03*
X113817Y335747D02*
D03*
X105816D02*
D03*
X65820D02*
D03*
X57820D02*
D03*
D83*
X692760Y499800D02*
D03*
Y490800D02*
D03*
X676350Y120220D02*
D03*
Y129220D02*
D03*
X689050D02*
D03*
Y120220D02*
D03*
X639310Y97490D02*
D03*
Y88490D02*
D03*
X581310Y101280D02*
D03*
Y92280D02*
D03*
X722134Y131760D02*
D03*
Y122760D02*
D03*
X739160D02*
D03*
Y131760D02*
D03*
X748160Y186260D02*
D03*
Y195260D02*
D03*
X229870Y236800D02*
D03*
Y245800D02*
D03*
X123190Y258500D02*
D03*
Y249500D02*
D03*
X134620Y258500D02*
D03*
Y249500D02*
D03*
X93050Y278710D02*
D03*
Y287710D02*
D03*
X276200Y330890D02*
D03*
Y321890D02*
D03*
X245720D02*
D03*
Y330890D02*
D03*
X292250Y217750D02*
D03*
Y226750D02*
D03*
X656590Y446350D02*
D03*
Y455350D02*
D03*
X662380Y129220D02*
D03*
Y120220D02*
D03*
Y140540D02*
D03*
Y149540D02*
D03*
X199390Y281010D02*
D03*
Y290011D02*
D03*
X123190Y273630D02*
D03*
Y282630D02*
D03*
X265089Y278710D02*
D03*
Y287710D02*
D03*
X107950Y258500D02*
D03*
Y249500D02*
D03*
X478790Y657280D02*
D03*
Y648280D02*
D03*
X453390Y672520D02*
D03*
Y663520D02*
D03*
X366331Y473020D02*
D03*
Y482020D02*
D03*
X702410Y193620D02*
D03*
Y202620D02*
D03*
X369570Y626690D02*
D03*
Y635690D02*
D03*
X478790D02*
D03*
Y626690D02*
D03*
X358830Y277550D02*
D03*
Y268550D02*
D03*
X266120Y330890D02*
D03*
X255880D02*
D03*
X266120Y321890D02*
D03*
X255880D02*
D03*
D84*
X365760Y608740D02*
D03*
Y564740D02*
D03*
D85*
X586740Y283210D02*
D03*
Y267970D02*
D03*
X289561Y491490D02*
D03*
Y476250D02*
D03*
X25400Y241300D02*
D03*
Y226060D02*
D03*
X586740Y233680D02*
D03*
Y248920D02*
D03*
X274320Y491490D02*
D03*
Y476250D02*
D03*
X477520Y264160D02*
D03*
Y248920D02*
D03*
X290382Y521970D02*
D03*
Y506730D02*
D03*
D86*
X303370Y340960D02*
D03*
Y345960D02*
D03*
Y350960D02*
D03*
Y355960D02*
D03*
Y360960D02*
D03*
Y365960D02*
D03*
Y370960D02*
D03*
Y375960D02*
D03*
Y380960D02*
D03*
Y385960D02*
D03*
Y400960D02*
D03*
Y405960D02*
D03*
Y410960D02*
D03*
Y415960D02*
D03*
X419370D02*
D03*
Y410960D02*
D03*
Y405960D02*
D03*
Y400960D02*
D03*
Y395960D02*
D03*
Y390960D02*
D03*
Y385960D02*
D03*
Y380960D02*
D03*
Y375960D02*
D03*
Y370960D02*
D03*
Y365960D02*
D03*
Y360960D02*
D03*
Y355960D02*
D03*
Y350960D02*
D03*
Y345960D02*
D03*
Y340960D02*
D03*
X303370Y395960D02*
D03*
Y390960D02*
D03*
D87*
X323870Y436460D02*
D03*
X328870D02*
D03*
X333870D02*
D03*
X338870D02*
D03*
X343870D02*
D03*
X348870D02*
D03*
X353870D02*
D03*
X358870D02*
D03*
X363870D02*
D03*
X368870D02*
D03*
X373870D02*
D03*
X378870D02*
D03*
X383870D02*
D03*
X388870D02*
D03*
X393870D02*
D03*
X398870D02*
D03*
Y320460D02*
D03*
X393870D02*
D03*
X388870D02*
D03*
X383870D02*
D03*
X378870D02*
D03*
X373870D02*
D03*
X368870D02*
D03*
X363870D02*
D03*
X358870D02*
D03*
X353870D02*
D03*
X348870D02*
D03*
X343870D02*
D03*
X338870D02*
D03*
X333870D02*
D03*
X328870D02*
D03*
X323870D02*
D03*
D88*
X361370Y378460D02*
D03*
D89*
X296420Y634365D02*
D03*
Y655955D02*
D03*
X186690Y490855D02*
D03*
Y469265D02*
D03*
D90*
X219200Y539750D02*
D03*
X187200D02*
D03*
X219200Y514350D02*
D03*
X187200D02*
D03*
D91*
X421005Y586740D02*
D03*
X399415D02*
D03*
D92*
X751280Y168590D02*
D03*
X776680D02*
D03*
D93*
X313470Y207010D02*
D03*
X364270D02*
D03*
Y245110D02*
D03*
X313470D02*
D03*
D94*
X330690Y591820D02*
D03*
X296690D02*
D03*
D95*
X93050Y258940D02*
D03*
X188300D02*
D03*
D96*
X80351D02*
D03*
X67650D02*
D03*
X54950D02*
D03*
Y203060D02*
D03*
X67650D02*
D03*
X80351D02*
D03*
X93050D02*
D03*
X175600Y258940D02*
D03*
X162901D02*
D03*
X150201D02*
D03*
Y203060D02*
D03*
X162901D02*
D03*
X175600D02*
D03*
X188300D02*
D03*
D97*
X375818Y523202D02*
D03*
X385356Y500266D02*
D03*
X366281D02*
D03*
D98*
X569341Y217170D02*
D03*
X553339D02*
D03*
D99*
X287020Y759460D02*
D03*
X325120D02*
D03*
X474980D02*
D03*
X436880D02*
D03*
X398780D02*
D03*
X193040D02*
D03*
X231140D02*
D03*
D100*
X745790Y77150D02*
D03*
X520700Y407670D02*
D03*
X546100Y331470D02*
D03*
X571500D02*
D03*
X596900D02*
D03*
X622300D02*
D03*
X647700D02*
D03*
X673100D02*
D03*
X698500D02*
D03*
Y407670D02*
D03*
X673100D02*
D03*
X647700D02*
D03*
X622300D02*
D03*
X596900D02*
D03*
X571500D02*
D03*
X546100D02*
D03*
X734060Y469900D02*
D03*
D101*
X719790Y77150D02*
D03*
D102*
X520700Y331470D02*
D03*
X734060Y444500D02*
D03*
D103*
X155068Y683362D02*
D03*
X155069Y583362D02*
D03*
X155069Y483362D02*
D03*
X12569Y333361D02*
D03*
X12569Y433361D02*
D03*
Y533361D02*
D03*
X12569Y633361D02*
D03*
X69268Y683363D02*
D03*
X44269Y483362D02*
D03*
X98269Y483361D02*
D03*
D104*
X155070Y455362D02*
D03*
X155070Y408362D02*
D03*
X155069Y383362D02*
D03*
X155070Y358362D02*
D03*
X131771Y312362D02*
D03*
X83771Y312362D02*
D03*
X35771Y312363D02*
D03*
X12570Y358361D02*
D03*
Y408361D02*
D03*
Y455361D02*
D03*
D105*
X189865Y702310D02*
D03*
X477520Y214630D02*
D03*
X25270Y274320D02*
D03*
X473080Y702310D02*
D03*
X189865Y433360D02*
D03*
D106*
X425650Y163230D02*
D03*
X450650D02*
D03*
X475650D02*
D03*
X400650D02*
D03*
Y88230D02*
D03*
X475650D02*
D03*
X450650D02*
D03*
X425650D02*
D03*
X175460D02*
D03*
X200460D02*
D03*
X225460D02*
D03*
X150460D02*
D03*
Y163230D02*
D03*
X225460D02*
D03*
X200460D02*
D03*
X175460D02*
D03*
X301190D02*
D03*
X326190D02*
D03*
X351190D02*
D03*
X276190D02*
D03*
Y88230D02*
D03*
X351190D02*
D03*
X326190D02*
D03*
X301190D02*
D03*
X50270D02*
D03*
X75270D02*
D03*
X100270D02*
D03*
X25270D02*
D03*
Y163230D02*
D03*
X100270D02*
D03*
X75270D02*
D03*
X50270D02*
D03*
X35820Y376742D02*
D03*
X131820D02*
D03*
D107*
X81820Y349105D02*
D03*
X89820D02*
D03*
X276860Y381000D02*
D03*
X289560Y375960D02*
D03*
Y385960D02*
D03*
X431460Y188890D02*
D03*
X444160D02*
D03*
X346370D02*
D03*
X333670Y188300D02*
D03*
X67650Y273050D02*
D03*
X248340Y425450D02*
D03*
X264850D02*
D03*
X280090Y350960D02*
D03*
X287710Y345960D02*
D03*
X102529Y650360D02*
D03*
X471860Y343270D02*
D03*
Y353270D02*
D03*
Y363270D02*
D03*
Y373270D02*
D03*
Y383470D02*
D03*
Y393629D02*
D03*
Y403789D02*
D03*
X433640Y370960D02*
D03*
X398480Y395960D02*
D03*
X606460Y498440D02*
D03*
X607050Y446370D02*
D03*
X572558Y525568D02*
D03*
X666750Y471170D02*
D03*
X590550Y529590D02*
D03*
X373870Y450650D02*
D03*
X290490Y188890D02*
D03*
X303190D02*
D03*
X343870Y342900D02*
D03*
X302950Y332740D02*
D03*
X232069Y220160D02*
D03*
X175600Y279400D02*
D03*
X244769Y220160D02*
D03*
X110891Y280870D02*
D03*
X162901Y285750D02*
D03*
X328870Y304800D02*
D03*
X363870Y304562D02*
D03*
X346370Y290830D02*
D03*
X152400Y236220D02*
D03*
X219370Y246040D02*
D03*
X134620Y241300D02*
D03*
X133010Y189819D02*
D03*
X138430Y184150D02*
D03*
X238760Y368300D02*
D03*
X333870Y453390D02*
D03*
X229373Y409603D02*
D03*
X562050Y188410D02*
D03*
X556930Y181910D02*
D03*
Y168910D02*
D03*
X562050Y175410D02*
D03*
X556930Y142910D02*
D03*
X562050Y149410D02*
D03*
X556930Y129910D02*
D03*
X562050Y136410D02*
D03*
X597590Y155910D02*
D03*
X625290Y136410D02*
D03*
X328870Y461010D02*
D03*
X353870Y466090D02*
D03*
X350520Y477520D02*
D03*
X338870Y483141D02*
D03*
X348870Y413130D02*
D03*
X398870Y413140D02*
D03*
X318770Y262880D02*
D03*
X303190Y271439D02*
D03*
X276200Y315620D02*
D03*
X245720D02*
D03*
X231302Y351122D02*
D03*
X254000Y367030D02*
D03*
X244729Y696341D02*
D03*
X173990Y664555D02*
D03*
X120650Y739140D02*
D03*
X61824Y431486D02*
D03*
X77820D02*
D03*
X85820D02*
D03*
X93820D02*
D03*
X101820D02*
D03*
X109820D02*
D03*
X228600Y659130D02*
D03*
X109220Y755295D02*
D03*
X250000Y665290D02*
D03*
X256159Y628269D02*
D03*
X256321Y607279D02*
D03*
X256159Y585632D02*
D03*
X274320Y468182D02*
D03*
X168910Y543560D02*
D03*
Y533400D02*
D03*
Y523240D02*
D03*
Y514350D02*
D03*
Y505460D02*
D03*
X280090Y598170D02*
D03*
Y589280D02*
D03*
Y580390D02*
D03*
Y571500D02*
D03*
Y608111D02*
D03*
X477520Y439420D02*
D03*
X476250Y430530D02*
D03*
X426758Y553682D02*
D03*
X461700D02*
D03*
X319190Y320460D02*
D03*
X487154Y413337D02*
D03*
X73320Y242910D02*
D03*
X123190Y265430D02*
D03*
X399267Y263480D02*
D03*
X93050Y242631D02*
D03*
X199390Y261620D02*
D03*
X265089Y271780D02*
D03*
X328930Y472440D02*
D03*
X319190Y436460D02*
D03*
X302260Y521970D02*
D03*
X279400Y506730D02*
D03*
X289560Y468182D02*
D03*
X326790Y400960D02*
D03*
X396760Y345960D02*
D03*
X383870Y343230D02*
D03*
X331590Y370960D02*
D03*
Y355960D02*
D03*
X238760Y453390D02*
D03*
X226640Y715700D02*
D03*
X66040Y716280D02*
D03*
X73660Y710565D02*
D03*
X69837Y774130D02*
D03*
X132080Y763270D02*
D03*
X244769Y281600D02*
D03*
X265089Y296250D02*
D03*
X289561Y300062D02*
D03*
X231870Y337621D02*
D03*
X49437Y250190D02*
D03*
X41910Y229870D02*
D03*
X111419Y232911D02*
D03*
X104140Y297180D02*
D03*
X150201Y275250D02*
D03*
X210820Y287710D02*
D03*
X276860Y241300D02*
D03*
X378460Y275250D02*
D03*
X415980Y283900D02*
D03*
X444160Y283550D02*
D03*
X487680Y264160D02*
D03*
X364270Y219940D02*
D03*
X327730Y277550D02*
D03*
X363910Y342910D02*
D03*
X396726Y370840D02*
D03*
X373870Y412169D02*
D03*
X326790Y413130D02*
D03*
X308030Y496104D02*
D03*
X314320Y483870D02*
D03*
X252026Y519430D02*
D03*
X251920Y506730D02*
D03*
X233680Y539750D02*
D03*
Y514350D02*
D03*
X196284Y567690D02*
D03*
X186110Y589860D02*
D03*
X168330Y624856D02*
D03*
X200912Y663537D02*
D03*
X145470Y650746D02*
D03*
X99285Y615950D02*
D03*
X118110D02*
D03*
X99285Y604034D02*
D03*
X118110D02*
D03*
X45310Y558390D02*
D03*
X251460Y571500D02*
D03*
X314666Y655955D02*
D03*
X316230Y627380D02*
D03*
X359410Y736600D02*
D03*
X417397Y712470D02*
D03*
X417830Y641350D02*
D03*
X433070D02*
D03*
Y622300D02*
D03*
X417830D02*
D03*
X487170Y579630D02*
D03*
X365760Y552450D02*
D03*
X335489Y511810D02*
D03*
X396726Y500266D02*
D03*
X425393Y516010D02*
D03*
X459864Y518036D02*
D03*
X331758Y386080D02*
D03*
X210236Y370960D02*
D03*
X182966Y365359D02*
D03*
X209830Y323850D02*
D03*
X73820Y349105D02*
D03*
X97815D02*
D03*
X121818D02*
D03*
X49820D02*
D03*
X45822Y431486D02*
D03*
X53823D02*
D03*
X117820D02*
D03*
X121238Y452810D02*
D03*
X139700Y445770D02*
D03*
X224734Y469140D02*
D03*
X467360Y669290D02*
D03*
X473710Y618490D02*
D03*
X590550Y554990D02*
D03*
X638810Y471170D02*
D03*
X681990Y529590D02*
D03*
X704351Y445827D02*
D03*
X601980Y232561D02*
D03*
X560650Y295330D02*
D03*
X560509Y260780D02*
D03*
X553339Y205359D02*
D03*
X579120Y248920D02*
D03*
X652780Y188410D02*
D03*
X639310Y107950D02*
D03*
X668860Y140540D02*
D03*
X662380Y111050D02*
D03*
X689050Y113590D02*
D03*
X535660Y50220D02*
D03*
X639310Y79240D02*
D03*
X611040Y72220D02*
D03*
X568960Y50220D02*
D03*
X564700Y162410D02*
D03*
X621030Y175260D02*
D03*
X610180Y127246D02*
D03*
X678180Y168910D02*
D03*
Y188410D02*
D03*
X690190Y202620D02*
D03*
X736920Y195260D02*
D03*
X702310Y182880D02*
D03*
X711910Y140410D02*
D03*
X791530Y168590D02*
D03*
X777950Y148850D02*
D03*
X776590Y122760D02*
D03*
X722134Y113804D02*
D03*
X260930Y408362D02*
D03*
X72970Y380420D02*
D03*
X215320Y236800D02*
D03*
X622300Y155910D02*
D03*
X100330Y736490D02*
D03*
X92805Y721360D02*
D03*
X96520Y728980D02*
D03*
X43880Y772860D02*
D03*
X586740Y293370D02*
D03*
X113817Y349105D02*
D03*
X105816D02*
D03*
X62230Y294640D02*
D03*
X74930D02*
D03*
X483870Y618490D02*
D03*
X102529Y660400D02*
D03*
M02*
