%FSLAX44Y44*%
%MOMM*%
G71*
G01*
G75*
G04 Layer_Color=255*
%ADD10R,0.8000X0.8000*%
%ADD11O,2.0000X0.3500*%
%ADD12R,0.6502X1.0008*%
%ADD13R,1.2000X1.4000*%
%ADD14R,0.5000X0.6000*%
%ADD15R,2.0320X0.6096*%
%ADD16O,2.0320X0.6096*%
%ADD17R,2.6200X3.5100*%
%ADD18R,2.0000X0.6000*%
%ADD19O,2.0000X0.6000*%
%ADD20R,0.5004X2.0000*%
%ADD21R,0.6000X0.5000*%
G04:AMPARAMS|DCode=22|XSize=1.2mm|YSize=2.5mm|CornerRadius=0mm|HoleSize=0mm|Usage=FLASHONLY|Rotation=90.000|XOffset=0mm|YOffset=0mm|HoleType=Round|Shape=RoundedRectangle|*
%AMROUNDEDRECTD22*
21,1,1.2000,2.5000,0,0,90.0*
21,1,1.2000,2.5000,0,0,90.0*
1,1,0.0000,1.2500,0.6000*
1,1,0.0000,1.2500,-0.6000*
1,1,0.0000,-1.2500,-0.6000*
1,1,0.0000,-1.2500,0.6000*
%
%ADD22ROUNDEDRECTD22*%
%ADD23R,0.8128X0.8128*%
%ADD24R,1.5500X0.2500*%
%ADD25R,0.2500X1.5500*%
%ADD26R,3.4200X3.4200*%
%ADD27R,1.3970X1.3970*%
%ADD28R,1.2000X1.6000*%
%ADD29R,1.3970X1.3970*%
%ADD30R,1.6002X1.2954*%
%ADD31R,2.2000X2.0000*%
%ADD32R,1.9000X5.3000*%
%ADD33R,0.6096X2.0320*%
%ADD34O,0.6096X2.0320*%
%ADD35R,0.8128X1.0668*%
%ADD36R,0.8890X1.0160*%
%ADD37C,0.2540*%
%ADD38C,0.2000*%
%ADD39C,0.8000*%
%ADD40C,0.4000*%
%ADD41C,0.3000*%
%ADD42C,0.6000*%
%ADD43C,1.6000*%
%ADD44C,0.2560*%
%ADD45C,2.8000*%
%ADD46C,1.0000*%
%ADD47R,1.0000X1.0000*%
%ADD48R,1.0000X1.0000*%
%ADD49C,1.6500*%
%ADD50C,1.5240*%
G04:AMPARAMS|DCode=51|XSize=4mm|YSize=4mm|CornerRadius=2mm|HoleSize=0mm|Usage=FLASHONLY|Rotation=0.000|XOffset=0mm|YOffset=0mm|HoleType=Round|Shape=RoundedRectangle|*
%AMROUNDEDRECTD51*
21,1,4.0000,0.0000,0,0,0.0*
21,1,0.0000,4.0000,0,0,0.0*
1,1,4.0000,0.0000,0.0000*
1,1,4.0000,0.0000,0.0000*
1,1,4.0000,0.0000,0.0000*
1,1,4.0000,0.0000,0.0000*
%
%ADD51ROUNDEDRECTD51*%
%ADD52C,2.0000*%
%ADD53C,0.5000*%
%ADD54C,1.0000*%
%ADD55R,7.6776X7.7723*%
G04:AMPARAMS|DCode=56|XSize=2mm|YSize=2mm|CornerRadius=0mm|HoleSize=0mm|Usage=FLASHONLY|Rotation=270.000|XOffset=0mm|YOffset=0mm|HoleType=Round|Shape=RoundedRectangle|*
%AMROUNDEDRECTD56*
21,1,2.0000,2.0000,0,0,270.0*
21,1,2.0000,2.0000,0,0,270.0*
1,1,0.0000,-1.0000,-1.0000*
1,1,0.0000,-1.0000,1.0000*
1,1,0.0000,1.0000,1.0000*
1,1,0.0000,1.0000,-1.0000*
%
%ADD56ROUNDEDRECTD56*%
%ADD57R,1.6000X1.2000*%
%ADD58R,0.2000X0.6000*%
%ADD59R,0.6000X0.2000*%
%ADD60R,1.4000X2.2000*%
%ADD61R,3.5100X2.6200*%
G04:AMPARAMS|DCode=62|XSize=1.2mm|YSize=2.5mm|CornerRadius=0mm|HoleSize=0mm|Usage=FLASHONLY|Rotation=0.000|XOffset=0mm|YOffset=0mm|HoleType=Round|Shape=RoundedRectangle|*
%AMROUNDEDRECTD62*
21,1,1.2000,2.5000,0,0,0.0*
21,1,1.2000,2.5000,0,0,0.0*
1,1,0.0000,0.6000,-1.2500*
1,1,0.0000,-0.6000,-1.2500*
1,1,0.0000,-0.6000,1.2500*
1,1,0.0000,0.6000,1.2500*
%
%ADD62ROUNDEDRECTD62*%
%ADD63R,1.0668X0.8128*%
%ADD64R,1.2000X1.2000*%
%ADD65R,0.8128X0.8128*%
D14*
X478153Y353270D02*
D03*
X487154D02*
D03*
X168330Y637400D02*
D03*
X159330D02*
D03*
X145470Y666541D02*
D03*
X136470D02*
D03*
X415400Y370840D02*
D03*
X406400D02*
D03*
X269930Y391160D02*
D03*
X260930D02*
D03*
X269930Y381000D02*
D03*
X260930D02*
D03*
X259770Y453390D02*
D03*
X250770D02*
D03*
X271200Y519430D02*
D03*
X262200D02*
D03*
X271200Y506730D02*
D03*
X262200D02*
D03*
X310460Y521970D02*
D03*
X319460D02*
D03*
X299030Y483870D02*
D03*
X308030D02*
D03*
X186110Y580390D02*
D03*
X177110D02*
D03*
X478153Y383470D02*
D03*
X487154D02*
D03*
X72970Y369570D02*
D03*
X81970D02*
D03*
X72970Y357704D02*
D03*
X81970D02*
D03*
X95770Y373380D02*
D03*
X104770D02*
D03*
X95770Y363220D02*
D03*
X104770D02*
D03*
X228020Y381072D02*
D03*
X219020D02*
D03*
Y368300D02*
D03*
X228020D02*
D03*
X311150Y375828D02*
D03*
X320150D02*
D03*
X311150Y386080D02*
D03*
X320150D02*
D03*
X269930Y367030D02*
D03*
X260930D02*
D03*
X207065Y557530D02*
D03*
X198065D02*
D03*
Y544830D02*
D03*
X207065D02*
D03*
X177110Y567690D02*
D03*
X186110D02*
D03*
X217750Y557530D02*
D03*
X226750D02*
D03*
X115020Y666750D02*
D03*
X106020D02*
D03*
X478153Y373270D02*
D03*
X487154D02*
D03*
Y393629D02*
D03*
X478153D02*
D03*
X487154Y403789D02*
D03*
X478153D02*
D03*
X330690Y290830D02*
D03*
X321690D02*
D03*
X399470Y284480D02*
D03*
X390470D02*
D03*
X542420Y193644D02*
D03*
X533420D02*
D03*
X518610Y155930D02*
D03*
X509610D02*
D03*
X533420Y183140D02*
D03*
X542420D02*
D03*
X533420Y172980D02*
D03*
X542420D02*
D03*
Y162820D02*
D03*
X533420D02*
D03*
X518610Y145770D02*
D03*
X509610D02*
D03*
Y125450D02*
D03*
X518610D02*
D03*
X509610Y135610D02*
D03*
X518610D02*
D03*
X619180Y136410D02*
D03*
X610180D02*
D03*
X271200Y628269D02*
D03*
X262200D02*
D03*
X271200Y607279D02*
D03*
X262200D02*
D03*
X271200Y585470D02*
D03*
X262200D02*
D03*
X270900Y571500D02*
D03*
X261900D02*
D03*
X270900Y561340D02*
D03*
X261900D02*
D03*
X192390Y261620D02*
D03*
X183389D02*
D03*
X182190Y530860D02*
D03*
X191190D02*
D03*
Y520700D02*
D03*
X182190D02*
D03*
X48840Y242910D02*
D03*
X57840D02*
D03*
X603830Y155910D02*
D03*
X612830D02*
D03*
X478153Y363270D02*
D03*
X487154D02*
D03*
X478153Y343270D02*
D03*
X487154D02*
D03*
D21*
X373870Y432490D02*
D03*
Y423490D02*
D03*
X363910Y321890D02*
D03*
Y330890D02*
D03*
X244729Y706700D02*
D03*
Y715700D02*
D03*
X233680Y706700D02*
D03*
Y715700D02*
D03*
X61824Y402032D02*
D03*
Y393032D02*
D03*
X76200D02*
D03*
Y402032D02*
D03*
X86360Y393032D02*
D03*
Y402032D02*
D03*
X96520Y393032D02*
D03*
Y402032D02*
D03*
X101820Y452810D02*
D03*
Y443810D02*
D03*
X106680Y402032D02*
D03*
Y393032D02*
D03*
X238760Y360122D02*
D03*
Y351122D02*
D03*
X319190Y326970D02*
D03*
Y335970D02*
D03*
Y429950D02*
D03*
Y420950D02*
D03*
X132080Y732210D02*
D03*
Y723210D02*
D03*
Y756350D02*
D03*
Y747350D02*
D03*
X173990Y649550D02*
D03*
Y658550D02*
D03*
X104140Y774130D02*
D03*
Y765130D02*
D03*
X54610Y730940D02*
D03*
Y721940D02*
D03*
Y752540D02*
D03*
Y743540D02*
D03*
Y772860D02*
D03*
Y763860D02*
D03*
X83820Y774130D02*
D03*
Y765130D02*
D03*
X93980D02*
D03*
Y774130D02*
D03*
X278130Y288980D02*
D03*
Y279980D02*
D03*
X276200Y300062D02*
D03*
Y309062D02*
D03*
X478790Y507310D02*
D03*
Y516310D02*
D03*
X444468Y507310D02*
D03*
Y516310D02*
D03*
X318770Y257450D02*
D03*
Y248450D02*
D03*
X590550Y536520D02*
D03*
Y545520D02*
D03*
D23*
X62230Y320062D02*
D03*
Y335302D02*
D03*
D27*
X431800Y687705D02*
D03*
Y709295D02*
D03*
X478790Y646485D02*
D03*
Y668075D02*
D03*
X69267Y606425D02*
D03*
Y584835D02*
D03*
D28*
X487170Y598170D02*
D03*
X455170D02*
D03*
X328420Y552450D02*
D03*
X296420D02*
D03*
X328420Y626110D02*
D03*
X296420D02*
D03*
X328420Y577340D02*
D03*
X296420D02*
D03*
X328420Y601980D02*
D03*
X296420D02*
D03*
D32*
X360190Y642620D02*
D03*
X394190D02*
D03*
X110929Y525780D02*
D03*
X144930D02*
D03*
D33*
X265089Y257670D02*
D03*
X406059Y263480D02*
D03*
X73320Y258940D02*
D03*
X333670Y257670D02*
D03*
X133010Y258940D02*
D03*
X89830Y637400D02*
D03*
X206670Y263480D02*
D03*
D34*
X277789Y257670D02*
D03*
X290490D02*
D03*
X303190D02*
D03*
Y201790D02*
D03*
X290490D02*
D03*
X277789D02*
D03*
X265089D02*
D03*
X418759Y263480D02*
D03*
X431460D02*
D03*
X444160D02*
D03*
Y207600D02*
D03*
X431460D02*
D03*
X418759D02*
D03*
X406059D02*
D03*
X86019Y258940D02*
D03*
X98720D02*
D03*
X111419D02*
D03*
Y203060D02*
D03*
X98720D02*
D03*
X86019D02*
D03*
X73320D02*
D03*
X346370Y257670D02*
D03*
X359070D02*
D03*
X371769D02*
D03*
Y201790D02*
D03*
X359070D02*
D03*
X346370D02*
D03*
X333670D02*
D03*
X145709Y258940D02*
D03*
X158410D02*
D03*
X171110D02*
D03*
Y203060D02*
D03*
X158410D02*
D03*
X145709D02*
D03*
X133010D02*
D03*
X102529Y637400D02*
D03*
X115230D02*
D03*
X127929D02*
D03*
Y581520D02*
D03*
X115230D02*
D03*
X102529D02*
D03*
X89830D02*
D03*
X219370Y263480D02*
D03*
X232069D02*
D03*
X244769D02*
D03*
Y207600D02*
D03*
X232069D02*
D03*
X219370D02*
D03*
X206670D02*
D03*
D35*
X469401Y553682D02*
D03*
X459864Y530746D02*
D03*
X478939D02*
D03*
X434930Y553682D02*
D03*
X425393Y530746D02*
D03*
X444468D02*
D03*
D36*
X300609Y469900D02*
D03*
X316611D02*
D03*
X258191Y468182D02*
D03*
X242189D02*
D03*
X386189Y598170D02*
D03*
X402191D02*
D03*
X355219D02*
D03*
X371221D02*
D03*
X418719D02*
D03*
X434721D02*
D03*
X79629Y140970D02*
D03*
X95631D02*
D03*
X205359D02*
D03*
X221361D02*
D03*
X455549D02*
D03*
X471551D02*
D03*
X79629Y109220D02*
D03*
X95631D02*
D03*
X205359Y110490D02*
D03*
X221361D02*
D03*
X331089Y140970D02*
D03*
X347091D02*
D03*
X331089Y110490D02*
D03*
X347091D02*
D03*
X456096Y111760D02*
D03*
X472099D02*
D03*
D45*
X287020Y759460D02*
D03*
X325120D02*
D03*
X474980D02*
D03*
X436880D02*
D03*
X398780D02*
D03*
X193040D02*
D03*
X231140D02*
D03*
D46*
X745790Y77150D02*
D03*
X520700Y407670D02*
D03*
X546100Y331470D02*
D03*
X571500D02*
D03*
X596900D02*
D03*
X622300D02*
D03*
X647700D02*
D03*
X673100D02*
D03*
X698500D02*
D03*
Y407670D02*
D03*
X673100D02*
D03*
X647700D02*
D03*
X622300D02*
D03*
X596900D02*
D03*
X571500D02*
D03*
X546100D02*
D03*
X734060Y469900D02*
D03*
D47*
X719790Y77150D02*
D03*
D48*
X520700Y331470D02*
D03*
X734060Y444500D02*
D03*
D49*
X155068Y683362D02*
D03*
X155069Y583362D02*
D03*
X155069Y483362D02*
D03*
X12569Y333361D02*
D03*
X12569Y433361D02*
D03*
Y533361D02*
D03*
X12569Y633361D02*
D03*
X69268Y683363D02*
D03*
X44269Y483362D02*
D03*
X98269Y483361D02*
D03*
D50*
X155070Y455362D02*
D03*
X155070Y408362D02*
D03*
X155069Y383362D02*
D03*
X155070Y358362D02*
D03*
X131771Y312362D02*
D03*
X83771Y312362D02*
D03*
X35771Y312363D02*
D03*
X12570Y358361D02*
D03*
Y408361D02*
D03*
Y455361D02*
D03*
D51*
X189865Y702310D02*
D03*
X477520Y214630D02*
D03*
X25270Y274320D02*
D03*
X473080Y702310D02*
D03*
X189865Y433360D02*
D03*
D52*
X425650Y163230D02*
D03*
X450650D02*
D03*
X475650D02*
D03*
X400650D02*
D03*
Y88230D02*
D03*
X475650D02*
D03*
X450650D02*
D03*
X425650D02*
D03*
X175460D02*
D03*
X200460D02*
D03*
X225460D02*
D03*
X150460D02*
D03*
Y163230D02*
D03*
X225460D02*
D03*
X200460D02*
D03*
X175460D02*
D03*
X301190D02*
D03*
X326190D02*
D03*
X351190D02*
D03*
X276190D02*
D03*
Y88230D02*
D03*
X351190D02*
D03*
X326190D02*
D03*
X301190D02*
D03*
X50270D02*
D03*
X75270D02*
D03*
X100270D02*
D03*
X25270D02*
D03*
Y163230D02*
D03*
X100270D02*
D03*
X75270D02*
D03*
X50270D02*
D03*
D56*
X398780Y687930D02*
D03*
Y731930D02*
D03*
D57*
X359410Y722120D02*
D03*
Y690120D02*
D03*
X182880Y469140D02*
D03*
Y501140D02*
D03*
X207065Y469140D02*
D03*
Y501140D02*
D03*
D58*
X104020Y747990D02*
D03*
X99020D02*
D03*
X94020D02*
D03*
X89020D02*
D03*
Y709990D02*
D03*
X94020D02*
D03*
X99020D02*
D03*
X104020D02*
D03*
D59*
X82520Y741490D02*
D03*
Y736490D02*
D03*
Y731490D02*
D03*
Y726490D02*
D03*
Y721490D02*
D03*
Y716490D02*
D03*
X110520D02*
D03*
Y721490D02*
D03*
Y726490D02*
D03*
Y731490D02*
D03*
Y736490D02*
D03*
Y741490D02*
D03*
D60*
X96520Y728990D02*
D03*
D61*
X109220Y609600D02*
D03*
D62*
X89310Y537210D02*
D03*
X45310D02*
D03*
D63*
X214592Y653999D02*
D03*
X191656Y663537D02*
D03*
Y644462D02*
D03*
D64*
X273070Y662949D02*
D03*
Y688348D02*
D03*
X335070D02*
D03*
Y662949D02*
D03*
D65*
X439420Y731520D02*
D03*
X454660D02*
D03*
X139700Y433070D02*
D03*
X154940D02*
D03*
M02*
