M48
;Layer_Color=9474304
;FILE_FORMAT=4:4
METRIC,LZ
;TYPE=PLATED
T1F00S00C0.2500
T2F00S00C0.7620
T3F00S00C0.8500
T4F00S00C0.9500
T5F00S00C1.0500
T6F00S00C1.2700
T7F00S00C1.4000
T8F00S00C1.9000
T9F00S00C2.2000
%
T01
X0053566Y0005022
X0056896
X0061104Y0007222
X0063931Y0007924
Y0010795
X0066238Y0011105
X0068905Y0011359
X00722134Y00113804
X0071191Y0014041
X0066886Y0014054
X0067818Y0016891
Y0018841
X0065278
X0062103Y0017526
X006223Y0015591
X0062529Y0013641
X0061018Y00127246
X0059759Y0015591
X0060198Y00232561
X0069019Y0020262
X0070231Y0018288
X0073692Y0019526
X0079153Y0016859
X0077795Y0014885
X0077659Y0012276
X00704351Y00445827
X0066675Y0047117
X0063881
X0060705Y0044637
X0060646Y0049844
X0047752Y0043942
X0047625Y0043053
X00487154Y00413337
X0047186Y00403789
Y00393629
Y0038347
Y0037327
Y0036327
Y0035327
Y0034327
X0043364Y0037096
X00396726Y0037084
X0039676Y0034596
X0038387Y0034323
X0036391Y0034291
X0034387Y003429
X0033159Y0035596
Y0037096
X00331758Y0038608
X0032679Y0040096
Y0041313
X0034887
X0037387Y00412169
X0039887Y0041314
X0039848Y0039596
X0037387Y0045065
X0035387Y0046609
X0035052Y0047752
X0033887Y00483141
X0032893Y0047244
X0032887Y0046101
X0033387Y0045339
X0031919Y0043646
X0031432Y0048387
X0030803Y00496104
X002794Y0050673
X0025192
X0023368Y0051435
X00224734Y0046914
X0023876Y0045339
X0024834Y0042545
X0026485
X0026093Y00408362
X00229373Y00409603
X0023876Y003683
X00254Y0036703
X0027686Y00381
X0028956Y0038596
Y0037596
X0028771Y0034596
X0028009Y0035096
X002762Y0031562
X00289561Y00300062
X00265089Y0029625
Y0027178
X00244769Y002816
X0024572Y0031562
X0023187Y00337621
X00231302Y00351122
X00210236Y0037096
X0020983Y0032385
X0021082Y0028771
X0019939Y0026162
X0021937Y0024604
X0021532Y002368
X00232069Y0022016
X00244769
X0027686Y002413
X0030319Y00271439
X0031877Y0026288
X0032773Y0027755
X0032887Y003048
X0031919Y0032046
X0030295Y0033274
X0034637Y0029083
X0036387Y00304562
X0037846Y0027525
X00399267Y0026348
X0041598Y002839
X0044416Y0028355
X0048768Y0026416
X00560509Y0026078
X0057912Y0024892
X0058674Y0029337
X0056065Y0029533
X00553339Y00205359
X0056205Y0018841
X0055693Y0018191
X0056205Y0017541
X0055693Y0016891
X005647Y0016241
X0056205Y0014941
X0055693Y0014291
X0056205Y0013641
X0055693Y0012991
X0044416Y0018889
X0043146
X0034637
X0033367Y001883
X0030319Y0018889
X0029049
X0036427Y0021994
X00396726Y00500266
X00335489Y0051181
X0028956Y00468182
X0027432
X0016891Y0050546
Y0051435
X001397Y0044577
X00121238Y0045281
X0011782Y00431486
X0010982
X0010182
X0009382
X0008582
X0007782
X00061824
X00053823
X00045822
X0007297Y0038042
X0007382Y00349105
X0008182
X0008982
X00097815
X00105816
X00113817
X00121818
X0010414Y0029718
X00110891Y0028087
X0012319Y0026543
X0013462Y002413
X001524Y0023622
X00150201Y0027525
X00162901Y0028575
X001756Y002794
X00182966Y00365359
X0004982Y00349105
X0006223Y0029464
X0007493
X0006765Y0027305
X0007332Y0024291
X0009305Y00242631
X00111419Y00232911
X0013301Y00189819
X0013843Y0018415
X0004191Y0022987
X00049437Y0025019
X0004531Y0055839
X00099285Y00604034
Y0061595
X0011811
Y00604034
X00102529Y0065036
Y006604
X0014547Y00650746
X0017399Y00664555
X0016833Y00624856
X0018611Y0058986
X0016891Y0054356
Y005334
Y0052324
X0012065Y0073914
X0010033Y0073649
X0009652Y0072898
X00092805Y0072136
X0007366Y00710565
X0006604Y0071628
X00069837Y0077413
X0004388Y0077286
X0010922Y00755295
X0013208Y0076327
X0022664Y007157
X00244729Y00696341
X0025Y0066529
X002286Y0065913
X00200912Y00663537
X00256159Y00628269
X00256321Y00607279
X00256159Y00585632
X0025146Y005715
X0028009
Y0058039
Y0058928
Y0059817
Y00608111
X0031623Y0062738
X00314666Y00655955
X0041783Y0064135
X0043307
Y006223
X0041783
X0047371Y0061849
X0048387
X0048717Y0057963
X004617Y00553682
X00426758
X00425393Y0051601
X00459864Y00518036
X00572558Y00525568
X0036576Y0055245
X0030226Y0052197
X00252026Y0051943
X0023368Y0053975
X00196284Y0056769
X0035941Y007366
X00417397Y0071247
X0046736Y0066929
X0059055Y0055499
Y0052959
X0068199
T02
X0071979Y0007715
X0074579
X006985Y0033147
X006731
X006477
X006223
X005969
Y0040767
X006223
X006477
X006731
X006985
X0073406Y004445
Y004699
X005715Y0040767
X005461
X005207
Y0033147
X005461
X005715
T03
X00155069Y00383361
T04
X0003577Y00312365
X00083771Y00312364
X00131771Y00312363
X0015507Y00358363
X0015507Y00408363
X0015507Y00455363
X00012571Y00455362
Y00408362
Y00358362
T05
X0001257Y0033336
X0001257Y0043336
X00044269Y00483361
X00098269Y00483361
X00155069Y00483361
X00155069Y00583361
X00155068Y00683361
X00069267Y00683362
X0001257Y0063336
X0001257Y0053336
T06
X0002527Y0008823
X0005027
X0007527
X0010027
X0015046
X0017546
X0020046
X0022546
X0027619
X0030119
X0032619
X0035119
X0040065
X0042565
X0045065
X0047565
Y0016323
X0045065
X0042565
X0040065
X0035119
X0032619
X0030119
X0027619
X0022546
X0020046
X0017546
X0015046
X0010027
X0007527
X0005027
X0002527
T07
X0019304Y0075946
X0023114
X0028702
X0032512
X0039878
X0043688
X0047498
T08
X0003582Y00376742
X0013182
T09
X0047752Y0021463
X00189865Y0043336
X0002527Y0027432
X00189865Y0070231
X0047308
M30
